<?xml version="1.0" standalone="no"?>
<!DOCTYPE svg PUBLIC "-//W3C//DTD SVG 1.1//EN"
  "http://www.w3.org/Graphics/SVG/1.1/DTD/svg11.dtd">
<svg version="1.1" xmlns="http://www.w3.org/2000/svg" xmlns:xlink="http://www.w3.org/1999/xlink" width="7680" height="4320" viewBox="-1056 -40.5 1920 1080" id="ccdiagram"><filter id="grayscale"><feColorMatrix type="saturate" values="0"></feColorMatrix></filter><filter id="highlight"><feColorMatrix type="matrix" color-interpolation-filters="sRGB" values="0.20338 0 0 0 0
                0 0.58474 0 0 0
                0 0 0.97033 0 0
                0 0 0 1 0"></feColorMatrix></filter><defs><style type="text/css">@import url('https://fonts.googleapis.com/css2?family=Noto+Sans:ital,wght@0,100..900;1,100..900&amp;family=Roboto+Mono:ital,wght@0,100..700;1,100..700&amp;display=swap');</style></defs><g><rect x="-1056" y="-40.5" width="1920" height="1080" fill="#ffffff" id="interactionLayer"></rect><g style="pointer-events: none;"><g><pattern id="gridPatternMinor" x="0" y="37" width="128" height="74" patternUnits="userSpaceOnUse"><path d="M 0 0 L 128 74" stroke="#eeeeee" stroke-width="1"></path><path d="M 128 0 L 0 74" stroke="#eeeeee" stroke-width="1"></path></pattern><polygon points="0 0, 768 444, -192 999, -960 555" fill="url(#gridPatternMinor)"></polygon></g><polygon points="-960 555, -960 565, -192 1009, -192 999" stroke="#54626f" fill="#f9f9f9" stroke-linejoin="round" stroke-width="1"></polygon><polygon points="-192 1009, 768 454, 768 444, -192 999" stroke="#54626f" fill="#e2e2e2" stroke-linejoin="round" stroke-width="1"></polygon></g><g pointer-events="auto"></g><g style="pointer-events: none;"><g><pattern id="gridPatternMajor" x="0" y="37" width="128" height="74" patternUnits="userSpaceOnUse"><path d="M 64 0 L 128 37 64 74 0 37 z" stroke="#54626f" stroke-width="1" fill="none"></path></pattern><polygon points="0 0, 768 444, -192 999, -960 555" fill="url(#gridPatternMajor)"></polygon></g></g><g pointer-events="auto"><g><g class="cloud-maps_raptor_node" id="c9932f5c-1534-402e-b2a3-fb5d7d2ef8b6"><svg x="-32" y="130" overflow="visible"><polygon points="0 0, 512 296, 448 333, -64 37" fill="#f5b720"></polygon><polygon points="0 0, 512 296, 448 333, -64 37" fill="none" stroke-width="20" stroke="#f5b720" opacity="1"></polygon><g cursor="nwse-resize"><polygon points="0 0, -19 -11, 13 -30, -83 -11, -115 44, -83 26, -64 37" fill="#f5b720"></polygon><polygon points="512 296, 531 307, 563 289, 531 344, 435 363, 467 344, 448 333" fill="#f5b720"></polygon></g></svg></g></g></g><g pointer-events="auto"></g><g pointer-events="auto"></g><g pointer-events="auto"></g><g pointer-events="auto"></g><g pointer-events="auto"></g><g pointer-events="auto"></g><g pointer-events="auto"></g><g pointer-events="auto"></g><g pointer-events="auto"></g><g pointer-events="none"></g><g pointer-events="auto"><g id="ea4814f3-3d07-45b5-9dda-75a0eb8b0abf-f84d6028-d6ad-4fb8-bb49-0e9f6edabfca"><g cursor="cell"><line x1="-368" y1="324" x2="-112" y2="472" stroke="red" stroke-width="11" opacity="0"></line><line x1="-368" y1="324" x2="-112" y2="472" stroke="#000000" stroke-width="5" stroke-linecap="round"></line></g></g><g id="f4958bc8-4515-4076-a43d-254a12341a13-3e8b7882-eeaa-46e6-8cdc-79f22a91fd77"><g cursor="cell"><line x1="-384" y1="333" x2="-368" y2="324" stroke="red" stroke-width="11" opacity="0"></line><line x1="-384" y1="333" x2="-368" y2="324" stroke="#000000" stroke-width="5" stroke-linecap="round"></line></g></g><g id="22852ad6-edcd-483e-9d86-359121f3b8d5-e728fa38-7a63-4c08-a285-1c9b901188ff"><g cursor="cell"><line x1="-192" y1="444" x2="-176" y2="435" stroke="red" stroke-width="11" opacity="0"></line><line x1="-192" y1="444" x2="-176" y2="435" stroke="#000000" stroke-width="5" stroke-linecap="round"></line></g></g><g id="f84d6028-d6ad-4fb8-bb49-0e9f6edabfca-c1949a76-3d57-4e24-b1e2-604cc3261dd6"><g cursor="cell"><line x1="-112" y1="472" x2="-80" y2="453" stroke="red" stroke-width="11" opacity="0"></line><line x1="-112" y1="472" x2="-80" y2="453" stroke="#000000" stroke-width="5" stroke-linecap="round"></line></g></g><g id="45323f76-6ea2-4429-9473-f9acf0eff3f5-362d7351-0bb4-4032-9d15-50d04e7b3af4"><g cursor="cell"><line x1="16" y1="509" x2="78" y2="502" stroke="red" stroke-width="11" opacity="0"></line><line x1="16" y1="509" x2="78" y2="502" stroke="#000000" stroke-width="5" stroke-linecap="round"></line><polygon points="96 500, 60 494, 72 502, 66 512, 96 500" stroke-linejoin="round" fill="#000000" stroke="#000000" stroke-width="1"></polygon></g></g><g id="7dad48c8-b1fc-4cc8-9ac8-fbc0d81d34d4-7621db9a-9969-473a-94df-fef7e232978e"><g cursor="cell"><line x1="0" y1="555" x2="16" y2="546" stroke="red" stroke-width="11" opacity="0"></line><line x1="0" y1="555" x2="16" y2="546" stroke="#000000" stroke-width="5" stroke-linecap="round"></line></g></g><g id="e797050b-f8dd-4714-bf98-b35a8719fa63-c9932f5c-1534-402e-b2a3-fb5d7d2ef8b6"><g><g cursor="cell"><line x1="64" y1="370" x2="96" y2="352" stroke="red" stroke-width="11" opacity="0"></line><line x1="64" y1="370" x2="96" y2="352" stroke="#000000" stroke-width="5" stroke-linecap="round"></line></g><g cursor="cell"><line x1="-112" y1="213" x2="-77" y2="193" stroke="red" stroke-width="11" opacity="0"></line><line x1="-112" y1="213" x2="-77" y2="193" stroke="#000000" stroke-width="5" stroke-linecap="none"></line><polygon points="-64 185, -99 192, -81 195, -77 205, -64 185" stroke-linejoin="round" fill="#000000" stroke="#000000" stroke-width="1"></polygon></g><g cursor="cell"><line x1="-112" y1="231" x2="-112" y2="213" stroke="red" stroke-width="11" opacity="0"></line><line x1="-112" y1="231" x2="-112" y2="213" stroke="#000000" stroke-width="5" stroke-linecap="round"></line></g><g cursor="cell"><line x1="-38" y1="274" x2="12" y2="244" stroke="red" stroke-width="11" opacity="0"></line><line x1="-38" y1="274" x2="12" y2="244" stroke="#000000" stroke-width="5" stroke-linecap="none"></line><polygon points="26 237, -9 244, 8 247, 13 257, 26 237" stroke-linejoin="round" fill="#000000" stroke="#000000" stroke-width="1"></polygon></g><g cursor="cell"><line x1="51" y1="326" x2="102" y2="296" stroke="red" stroke-width="11" opacity="0"></line><line x1="51" y1="326" x2="102" y2="296" stroke="#000000" stroke-width="5" stroke-linecap="none"></line><polygon points="115 289, 80 296, 98 299, 102 309, 115 289" stroke-linejoin="round" fill="#000000" stroke="#000000" stroke-width="1"></polygon></g><g cursor="cell"><line x1="141" y1="377" x2="192" y2="348" stroke="red" stroke-width="11" opacity="0"></line><line x1="141" y1="377" x2="192" y2="348" stroke="#000000" stroke-width="5" stroke-linecap="none"></line><polygon points="205 340, 170 348, 188 350, 192 361, 205 340" stroke-linejoin="round" fill="#000000" stroke="#000000" stroke-width="1"></polygon></g><g cursor="cell"><line x1="230" y1="429" x2="281" y2="400" stroke="red" stroke-width="11" opacity="0"></line><line x1="230" y1="429" x2="281" y2="400" stroke="#000000" stroke-width="5" stroke-linecap="none"></line><polygon points="294 392, 259 400, 277 402, 282 412, 294 392" stroke-linejoin="round" fill="#000000" stroke="#000000" stroke-width="1"></polygon></g><g cursor="cell"><line x1="336" y1="472" x2="371" y2="452" stroke="red" stroke-width="11" opacity="0"></line><line x1="336" y1="472" x2="371" y2="452" stroke="#000000" stroke-width="5" stroke-linecap="none"></line><polygon points="384 444, 349 451, 367 454, 371 464, 384 444" stroke-linejoin="round" fill="#000000" stroke="#000000" stroke-width="1"></polygon></g><g cursor="cell"><line x1="304" y1="472" x2="336" y2="472" stroke="red" stroke-width="11" opacity="0"></line><line x1="304" y1="472" x2="336" y2="472" stroke="#000000" stroke-width="5" stroke-linecap="round"></line></g><g cursor="cell"><line x1="-112" y1="231" x2="304" y2="472" stroke="red" stroke-width="11" opacity="0"></line><line x1="-112" y1="231" x2="304" y2="472" stroke="#000000" stroke-width="5" stroke-linecap="round"></line></g></g></g><g id="9a8f3d12-9667-4713-8582-0fcd30211ed0-1fa20e62-d7d7-4195-bbd3-b41a8bd36f84"><g cursor="cell"><line x1="-176" y1="675" x2="-160" y2="666" stroke="red" stroke-width="11" opacity="0"></line><line x1="-176" y1="675" x2="-160" y2="666" stroke="#4286c5" stroke-width="5" stroke-linecap="round"></line></g></g><g id="3e8b7882-eeaa-46e6-8cdc-79f22a91fd77-89a1d016-f8e7-4cbb-a358-3acfd9d8e1c0"><g cursor="cell"><line x1="-368" y1="324" x2="-112" y2="472" stroke="red" stroke-width="11" opacity="0"></line><line x1="-368" y1="324" x2="-112" y2="472" stroke="#000000" stroke-width="5" stroke-linecap="round"></line></g></g><g id="41a684aa-fa32-4567-8b5f-7e2b2a9df7aa-8d53c26b-686c-4479-9704-f09b1852cc1a"><g cursor="cell"><line x1="-128" y1="629" x2="-448" y2="444" stroke="red" stroke-width="11" opacity="0"></line><line x1="-128" y1="629" x2="-448" y2="444" stroke="#00bcd4" stroke-width="5" stroke-linecap="round"></line></g></g><g id="e3306e8b-b255-4f87-beff-890bbaaa0950-aea3ab01-6170-470e-87ff-44ccb971a34e"><g cursor="cell"><line x1="-112" y1="472" x2="-80" y2="453" stroke="red" stroke-width="11" opacity="0"></line><line x1="-112" y1="472" x2="-80" y2="453" stroke="#000000" stroke-width="5" stroke-linecap="round"></line></g></g><g id="71b4f6b5-a657-4504-887e-9202c8b9122a-0709097c-b144-4d6d-b0ad-1b34d8bc14a3"><g cursor="cell"><line x1="-512" y1="481" x2="-448" y2="444" stroke="red" stroke-width="11" opacity="0"></line><line x1="-512" y1="481" x2="-448" y2="444" stroke="#00bcd4" stroke-width="5" stroke-linecap="round"></line></g></g><g id="1fa20e62-d7d7-4195-bbd3-b41a8bd36f84-3f2c2a08-5e73-44d6-a413-7b40193c2a35"><g cursor="cell"><line x1="-160" y1="666" x2="-352" y2="555" stroke="red" stroke-width="11" opacity="0"></line><line x1="-160" y1="666" x2="-352" y2="555" stroke="#4286c5" stroke-width="5" stroke-linecap="round"></line></g></g><g id="82507aa5-87b2-4e2b-b0ba-52d383a190cc-303ba7e6-c802-4588-ab8e-dc50be4ac6e9"><g cursor="cell"><line x1="-176" y1="398" x2="-164" y2="362" stroke="red" stroke-width="11" opacity="0"></line><line x1="-176" y1="398" x2="-164" y2="362" stroke="#000000" stroke-width="5" stroke-linecap="round"></line><polygon points="-160 352, -182 369, -165 365, -151 372, -160 352" stroke-linejoin="round" fill="#000000" stroke="#000000" stroke-width="1"></polygon></g></g><g id="02e094d4-66d5-44cf-84c5-fb6e2391f6cc-7b04809d-4c42-4286-b1b6-0664f481c12f"><g cursor="cell"><line x1="-368" y1="324" x2="-112" y2="472" stroke="red" stroke-width="11" opacity="0"></line><line x1="-368" y1="324" x2="-112" y2="472" stroke="#000000" stroke-width="5" stroke-linecap="round"></line></g></g><g id="3f2c2a08-5e73-44d6-a413-7b40193c2a35-1f0c9566-ec2d-4be6-ba77-0b27e274f6f8"><g cursor="cell"><line x1="-352" y1="555" x2="-285" y2="516" stroke="red" stroke-width="11" opacity="0"></line><line x1="-352" y1="555" x2="-285" y2="516" stroke="#4286c5" stroke-width="5" stroke-linecap="round"></line><polygon points="-272 509, -307 516, -289 519, -285 529, -272 509" stroke-linejoin="round" fill="#4286c5" stroke="#4286c5" stroke-width="1"></polygon></g></g><g id="f5f9ac39-437a-4813-b68d-5178148a7e40-c1949a76-3d57-4e24-b1e2-604cc3261dd6"><g cursor="cell"><line x1="-112" y1="472" x2="-80" y2="453" stroke="red" stroke-width="11" opacity="0"></line><line x1="-112" y1="472" x2="-80" y2="453" stroke="#000000" stroke-width="5" stroke-linecap="round"></line></g></g><g id="c110bb1f-1b9d-4ba1-93a6-ffa0978a34a1-22852ad6-edcd-483e-9d86-359121f3b8d5"><g cursor="cell"><line x1="-320" y1="518" x2="-301" y2="507" stroke="red" stroke-width="11" opacity="0"></line><line x1="-320" y1="518" x2="-301" y2="507" stroke="#00bcd4" stroke-width="5" stroke-linecap="round"></line><polygon points="-288 500, -323 507, -305 509, -301 520, -288 500" stroke-linejoin="round" fill="#00bcd4" stroke="#00bcd4" stroke-width="1"></polygon></g></g><g id="7b4d3fe7-192e-4bd1-a412-6118137baab6-9a8f3d12-9667-4713-8582-0fcd30211ed0"><g cursor="cell"><line x1="-192" y1="666" x2="-176" y2="675" stroke="red" stroke-width="11" opacity="0"></line><line x1="-192" y1="666" x2="-176" y2="675" stroke="#4286c5" stroke-width="5" stroke-linecap="round"></line></g></g><g id="7b04809d-4c42-4286-b1b6-0664f481c12f-7816e35f-1c18-4421-af81-042b3e65c306"><g cursor="cell"><line x1="-112" y1="472" x2="-80" y2="453" stroke="red" stroke-width="11" opacity="0"></line><line x1="-112" y1="472" x2="-80" y2="453" stroke="#000000" stroke-width="5" stroke-linecap="round"></line></g></g><g id="7816e35f-1c18-4421-af81-042b3e65c306-82507aa5-87b2-4e2b-b0ba-52d383a190cc"><g cursor="cell"><line x1="-80" y1="453" x2="-176" y2="398" stroke="red" stroke-width="11" opacity="0"></line><line x1="-80" y1="453" x2="-176" y2="398" stroke="#000000" stroke-width="5" stroke-linecap="round"></line></g></g><g id="0709097c-b144-4d6d-b0ad-1b34d8bc14a3-29eb6e8d-a0cd-4400-abef-4bac17b811ae"><g cursor="cell"><line x1="-448" y1="444" x2="-512" y2="407" stroke="red" stroke-width="11" opacity="0"></line><line x1="-448" y1="444" x2="-512" y2="407" stroke="#00bcd4" stroke-width="5" stroke-linecap="round"></line></g></g><g id="7b4d3fe7-192e-4bd1-a412-6118137baab6-ae80dca8-9d42-44aa-8523-13faab12a9f1"><g cursor="cell"><line x1="-192" y1="666" x2="-186" y2="670" stroke="red" stroke-width="8" opacity="0"></line><line x1="-192" y1="666" x2="-186" y2="670" stroke="#000000" stroke-width="2" stroke-linecap="round"></line><polygon points="-176 675, -185 660, -188 668, -202 670, -176 675" stroke-linejoin="round" fill="#000000" stroke="#000000" stroke-width="1"></polygon></g></g><g id="7621db9a-9969-473a-94df-fef7e232978e-f5f9ac39-437a-4813-b68d-5178148a7e40"><g cursor="cell"><line x1="16" y1="546" x2="-112" y2="472" stroke="red" stroke-width="11" opacity="0"></line><line x1="16" y1="546" x2="-112" y2="472" stroke="#000000" stroke-width="5" stroke-linecap="round"></line></g></g><g id="41a684aa-fa32-4567-8b5f-7e2b2a9df7aa-7dad48c8-b1fc-4cc8-9ac8-fbc0d81d34d4"><g cursor="cell"><line x1="-128" y1="629" x2="-109" y2="618" stroke="red" stroke-width="11" opacity="0"></line><line x1="-128" y1="629" x2="-109" y2="618" stroke="#00bcd4" stroke-width="5" stroke-linecap="round"></line><polygon points="-96 611, -131 618, -113 620, -109 631, -96 611" stroke-linejoin="round" fill="#00bcd4" stroke="#00bcd4" stroke-width="1"></polygon></g></g><g id="29eb6e8d-a0cd-4400-abef-4bac17b811ae-f4958bc8-4515-4076-a43d-254a12341a13"><g cursor="cell"><line x1="-512" y1="407" x2="-493" y2="396" stroke="red" stroke-width="11" opacity="0"></line><line x1="-512" y1="407" x2="-493" y2="396" stroke="#00bcd4" stroke-width="5" stroke-linecap="round"></line><polygon points="-480 389, -515 396, -497 398, -493 409, -480 389" stroke-linejoin="round" fill="#00bcd4" stroke="#00bcd4" stroke-width="1"></polygon></g></g><g id="296fb734-2471-4d2d-8d95-14a93e228c6d-e797050b-f8dd-4714-bf98-b35a8719fa63"><g cursor="cell"><line x1="-80" y1="453" x2="-45" y2="433" stroke="red" stroke-width="11" opacity="0"></line><line x1="-80" y1="453" x2="-45" y2="433" stroke="#000000" stroke-width="5" stroke-linecap="round"></line><polygon points="-32 426, -67 433, -49 435, -45 446, -32 426" stroke-linejoin="round" fill="#000000" stroke="#000000" stroke-width="1"></polygon></g></g><g id="c1949a76-3d57-4e24-b1e2-604cc3261dd6-879786a7-e450-4de2-bd71-71cdf3a9e337"><g cursor="cell"><line x1="-80" y1="453" x2="-288" y2="333" stroke="red" stroke-width="11" opacity="0"></line><line x1="-80" y1="453" x2="-288" y2="333" stroke="#000000" stroke-width="5" stroke-linecap="round"></line></g></g><g id="37383568-f86f-4eb1-84d8-2d4198b7cbdf-e813795a-af02-4413-835d-3374212e7810"><g cursor="cell"><line x1="128" y1="574" x2="205" y2="574" stroke="red" stroke-width="11" opacity="0"></line><line x1="128" y1="574" x2="205" y2="574" stroke="#000000" stroke-width="5" stroke-linecap="round"></line><polygon points="224 574, 190 564, 200 574, 190 583, 224 574" stroke-linejoin="round" fill="#000000" stroke="#000000" stroke-width="1"></polygon></g></g><g id="965c3212-1026-4fe5-bc73-66b4ee933531-45323f76-6ea2-4429-9473-f9acf0eff3f5"><g cursor="cell"><line x1="-80" y1="453" x2="16" y2="509" stroke="red" stroke-width="11" opacity="0"></line><line x1="-80" y1="453" x2="16" y2="509" stroke="#000000" stroke-width="5" stroke-linecap="round"></line></g></g><g id="3331afff-23aa-4f87-a70d-0a934748694a-e79d901a-e74d-4eeb-87cc-ac85a8e855b8"><g cursor="cell"><line x1="-112" y1="472" x2="-368" y2="324" stroke="red" stroke-width="11" opacity="0"></line><line x1="-112" y1="472" x2="-368" y2="324" stroke="#000000" stroke-width="5" stroke-linecap="round"></line></g></g><g id="89a1d016-f8e7-4cbb-a358-3acfd9d8e1c0-296fb734-2471-4d2d-8d95-14a93e228c6d"><g cursor="cell"><line x1="-112" y1="472" x2="-80" y2="453" stroke="red" stroke-width="11" opacity="0"></line><line x1="-112" y1="472" x2="-80" y2="453" stroke="#000000" stroke-width="5" stroke-linecap="round"></line></g></g><g id="a6277fa8-c300-429d-8fca-d67342a998f4-71b4f6b5-a657-4504-887e-9202c8b9122a"><g cursor="cell"><line x1="-680" y1="578" x2="-618" y2="542" stroke="red" stroke-width="8" opacity="0"></line><line x1="-680" y1="578" x2="-618" y2="542" stroke="#000000" stroke-width="2" stroke-linecap="round"></line><polygon points="-608 537, -634 542, -620 544, -617 551, -608 537" stroke-linejoin="round" fill="#000000" stroke="#000000" stroke-width="1"></polygon></g></g><g id="8057b4f5-797e-4442-9774-757186f72492-e3306e8b-b255-4f87-beff-890bbaaa0950"><g cursor="cell"><line x1="-368" y1="324" x2="-112" y2="472" stroke="red" stroke-width="11" opacity="0"></line><line x1="-368" y1="324" x2="-112" y2="472" stroke="#000000" stroke-width="5" stroke-linecap="round"></line></g></g><g id="8d53c26b-686c-4479-9704-f09b1852cc1a-71b4f6b5-a657-4504-887e-9202c8b9122a"><g cursor="cell"><line x1="-448" y1="444" x2="-512" y2="481" stroke="red" stroke-width="11" opacity="0"></line><line x1="-448" y1="444" x2="-512" y2="481" stroke="#00bcd4" stroke-width="5" stroke-linecap="round"></line></g></g><g id="747f9634-5850-493a-990e-f2783981c905-c110bb1f-1b9d-4ba1-93a6-ffa0978a34a1"><g cursor="cell"><line x1="-448" y1="444" x2="-320" y2="518" stroke="red" stroke-width="11" opacity="0"></line><line x1="-448" y1="444" x2="-320" y2="518" stroke="#00bcd4" stroke-width="5" stroke-linecap="round"></line></g></g><g id="71b4f6b5-a657-4504-887e-9202c8b9122a-747f9634-5850-493a-990e-f2783981c905"><g cursor="cell"><line x1="-512" y1="481" x2="-448" y2="444" stroke="red" stroke-width="11" opacity="0"></line><line x1="-512" y1="481" x2="-448" y2="444" stroke="#00bcd4" stroke-width="5" stroke-linecap="round"></line></g></g><g id="e728fa38-7a63-4c08-a285-1c9b901188ff-f5f9ac39-437a-4813-b68d-5178148a7e40"><g cursor="cell"><line x1="-176" y1="435" x2="-112" y2="472" stroke="red" stroke-width="11" opacity="0"></line><line x1="-176" y1="435" x2="-112" y2="472" stroke="#000000" stroke-width="5" stroke-linecap="round"></line></g></g><g id="879786a7-e450-4de2-bd71-71cdf3a9e337-c3ed5d78-c245-42e1-92ff-e344608a384f"><g cursor="cell"><line x1="-288" y1="333" x2="-288" y2="288" stroke="red" stroke-width="11" opacity="0"></line><line x1="-288" y1="333" x2="-288" y2="288" stroke="#000000" stroke-width="5" stroke-linecap="round"></line><polygon points="-288 278, -304 297, -288 292, -272 297, -288 278" stroke-linejoin="round" fill="#000000" stroke="#000000" stroke-width="1"></polygon></g></g><g id="f4958bc8-4515-4076-a43d-254a12341a13-ea4814f3-3d07-45b5-9dda-75a0eb8b0abf"><g cursor="cell"><line x1="-384" y1="333" x2="-368" y2="324" stroke="red" stroke-width="11" opacity="0"></line><line x1="-384" y1="333" x2="-368" y2="324" stroke="#000000" stroke-width="5" stroke-linecap="round"></line></g></g><g id="aea3ab01-6170-470e-87ff-44ccb971a34e-37383568-f86f-4eb1-84d8-2d4198b7cbdf"><g cursor="cell"><line x1="-80" y1="453" x2="128" y2="574" stroke="red" stroke-width="11" opacity="0"></line><line x1="-80" y1="453" x2="128" y2="574" stroke="#000000" stroke-width="5" stroke-linecap="round"></line></g></g><g id="e79d901a-e74d-4eeb-87cc-ac85a8e855b8-f4958bc8-4515-4076-a43d-254a12341a13"><g cursor="cell"><line x1="-368" y1="324" x2="-384" y2="333" stroke="red" stroke-width="11" opacity="0"></line><line x1="-368" y1="324" x2="-384" y2="333" stroke="#000000" stroke-width="5" stroke-linecap="round"></line></g></g><g id="ae80dca8-9d42-44aa-8523-13faab12a9f1-4cfc27fc-4bcf-4863-b9bb-e9772bd0a4e8"><g cursor="cell"><line x1="-176" y1="675" x2="-93" y2="627" stroke="red" stroke-width="11" opacity="0"></line><line x1="-176" y1="675" x2="-93" y2="627" stroke="#4286c5" stroke-width="5" stroke-linecap="round"></line><polygon points="-80 620, -115 627, -97 630, -93 640, -80 620" stroke-linejoin="round" fill="#4286c5" stroke="#4286c5" stroke-width="1"></polygon></g></g><g id="f4958bc8-4515-4076-a43d-254a12341a13-02e094d4-66d5-44cf-84c5-fb6e2391f6cc"><g cursor="cell"><line x1="-384" y1="333" x2="-368" y2="324" stroke="red" stroke-width="11" opacity="0"></line><line x1="-384" y1="333" x2="-368" y2="324" stroke="#000000" stroke-width="5" stroke-linecap="round"></line></g></g><g id="f4958bc8-4515-4076-a43d-254a12341a13-8057b4f5-797e-4442-9774-757186f72492"><g cursor="cell"><line x1="-384" y1="333" x2="-368" y2="324" stroke="red" stroke-width="11" opacity="0"></line><line x1="-384" y1="333" x2="-368" y2="324" stroke="#000000" stroke-width="5" stroke-linecap="round"></line></g></g><g id="a7ee7391-8e9d-4494-afc0-b9475c980e17-7b4d3fe7-192e-4bd1-a412-6118137baab6"><g cursor="cell"><line x1="-360" y1="763" x2="-298" y2="727" stroke="red" stroke-width="8" opacity="0"></line><line x1="-360" y1="763" x2="-298" y2="727" stroke="#000000" stroke-width="2" stroke-linecap="round"></line><polygon points="-288 722, -314 727, -300 729, -297 736, -288 722" stroke-linejoin="round" fill="#000000" stroke="#000000" stroke-width="1"></polygon></g></g><g id="965c3212-1026-4fe5-bc73-66b4ee933531-3331afff-23aa-4f87-a70d-0a934748694a"><g cursor="cell"><line x1="-80" y1="453" x2="-112" y2="472" stroke="red" stroke-width="11" opacity="0"></line><line x1="-80" y1="453" x2="-112" y2="472" stroke="#000000" stroke-width="5" stroke-linecap="round"></line></g></g></g><g pointer-events="auto"><g><g class="cloud-maps_raptor_node" id="5b36ceab-da5d-4c69-b1f8-8a6cf80f44c4"><svg x="-96" y="93" width="128" height="111" fill-rule="evenodd" stroke-linejoin="round" stroke-miterlimit="1.414"><path fill="#b8b8bb" d="M64 74v37l64-37V37L64 74Z"></path><path fill="#d2d2d4" d="M0 37v37l64 37V74L0 37Z"></path><path fill="#ececed" d="M0 37 64 0l64 37-64 37L0 37Z"></path><path fill="#83838a" d="m64 73.407 62.111-35.86.514.889-62.487 36.078h-.276L.743 38.072l.514-.89L64 73.407Z"></path><path fill="#83838a" d="M63.486 74h1.027v36h-1.027z"></path><path fill="#000000" d="M128 37v37l-64 37L0 74V37L64 0l64 37ZM2.054 38.185v34.63L64 108.627l61.946-35.812v-34.63L64 2.373 2.054 38.185Z"></path></svg></g></g><g><g class="cloud-maps_raptor_node" id="8be60040-6bac-418a-9283-752186a0afa1"><svg x="-6" y="144" width="128" height="111" fill-rule="evenodd" stroke-linejoin="round" stroke-miterlimit="1.414"><path fill="#b8b8bb" d="M64 74v37l64-37V37L64 74Z"></path><path fill="#d2d2d4" d="M0 37v37l64 37V74L0 37Z"></path><path fill="#ececed" d="M0 37 64 0l64 37-64 37L0 37Z"></path><path fill="#83838a" d="m64 73.407 62.111-35.86.514.889-62.487 36.078h-.276L.743 38.072l.514-.89L64 73.407Z"></path><path fill="#83838a" d="M63.486 74h1.027v36h-1.027z"></path><path fill="#000000" d="M128 37v37l-64 37L0 74V37L64 0l64 37ZM2.054 38.185v34.63L64 108.627l61.946-35.812v-34.63L64 2.373 2.054 38.185Z"></path></svg></g></g><g><g class="cloud-maps_raptor_node" id="3ba71776-2f57-4806-9600-9ffd3e5b11b1"><svg x="83" y="196" width="128" height="111" fill-rule="evenodd" stroke-linejoin="round" stroke-miterlimit="1.414"><path fill="#b8b8bb" d="M64 74v37l64-37V37L64 74Z"></path><path fill="#d2d2d4" d="M0 37v37l64 37V74L0 37Z"></path><path fill="#ececed" d="M0 37 64 0l64 37-64 37L0 37Z"></path><path fill="#83838a" d="m64 73.407 62.111-35.86.514.889-62.487 36.078h-.276L.743 38.072l.514-.89L64 73.407Z"></path><path fill="#83838a" d="M63.486 74h1.027v36h-1.027z"></path><path fill="#000000" d="M128 37v37l-64 37L0 74V37L64 0l64 37ZM2.054 38.185v34.63L64 108.627l61.946-35.812v-34.63L64 2.373 2.054 38.185Z"></path></svg></g></g><g><g class="cloud-maps_raptor_node" id="76c5842f-50f5-44cd-92f7-88c00146c87d"><svg x="173" y="248" width="128" height="111" fill-rule="evenodd" stroke-linejoin="round" stroke-miterlimit="1.414"><path fill="#b8b8bb" d="M64 74v37l64-37V37L64 74Z"></path><path fill="#d2d2d4" d="M0 37v37l64 37V74L0 37Z"></path><path fill="#ececed" d="M0 37 64 0l64 37-64 37L0 37Z"></path><path fill="#83838a" d="m64 73.407 62.111-35.86.514.889-62.487 36.078h-.276L.743 38.072l.514-.89L64 73.407Z"></path><path fill="#83838a" d="M63.486 74h1.027v36h-1.027z"></path><path fill="#000000" d="M128 37v37l-64 37L0 74V37L64 0l64 37ZM2.054 38.185v34.63L64 108.627l61.946-35.812v-34.63L64 2.373 2.054 38.185Z"></path></svg></g></g><g><g class="cloud-maps_raptor_node" id="ad06068d-71e2-4d33-8b66-68b5b29e04bb"><svg x="262" y="300" width="128" height="111" fill-rule="evenodd" stroke-linejoin="round" stroke-miterlimit="1.414"><path fill="#b8b8bb" d="M64 74v37l64-37V37L64 74Z"></path><path fill="#d2d2d4" d="M0 37v37l64 37V74L0 37Z"></path><path fill="#ececed" d="M0 37 64 0l64 37-64 37L0 37Z"></path><path fill="#83838a" d="m64 73.407 62.111-35.86.514.889-62.487 36.078h-.276L.743 38.072l.514-.89L64 73.407Z"></path><path fill="#83838a" d="M63.486 74h1.027v36h-1.027z"></path><path fill="#000000" d="M128 37v37l-64 37L0 74V37L64 0l64 37ZM2.054 38.185v34.63L64 108.627l61.946-35.812v-34.63L64 2.373 2.054 38.185Z"></path></svg></g></g><g><g class="cloud-maps_raptor_node" id="58069867-f6fd-4d53-851d-bf1cb57a4bc2"><svg x="352" y="352" width="128" height="111" fill-rule="evenodd" stroke-linejoin="round" stroke-miterlimit="1.414"><path fill="#b8b8bb" d="M64 74v37l64-37V37L64 74Z"></path><path fill="#d2d2d4" d="M0 37v37l64 37V74L0 37Z"></path><path fill="#ececed" d="M0 37 64 0l64 37-64 37L0 37Z"></path><path fill="#83838a" d="m64 73.407 62.111-35.86.514.889-62.487 36.078h-.276L.743 38.072l.514-.89L64 73.407Z"></path><path fill="#83838a" d="M63.486 74h1.027v36h-1.027z"></path><path fill="#000000" d="M128 37v37l-64 37L0 74V37L64 0l64 37ZM2.054 38.185v34.63L64 108.627l61.946-35.812v-34.63L64 2.373 2.054 38.185Z"></path></svg></g></g><g><g class="cloud-maps_raptor_node" id="c3ed5d78-c245-42e1-92ff-e344608a384f"><svg x="-320" y="185" width="128" height="111" fill-rule="evenodd" stroke-linejoin="round" stroke-miterlimit="1.414"><path fill="#b8b8bb" d="M64 74v37l64-37V37L64 74Z"></path><path fill="#d2d2d4" d="M0 37v37l64 37V74L0 37Z"></path><path fill="#ececed" d="M0 37 64 0l64 37-64 37L0 37Z"></path><path fill="#83838a" d="m64 73.407 62.111-35.86.514.889-62.487 36.078h-.276L.743 38.072l.514-.89L64 73.407Z"></path><path fill="#83838a" d="M63.486 74h1.027v36h-1.027z"></path><path fill="#000000" d="M128 37v37l-64 37L0 74V37L64 0l64 37ZM2.054 38.185v34.63L64 108.627l61.946-35.812v-34.63L64 2.373 2.054 38.185Z"></path></svg></g></g><g><g class="cloud-maps_raptor_node" id="303ba7e6-c802-4588-ab8e-dc50be4ac6e9"><svg x="-192" y="259" width="128" height="111" fill-rule="evenodd" stroke-linejoin="round" stroke-miterlimit="1.414"><path fill="#b8b8bb" d="M64 74v37l64-37V37L64 74Z"></path><path fill="#d2d2d4" d="M0 37v37l64 37V74L0 37Z"></path><path fill="#ececed" d="M0 37 64 0l64 37-64 37L0 37Z"></path><path fill="#83838a" d="m64 73.407 62.111-35.86.514.889-62.487 36.078h-.276L.743 38.072l.514-.89L64 73.407Z"></path><path fill="#83838a" d="M63.486 74h1.027v36h-1.027z"></path><path fill="#000000" d="M128 37v37l-64 37L0 74V37L64 0l64 37ZM2.054 38.185v34.63L64 108.627l61.946-35.812v-34.63L64 2.373 2.054 38.185Z"></path></svg></g></g><g><g class="cloud-maps_raptor_node" id="e797050b-f8dd-4714-bf98-b35a8719fa63"><svg x="-64" y="333" width="128" height="111" fill-rule="evenodd" stroke-linejoin="round" stroke-miterlimit="1.414"><path fill="#b8b8bb" d="M64 74v37l64-37V37L64 74Z"></path><path fill="#d2d2d4" d="M0 37v37l64 37V74L0 37Z"></path><path fill="#ececed" d="M0 37 64 0l64 37-64 37L0 37Z"></path><path fill="#83838a" d="m64 73.407 62.111-35.86.514.889-62.487 36.078h-.276L.743 38.072l.514-.89L64 73.407Z"></path><path fill="#83838a" d="M63.486 74h1.027v36h-1.027z"></path><path fill="#000000" d="M128 37v37l-64 37L0 74V37L64 0l64 37ZM2.054 38.185v34.63L64 108.627l61.946-35.812v-34.63L64 2.373 2.054 38.185Z"></path></svg></g></g><g><g class="cloud-maps_raptor_node" id="362d7351-0bb4-4032-9d15-50d04e7b3af4"><svg x="64" y="407" width="128" height="111" fill-rule="evenodd" stroke-linejoin="round" stroke-miterlimit="1.414"><path fill="#b8b8bb" d="M64 74v37l64-37V37L64 74Z"></path><path fill="#d2d2d4" d="M0 37v37l64 37V74L0 37Z"></path><path fill="#ececed" d="M0 37 64 0l64 37-64 37L0 37Z"></path><path fill="#83838a" d="m64 73.407 62.111-35.86.514.889-62.487 36.078h-.276L.743 38.072l.514-.89L64 73.407Z"></path><path fill="#83838a" d="M63.486 74h1.027v36h-1.027z"></path><path fill="#000000" d="M128 37v37l-64 37L0 74V37L64 0l64 37ZM2.054 38.185v34.63L64 108.627l61.946-35.812v-34.63L64 2.373 2.054 38.185Z"></path></svg></g></g><g><g class="cloud-maps_raptor_node" id="e813795a-af02-4413-835d-3374212e7810"><svg x="192" y="481" width="128" height="111" fill-rule="evenodd" stroke-linejoin="round" stroke-miterlimit="1.414"><path fill="#b8b8bb" d="M64 74v37l64-37V37L64 74Z"></path><path fill="#d2d2d4" d="M0 37v37l64 37V74L0 37Z"></path><path fill="#ececed" d="M0 37 64 0l64 37-64 37L0 37Z"></path><path fill="#83838a" d="m64 73.407 62.111-35.86.514.889-62.487 36.078h-.276L.743 38.072l.514-.89L64 73.407Z"></path><path fill="#83838a" d="M63.486 74h1.027v36h-1.027z"></path><path fill="#000000" d="M128 37v37l-64 37L0 74V37L64 0l64 37ZM2.054 38.185v34.63L64 108.627l61.946-35.812v-34.63L64 2.373 2.054 38.185Z"></path></svg></g></g><g><g class="cloud-maps_raptor_node" id="f4958bc8-4515-4076-a43d-254a12341a13"><svg x="-512" y="296" width="128" height="111" fill-rule="evenodd" stroke-linejoin="round" stroke-miterlimit="1.414"><path fill="#b8b8bb" d="M64 74v37l64-37V37L64 74Z"></path><path fill="#d2d2d4" d="M0 37v37l64 37V74L0 37Z"></path><path fill="#ececed" d="M0 37 64 0l64 37-64 37L0 37Z"></path><path fill="#83838a" d="m64 73.407 62.111-35.86.514.889-62.487 36.078h-.276L.743 38.072l.514-.89L64 73.407Z"></path><path fill="#83838a" d="M63.486 74h1.027v36h-1.027z"></path><path fill="#000000" d="M128 37v37l-64 37L0 74V37L64 0l64 37ZM2.054 38.185v34.63L64 108.627l61.946-35.812v-34.63L64 2.373 2.054 38.185Z"></path></svg></g></g><g><g class="cloud-maps_raptor_node" id="22852ad6-edcd-483e-9d86-359121f3b8d5"><svg x="-320" y="407" width="128" height="111" fill-rule="evenodd" stroke-linejoin="round" stroke-miterlimit="1.414"><path fill="#b8b8bb" d="M64 74v37l64-37V37L64 74Z"></path><path fill="#d2d2d4" d="M0 37v37l64 37V74L0 37Z"></path><path fill="#ececed" d="M0 37 64 0l64 37-64 37L0 37Z"></path><path fill="#83838a" d="m64 73.407 62.111-35.86.514.889-62.487 36.078h-.276L.743 38.072l.514-.89L64 73.407Z"></path><path fill="#83838a" d="M63.486 74h1.027v36h-1.027z"></path><path fill="#000000" d="M128 37v37l-64 37L0 74V37L64 0l64 37ZM2.054 38.185v34.63L64 108.627l61.946-35.812v-34.63L64 2.373 2.054 38.185Z"></path></svg></g></g><g><g class="cloud-maps_raptor_node" id="7dad48c8-b1fc-4cc8-9ac8-fbc0d81d34d4"><svg x="-128" y="518" width="128" height="111" fill-rule="evenodd" stroke-linejoin="round" stroke-miterlimit="1.414"><path fill="#b8b8bb" d="M64 74v37l64-37V37L64 74Z"></path><path fill="#d2d2d4" d="M0 37v37l64 37V74L0 37Z"></path><path fill="#ececed" d="M0 37 64 0l64 37-64 37L0 37Z"></path><path fill="#83838a" d="m64 73.407 62.111-35.86.514.889-62.487 36.078h-.276L.743 38.072l.514-.89L64 73.407Z"></path><path fill="#83838a" d="M63.486 74h1.027v36h-1.027z"></path><path fill="#000000" d="M128 37v37l-64 37L0 74V37L64 0l64 37ZM2.054 38.185v34.63L64 108.627l61.946-35.812v-34.63L64 2.373 2.054 38.185Z"></path></svg></g></g><g><g class="cloud-maps_raptor_node" id="71b4f6b5-a657-4504-887e-9202c8b9122a"><svg x="-640" y="444" width="128" height="111" fill-rule="evenodd" stroke-linejoin="round" stroke-miterlimit="1.414"><path fill="#b8b8bb" d="M64 74v37l64-37V37L64 74Z"></path><path fill="#d2d2d4" d="M0 37v37l64 37V74L0 37Z"></path><path fill="#ececed" d="M0 37 64 0l64 37-64 37L0 37Z"></path><path fill="#83838a" d="m64 73.407 62.111-35.86.514.889-62.487 36.078h-.276L.743 38.072l.514-.89L64 73.407Z"></path><path fill="#83838a" d="M63.486 74h1.027v36h-1.027z"></path><path fill="#000000" d="M128 37v37l-64 37L0 74V37L64 0l64 37ZM2.054 38.185v34.63L64 108.627l61.946-35.812v-34.63L64 2.373 2.054 38.185Z"></path></svg></g></g><g><g class="cloud-maps_raptor_node" id="7b4d3fe7-192e-4bd1-a412-6118137baab6"><svg x="-320" y="629" width="128" height="111" fill-rule="evenodd" stroke-linejoin="round" stroke-miterlimit="1.414"><path fill="#b8b8bb" d="M64 74v37l64-37V37L64 74Z"></path><path fill="#d2d2d4" d="M0 37v37l64 37V74L0 37Z"></path><path fill="#ececed" d="M0 37 64 0l64 37-64 37L0 37Z"></path><path fill="#83838a" d="m64 73.407 62.111-35.86.514.889-62.487 36.078h-.276L.743 38.072l.514-.89L64 73.407Z"></path><path fill="#83838a" d="M63.486 74h1.027v36h-1.027z"></path><path fill="#000000" d="M128 37v37l-64 37L0 74V37L64 0l64 37ZM2.054 38.185v34.63L64 108.627l61.946-35.812v-34.63L64 2.373 2.054 38.185Z"></path></svg></g></g></g><g pointer-events="auto"></g><g pointer-events="auto"><g><g class="cloud-maps_raptor_node" id="a6277fa8-c300-429d-8fca-d67342a998f4"><svg x="-704" y="592" overflow="visible"><g transform="scale(1.4131949617798671) matrix(0.707 0.409 -0.707 0.409 0 0)"><circle cx="0" cy="0" fill="transparent" r="31"></circle><svg width="48" height="48" x="-24" y="-24" style="fill: rgb(255, 255, 255);"><svg xmlns="http://www.w3.org/2000/svg" width="48" height="48" viewBox="0 0 48 48"><g fill="none" fill-rule="evenodd"><path fill="#242F3E" d="M28.639 9.286c0-2.915 2.413-5.286 5.38-5.286 2.966 0 5.378 2.371 5.378 5.286 0 2.915-2.412 5.286-5.378 5.286-2.967 0-5.38-2.371-5.38-5.286Zm11.524 7.048a11.71 11.71 0 0 0-2.035-1.001c1.97-1.31 3.269-3.531 3.269-6.047 0-4.017-3.31-7.286-7.378-7.286-4.069 0-7.38 3.269-7.38 7.286 0 2.51 1.293 4.728 3.256 6.039a11.896 11.896 0 0 0-3.546 2.1l1.303 1.518A9.766 9.766 0 0 1 34 16.572c1.802 0 3.569.505 5.109 1.461 2.74 1.702 4.538 4.692 4.844 7.967H34v2h11a1 1 0 0 0 1-1c0-4.343-2.236-8.43-5.837-10.666ZM8.639 9.286C8.639 6.371 11.052 4 14.019 4c2.966 0 5.378 2.371 5.378 5.286 0 2.915-2.412 5.286-5.378 5.286-2.967 0-5.38-2.371-5.38-5.286ZM14 26H4.046C4.53 20.717 8.81 16.572 14 16.572c1.802 0 3.569.505 5.109 1.461.432.269.849.575 1.24.91l1.303-1.517a11.71 11.71 0 0 0-3.524-2.093c1.97-1.31 3.269-3.531 3.269-6.047 0-4.017-3.31-7.286-7.378-7.286-4.069 0-7.38 3.269-7.38 7.286 0 2.515 1.298 4.737 3.268 6.046C5.302 17.071 2 21.638 2 27a1 1 0 0 0 1 1h11v-2Zm.046 18c.484-5.283 4.764-9.428 9.954-9.428 1.802 0 3.569.505 5.109 1.461 2.74 1.702 4.538 4.692 4.844 7.967H14.046Zm4.593-16.714c0-2.915 2.413-5.286 5.38-5.286 2.966 0 5.378 2.371 5.378 5.286 0 2.915-2.412 5.286-5.378 5.286-2.967 0-5.38-2.371-5.38-5.286Zm11.524 7.048a11.71 11.71 0 0 0-2.035-1.001c1.97-1.31 3.269-3.531 3.269-6.047 0-4.017-3.31-7.286-7.378-7.286-4.069 0-7.38 3.269-7.38 7.286 0 2.515 1.298 4.737 3.268 6.046C15.302 35.071 12 39.638 12 45a1 1 0 0 0 1 1h22a1 1 0 0 0 1-1c0-4.343-2.236-8.43-5.837-10.666Z"></path></g></svg></svg></g></svg></g></g><g><g class="cloud-maps_raptor_node" id="a7ee7391-8e9d-4494-afc0-b9475c980e17"><svg x="-384" y="777" overflow="visible"><g transform="scale(1.4131949617798671) matrix(0.707 0.409 -0.707 0.409 0 0)"><circle cx="0" cy="0" fill="transparent" r="31"></circle><svg width="48" height="48" x="-24" y="-24" style="fill: rgb(255, 255, 255);"><svg xmlns="http://www.w3.org/2000/svg" width="48" height="48" viewBox="0 0 48 48"><g fill="none" fill-rule="evenodd"><path fill="#242F3E" d="M28.639 9.286c0-2.915 2.413-5.286 5.38-5.286 2.966 0 5.378 2.371 5.378 5.286 0 2.915-2.412 5.286-5.378 5.286-2.967 0-5.38-2.371-5.38-5.286Zm11.524 7.048a11.71 11.71 0 0 0-2.035-1.001c1.97-1.31 3.269-3.531 3.269-6.047 0-4.017-3.31-7.286-7.378-7.286-4.069 0-7.38 3.269-7.38 7.286 0 2.51 1.293 4.728 3.256 6.039a11.896 11.896 0 0 0-3.546 2.1l1.303 1.518A9.766 9.766 0 0 1 34 16.572c1.802 0 3.569.505 5.109 1.461 2.74 1.702 4.538 4.692 4.844 7.967H34v2h11a1 1 0 0 0 1-1c0-4.343-2.236-8.43-5.837-10.666ZM8.639 9.286C8.639 6.371 11.052 4 14.019 4c2.966 0 5.378 2.371 5.378 5.286 0 2.915-2.412 5.286-5.378 5.286-2.967 0-5.38-2.371-5.38-5.286ZM14 26H4.046C4.53 20.717 8.81 16.572 14 16.572c1.802 0 3.569.505 5.109 1.461.432.269.849.575 1.24.91l1.303-1.517a11.71 11.71 0 0 0-3.524-2.093c1.97-1.31 3.269-3.531 3.269-6.047 0-4.017-3.31-7.286-7.378-7.286-4.069 0-7.38 3.269-7.38 7.286 0 2.515 1.298 4.737 3.268 6.046C5.302 17.071 2 21.638 2 27a1 1 0 0 0 1 1h11v-2Zm.046 18c.484-5.283 4.764-9.428 9.954-9.428 1.802 0 3.569.505 5.109 1.461 2.74 1.702 4.538 4.692 4.844 7.967H14.046Zm4.593-16.714c0-2.915 2.413-5.286 5.38-5.286 2.966 0 5.378 2.371 5.378 5.286 0 2.915-2.412 5.286-5.378 5.286-2.967 0-5.38-2.371-5.38-5.286Zm11.524 7.048a11.71 11.71 0 0 0-2.035-1.001c1.97-1.31 3.269-3.531 3.269-6.047 0-4.017-3.31-7.286-7.378-7.286-4.069 0-7.38 3.269-7.38 7.286 0 2.515 1.298 4.737 3.268 6.046C15.302 35.071 12 39.638 12 45a1 1 0 0 0 1 1h22a1 1 0 0 0 1-1c0-4.343-2.236-8.43-5.837-10.666Z"></path></g></svg></svg></g></svg></g></g></g><g pointer-events="auto"><g><g class="cloud-maps_raptor_node" id="a2a7543b-b40b-451d-a16f-81fa23de672b"><svg x="-528" y="527" overflow="visible"><text stroke="#ffffff" stroke-width="4" font-family="Noto Sans" y="36.5" font-size="25pt" fill="#000000" font-weight="bold" transform="matrix(0.707 0.409 -0.707 0.409 0 0)" paint-order="stroke" xml:space="preserve"><tspan x="8" dy="0">Facilitator</tspan></text></svg></g></g><g><g class="cloud-maps_raptor_node" id="4a9e856a-550c-4848-ba9a-59ae721d56f7"><svg x="-192" y="722" overflow="visible"><text stroke="#ffffff" stroke-width="4" font-family="Noto Sans" y="36.5" font-size="25pt" fill="#000000" font-weight="bold" transform="matrix(0.707 0.409 -0.707 0.409 0 0)" paint-order="stroke" xml:space="preserve"><tspan x="8" dy="0">Facilitator</tspan></text></svg></g></g><g><g class="cloud-maps_raptor_node" id="0d321c01-dd53-4604-a1f1-515d0617c0c8"><svg x="-96" y="537" overflow="visible"><text stroke="#ffffff" stroke-width="4" font-family="Noto Sans" y="36.5" font-size="25pt" fill="#000000" font-weight="bold" transform="matrix(0.707 0.409 -0.707 0.409 0 0)" paint-order="stroke" xml:space="preserve"><tspan x="8" dy="0">Validator</tspan></text></svg></g></g><g><g class="cloud-maps_raptor_node" id="2d77f437-4ea4-4129-a27d-4d8fb04d24fb"><svg x="-288" y="426" overflow="visible"><text stroke="#ffffff" stroke-width="4" font-family="Noto Sans" y="36.5" font-size="25pt" fill="#000000" font-weight="bold" transform="matrix(0.707 0.409 -0.707 0.409 0 0)" paint-order="stroke" xml:space="preserve"><tspan x="8" dy="0">Validator</tspan></text></svg></g></g><g><g class="cloud-maps_raptor_node" id="6d1dc7f9-ca36-4921-9f56-4c4f613c73c0"><svg x="-480" y="315" overflow="visible"><text stroke="#ffffff" stroke-width="4" font-family="Noto Sans" y="36.5" font-size="25pt" fill="#000000" font-weight="bold" transform="matrix(0.707 0.409 -0.707 0.409 0 0)" paint-order="stroke" xml:space="preserve"><tspan x="8" dy="0">Validator</tspan></text></svg></g></g><g><g class="cloud-maps_raptor_node" id="dbbed91d-4b75-4b8f-aedd-c0c1fecd8d90"><svg x="-304" y="194" overflow="visible"><text stroke="#ffffff" stroke-width="4" font-family="Noto Sans" y="36.5" font-size="25pt" fill="#000000" font-weight="bold" transform="matrix(0.707 0.409 -0.707 0.409 0 0)" paint-order="stroke" xml:space="preserve"><tspan x="8" dy="0">Miner 1</tspan></text></svg></g></g><g><g class="cloud-maps_raptor_node" id="fab9b62f-864c-45ad-8578-16c3c70e3468"><svg x="-176" y="268" overflow="visible"><text stroke="#ffffff" stroke-width="4" font-family="Noto Sans" y="36.5" font-size="25pt" fill="#000000" font-weight="bold" transform="matrix(0.707 0.409 -0.707 0.409 0 0)" paint-order="stroke" xml:space="preserve"><tspan x="8" dy="0">Miner 2</tspan></text></svg></g></g><g><g class="cloud-maps_raptor_node" id="ee3a819c-6415-4f30-ad48-b642a04dddec"><svg x="-48" y="342" overflow="visible"><text stroke="#ffffff" stroke-width="4" font-family="Noto Sans" y="36.5" font-size="25pt" fill="#000000" font-weight="bold" transform="matrix(0.707 0.409 -0.707 0.409 0 0)" paint-order="stroke" xml:space="preserve"><tspan x="8" dy="0">Miner 3</tspan></text></svg></g></g><g><g class="cloud-maps_raptor_node" id="db86e7e1-091a-4dfc-8df6-3d36c01a548a"><svg x="80" y="416" overflow="visible"><text stroke="#ffffff" stroke-width="4" font-family="Noto Sans" y="36.5" font-size="25pt" fill="#000000" font-weight="bold" transform="matrix(0.707 0.409 -0.707 0.409 0 0)" paint-order="stroke" xml:space="preserve"><tspan x="8" dy="0">Miner 4</tspan></text></svg></g></g><g><g class="cloud-maps_raptor_node" id="48b28053-cf67-4ab2-84e2-de29e6ffa9a9"><svg x="208" y="490" overflow="visible"><text stroke="#ffffff" stroke-width="4" font-family="Noto Sans" y="36.5" font-size="25pt" fill="#000000" font-weight="bold" transform="matrix(0.707 0.409 -0.707 0.409 0 0)" paint-order="stroke" xml:space="preserve"><tspan x="8" dy="0">Miner 5</tspan></text></svg></g></g><g><g class="cloud-maps_raptor_node" id="8738b480-3736-4cf8-9ce1-dd6938c7165d" transform="translate(0 0)"><svg x="96" y="111" overflow="visible"><text stroke="#ffffff" stroke-width="4" font-family="Noto Sans" y="36.5" font-size="25pt" fill="#000000" font-weight="bold" transform="matrix(0.707 0.409 -0.707 0.409 0 0)" paint-order="stroke" xml:space="preserve"><tspan x="8" dy="0">Miner 3's Horde (set of executors)</tspan></text></svg></g></g><g><g class="cloud-maps_raptor_node" id="4bcc2dde-57fc-469f-80ba-8e96585b3266"><svg x="512" y="463" overflow="visible"><text stroke="#ffffff" stroke-width="4" font-family="Noto Sans" y="36.5" font-size="25pt" fill="#000000" font-weight="bold" transform="matrix(0.707 0.409 -0.707 0.409 0 0)" paint-order="stroke" xml:space="preserve"><tspan x="8" dy="0">Executors</tspan></text></svg></g></g></g></g></svg>