<svg xmlns="http://www.w3.org/2000/svg" xmlns:xlink="http://www.w3.org/1999/xlink" contentStyleType="text/css" height="898px" preserveAspectRatio="none" style="width:1211px;height:898px;background:#FFFFFF;" version="1.1" viewBox="0 0 1211 898" width="1211px" zoomAndPan="magnify"><defs/><g><rect fill="none" height="46.6211" style="stroke:#000000;stroke-width:1.5;" width="314.5137" x="890.6494" y="432.9043"/><rect fill="none" height="46.6211" style="stroke:#000000;stroke-width:1.5;" width="314.5137" x="890.6494" y="607.457"/><line style="stroke:#181818;stroke-width:0.5;stroke-dasharray:5.0,5.0;" x1="27" x2="27" y1="81.4883" y2="817.6309"/><line style="stroke:#181818;stroke-width:0.5;stroke-dasharray:5.0,5.0;" x1="152.8506" x2="152.8506" y1="81.4883" y2="817.6309"/><line style="stroke:#181818;stroke-width:0.5;stroke-dasharray:5.0,5.0;" x1="341.8276" x2="341.8276" y1="81.4883" y2="817.6309"/><line style="stroke:#181818;stroke-width:0.5;stroke-dasharray:5.0,5.0;" x1="639.6982" x2="639.6982" y1="81.4883" y2="817.6309"/><line style="stroke:#181818;stroke-width:0.5;stroke-dasharray:5.0,5.0;" x1="936.6494" x2="936.6494" y1="81.4883" y2="817.6309"/><line style="stroke:#181818;stroke-width:0.5;stroke-dasharray:5.0,5.0;" x1="1056.7695" x2="1056.7695" y1="81.4883" y2="817.6309"/><line style="stroke:#181818;stroke-width:0.5;stroke-dasharray:5.0,5.0;" x1="1139.5352" x2="1139.5352" y1="81.4883" y2="817.6309"/><text fill="#000000" font-family="sans-serif" font-size="14" lengthAdjust="spacing" textLength="39.5049" x="5" y="78.5352">Client</text><ellipse cx="27.7524" cy="13.5" fill="#E2E2F0" rx="8" ry="8" style="stroke:#181818;stroke-width:0.5;"/><path d="M27.7524,21.5 L27.7524,48.5 M14.7524,29.5 L40.7524,29.5 M27.7524,48.5 L14.7524,63.5 M27.7524,48.5 L40.7524,63.5 " fill="none" style="stroke:#181818;stroke-width:0.5;"/><text fill="#000000" font-family="sans-serif" font-size="14" lengthAdjust="spacing" textLength="39.5049" x="5" y="830.166">Client</text><ellipse cx="27.7524" cy="841.6191" fill="#E2E2F0" rx="8" ry="8" style="stroke:#181818;stroke-width:0.5;"/><path d="M27.7524,849.6191 L27.7524,876.6191 M14.7524,857.6191 L40.7524,857.6191 M27.7524,876.6191 L14.7524,891.6191 M27.7524,876.6191 L40.7524,891.6191 " fill="none" style="stroke:#181818;stroke-width:0.5;"/><rect fill="#E2E2F0" height="30.4883" rx="2.5" ry="2.5" style="stroke:#181818;stroke-width:0.5;" width="81.0811" x="112.8506" y="50"/><text fill="#000000" font-family="sans-serif" font-size="14" lengthAdjust="spacing" textLength="67.0811" x="119.8506" y="70.5352">Facilitator</text><rect fill="#E2E2F0" height="30.4883" rx="2.5" ry="2.5" style="stroke:#181818;stroke-width:0.5;" width="81.0811" x="112.8506" y="816.6309"/><text fill="#000000" font-family="sans-serif" font-size="14" lengthAdjust="spacing" textLength="67.0811" x="119.8506" y="837.166">Facilitator</text><rect fill="#E2E2F0" height="30.4883" rx="2.5" ry="2.5" style="stroke:#181818;stroke-width:0.5;" width="75.0859" x="304.8276" y="50"/><text fill="#000000" font-family="sans-serif" font-size="14" lengthAdjust="spacing" textLength="61.0859" x="311.8276" y="70.5352">Validator</text><rect fill="#E2E2F0" height="30.4883" rx="2.5" ry="2.5" style="stroke:#181818;stroke-width:0.5;" width="75.0859" x="304.8276" y="816.6309"/><text fill="#000000" font-family="sans-serif" font-size="14" lengthAdjust="spacing" textLength="61.0859" x="311.8276" y="837.166">Validator</text><rect fill="#E2E2F0" height="30.4883" rx="2.5" ry="2.5" style="stroke:#181818;stroke-width:0.5;" width="52.3223" x="613.6982" y="50"/><text fill="#000000" font-family="sans-serif" font-size="14" lengthAdjust="spacing" textLength="38.3223" x="620.6982" y="70.5352">Miner</text><rect fill="#E2E2F0" height="30.4883" rx="2.5" ry="2.5" style="stroke:#181818;stroke-width:0.5;" width="52.3223" x="613.6982" y="816.6309"/><text fill="#000000" font-family="sans-serif" font-size="14" lengthAdjust="spacing" textLength="38.3223" x="620.6982" y="837.166">Miner</text><rect fill="#E2E2F0" height="30.4883" rx="2.5" ry="2.5" style="stroke:#181818;stroke-width:0.5;" width="73.3975" x="900.6494" y="50"/><text fill="#000000" font-family="sans-serif" font-size="14" lengthAdjust="spacing" textLength="59.3975" x="907.6494" y="70.5352">Executor</text><rect fill="#E2E2F0" height="30.4883" rx="2.5" ry="2.5" style="stroke:#181818;stroke-width:0.5;" width="73.3975" x="900.6494" y="816.6309"/><text fill="#000000" font-family="sans-serif" font-size="14" lengthAdjust="spacing" textLength="59.3975" x="907.6494" y="837.166">Executor</text><rect fill="#E2E2F0" height="30.4883" rx="2.5" ry="2.5" style="stroke:#181818;stroke-width:0.5;" width="35.7656" x="1039.7695" y="50"/><text fill="#000000" font-family="sans-serif" font-size="14" lengthAdjust="spacing" textLength="21.7656" x="1046.7695" y="70.5352">Job</text><rect fill="#E2E2F0" height="30.4883" rx="2.5" ry="2.5" style="stroke:#181818;stroke-width:0.5;" width="35.7656" x="1039.7695" y="816.6309"/><text fill="#000000" font-family="sans-serif" font-size="14" lengthAdjust="spacing" textLength="21.7656" x="1046.7695" y="837.166">Job</text><rect fill="#E2E2F0" height="30.4883" rx="2.5" ry="2.5" style="stroke:#181818;stroke-width:0.5;" width="109.6279" x="1085.5352" y="50"/><text fill="#000000" font-family="sans-serif" font-size="14" lengthAdjust="spacing" textLength="95.6279" x="1092.5352" y="70.5352">Cloud Storage</text><rect fill="#E2E2F0" height="30.4883" rx="2.5" ry="2.5" style="stroke:#181818;stroke-width:0.5;" width="109.6279" x="1085.5352" y="816.6309"/><text fill="#000000" font-family="sans-serif" font-size="14" lengthAdjust="spacing" textLength="95.6279" x="1092.5352" y="837.166">Cloud Storage</text><polygon fill="#181818" points="141.3911,108.7988,151.3911,112.7988,141.3911,116.7988,145.3911,112.7988" style="stroke:#181818;stroke-width:1.0;"/><line style="stroke:#181818;stroke-width:1.0;" x1="27.7524" x2="147.3911" y1="112.7988" y2="112.7988"/><text fill="#000000" font-family="sans-serif" font-size="13" lengthAdjust="spacing" textLength="100.4517" x="34.7524" y="108.0566">Send job details</text><line style="stroke:#181818;stroke-width:1.0;" x1="153.3911" x2="195.3911" y1="142.1094" y2="142.1094"/><line style="stroke:#181818;stroke-width:1.0;" x1="195.3911" x2="195.3911" y1="142.1094" y2="155.1094"/><line style="stroke:#181818;stroke-width:1.0;" x1="154.3911" x2="195.3911" y1="155.1094" y2="155.1094"/><polygon fill="#181818" points="164.3911,151.1094,154.3911,155.1094,164.3911,159.1094,160.3911,155.1094" style="stroke:#181818;stroke-width:1.0;"/><text fill="#000000" font-family="sans-serif" font-size="13" lengthAdjust="spacing" textLength="174.9795" x="160.3911" y="137.3672">Choose Validator and Miner</text><polygon fill="#181818" points="330.3706,180.4199,340.3706,184.4199,330.3706,188.4199,334.3706,184.4199" style="stroke:#181818;stroke-width:1.0;"/><line style="stroke:#181818;stroke-width:1.0;" x1="153.3911" x2="336.3706" y1="184.4199" y2="184.4199"/><text fill="#000000" font-family="sans-serif" font-size="13" lengthAdjust="spacing" textLength="100.4517" x="160.3911" y="179.6777">Send job details</text><polygon fill="#181818" points="627.8594,209.7305,637.8594,213.7305,627.8594,217.7305,631.8594,213.7305" style="stroke:#181818;stroke-width:1.0;"/><line style="stroke:#181818;stroke-width:1.0;" x1="342.3706" x2="633.8594" y1="213.7305" y2="213.7305"/><text fill="#000000" font-family="sans-serif" font-size="13" lengthAdjust="spacing" textLength="139.7056" x="349.3706" y="208.9883">Send initial job details</text><line style="stroke:#181818;stroke-width:1.0;" x1="639.8594" x2="681.8594" y1="258.3516" y2="258.3516"/><line style="stroke:#181818;stroke-width:1.0;" x1="681.8594" x2="681.8594" y1="258.3516" y2="271.3516"/><line style="stroke:#181818;stroke-width:1.0;" x1="640.8594" x2="681.8594" y1="271.3516" y2="271.3516"/><polygon fill="#181818" points="650.8594,267.3516,640.8594,271.3516,650.8594,275.3516,646.8594,271.3516" style="stroke:#181818;stroke-width:1.0;"/><text fill="#000000" font-family="sans-serif" font-size="13" lengthAdjust="spacing" textLength="164.3281" x="646.8594" y="238.2988">Check for a free executor,</text><text fill="#000000" font-family="sans-serif" font-size="13" lengthAdjust="spacing" textLength="171.1646" x="646.8594" y="253.6094">possibly spin up a new one</text><polygon fill="#181818" points="925.3481,296.6621,935.3481,300.6621,925.3481,304.6621,929.3481,300.6621" style="stroke:#181818;stroke-width:1.0;"/><line style="stroke:#181818;stroke-width:1.0;" x1="639.8594" x2="931.3481" y1="300.6621" y2="300.6621"/><text fill="#000000" font-family="sans-serif" font-size="13" lengthAdjust="spacing" textLength="136.8301" x="646.8594" y="295.9199">Pass initial job details</text><polygon fill="#181818" points="650.8594,325.9727,640.8594,329.9727,650.8594,333.9727,646.8594,329.9727" style="stroke:#181818;stroke-width:1.0;"/><line style="stroke:#181818;stroke-width:1.0;" x1="644.8594" x2="936.3481" y1="329.9727" y2="329.9727"/><text fill="#000000" font-family="sans-serif" font-size="13" lengthAdjust="spacing" textLength="273.4888" x="656.8594" y="325.2305">Report readiness (initial preparations done)</text><polygon fill="#181818" points="353.3706,355.2832,343.3706,359.2832,353.3706,363.2832,349.3706,359.2832" style="stroke:#181818;stroke-width:1.0;"/><line style="stroke:#181818;stroke-width:1.0;" x1="347.3706" x2="638.8594" y1="359.2832" y2="359.2832"/><text fill="#000000" font-family="sans-serif" font-size="13" lengthAdjust="spacing" textLength="273.4888" x="359.3706" y="354.541">Report readiness (initial preparations done)</text><polygon fill="#181818" points="627.8594,384.5938,637.8594,388.5938,627.8594,392.5938,631.8594,388.5938" style="stroke:#181818;stroke-width:1.0;"/><line style="stroke:#181818;stroke-width:1.0;" x1="342.3706" x2="633.8594" y1="388.5938" y2="388.5938"/><text fill="#000000" font-family="sans-serif" font-size="13" lengthAdjust="spacing" textLength="119.2598" x="349.3706" y="383.8516">Send all job details</text><polygon fill="#181818" points="925.3481,413.9043,935.3481,417.9043,925.3481,421.9043,929.3481,417.9043" style="stroke:#181818;stroke-width:1.0;"/><line style="stroke:#181818;stroke-width:1.0;" x1="639.8594" x2="931.3481" y1="417.9043" y2="417.9043"/><text fill="#000000" font-family="sans-serif" font-size="13" lengthAdjust="spacing" textLength="119.2598" x="646.8594" y="413.1621">Send all job details</text><path d="M890.6494,432.9043 L952.7881,432.9043 L952.7881,440.2148 L942.7881,450.2148 L890.6494,450.2148 L890.6494,432.9043 " fill="#EEEEEE" style="stroke:#000000;stroke-width:1.5;"/><rect fill="none" height="46.6211" style="stroke:#000000;stroke-width:1.5;" width="314.5137" x="890.6494" y="432.9043"/><text fill="#000000" font-family="sans-serif" font-size="13" font-weight="bold" lengthAdjust="spacing" textLength="17.1387" x="905.6494" y="446.4727">alt</text><text fill="#000000" font-family="sans-serif" font-size="11" font-weight="bold" lengthAdjust="spacing" textLength="155.4878" x="967.7881" y="445.5391">[job requires fetching data]</text><polygon fill="#181818" points="1128.3491,467.5254,1138.3491,471.5254,1128.3491,475.5254,1132.3491,471.5254" style="stroke:#181818;stroke-width:1.0;"/><line style="stroke:#181818;stroke-width:1.0;" x1="937.3481" x2="1134.3491" y1="471.5254" y2="471.5254"/><text fill="#000000" font-family="sans-serif" font-size="13" lengthAdjust="spacing" textLength="65.3174" x="944.3481" y="466.7832">Fetch data</text><line style="stroke:#181818;stroke-width:1.0;" x1="937.3481" x2="979.3481" y1="507.8359" y2="507.8359"/><line style="stroke:#181818;stroke-width:1.0;" x1="979.3481" x2="979.3481" y1="507.8359" y2="520.8359"/><line style="stroke:#181818;stroke-width:1.0;" x1="938.3481" x2="979.3481" y1="520.8359" y2="520.8359"/><polygon fill="#181818" points="948.3481,516.8359,938.3481,520.8359,948.3481,524.8359,944.3481,520.8359" style="stroke:#181818;stroke-width:1.0;"/><text fill="#000000" font-family="sans-serif" font-size="13" lengthAdjust="spacing" textLength="106.3042" x="944.3481" y="503.0938">Start Job process</text><line style="stroke:#181818;stroke-width:1.0;" x1="1057.6523" x2="1099.6523" y1="550.1465" y2="550.1465"/><line style="stroke:#181818;stroke-width:1.0;" x1="1099.6523" x2="1099.6523" y1="550.1465" y2="563.1465"/><line style="stroke:#181818;stroke-width:1.0;" x1="1058.6523" x2="1099.6523" y1="563.1465" y2="563.1465"/><polygon fill="#181818" points="1068.6523,559.1465,1058.6523,563.1465,1068.6523,567.1465,1064.6523,563.1465" style="stroke:#181818;stroke-width:1.0;"/><text fill="#000000" font-family="sans-serif" font-size="13" lengthAdjust="spacing" textLength="21.4551" x="1064.6523" y="545.4043">run</text><polygon fill="#181818" points="948.3481,588.457,938.3481,592.457,948.3481,596.457,944.3481,592.457" style="stroke:#181818;stroke-width:1.0;"/><line style="stroke:#181818;stroke-width:1.0;" x1="942.3481" x2="1056.6523" y1="592.457" y2="592.457"/><text fill="#000000" font-family="sans-serif" font-size="13" lengthAdjust="spacing" textLength="80.9834" x="954.3481" y="587.7148">Report finish</text><path d="M890.6494,607.457 L952.7881,607.457 L952.7881,614.7676 L942.7881,624.7676 L890.6494,624.7676 L890.6494,607.457 " fill="#EEEEEE" style="stroke:#000000;stroke-width:1.5;"/><rect fill="none" height="46.6211" style="stroke:#000000;stroke-width:1.5;" width="314.5137" x="890.6494" y="607.457"/><text fill="#000000" font-family="sans-serif" font-size="13" font-weight="bold" lengthAdjust="spacing" textLength="17.1387" x="905.6494" y="621.0254">alt</text><text fill="#000000" font-family="sans-serif" font-size="11" font-weight="bold" lengthAdjust="spacing" textLength="165.8164" x="967.7881" y="620.0918">[job requires uploading data]</text><polygon fill="#181818" points="1128.3491,642.0781,1138.3491,646.0781,1128.3491,650.0781,1132.3491,646.0781" style="stroke:#181818;stroke-width:1.0;"/><line style="stroke:#181818;stroke-width:1.0;" x1="937.3481" x2="1134.3491" y1="646.0781" y2="646.0781"/><text fill="#000000" font-family="sans-serif" font-size="13" lengthAdjust="spacing" textLength="75.8101" x="944.3481" y="641.3359">Upload data</text><polygon fill="#181818" points="1128.3491,678.3887,1138.3491,682.3887,1128.3491,686.3887,1132.3491,682.3887" style="stroke:#181818;stroke-width:1.0;"/><line style="stroke:#181818;stroke-width:1.0;" x1="937.3481" x2="1134.3491" y1="682.3887" y2="682.3887"/><text fill="#000000" font-family="sans-serif" font-size="13" lengthAdjust="spacing" textLength="158.2026" x="944.3481" y="677.6465">Upload stdout and stderr</text><polygon fill="#181818" points="650.8594,707.6992,640.8594,711.6992,650.8594,715.6992,646.8594,711.6992" style="stroke:#181818;stroke-width:1.0;"/><line style="stroke:#181818;stroke-width:1.0;" x1="644.8594" x2="936.3481" y1="711.6992" y2="711.6992"/><text fill="#000000" font-family="sans-serif" font-size="13" lengthAdjust="spacing" textLength="101.6387" x="656.8594" y="706.957">Report job done</text><polygon fill="#181818" points="353.3706,737.0098,343.3706,741.0098,353.3706,745.0098,349.3706,741.0098" style="stroke:#181818;stroke-width:1.0;"/><line style="stroke:#181818;stroke-width:1.0;" x1="347.3706" x2="638.8594" y1="741.0098" y2="741.0098"/><text fill="#000000" font-family="sans-serif" font-size="13" lengthAdjust="spacing" textLength="101.6387" x="359.3706" y="736.2676">Report job done</text><polygon fill="#181818" points="164.3911,766.3203,154.3911,770.3203,164.3911,774.3203,160.3911,770.3203" style="stroke:#181818;stroke-width:1.0;"/><line style="stroke:#181818;stroke-width:1.0;" x1="158.3911" x2="341.3706" y1="770.3203" y2="770.3203"/><text fill="#000000" font-family="sans-serif" font-size="13" lengthAdjust="spacing" textLength="101.6387" x="170.3911" y="765.5781">Report job done</text><polygon fill="#181818" points="38.7524,795.6309,28.7524,799.6309,38.7524,803.6309,34.7524,799.6309" style="stroke:#181818;stroke-width:1.0;"/><line style="stroke:#181818;stroke-width:1.0;" x1="32.7524" x2="152.3911" y1="799.6309" y2="799.6309"/><text fill="#000000" font-family="sans-serif" font-size="13" lengthAdjust="spacing" textLength="101.6387" x="44.7524" y="794.8887">Report job done</text><!--SRC=[bPFDJiCm3CVlUGfh9v3O2_HG2LNiW8I4cE34nMlTrH0b8Ka5l3rkktwk4z13bTW_n_O_pcqUhOTCCvce7Fh8EJiq4NQOi-Q8ufxPNr1pSMPzO4DpozqNvVKIkxU7sNwJQLiNi1SEZxHHgYjacqwo9x0dKy2RFK114La7DV4kqAooDj1O9A24TiNDWWPWvVJ1jqtRo1F2XYEZdg6jVy2oYl9tA9kiK7eYe9C6Dw_6sH3ueByXE3PGEq4CVO8rr1_I2vR08uQmcgv7XenFvAoFu0aBCKZKLH_cF8dG6DcQ08MakUxpJ5h_L_W5ML2lIZ9siqefrB4rUFgesLE0ac9UiJc2v405yetTBiOaWLq3TwIShYR2JF966RHcugGPcqjtIjRRL7u9-Dfqkn4_QL6A0g5QgQzssZOo_Qt0vvOUA_mT3R6mTMpdLPRalRfutQsGayavlz61c5pQx9qikTdZw1xXEVG3]--></g></svg>