<svg xmlns="http://www.w3.org/2000/svg" xmlns:xlink="http://www.w3.org/1999/xlink" contentStyleType="text/css" data-diagram-type="SEQUENCE" height="3282px" preserveAspectRatio="none" style="width:1476px;height:3282px;background:#FFFFFF;" version="1.1" viewBox="0 0 1476 3282" width="1476px" zoomAndPan="magnify"><defs/><g><rect fill="#FFFFBB" height="3270.3833" style="stroke:#808080;stroke-width:0.5;" width="169.8211" x="11" y="6"/><text fill="#000000" font-family="sans-serif" font-size="13" font-weight="bold" lengthAdjust="spacing" textLength="142.4411" x="23" y="19.897">Facilitator (simplified)</text><rect fill="#EEF5FF" height="3270.3833" style="stroke:#808080;stroke-width:0.5;" width="313.1327" x="192.8211" y="6"/><text fill="#000000" font-family="sans-serif" font-size="13" font-weight="bold" lengthAdjust="spacing" textLength="59.579" x="317.9079" y="19.897">Validator</text><rect fill="#FFFFE0" height="3270.3833" style="stroke:#808080;stroke-width:0.5;" width="357.8416" x="587.7203" y="6"/><text fill="#000000" font-family="sans-serif" font-size="13" font-weight="bold" lengthAdjust="spacing" textLength="38.168" x="745.867" y="19.897">Miner</text><rect fill="#EFEFEF" height="3270.3833" style="stroke:#808080;stroke-width:0.5;" width="372.0011" x="1035.5303" y="6"/><text fill="#000000" font-family="sans-serif" font-size="13" font-weight="bold" lengthAdjust="spacing" textLength="57.291" x="1191.1953" y="19.897">Executor</text><g><title>Facilitator</title><rect fill="#000000" fill-opacity="0.00000" height="3174.5415" width="8" x="92.4106" y="61.7739"/><line style="stroke:#181818;stroke-width:0.5;stroke-dasharray:5.0,5.0;" x1="95.9106" x2="95.9106" y1="61.7739" y2="3236.3154"/></g><g><title/><rect fill="#FFFFFF" height="76.412" style="stroke:#181818;stroke-width:1;" width="10" x="90.9106" y="93.4799"/></g><g><title/><rect fill="#FFFFFF" height="82.706" style="stroke:#181818;stroke-width:1;" width="10" x="90.9106" y="3148.6094"/></g><g><title>Facilitator connection</title><rect fill="#000000" fill-opacity="0.00000" height="3174.5415" width="8" x="271.0349" y="61.7739"/><line style="stroke:#181818;stroke-width:0.5;stroke-dasharray:5.0,5.0;" x1="274.5349" x2="274.5349" y1="61.7739" y2="3236.3154"/></g><g><title/><rect fill="#FFFFFF" height="2978.7174" style="stroke:#181818;stroke-width:1;" width="10" x="269.5349" y="169.892"/></g><g><title/><rect fill="#90EE90" height="2758.7753" style="stroke:#181818;stroke-width:1;" width="10" x="274.5349" y="353.4221"/></g><g><title>Miner Driver</title><rect fill="#000000" fill-opacity="0.00000" height="3174.5415" width="8" x="450.112" y="61.7739"/><line style="stroke:#181818;stroke-width:0.5;stroke-dasharray:5.0,5.0;" x1="453.612" x2="453.612" y1="61.7739" y2="3236.3154"/></g><g><title/><rect fill="#90EE90" height="2580.6573" style="stroke:#181818;stroke-width:1;" width="10" x="448.612" y="482.8341"/></g><g><title/><rect fill="#00CC00" height="129.8241" style="stroke:#181818;stroke-width:1;" width="10" x="453.612" y="591.6582"/></g><g><title/><rect fill="#00CC00" height="736.5324" style="stroke:#181818;stroke-width:1;" width="10" x="453.612" y="835.6003"/></g><g><title/><rect fill="#00CC00" height="1385.2407" style="stroke:#181818;stroke-width:1;" width="10" x="453.612" y="1678.2507"/></g><g><title>Validator Consumer</title><rect fill="#000000" fill-opacity="0.00000" height="3174.5415" width="8" x="660.712" y="61.7739"/><line style="stroke:#181818;stroke-width:0.5;stroke-dasharray:5.0,5.0;" x1="664.212" x2="664.212" y1="61.7739" y2="3236.3154"/></g><g><title/><rect fill="#FFFFFF" height="2503.5392" style="stroke:#181818;stroke-width:1;" width="10" x="659.212" y="559.9521"/></g><g><title>Executor Consumer</title><rect fill="#000000" fill-opacity="0.00000" height="3174.5415" width="8" x="866.3121" y="61.7739"/><line style="stroke:#181818;stroke-width:0.5;stroke-dasharray:5.0,5.0;" x1="869.8121" x2="869.8121" y1="61.7739" y2="3236.3154"/></g><g><title/><rect fill="#FFFFFF" height="1991.2429" style="stroke:#181818;stroke-width:1;" width="10" x="864.8121" y="1040.5424"/></g><g><title>Executor</title><rect fill="#000000" fill-opacity="0.00000" height="3174.5415" width="8" x="1071.9122" y="61.7739"/><line style="stroke:#181818;stroke-width:0.5;stroke-dasharray:5.0,5.0;" x1="1075.4122" x2="1075.4122" y1="61.7739" y2="3236.3154"/></g><g><title/><rect fill="#90EE90" height="2051.949" style="stroke:#181818;stroke-width:1;" width="10" x="1070.4122" y="948.1304"/></g><g><title/><rect fill="#00CC00" height="386.0602" style="stroke:#181818;stroke-width:1;" width="10" x="1075.4122" y="1072.2484"/></g><g><title/><rect fill="#00CC00" height="205.2361" style="stroke:#181818;stroke-width:1;" width="10" x="1075.4122" y="1809.0748"/></g><g><title/><rect fill="#00CC00" height="112.118" style="stroke:#181818;stroke-width:1;" width="10" x="1075.4122" y="2247.253"/></g><g><title/><rect fill="#00CC00" height="431.4722" style="stroke:#181818;stroke-width:1;" width="10" x="1075.4122" y="2568.6071"/></g><g><title>Task/Subprocess</title><rect fill="#000000" fill-opacity="0.00000" height="3174.5415" width="8" x="1229.6253" y="61.7739"/><line style="stroke:#181818;stroke-width:0.5;stroke-dasharray:5.0,5.0;" x1="1233.1253" x2="1233.1253" y1="61.7739" y2="3236.3154"/></g><g><title/><rect fill="#FFFFFF" height="205.2361" style="stroke:#181818;stroke-width:1;" width="10" x="1228.1253" y="1809.0748"/></g><g><title/><rect fill="#FFFFFF" height="217.2361" style="stroke:#181818;stroke-width:1;" width="10" x="1228.1253" y="2751.1372"/></g><g><title/><rect fill="#FFFFFF" height="185.5301" style="stroke:#181818;stroke-width:1;" width="10" x="1233.1253" y="2751.1372"/></g><g><title/><rect fill="#FFFFFF" height="153.8241" style="stroke:#181818;stroke-width:1;" width="10" x="1238.1253" y="2751.1372"/></g><g><title/><rect fill="#FFFFFF" height="76.412" style="stroke:#181818;stroke-width:1;" width="10" x="1243.1253" y="2796.8432"/></g><g><title>Job</title><rect fill="#000000" fill-opacity="0.00000" height="3174.5415" width="8" x="1382.5804" y="61.7739"/><line style="stroke:#181818;stroke-width:0.5;stroke-dasharray:5.0,5.0;" x1="1386.0804" x2="1386.0804" y1="61.7739" y2="3236.3154"/></g><g><title/><rect fill="#FFFFFF" height="112.118" style="stroke:#181818;stroke-width:1;" width="10" x="1381.0804" y="2247.253"/></g><rect fill="#E2E2F0" height="33.0679" rx="2.5" ry="2.5" style="stroke:#181818;stroke-width:0.5;" width="78.8898" x="56.4657" y="27.706"/><text fill="#000000" font-family="sans-serif" font-size="14" lengthAdjust="spacing" textLength="64.8898" x="63.4657" y="49.672">Facilitator</text><rect fill="#E2E2F0" height="33.0679" rx="2.5" ry="2.5" style="stroke:#181818;stroke-width:0.5;" width="155.4275" x="196.8211" y="27.706"/><text fill="#000000" font-family="sans-serif" font-size="14" lengthAdjust="spacing" textLength="141.4275" x="203.8211" y="49.672">Facilitator connection</text><rect fill="#E2E2F0" height="33.0679" rx="2.5" ry="2.5" style="stroke:#181818;stroke-width:0.5;" width="96.6837" x="405.2701" y="27.706"/><text fill="#000000" font-family="sans-serif" font-size="14" lengthAdjust="spacing" textLength="82.6837" x="412.2701" y="49.672">Miner Driver</text><rect fill="#E2E2F0" height="33.0679" rx="2.5" ry="2.5" style="stroke:#181818;stroke-width:0.5;" width="144.9835" x="591.7203" y="27.706"/><text fill="#000000" font-family="sans-serif" font-size="14" lengthAdjust="spacing" textLength="130.9835" x="598.7203" y="49.672">Validator Consumer</text><rect fill="#E2E2F0" height="33.0679" rx="2.5" ry="2.5" style="stroke:#181818;stroke-width:0.5;" width="143.4995" x="798.0624" y="27.706"/><text fill="#000000" font-family="sans-serif" font-size="14" lengthAdjust="spacing" textLength="129.4995" x="805.0624" y="49.672">Executor Consumer</text><rect fill="#E2E2F0" height="33.0679" rx="2.5" ry="2.5" style="stroke:#181818;stroke-width:0.5;" width="71.7638" x="1039.5303" y="27.706"/><text fill="#000000" font-family="sans-serif" font-size="14" lengthAdjust="spacing" textLength="57.7638" x="1046.5303" y="49.672">Executor</text><rect fill="#E2E2F0" height="33.0679" rx="2.5" ry="2.5" style="stroke:#181818;stroke-width:0.5;" width="124.8656" x="1170.6925" y="27.706"/><text fill="#000000" font-family="sans-serif" font-size="14" lengthAdjust="spacing" textLength="110.8656" x="1177.6925" y="49.672">Task/Subprocess</text><rect fill="#E2E2F0" height="33.0679" rx="2.5" ry="2.5" style="stroke:#181818;stroke-width:0.5;" width="34.9019" x="1368.6294" y="27.706"/><text fill="#000000" font-family="sans-serif" font-size="14" lengthAdjust="spacing" textLength="20.9019" x="1375.6294" y="49.672">Job</text><rect fill="#E2E2F0" height="33.0679" rx="2.5" ry="2.5" style="stroke:#181818;stroke-width:0.5;" width="78.8898" x="56.4657" y="3236.3154"/><text fill="#000000" font-family="sans-serif" font-size="14" lengthAdjust="spacing" textLength="64.8898" x="63.4657" y="3258.2814">Facilitator</text><rect fill="#E2E2F0" height="33.0679" rx="2.5" ry="2.5" style="stroke:#181818;stroke-width:0.5;" width="155.4275" x="196.8211" y="3236.3154"/><text fill="#000000" font-family="sans-serif" font-size="14" lengthAdjust="spacing" textLength="141.4275" x="203.8211" y="3258.2814">Facilitator connection</text><rect fill="#E2E2F0" height="33.0679" rx="2.5" ry="2.5" style="stroke:#181818;stroke-width:0.5;" width="96.6837" x="405.2701" y="3236.3154"/><text fill="#000000" font-family="sans-serif" font-size="14" lengthAdjust="spacing" textLength="82.6837" x="412.2701" y="3258.2814">Miner Driver</text><rect fill="#E2E2F0" height="33.0679" rx="2.5" ry="2.5" style="stroke:#181818;stroke-width:0.5;" width="144.9835" x="591.7203" y="3236.3154"/><text fill="#000000" font-family="sans-serif" font-size="14" lengthAdjust="spacing" textLength="130.9835" x="598.7203" y="3258.2814">Validator Consumer</text><rect fill="#E2E2F0" height="33.0679" rx="2.5" ry="2.5" style="stroke:#181818;stroke-width:0.5;" width="143.4995" x="798.0624" y="3236.3154"/><text fill="#000000" font-family="sans-serif" font-size="14" lengthAdjust="spacing" textLength="129.4995" x="805.0624" y="3258.2814">Executor Consumer</text><rect fill="#E2E2F0" height="33.0679" rx="2.5" ry="2.5" style="stroke:#181818;stroke-width:0.5;" width="71.7638" x="1039.5303" y="3236.3154"/><text fill="#000000" font-family="sans-serif" font-size="14" lengthAdjust="spacing" textLength="57.7638" x="1046.5303" y="3258.2814">Executor</text><rect fill="#E2E2F0" height="33.0679" rx="2.5" ry="2.5" style="stroke:#181818;stroke-width:0.5;" width="124.8656" x="1170.6925" y="3236.3154"/><text fill="#000000" font-family="sans-serif" font-size="14" lengthAdjust="spacing" textLength="110.8656" x="1177.6925" y="3258.2814">Task/Subprocess</text><rect fill="#E2E2F0" height="33.0679" rx="2.5" ry="2.5" style="stroke:#181818;stroke-width:0.5;" width="34.9019" x="1368.6294" y="3236.3154"/><text fill="#000000" font-family="sans-serif" font-size="14" lengthAdjust="spacing" textLength="20.9019" x="1375.6294" y="3258.2814">Job</text><polygon fill="#181818" points="78.9106,89.4799,88.9106,93.4799,78.9106,97.4799,82.9106,93.4799" style="stroke:#181818;stroke-width:1;"/><line style="stroke:#181818;stroke-width:1;" x1="5" x2="84.9106" y1="93.4799" y2="93.4799"/><text fill="#000000" font-family="sans-serif" font-size="13" lengthAdjust="spacing" textLength="62.829" x="16.0815" y="87.6709">Create job</text><line style="stroke:#181818;stroke-width:1;" x1="100.9106" x2="142.9106" y1="125.186" y2="125.186"/><line style="stroke:#181818;stroke-width:1;" x1="142.9106" x2="142.9106" y1="125.186" y2="138.186"/><line style="stroke:#181818;stroke-width:1;" x1="101.9106" x2="142.9106" y1="138.186" y2="138.186"/><polygon fill="#181818" points="111.9106,134.186,101.9106,138.186,111.9106,142.186,107.9106,138.186" style="stroke:#181818;stroke-width:1;"/><text fill="#000000" font-family="sans-serif" font-size="13" lengthAdjust="spacing" textLength="54.9901" x="107.9106" y="119.377">Store job</text><polygon fill="#181818" points="257.5349,165.892,267.5349,169.892,257.5349,173.892,261.5349,169.892" style="stroke:#181818;stroke-width:1;"/><line style="stroke:#181818;stroke-width:1;" x1="100.9106" x2="263.5349" y1="169.892" y2="169.892"/><text fill="#000000" font-family="monospace" font-size="13" lengthAdjust="spacing" textLength="93.6" x="107.9106" y="164.083">V2JobRequest</text><polygon fill="#181818" points="106.9106,215.304,96.9106,219.304,106.9106,223.304,102.9106,219.304" style="stroke:#181818;stroke-width:1;"/><line style="stroke:#181818;stroke-width:1;" x1="100.9106" x2="268.5349" y1="219.304" y2="219.304"/><text fill="#000000" font-family="monospace" font-size="13" lengthAdjust="spacing" textLength="132.6001" x="112.9106" y="195.789">V0JobStatusUpdate</text><text fill="#000000" font-family="sans-serif" font-size="13" lengthAdjust="spacing" textLength="62.0751" x="112.9106" y="213.495">(Received)</text><line style="stroke:#181818;stroke-width:1;" x1="279.5349" x2="321.5349" y1="251.01" y2="251.01"/><line style="stroke:#181818;stroke-width:1;" x1="321.5349" x2="321.5349" y1="251.01" y2="264.01"/><line style="stroke:#181818;stroke-width:1;" x1="280.5349" x2="321.5349" y1="264.01" y2="264.01"/><polygon fill="#181818" points="290.5349,260.01,280.5349,264.01,290.5349,268.01,286.5349,264.01" style="stroke:#181818;stroke-width:1;"/><text fill="#000000" font-family="sans-serif" font-size="13" lengthAdjust="spacing" textLength="64.0251" x="286.5349" y="245.201">Pick miner</text><line style="stroke:#181818;stroke-width:1;" x1="279.5349" x2="321.5349" y1="295.716" y2="295.716"/><line style="stroke:#181818;stroke-width:1;" x1="321.5349" x2="321.5349" y1="295.716" y2="308.716"/><line style="stroke:#181818;stroke-width:1;" x1="280.5349" x2="321.5349" y1="308.716" y2="308.716"/><polygon fill="#181818" points="290.5349,304.716,280.5349,308.716,290.5349,312.716,286.5349,308.716" style="stroke:#181818;stroke-width:1;"/><text fill="#000000" font-family="sans-serif" font-size="13" lengthAdjust="spacing" textLength="111.5401" x="286.5349" y="289.907">Submit celery task</text><line style="stroke:#181818;stroke-width:1;" x1="279.5349" x2="326.5349" y1="340.4221" y2="340.4221"/><line style="stroke:#181818;stroke-width:1;" x1="326.5349" x2="326.5349" y1="340.4221" y2="353.4221"/><line style="stroke:#181818;stroke-width:1;" x1="285.5349" x2="326.5349" y1="353.4221" y2="353.4221"/><polygon fill="#181818" points="295.5349,349.4221,285.5349,353.4221,295.5349,357.4221,291.5349,353.4221" style="stroke:#181818;stroke-width:1;"/><text fill="#000000" font-family="sans-serif" font-size="13" lengthAdjust="spacing" textLength="155.0771" x="291.5349" y="334.6131">Wait for celery task result</text><rect fill="#90EE90" height="25" style="stroke:#181818;stroke-width:0.5;" width="134" x="289.5349" y="366.4221"/><text fill="#000000" font-family="sans-serif" font-size="13" lengthAdjust="spacing" textLength="126.1521" x="293.5349" y="384.3191">celery result timeout</text><rect fill="#FEFFDD" height="25" style="stroke:#181818;stroke-width:0.5;" width="295" x="216.5071" y="427.1281"/><text fill="#000000" font-family="sans-serif" font-size="13" lengthAdjust="spacing" textLength="183.6642" x="272.2413" y="445.0251">Waiting for celery task to start</text><rect fill="#90EE90" height="43" style="stroke:#181818;stroke-width:0.5;" width="72" x="463.612" y="487.8341"/><text fill="#000000" font-family="sans-serif" font-size="13" lengthAdjust="spacing" textLength="64.792" x="467.612" y="505.7311">celery task</text><text fill="#000000" font-family="sans-serif" font-size="13" lengthAdjust="spacing" textLength="21.268" x="467.612" y="523.4371">TTL</text><polygon fill="#181818" points="647.212,555.9521,657.212,559.9521,647.212,563.9521,651.212,559.9521" style="stroke:#181818;stroke-width:1;"/><line style="stroke:#181818;stroke-width:1;" x1="458.612" x2="653.212" y1="559.9521" y2="559.9521"/><text fill="#000000" font-family="sans-serif" font-size="13" lengthAdjust="spacing" textLength="50.414" x="465.612" y="554.1431">Connect</text><polygon fill="#181818" points="647.212,587.6582,657.212,591.6582,647.212,595.6582,651.212,591.6582" style="stroke:#181818;stroke-width:1;"/><line style="stroke:#181818;stroke-width:1;" x1="463.612" x2="653.212" y1="591.6582" y2="591.6582"/><text fill="#000000" font-family="monospace" font-size="13" lengthAdjust="spacing" textLength="148.2001" x="470.612" y="585.8492">V0InitialJobRequest</text><rect fill="#00CC00" height="43" style="stroke:#181818;stroke-width:0.5;" width="101" x="468.612" y="604.6582"/><text fill="#000000" font-family="sans-serif" font-size="13" lengthAdjust="spacing" textLength="93.1971" x="472.612" y="622.5552">initial response</text><text fill="#000000" font-family="sans-serif" font-size="13" lengthAdjust="spacing" textLength="91.4941" x="472.612" y="640.2612">timeout (short)</text><line style="stroke:#181818;stroke-width:1;" x1="669.212" x2="711.212" y1="676.7762" y2="676.7762"/><line style="stroke:#181818;stroke-width:1;" x1="711.212" x2="711.212" y1="676.7762" y2="689.7762"/><line style="stroke:#181818;stroke-width:1;" x1="670.212" x2="711.212" y1="689.7762" y2="689.7762"/><polygon fill="#181818" points="680.212,685.7762,670.212,689.7762,680.212,693.7762,676.212,689.7762" style="stroke:#181818;stroke-width:1;"/><text fill="#000000" font-family="sans-serif" font-size="13" lengthAdjust="spacing" textLength="169.1041" x="676.212" y="670.9672">Reserve executor from pool</text><polygon fill="#181818" points="474.612,717.4822,464.612,721.4822,474.612,725.4822,470.612,721.4822" style="stroke:#181818;stroke-width:1;"/><line style="stroke:#181818;stroke-width:1;" x1="468.612" x2="658.212" y1="721.4822" y2="721.4822"/><text fill="#000000" font-family="monospace" font-size="13" lengthAdjust="spacing" textLength="140.4001" x="480.612" y="715.6732">V0AcceptJobRequest</text><polygon fill="#181818" points="295.5349,749.1882,285.5349,753.1882,295.5349,757.1882,291.5349,753.1882" style="stroke:#181818;stroke-width:1;"/><line style="stroke:#181818;stroke-width:1;" x1="289.5349" x2="447.612" y1="753.1882" y2="753.1882"/><text fill="#000000" font-family="sans-serif" font-size="13" lengthAdjust="spacing" textLength="84.7991" x="301.5349" y="747.3792">Status update</text><polygon fill="#181818" points="106.9106,798.6003,96.9106,802.6003,106.9106,806.6003,102.9106,802.6003" style="stroke:#181818;stroke-width:1;"/><line style="stroke:#181818;stroke-width:1;" x1="100.9106" x2="273.5349" y1="802.6003" y2="802.6003"/><text fill="#000000" font-family="monospace" font-size="13" lengthAdjust="spacing" textLength="132.6001" x="112.9106" y="779.0853">V0JobStatusUpdate</text><text fill="#000000" font-family="sans-serif" font-size="13" lengthAdjust="spacing" textLength="63.9341" x="112.9106" y="796.7913">(Accepted)</text><rect fill="#00CC00" height="43" style="stroke:#181818;stroke-width:0.5;" width="99" x="468.612" y="840.6003"/><text fill="#000000" font-family="sans-serif" font-size="13" lengthAdjust="spacing" textLength="91.7411" x="472.612" y="858.4973">executor ready</text><text fill="#000000" font-family="sans-serif" font-size="13" lengthAdjust="spacing" textLength="48.1261" x="472.612" y="876.2033">timeout</text><polygon fill="#181818" points="1058.4122,944.1304,1068.4122,948.1304,1058.4122,952.1304,1062.4122,948.1304" style="stroke:#181818;stroke-width:1;"/><line style="stroke:#181818;stroke-width:1;" x1="669.212" x2="1064.4122" y1="948.1304" y2="948.1304"/><text fill="#000000" font-family="sans-serif" font-size="13" lengthAdjust="spacing" textLength="86.3071" x="676.212" y="906.9093">Start executor</text><text fill="#000000" font-family="sans-serif" font-size="13" lengthAdjust="spacing" textLength="104.4421" x="676.212" y="924.6153">(via vendor code)</text><text fill="#000000" font-family="sans-serif" font-size="13" lengthAdjust="spacing" textLength="303.8232" x="676.212" y="942.3214">(pass executor TTL to deal with zombie executors)</text><rect fill="#90EE90" height="25" style="stroke:#181818;stroke-width:0.5;" width="86" x="1085.4122" y="961.1304"/><text fill="#000000" font-family="sans-serif" font-size="13" lengthAdjust="spacing" textLength="78.3901" x="1089.4122" y="979.0274">executor TTL</text><polygon fill="#181818" points="885.8121,1036.5424,875.8121,1040.5424,885.8121,1044.5424,881.8121,1040.5424" style="stroke:#181818;stroke-width:1;"/><line style="stroke:#181818;stroke-width:1;" x1="879.8121" x2="1069.4122" y1="1040.5424" y2="1040.5424"/><text fill="#000000" font-family="sans-serif" font-size="13" lengthAdjust="spacing" textLength="50.414" x="891.8121" y="1034.7334">Connect</text><polygon fill="#181818" points="1063.4122,1068.2484,1073.4122,1072.2484,1063.4122,1076.2484,1067.4122,1072.2484" style="stroke:#181818;stroke-width:1;"/><line style="stroke:#181818;stroke-width:1;" x1="874.8121" x2="1069.4122" y1="1072.2484" y2="1072.2484"/><text fill="#000000" font-family="monospace" font-size="13" lengthAdjust="spacing" textLength="148.2001" x="881.8121" y="1066.4394">V0InitialJobRequest</text><rect fill="#00CC00" height="25" style="stroke:#181818;stroke-width:0.5;" width="147" x="1090.4122" y="1085.2484"/><text fill="#000000" font-family="sans-serif" font-size="13" lengthAdjust="spacing" textLength="139.1782" x="1094.4122" y="1103.1454">startup timeout (short)</text><line style="stroke:#181818;stroke-width:1;" x1="1085.4122" x2="1127.4122" y1="1139.6604" y2="1139.6604"/><line style="stroke:#181818;stroke-width:1;" x1="1127.4122" x2="1127.4122" y1="1139.6604" y2="1152.6604"/><line style="stroke:#181818;stroke-width:1;" x1="1086.4122" x2="1127.4122" y1="1152.6604" y2="1152.6604"/><polygon fill="#181818" points="1096.4122,1148.6604,1086.4122,1152.6604,1096.4122,1156.6604,1092.4122,1152.6604" style="stroke:#181818;stroke-width:1;"/><text fill="#000000" font-family="sans-serif" font-size="13" lengthAdjust="spacing" textLength="61.412" x="1092.4122" y="1133.8514">CVE check</text><line style="stroke:#181818;stroke-width:1;" x1="1085.4122" x2="1127.4122" y1="1184.3665" y2="1184.3665"/><line style="stroke:#181818;stroke-width:1;" x1="1127.4122" x2="1127.4122" y1="1184.3665" y2="1197.3665"/><line style="stroke:#181818;stroke-width:1;" x1="1086.4122" x2="1127.4122" y1="1197.3665" y2="1197.3665"/><polygon fill="#181818" points="1096.4122,1193.3665,1086.4122,1197.3665,1096.4122,1201.3665,1092.4122,1197.3665" style="stroke:#181818;stroke-width:1;"/><text fill="#000000" font-family="sans-serif" font-size="13" lengthAdjust="spacing" textLength="103.1031" x="1092.4122" y="1178.5575">toolkit ver. check</text><line style="stroke:#181818;stroke-width:1;" x1="1085.4122" x2="1127.4122" y1="1229.0725" y2="1229.0725"/><line style="stroke:#181818;stroke-width:1;" x1="1127.4122" x2="1127.4122" y1="1229.0725" y2="1242.0725"/><line style="stroke:#181818;stroke-width:1;" x1="1086.4122" x2="1127.4122" y1="1242.0725" y2="1242.0725"/><polygon fill="#181818" points="1096.4122,1238.0725,1086.4122,1242.0725,1096.4122,1246.0725,1092.4122,1242.0725" style="stroke:#181818;stroke-width:1;"/><text fill="#000000" font-family="sans-serif" font-size="13" lengthAdjust="spacing" textLength="81.0031" x="1092.4122" y="1223.2635">clear old jobs</text><path d="M1059.4122,1254.0725 L1302.5844,1254.0725 L1302.5844,1263.7785 L1292.5844,1273.7785 L1059.4122,1273.7785 L1059.4122,1254.0725" fill="#EEEEEE" style="stroke:#000000;stroke-width:1.5;"/><rect fill="none" height="185.2361" style="stroke:#000000;stroke-width:1.5;" width="339.3312" x="1059.4122" y="1254.0725"/><text fill="#000000" font-family="sans-serif" font-size="13" font-weight="bold" lengthAdjust="spacing" textLength="198.1722" x="1074.4122" y="1268.9695">docker image in initial details?</text><path d="M1090.4122,1288.7785 L1090.4122,1351.7785 L1377.4122,1351.7785 L1377.4122,1298.7785 L1367.4122,1288.7785 L1090.4122,1288.7785" fill="#FEFFDD" style="stroke:#181818;stroke-width:0.5;"/><path d="M1367.4122,1288.7785 L1367.4122,1298.7785 L1377.4122,1298.7785 L1367.4122,1288.7785" fill="#FEFFDD" style="stroke:#181818;stroke-width:0.5;"/><text fill="#000000" font-family="sans-serif" font-size="13" lengthAdjust="spacing" textLength="229.9182" x="1096.4122" y="1307.6755">this is only for small images, large job</text><text fill="#000000" font-family="sans-serif" font-size="13" lengthAdjust="spacing" textLength="266.3312" x="1096.4122" y="1325.3815">images must be preloaded somewhere else</text><text fill="#000000" font-family="sans-serif" font-size="13" lengthAdjust="spacing" textLength="129.2201" x="1096.4122" y="1343.0875">or this takes too long</text><path d="M1090.4122,1361.8965 L1090.4122,1388.8965 L1363.4122,1388.8965 L1363.4122,1371.8965 L1353.4122,1361.8965 L1090.4122,1361.8965" fill="#FEFFDD" style="stroke:#181818;stroke-width:0.5;"/><path d="M1353.4122,1361.8965 L1353.4122,1371.8965 L1363.4122,1371.8965 L1353.4122,1361.8965" fill="#FEFFDD" style="stroke:#181818;stroke-width:0.5;"/><text fill="#000000" font-family="sans-serif" font-size="13" lengthAdjust="spacing" textLength="252.6032" x="1096.4122" y="1380.7936">if image is preloaded, this will exit quickly</text><line style="stroke:#181818;stroke-width:1;" x1="1085.4122" x2="1127.4122" y1="1418.3086" y2="1418.3086"/><line style="stroke:#181818;stroke-width:1;" x1="1127.4122" x2="1127.4122" y1="1418.3086" y2="1431.3086"/><line style="stroke:#181818;stroke-width:1;" x1="1086.4122" x2="1127.4122" y1="1431.3086" y2="1431.3086"/><polygon fill="#181818" points="1096.4122,1427.3086,1086.4122,1431.3086,1096.4122,1435.3086,1092.4122,1431.3086" style="stroke:#181818;stroke-width:1;"/><text fill="#000000" font-family="sans-serif" font-size="13" lengthAdjust="spacing" textLength="109.3691" x="1092.4122" y="1412.4996">pull docker image</text><polygon fill="#181818" points="885.8121,1473.0146,875.8121,1477.0146,885.8121,1481.0146,881.8121,1477.0146" style="stroke:#181818;stroke-width:1;"/><line style="stroke:#181818;stroke-width:1;" x1="879.8121" x2="1069.4122" y1="1477.0146" y2="1477.0146"/><text fill="#000000" font-family="monospace" font-size="13" lengthAdjust="spacing" textLength="171.6001" x="891.8121" y="1471.2056">V0ExecutorReadyRequest</text><polygon fill="#181818" points="680.212,1504.7206,670.212,1508.7206,680.212,1512.7206,676.212,1508.7206" style="stroke:#181818;stroke-width:1;"/><line style="stroke:#181818;stroke-width:1;" x1="674.212" x2="863.8121" y1="1508.7206" y2="1508.7206"/><text fill="#000000" font-family="monospace" font-size="13" lengthAdjust="spacing" textLength="171.6001" x="686.212" y="1502.9116">V0ExecutorReadyRequest</text><polygon fill="#181818" points="474.612,1536.4266,464.612,1540.4266,474.612,1544.4266,470.612,1540.4266" style="stroke:#181818;stroke-width:1;"/><line style="stroke:#181818;stroke-width:1;" x1="468.612" x2="658.212" y1="1540.4266" y2="1540.4266"/><text fill="#000000" font-family="monospace" font-size="13" lengthAdjust="spacing" textLength="171.6001" x="480.612" y="1534.6176">V0ExecutorReadyRequest</text><polygon fill="#181818" points="295.5349,1568.1326,285.5349,1572.1326,295.5349,1576.1326,291.5349,1572.1326" style="stroke:#181818;stroke-width:1;"/><line style="stroke:#181818;stroke-width:1;" x1="289.5349" x2="452.612" y1="1572.1326" y2="1572.1326"/><text fill="#000000" font-family="sans-serif" font-size="13" lengthAdjust="spacing" textLength="84.7991" x="301.5349" y="1566.3236">Status update</text><polygon fill="#181818" points="106.9106,1617.5447,96.9106,1621.5447,106.9106,1625.5447,102.9106,1621.5447" style="stroke:#181818;stroke-width:1;"/><line style="stroke:#181818;stroke-width:1;" x1="100.9106" x2="273.5349" y1="1621.5447" y2="1621.5447"/><text fill="#000000" font-family="monospace" font-size="13" lengthAdjust="spacing" textLength="132.6001" x="112.9106" y="1598.0297">V0JobStatusUpdate</text><text fill="#000000" font-family="sans-serif" font-size="13" lengthAdjust="spacing" textLength="99.4371" x="112.9106" y="1615.7357">(Executor ready)</text><polygon fill="#181818" points="647.212,1674.2507,657.212,1678.2507,647.212,1682.2507,651.212,1678.2507" style="stroke:#181818;stroke-width:1;"/><line style="stroke:#181818;stroke-width:1;" x1="463.612" x2="653.212" y1="1678.2507" y2="1678.2507"/><text fill="#000000" font-family="monospace" font-size="13" lengthAdjust="spacing" textLength="93.6" x="470.612" y="1672.4417">V0JobRequest</text><rect fill="#00CC00" height="25" style="stroke:#181818;stroke-width:0.5;" width="78" x="468.612" y="1691.2507"/><text fill="#000000" font-family="sans-serif" font-size="13" lengthAdjust="spacing" textLength="70.7201" x="472.612" y="1709.1477">job timeout</text><polygon fill="#181818" points="852.8121,1741.6627,862.8121,1745.6627,852.8121,1749.6627,856.8121,1745.6627" style="stroke:#181818;stroke-width:1;"/><line style="stroke:#181818;stroke-width:1;" x1="669.212" x2="858.8121" y1="1745.6627" y2="1745.6627"/><text fill="#000000" font-family="monospace" font-size="13" lengthAdjust="spacing" textLength="93.6" x="676.212" y="1739.8537">V0JobRequest</text><polygon fill="#181818" points="1058.4122,1773.3687,1068.4122,1777.3687,1058.4122,1781.3687,1062.4122,1777.3687" style="stroke:#181818;stroke-width:1;"/><line style="stroke:#181818;stroke-width:1;" x1="874.8121" x2="1064.4122" y1="1777.3687" y2="1777.3687"/><text fill="#000000" font-family="monospace" font-size="13" lengthAdjust="spacing" textLength="93.6" x="881.8121" y="1771.5597">V0JobRequest</text><polygon fill="#181818" points="1216.1253,1805.0748,1226.1253,1809.0748,1216.1253,1813.0748,1220.1253,1809.0748" style="stroke:#181818;stroke-width:1;"/><line style="stroke:#181818;stroke-width:1;" x1="1085.4122" x2="1222.1253" y1="1809.0748" y2="1809.0748"/><text fill="#000000" font-family="monospace" font-size="13" lengthAdjust="spacing" textLength="117" x="1092.4122" y="1803.2658">unpack_volume()</text><rect fill="#00CC00" height="25" style="stroke:#181818;stroke-width:0.5;" width="120" x="1090.4122" y="1822.0748"/><text fill="#000000" font-family="sans-serif" font-size="13" lengthAdjust="spacing" textLength="112.1251" x="1094.4122" y="1839.9718">download timeout</text><path d="M1243.1253,1857.7808 L1243.1253,1902.7808 L1418.1253,1902.7808 L1418.1253,1867.7808 L1408.1253,1857.7808 L1243.1253,1857.7808" fill="#FEFFDD" style="stroke:#181818;stroke-width:0.5;"/><path d="M1408.1253,1857.7808 L1408.1253,1867.7808 L1418.1253,1867.7808 L1408.1253,1857.7808" fill="#FEFFDD" style="stroke:#181818;stroke-width:0.5;"/><text fill="#000000" font-family="sans-serif" font-size="13" lengthAdjust="spacing" textLength="154.9861" x="1249.1253" y="1876.6778">Implementation depends</text><text fill="#000000" font-family="sans-serif" font-size="13" lengthAdjust="spacing" textLength="94.6531" x="1249.1253" y="1894.3838">on volume type</text><path d="M1243.1253,1913.1928 L1243.1253,1940.1928 L1449.1253,1940.1928 L1449.1253,1923.1928 L1439.1253,1913.1928 L1243.1253,1913.1928" fill="#FEFFDD" style="stroke:#181818;stroke-width:0.5;"/><path d="M1439.1253,1913.1928 L1439.1253,1923.1928 L1449.1253,1923.1928 L1439.1253,1913.1928" fill="#FEFFDD" style="stroke:#181818;stroke-width:0.5;"/><text fill="#000000" font-family="sans-serif" font-size="13" lengthAdjust="spacing" textLength="185.3282" x="1249.1253" y="1932.0898">Multi volume does a loop here</text><line style="stroke:#181818;stroke-width:1;" x1="1238.1253" x2="1280.1253" y1="1969.6048" y2="1969.6048"/><line style="stroke:#181818;stroke-width:1;" x1="1280.1253" x2="1280.1253" y1="1969.6048" y2="1982.6048"/><line style="stroke:#181818;stroke-width:1;" x1="1239.1253" x2="1280.1253" y1="1982.6048" y2="1982.6048"/><polygon fill="#181818" points="1249.1253,1978.6048,1239.1253,1982.6048,1249.1253,1986.6048,1245.1253,1982.6048" style="stroke:#181818;stroke-width:1;"/><text fill="#000000" font-family="sans-serif" font-size="13" font-weight="bold" lengthAdjust="spacing" textLength="65.221" x="1245.1253" y="1963.7958">Download</text><text fill="#000000" font-family="sans-serif" font-size="13" lengthAdjust="spacing" textLength="55.354" x="1313.7263" y="1963.7958">+ unpack</text><polygon fill="#181818" points="1096.4122,2010.3109,1086.4122,2014.3109,1096.4122,2018.3109,1092.4122,2014.3109" style="stroke:#181818;stroke-width:1;"/><line style="stroke:#181818;stroke-width:1;stroke-dasharray:2.0,2.0;" x1="1090.4122" x2="1227.1253" y1="2014.3109" y2="2014.3109"/><text fill="#000000" font-family="sans-serif" font-size="13" lengthAdjust="spacing" textLength="31.226" x="1102.4122" y="2008.5019">done</text><polygon fill="#181818" points="885.8121,2042.0169,875.8121,2046.0169,885.8121,2050.0169,881.8121,2046.0169" style="stroke:#181818;stroke-width:1;"/><line style="stroke:#181818;stroke-width:1;" x1="879.8121" x2="1069.4122" y1="2046.0169" y2="2046.0169"/><text fill="#000000" font-family="sans-serif" font-size="13" lengthAdjust="spacing" textLength="105.3391" x="891.8121" y="2040.2079">V0VolumesReady</text><polygon fill="#181818" points="680.212,2073.7229,670.212,2077.7229,680.212,2081.7229,676.212,2077.7229" style="stroke:#181818;stroke-width:1;"/><line style="stroke:#181818;stroke-width:1;" x1="674.212" x2="863.8121" y1="2077.7229" y2="2077.7229"/><text fill="#000000" font-family="sans-serif" font-size="13" lengthAdjust="spacing" textLength="105.3391" x="686.212" y="2071.9139">V0VolumesReady</text><polygon fill="#181818" points="474.612,2105.4289,464.612,2109.4289,474.612,2113.4289,470.612,2109.4289" style="stroke:#181818;stroke-width:1;"/><line style="stroke:#181818;stroke-width:1;" x1="468.612" x2="658.212" y1="2109.4289" y2="2109.4289"/><text fill="#000000" font-family="sans-serif" font-size="13" lengthAdjust="spacing" textLength="105.3391" x="480.612" y="2103.6199">V0VolumesReady</text><polygon fill="#181818" points="295.5349,2137.1349,285.5349,2141.1349,295.5349,2145.1349,291.5349,2141.1349" style="stroke:#181818;stroke-width:1;"/><line style="stroke:#181818;stroke-width:1;" x1="289.5349" x2="452.612" y1="2141.1349" y2="2141.1349"/><text fill="#000000" font-family="sans-serif" font-size="13" lengthAdjust="spacing" textLength="106.6781" x="301.5349" y="2135.3259">Job status update</text><polygon fill="#181818" points="106.9106,2186.547,96.9106,2190.547,106.9106,2194.547,102.9106,2190.547" style="stroke:#181818;stroke-width:1;"/><line style="stroke:#181818;stroke-width:1;" x1="100.9106" x2="273.5349" y1="2190.547" y2="2190.547"/><text fill="#000000" font-family="monospace" font-size="13" lengthAdjust="spacing" textLength="132.6001" x="112.9106" y="2167.0319">V0JobStatusUpdate</text><text fill="#000000" font-family="sans-serif" font-size="13" lengthAdjust="spacing" textLength="98.5661" x="112.9106" y="2184.738">(Volumes ready)</text><polygon fill="#181818" points="1369.0804,2243.253,1379.0804,2247.253,1369.0804,2251.253,1373.0804,2247.253" style="stroke:#181818;stroke-width:1;"/><line style="stroke:#181818;stroke-width:1;stroke-dasharray:2.0,2.0;" x1="1085.4122" x2="1375.0804" y1="2247.253" y2="2247.253"/><text fill="#000000" font-family="sans-serif" font-size="13" lengthAdjust="spacing" textLength="66.5601" x="1092.4122" y="2241.444">docker run</text><rect fill="#00CC00" height="25" style="stroke:#181818;stroke-width:0.5;" width="119" x="1090.4122" y="2260.253"/><text fill="#000000" font-family="sans-serif" font-size="13" lengthAdjust="spacing" textLength="111.2671" x="1094.4122" y="2278.15">execution timeout</text><line style="stroke:#181818;stroke-width:1;" x1="1391.0804" x2="1433.0804" y1="2314.665" y2="2314.665"/><line style="stroke:#181818;stroke-width:1;" x1="1433.0804" x2="1433.0804" y1="2314.665" y2="2327.665"/><line style="stroke:#181818;stroke-width:1;" x1="1392.0804" x2="1433.0804" y1="2327.665" y2="2327.665"/><polygon fill="#181818" points="1402.0804,2323.665,1392.0804,2327.665,1402.0804,2331.665,1398.0804,2327.665" style="stroke:#181818;stroke-width:1;"/><text fill="#000000" font-family="sans-serif" font-size="13" lengthAdjust="spacing" textLength="71.6951" x="1398.0804" y="2308.856">Actual work</text><polygon fill="#181818" points="1096.4122,2355.371,1086.4122,2359.371,1096.4122,2363.371,1092.4122,2359.371" style="stroke:#181818;stroke-width:1;"/><line style="stroke:#181818;stroke-width:1;" x1="1090.4122" x2="1380.0804" y1="2359.371" y2="2359.371"/><text fill="#000000" font-family="sans-serif" font-size="13" lengthAdjust="spacing" textLength="83.3561" x="1102.4122" y="2353.562">stdout, stderr</text><polygon fill="#181818" points="885.8121,2387.077,875.8121,2391.077,885.8121,2395.077,881.8121,2391.077" style="stroke:#181818;stroke-width:1;"/><line style="stroke:#181818;stroke-width:1;" x1="879.8121" x2="1069.4122" y1="2391.077" y2="2391.077"/><text fill="#000000" font-family="sans-serif" font-size="13" lengthAdjust="spacing" textLength="107.6141" x="891.8121" y="2385.268">V0ExecutionDone</text><polygon fill="#181818" points="680.212,2418.7831,670.212,2422.7831,680.212,2426.7831,676.212,2422.7831" style="stroke:#181818;stroke-width:1;"/><line style="stroke:#181818;stroke-width:1;" x1="674.212" x2="863.8121" y1="2422.7831" y2="2422.7831"/><text fill="#000000" font-family="sans-serif" font-size="13" lengthAdjust="spacing" textLength="107.6141" x="686.212" y="2416.9741">V0ExecutionDone</text><polygon fill="#181818" points="474.612,2450.4891,464.612,2454.4891,474.612,2458.4891,470.612,2454.4891" style="stroke:#181818;stroke-width:1;"/><line style="stroke:#181818;stroke-width:1;" x1="468.612" x2="658.212" y1="2454.4891" y2="2454.4891"/><text fill="#000000" font-family="sans-serif" font-size="13" lengthAdjust="spacing" textLength="106.6781" x="480.612" y="2448.6801">Job status update</text><polygon fill="#181818" points="295.5349,2482.1951,285.5349,2486.1951,295.5349,2490.1951,291.5349,2486.1951" style="stroke:#181818;stroke-width:1;"/><line style="stroke:#181818;stroke-width:1;" x1="289.5349" x2="452.612" y1="2486.1951" y2="2486.1951"/><text fill="#000000" font-family="sans-serif" font-size="13" lengthAdjust="spacing" textLength="106.6781" x="301.5349" y="2480.3861">Job status update</text><polygon fill="#181818" points="106.9106,2531.6071,96.9106,2535.6071,106.9106,2539.6071,102.9106,2535.6071" style="stroke:#181818;stroke-width:1;"/><line style="stroke:#181818;stroke-width:1;" x1="100.9106" x2="273.5349" y1="2535.6071" y2="2535.6071"/><text fill="#000000" font-family="monospace" font-size="13" lengthAdjust="spacing" textLength="132.6001" x="112.9106" y="2512.0921">V0JobStatusUpdate</text><text fill="#000000" font-family="sans-serif" font-size="13" lengthAdjust="spacing" textLength="102.0631" x="112.9106" y="2529.7981">(Execution done)</text><rect fill="#00CC00" height="25" style="stroke:#181818;stroke-width:0.5;" width="102" x="1090.4122" y="2573.6071"/><text fill="#000000" font-family="sans-serif" font-size="13" lengthAdjust="spacing" textLength="94.0421" x="1094.4122" y="2591.5041">upload timeout</text><line style="stroke:#181818;stroke-width:1;" x1="1085.4122" x2="1127.4122" y1="2628.0192" y2="2628.0192"/><line style="stroke:#181818;stroke-width:1;" x1="1127.4122" x2="1127.4122" y1="2628.0192" y2="2641.0192"/><line style="stroke:#181818;stroke-width:1;" x1="1086.4122" x2="1127.4122" y1="2641.0192" y2="2641.0192"/><polygon fill="#181818" points="1096.4122,2637.0192,1086.4122,2641.0192,1096.4122,2645.0192,1092.4122,2641.0192" style="stroke:#181818;stroke-width:1;"/><text fill="#000000" font-family="sans-serif" font-size="13" lengthAdjust="spacing" textLength="103.6491" x="1092.4122" y="2622.2102">Serialize artifacts</text><path d="M1059.4122,2653.0192 L1132.7522,2653.0192 L1132.7522,2662.7252 L1122.7522,2672.7252 L1059.4122,2672.7252 L1059.4122,2653.0192" fill="#EEEEEE" style="stroke:#000000;stroke-width:1.5;"/><rect fill="none" height="106.118" style="stroke:#000000;stroke-width:1.5;" width="276.6206" x="1059.4122" y="2653.0192"/><text fill="#000000" font-family="sans-serif" font-size="13" font-weight="bold" lengthAdjust="spacing" textLength="28.34" x="1074.4122" y="2667.9162">loop</text><text fill="#000000" font-family="sans-serif" font-size="11" font-weight="bold" lengthAdjust="spacing" textLength="3.641" x="1147.7522" y="2666.7781">[</text><text fill="#000000" font-family="monospace" font-size="11" font-weight="bold" lengthAdjust="spacing" textLength="164.9986" x="1151.3932" y="2666.7781">MultiUploadOutputUploader</text><text fill="#000000" font-family="sans-serif" font-size="11" font-weight="bold" lengthAdjust="spacing" textLength="3.641" x="1316.3918" y="2666.7781">]</text><line style="stroke:#181818;stroke-width:1;" x1="1085.4122" x2="1127.4122" y1="2706.4312" y2="2706.4312"/><line style="stroke:#181818;stroke-width:1;" x1="1127.4122" x2="1127.4122" y1="2706.4312" y2="2719.4312"/><line style="stroke:#181818;stroke-width:1;" x1="1086.4122" x2="1127.4122" y1="2719.4312" y2="2719.4312"/><polygon fill="#181818" points="1096.4122,2715.4312,1086.4122,2719.4312,1096.4122,2723.4312,1092.4122,2719.4312" style="stroke:#181818;stroke-width:1;"/><text fill="#000000" font-family="sans-serif" font-size="13" lengthAdjust="spacing" textLength="90.9481" x="1092.4122" y="2700.6222">Zip the volume</text><polygon fill="#181818" points="1226.1253,2747.1372,1236.1253,2751.1372,1226.1253,2755.1372,1230.1253,2751.1372" style="stroke:#181818;stroke-width:1;"/><line style="stroke:#181818;stroke-width:1;" x1="1085.4122" x2="1232.1253" y1="2751.1372" y2="2751.1372"/><text fill="#000000" font-family="sans-serif" font-size="13" lengthAdjust="spacing" textLength="75.1011" x="1092.4122" y="2745.3282">Start upload</text><polygon fill="#181818" points="1231.1253,2792.8432,1241.1253,2796.8432,1231.1253,2800.8432,1235.1253,2796.8432" style="stroke:#181818;stroke-width:1;"/><line style="stroke:#181818;stroke-width:1;" x1="1085.4122" x2="1237.1253" y1="2796.8432" y2="2796.8432"/><text fill="#000000" font-family="sans-serif" font-size="13" lengthAdjust="spacing" textLength="128.7131" x="1092.4122" y="2791.0342">Upload stdout/stderr</text><line style="stroke:#181818;stroke-width:1;" x1="1085.4122" x2="1127.4122" y1="2828.5492" y2="2828.5492"/><line style="stroke:#181818;stroke-width:1;" x1="1127.4122" x2="1127.4122" y1="2828.5492" y2="2841.5492"/><line style="stroke:#181818;stroke-width:1;" x1="1086.4122" x2="1127.4122" y1="2841.5492" y2="2841.5492"/><polygon fill="#181818" points="1096.4122,2837.5492,1086.4122,2841.5492,1096.4122,2845.5492,1092.4122,2841.5492" style="stroke:#181818;stroke-width:1;"/><text fill="#000000" font-family="sans-serif" font-size="13" lengthAdjust="spacing" textLength="113.5291" x="1092.4122" y="2822.7402">await upload tasks</text><polygon fill="#181818" points="1096.4122,2869.2553,1086.4122,2873.2553,1096.4122,2877.2553,1092.4122,2873.2553" style="stroke:#181818;stroke-width:1;"/><line style="stroke:#181818;stroke-width:1;stroke-dasharray:2.0,2.0;" x1="1090.4122" x2="1242.1253" y1="2873.2553" y2="2873.2553"/><text fill="#000000" font-family="sans-serif" font-size="13" lengthAdjust="spacing" textLength="78.6111" x="1102.4122" y="2867.4463">Upload done</text><polygon fill="#181818" points="1096.4122,2900.9613,1086.4122,2904.9613,1096.4122,2908.9613,1092.4122,2904.9613" style="stroke:#181818;stroke-width:1;"/><line style="stroke:#181818;stroke-width:1;stroke-dasharray:2.0,2.0;" x1="1090.4122" x2="1237.1253" y1="2904.9613" y2="2904.9613"/><text fill="#000000" font-family="sans-serif" font-size="13" lengthAdjust="spacing" textLength="78.6111" x="1102.4122" y="2899.1523">Upload done</text><polygon fill="#181818" points="1096.4122,2932.6673,1086.4122,2936.6673,1096.4122,2940.6673,1092.4122,2936.6673" style="stroke:#181818;stroke-width:1;"/><line style="stroke:#181818;stroke-width:1;stroke-dasharray:2.0,2.0;" x1="1090.4122" x2="1232.1253" y1="2936.6673" y2="2936.6673"/><text fill="#000000" font-family="sans-serif" font-size="13" lengthAdjust="spacing" textLength="78.6111" x="1102.4122" y="2930.8583">Upload done</text><polygon fill="#181818" points="1096.4122,2964.3733,1086.4122,2968.3733,1096.4122,2972.3733,1092.4122,2968.3733" style="stroke:#181818;stroke-width:1;"/><line style="stroke:#181818;stroke-width:1;stroke-dasharray:2.0,2.0;" x1="1090.4122" x2="1227.1253" y1="2968.3733" y2="2968.3733"/><text fill="#000000" font-family="sans-serif" font-size="13" lengthAdjust="spacing" textLength="78.6111" x="1102.4122" y="2962.5643">Upload done</text><polygon fill="#181818" points="885.8121,2996.0793,875.8121,3000.0793,885.8121,3004.0793,881.8121,3000.0793" style="stroke:#181818;stroke-width:1;"/><line style="stroke:#181818;stroke-width:1;" x1="879.8121" x2="1074.4122" y1="3000.0793" y2="3000.0793"/><text fill="#000000" font-family="monospace" font-size="13" lengthAdjust="spacing" textLength="101.4" x="891.8121" y="2994.2703">V0JobFinished</text><polygon fill="#181818" points="680.212,3027.7853,670.212,3031.7853,680.212,3035.7853,676.212,3031.7853" style="stroke:#181818;stroke-width:1;"/><line style="stroke:#181818;stroke-width:1;" x1="674.212" x2="863.8121" y1="3031.7853" y2="3031.7853"/><text fill="#000000" font-family="monospace" font-size="13" lengthAdjust="spacing" textLength="101.4" x="686.212" y="3025.9763">V0JobFinished</text><polygon fill="#181818" points="474.612,3059.4914,464.612,3063.4914,474.612,3067.4914,470.612,3063.4914" style="stroke:#181818;stroke-width:1;"/><line style="stroke:#181818;stroke-width:1;" x1="468.612" x2="658.212" y1="3063.4914" y2="3063.4914"/><text fill="#000000" font-family="monospace" font-size="13" lengthAdjust="spacing" textLength="101.4" x="480.612" y="3057.6824">V0JobFinished</text><rect fill="#FEFFDD" height="25" style="stroke:#181818;stroke-width:0.5;" width="182" x="183.3048" y="3076.4914"/><text fill="#000000" font-family="sans-serif" font-size="13" lengthAdjust="spacing" textLength="174.4601" x="187.3048" y="3094.3884">Waiting for celery task result</text><polygon fill="#181818" points="111.9106,3144.6094,101.9106,3148.6094,111.9106,3152.6094,107.9106,3148.6094" style="stroke:#181818;stroke-width:1;"/><line style="stroke:#181818;stroke-width:1;" x1="105.9106" x2="268.5349" y1="3148.6094" y2="3148.6094"/><text fill="#000000" font-family="monospace" font-size="13" lengthAdjust="spacing" textLength="132.6001" x="117.9106" y="3125.0944">V0JobStatusUpdate</text><text fill="#000000" font-family="sans-serif" font-size="13" lengthAdjust="spacing" textLength="66.7421" x="117.9106" y="3142.8004">(Complete)</text><line style="stroke:#181818;stroke-width:1;" x1="100.9106" x2="142.9106" y1="3180.3154" y2="3180.3154"/><line style="stroke:#181818;stroke-width:1;" x1="142.9106" x2="142.9106" y1="3180.3154" y2="3193.3154"/><line style="stroke:#181818;stroke-width:1;" x1="101.9106" x2="142.9106" y1="3193.3154" y2="3193.3154"/><polygon fill="#181818" points="111.9106,3189.3154,101.9106,3193.3154,111.9106,3197.3154,107.9106,3193.3154" style="stroke:#181818;stroke-width:1;"/><text fill="#000000" font-family="sans-serif" font-size="13" lengthAdjust="spacing" textLength="95.5371" x="107.9106" y="3174.5064">Store job status</text><!--SRC=[tLXRRzis57xNh-2KboRBrc10N_omeKrIeCEA3KcQ0KE0WPQERCuKgPAK7GVvyJlKdJ8Poqw10KE2nAPuldF_UCJl2aKNEIK6v1CngeH8hvWegA8vqV2r19701_duGQeKrANaKf6JXQBRQ2uVoKUQCCuCDRZwHhEyu2nZa9wIaooRHmXYMC8AAinmPmGY9IXT8TnJpj9A_WGWUvTbZbGyL9188I0nJ8hOtVIP2L3aIh4rgDX1hv-SSBPOcYrmBZUkPA_zKWfTvbRUsN3z24dfFX_YTuzF8BC_Zd3xq4MyethrzhQS5qeceBMhxrSvx_2Zw8UVXs6RaKi5r03v1pTHZCFQVXd6THYiiUmj_gr5Hxj28PwHEBx_2GswiKMWJHptIeDfIS5hM1GIs34JTLwWpblyMkel1UO6ulX1lBc1132zwUcBK65V_c39YkIs6eu4m8pbp904EAWjCPZ48u7-f0YJsTKUYYZG9JVx0zoKya81Y4W9YLkLNI0ocoGpQxNM2ebXESZIHC_FpmsSn1uAGfsFUgtsXed5ZaD64csmi2latYr7-aLdWZjdGpqFukxkjsYqsORVqzWp-z5wCh37r_zJqMofVXBeFkM1BXdvS95Sx7CJjym8gq5jZWfK1m-YIHDIx58gWptWCIXiw0reK6iWq99LfcHE2Ybv66YKPklh-oI1mZYk3jfzHCAU88PRgsfsKbRT_dgggEsqLF5oyKrDHnSsPDzqsoKZ6BkMzYl7bEdaqRGresID_5vvbi8fBXLKwru5LhDj7Omh9njcbkH9vdFMfqwVzlxqPq-uZNnxPewwEaZTFfketJFFrpgUaz6pvWPaRylqzdgoupoSrVnI5cJS75vVh0ltroHPGh8AxZ3O4YjaPqp-ZvwjlHy91wg8vAazK7MqK1BjI6Momk9XELq0zd3NnYaOohZ-9V9xWsgNJ1FybO9lAoBLEUMy1jBdX5Erg4xk1r4laRpKXio150guf2caHCiSDal04nwu9Gm4gL0DNU5-z8jmAHP12rZMcgrxqFCQOiFG5dZ4i7mjyH3bsq1CYXBt3MDG3J9LQ8OyqGr5UqlE5akxVcDRhw-NGA65UJg4Sm3zXI2E9heNoFEr57ZjK5P3X8USQz_sGCFQ9VjOCrW2ZYcJ6CQHSCfiF7lR_IM-woIhlzUI8zoRKyVVdLdzAA9AvKRObkfYC0hPhbMVy4KASX2OLymxCaY1lQInhGMfxIHcMy1-dCyuux5M99L81HI9G1R4KaMq8n28qTdPLUF1sHdvdjG1YnIOKg5jKe2tluVblHF7lSr_Vt5VMQshTZkiuSUo4vjyB7P0OsF5sUFeMqunZIrE1_THGnGKchLygqfnN6dMau2jiROsEnZxAchzQbMzJqnffnAfLkrwttRQf2XyRl-3Sd9lOOwY_vPnqRWhMsC7bi18U68DU1BvtvP1vqRLQEEHzf1KbuN3GVv3_1OKZYpi2OYzbCXGaOugmeZZYak-L22_bwOeJVqPWn87mFvYE9mjeU6VVKnS3ykrbPCe-A17TXQnZkopedQggUUtJJbF9BBUSxgnB_bjn556-yZM4MaKZ-bqL-F_66ZII8XTyX57Qxs4r7q3zPqytTh14sDGZVV5vu0vCWpikum83udX9nCkSi8NDyrDr10zTDdtQdAxb7RECKXhKzGTV-NPa7B5dVuRody1]--></g></svg>