<svg xmlns="http://www.w3.org/2000/svg" xmlns:xlink="http://www.w3.org/1999/xlink" contentStyleType="text/css" data-diagram-type="SEQUENCE" height="2867px" preserveAspectRatio="none" style="width:1588px;height:2867px;background:#FFFFFF;" version="1.1" viewBox="0 0 1588 2867" width="1588px" zoomAndPan="magnify"><defs/><g><rect fill="#FFFFBB" height="2855.9791" style="stroke:#808080;stroke-width:0.5;" width="93.6671" x="44.9955" y="6"/><text fill="#000000" font-family="sans-serif" font-size="13" font-weight="bold" lengthAdjust="spacing" textLength="66.287" x="56.9955" y="19.897">Facilitator</text><rect fill="#EEF5FF" height="2855.9791" style="stroke:#808080;stroke-width:0.5;" width="307.1917" x="176.7154" y="6"/><text fill="#000000" font-family="sans-serif" font-size="13" font-weight="bold" lengthAdjust="spacing" textLength="59.579" x="298.8317" y="19.897">Validator</text><rect fill="#FFFFE0" height="2855.9791" style="stroke:#808080;stroke-width:0.5;" width="501.4749" x="565.6735" y="6"/><text fill="#000000" font-family="sans-serif" font-size="13" font-weight="bold" lengthAdjust="spacing" textLength="38.168" x="795.637" y="19.897">Miner</text><rect fill="#EFEFEF" height="2855.9791" style="stroke:#808080;stroke-width:0.5;" width="362.0011" x="1157.1169" y="6"/><text fill="#000000" font-family="sans-serif" font-size="13" font-weight="bold" lengthAdjust="spacing" textLength="57.291" x="1307.7819" y="19.897">Executor</text><g><title>Facilitator</title><rect fill="#000000" fill-opacity="0.00000" height="2760.1372" width="8" x="88.329" y="61.7739"/><line style="stroke:#181818;stroke-width:0.5;stroke-dasharray:5.0,5.0;" x1="91.829" x2="91.829" y1="61.7739" y2="2821.9111"/></g><g><title/><rect fill="#FFFFFF" height="76.412" style="stroke:#181818;stroke-width:1;" width="10" x="86.829" y="93.4799"/></g><g><title/><rect fill="#FFFFFF" height="82.706" style="stroke:#181818;stroke-width:1;" width="10" x="86.829" y="844.0802"/></g><g><title/><rect fill="#FFFFFF" height="82.706" style="stroke:#181818;stroke-width:1;" width="10" x="86.829" y="2734.2051"/></g><g><title>Facilitator connection</title><rect fill="#000000" fill-opacity="0.00000" height="2760.1372" width="8" x="254.9291" y="61.7739"/><line style="stroke:#181818;stroke-width:0.5;stroke-dasharray:5.0,5.0;" x1="258.4291" x2="258.4291" y1="61.7739" y2="2821.9111"/></g><g><title/><rect fill="#FFFFFF" height="2564.3131" style="stroke:#181818;stroke-width:1;" width="10" x="253.4291" y="169.892"/></g><g><title/><rect fill="#90EE90" height="2380.7831" style="stroke:#181818;stroke-width:1;" width="10" x="258.4291" y="304.01"/></g><g><title>Miner Driver</title><rect fill="#000000" fill-opacity="0.00000" height="2760.1372" width="8" x="428.0652" y="61.7739"/><line style="stroke:#181818;stroke-width:0.5;stroke-dasharray:5.0,5.0;" x1="431.5652" x2="431.5652" y1="61.7739" y2="2821.9111"/></g><g><title/><rect fill="#90EE90" height="2301.371" style="stroke:#181818;stroke-width:1;" width="10" x="426.5652" y="383.4221"/></g><g><title/><rect fill="#00CC00" height="266.716" style="stroke:#181818;stroke-width:1;" width="10" x="431.5652" y="460.5401"/></g><g><title/><rect fill="#00CC00" height="817.2384" style="stroke:#181818;stroke-width:1;" width="10" x="431.5652" y="758.9622"/></g><g><title/><rect fill="#00CC00" height="1045.1805" style="stroke:#181818;stroke-width:1;" width="10" x="431.5652" y="1607.9066"/></g><g><title>Validator Consumer</title><rect fill="#000000" fill-opacity="0.00000" height="2760.1372" width="8" x="638.6653" y="61.7739"/><line style="stroke:#181818;stroke-width:0.5;stroke-dasharray:5.0,5.0;" x1="642.1653" x2="642.1653" y1="61.7739" y2="2821.9111"/></g><g><title/><rect fill="#FFFFFF" height="599.3642" style="stroke:#181818;stroke-width:1;" width="10" x="637.1653" y="460.5401"/></g><g><title/><rect fill="#FFFFFF" height="31.706" style="stroke:#181818;stroke-width:1;" width="10" x="637.1653" y="1544.4945"/></g><g><title/><rect fill="#FFFFFF" height="31.706" style="stroke:#181818;stroke-width:1;" width="10" x="637.1653" y="1607.9066"/></g><g><title/><rect fill="#FFFFFF" height="31.706" style="stroke:#181818;stroke-width:1;" width="10" x="637.1653" y="2621.3811"/></g><g><title/><rect fill="#90EE90" height="149.892" style="stroke:#181818;stroke-width:1;" width="10" x="642.1653" y="545.6582"/></g><g><title>Reservation task</title><rect fill="#000000" fill-opacity="0.00000" height="2299.959" width="8" x="844.9131" y="521.9521"/><line style="stroke:#181818;stroke-width:0.5;stroke-dasharray:5.0,5.0;" x1="848.4131" x2="848.4131" y1="521.9521" y2="2821.9111"/></g><g><title/><rect fill="#FFFFFF" height="431.5401" style="stroke:#181818;stroke-width:1;" width="10" x="843.4131" y="545.6582"/></g><g><title>Executor Consumer</title><rect fill="#000000" fill-opacity="0.00000" height="2760.1372" width="8" x="987.8987" y="61.7739"/><line style="stroke:#181818;stroke-width:0.5;stroke-dasharray:5.0,5.0;" x1="991.3987" x2="991.3987" y1="61.7739" y2="2821.9111"/></g><g><title/><rect fill="#FFFFFF" height="31.706" style="stroke:#181818;stroke-width:1;" width="10" x="986.3987" y="1078.6103"/></g><g><title/><rect fill="#FFFFFF" height="31.706" style="stroke:#181818;stroke-width:1;" width="10" x="986.3987" y="1512.7885"/></g><g><title/><rect fill="#FFFFFF" height="31.706" style="stroke:#181818;stroke-width:1;" width="10" x="986.3987" y="1639.6126"/></g><g><title/><rect fill="#FFFFFF" height="31.706" style="stroke:#181818;stroke-width:1;" width="10" x="986.3987" y="2589.675"/></g><g><title>Executor</title><rect fill="#000000" fill-opacity="0.00000" height="2760.1372" width="8" x="1193.4988" y="61.7739"/><line style="stroke:#181818;stroke-width:0.5;stroke-dasharray:5.0,5.0;" x1="1196.9988" x2="1196.9988" y1="61.7739" y2="2821.9111"/></g><g><title/><rect fill="#FFFFFF" height="1626.4768" style="stroke:#181818;stroke-width:1;" width="10" x="1191.9988" y="963.1983"/></g><g><title/><rect fill="#90EE90" height="85.118" style="stroke:#181818;stroke-width:1;" width="10" x="1196.9988" y="1142.0223"/></g><g><title/><rect fill="#90EE90" height="85.118" style="stroke:#181818;stroke-width:1;" width="10" x="1196.9988" y="1258.8464"/></g><g><title/><rect fill="#90EE90" height="205.2361" style="stroke:#181818;stroke-width:1;" width="10" x="1196.9988" y="1703.0246"/></g><g><title/><rect fill="#90EE90" height="129.8241" style="stroke:#181818;stroke-width:1;" width="10" x="1196.9988" y="2020.3788"/></g><g><title>Task/Subprocess</title><rect fill="#000000" fill-opacity="0.00000" height="2760.1372" width="8" x="1351.2119" y="61.7739"/><line style="stroke:#181818;stroke-width:0.5;stroke-dasharray:5.0,5.0;" x1="1354.7119" x2="1354.7119" y1="61.7739" y2="2821.9111"/></g><g><title/><rect fill="#FFFFFF" height="85.118" style="stroke:#181818;stroke-width:1;" width="10" x="1349.7119" y="1142.0223"/></g><g><title/><rect fill="#FFFFFF" height="85.118" style="stroke:#181818;stroke-width:1;" width="10" x="1349.7119" y="1258.8464"/></g><g><title/><rect fill="#FFFFFF" height="205.2361" style="stroke:#181818;stroke-width:1;" width="10" x="1349.7119" y="1703.0246"/></g><g><title/><rect fill="#90EE90" height="252.9421" style="stroke:#181818;stroke-width:1;" width="10" x="1349.7119" y="2305.0269"/></g><g><title/><rect fill="#90EE90" height="221.2361" style="stroke:#181818;stroke-width:1;" width="10" x="1354.7119" y="2305.0269"/></g><g><title/><rect fill="#90EE90" height="189.5301" style="stroke:#181818;stroke-width:1;" width="10" x="1359.7119" y="2305.0269"/></g><g><title/><rect fill="#90EE90" height="76.412" style="stroke:#181818;stroke-width:1;" width="10" x="1364.7119" y="2386.4389"/></g><g><title>Job</title><rect fill="#000000" fill-opacity="0.00000" height="2760.1372" width="8" x="1494.167" y="61.7739"/><line style="stroke:#181818;stroke-width:0.5;stroke-dasharray:5.0,5.0;" x1="1497.667" x2="1497.667" y1="61.7739" y2="2821.9111"/></g><g><title/><rect fill="#FFFFFF" height="129.8241" style="stroke:#181818;stroke-width:1;" width="10" x="1492.667" y="2020.3788"/></g><rect fill="#E2E2F0" height="33.0679" rx="2.5" ry="2.5" style="stroke:#181818;stroke-width:0.5;" width="78.8898" x="52.3842" y="27.706"/><text fill="#000000" font-family="sans-serif" font-size="14" lengthAdjust="spacing" textLength="64.8898" x="59.3842" y="49.672">Facilitator</text><rect fill="#E2E2F0" height="33.0679" rx="2.5" ry="2.5" style="stroke:#181818;stroke-width:0.5;" width="155.4275" x="180.7154" y="27.706"/><text fill="#000000" font-family="sans-serif" font-size="14" lengthAdjust="spacing" textLength="141.4275" x="187.7154" y="49.672">Facilitator connection</text><rect fill="#E2E2F0" height="33.0679" rx="2.5" ry="2.5" style="stroke:#181818;stroke-width:0.5;" width="96.6837" x="383.2234" y="27.706"/><text fill="#000000" font-family="sans-serif" font-size="14" lengthAdjust="spacing" textLength="82.6837" x="390.2234" y="49.672">Miner Driver</text><rect fill="#E2E2F0" height="33.0679" rx="2.5" ry="2.5" style="stroke:#181818;stroke-width:0.5;" width="144.9835" x="569.6735" y="27.706"/><text fill="#000000" font-family="sans-serif" font-size="14" lengthAdjust="spacing" textLength="130.9835" x="576.6735" y="49.672">Validator Consumer</text><rect fill="#E2E2F0" height="33.0679" rx="2.5" ry="2.5" style="stroke:#181818;stroke-width:0.5;" width="143.4995" x="919.6489" y="27.706"/><text fill="#000000" font-family="sans-serif" font-size="14" lengthAdjust="spacing" textLength="129.4995" x="926.6489" y="49.672">Executor Consumer</text><rect fill="#E2E2F0" height="33.0679" rx="2.5" ry="2.5" style="stroke:#181818;stroke-width:0.5;" width="71.7638" x="1161.1169" y="27.706"/><text fill="#000000" font-family="sans-serif" font-size="14" lengthAdjust="spacing" textLength="57.7638" x="1168.1169" y="49.672">Executor</text><rect fill="#E2E2F0" height="33.0679" rx="2.5" ry="2.5" style="stroke:#181818;stroke-width:0.5;" width="124.8656" x="1292.2791" y="27.706"/><text fill="#000000" font-family="sans-serif" font-size="14" lengthAdjust="spacing" textLength="110.8656" x="1299.2791" y="49.672">Task/Subprocess</text><rect fill="#E2E2F0" height="33.0679" rx="2.5" ry="2.5" style="stroke:#181818;stroke-width:0.5;" width="34.9019" x="1480.216" y="27.706"/><text fill="#000000" font-family="sans-serif" font-size="14" lengthAdjust="spacing" textLength="20.9019" x="1487.216" y="49.672">Job</text><rect fill="#E2E2F0" height="33.0679" rx="2.5" ry="2.5" style="stroke:#181818;stroke-width:0.5;" width="78.8898" x="52.3842" y="2821.9111"/><text fill="#000000" font-family="sans-serif" font-size="14" lengthAdjust="spacing" textLength="64.8898" x="59.3842" y="2843.8771">Facilitator</text><rect fill="#E2E2F0" height="33.0679" rx="2.5" ry="2.5" style="stroke:#181818;stroke-width:0.5;" width="155.4275" x="180.7154" y="2821.9111"/><text fill="#000000" font-family="sans-serif" font-size="14" lengthAdjust="spacing" textLength="141.4275" x="187.7154" y="2843.8771">Facilitator connection</text><rect fill="#E2E2F0" height="33.0679" rx="2.5" ry="2.5" style="stroke:#181818;stroke-width:0.5;" width="96.6837" x="383.2234" y="2821.9111"/><text fill="#000000" font-family="sans-serif" font-size="14" lengthAdjust="spacing" textLength="82.6837" x="390.2234" y="2843.8771">Miner Driver</text><rect fill="#E2E2F0" height="33.0679" rx="2.5" ry="2.5" style="stroke:#181818;stroke-width:0.5;" width="144.9835" x="569.6735" y="2821.9111"/><text fill="#000000" font-family="sans-serif" font-size="14" lengthAdjust="spacing" textLength="130.9835" x="576.6735" y="2843.8771">Validator Consumer</text><rect fill="#E2E2F0" height="33.0679" rx="2.5" ry="2.5" style="stroke:#181818;stroke-width:0.5;" width="122.4716" x="787.1774" y="2821.9111"/><text fill="#000000" font-family="sans-serif" font-size="14" lengthAdjust="spacing" textLength="108.4716" x="794.1774" y="2843.8771">Reservation task</text><rect fill="#E2E2F0" height="33.0679" rx="2.5" ry="2.5" style="stroke:#181818;stroke-width:0.5;" width="143.4995" x="919.6489" y="2821.9111"/><text fill="#000000" font-family="sans-serif" font-size="14" lengthAdjust="spacing" textLength="129.4995" x="926.6489" y="2843.8771">Executor Consumer</text><rect fill="#E2E2F0" height="33.0679" rx="2.5" ry="2.5" style="stroke:#181818;stroke-width:0.5;" width="71.7638" x="1161.1169" y="2821.9111"/><text fill="#000000" font-family="sans-serif" font-size="14" lengthAdjust="spacing" textLength="57.7638" x="1168.1169" y="2843.8771">Executor</text><rect fill="#E2E2F0" height="33.0679" rx="2.5" ry="2.5" style="stroke:#181818;stroke-width:0.5;" width="124.8656" x="1292.2791" y="2821.9111"/><text fill="#000000" font-family="sans-serif" font-size="14" lengthAdjust="spacing" textLength="110.8656" x="1299.2791" y="2843.8771">Task/Subprocess</text><rect fill="#E2E2F0" height="33.0679" rx="2.5" ry="2.5" style="stroke:#181818;stroke-width:0.5;" width="34.9019" x="1480.216" y="2821.9111"/><text fill="#000000" font-family="sans-serif" font-size="14" lengthAdjust="spacing" textLength="20.9019" x="1487.216" y="2843.8771">Job</text><polygon fill="#181818" points="74.829,89.4799,84.829,93.4799,74.829,97.4799,78.829,93.4799" style="stroke:#181818;stroke-width:1;"/><line style="stroke:#181818;stroke-width:1;" x1="5" x2="80.829" y1="93.4799" y2="93.4799"/><text fill="#000000" font-family="sans-serif" font-size="13" lengthAdjust="spacing" textLength="62.829" x="12" y="87.6709">Create job</text><line style="stroke:#181818;stroke-width:1;" x1="96.829" x2="138.829" y1="125.186" y2="125.186"/><line style="stroke:#181818;stroke-width:1;" x1="138.829" x2="138.829" y1="125.186" y2="138.186"/><line style="stroke:#181818;stroke-width:1;" x1="97.829" x2="138.829" y1="138.186" y2="138.186"/><polygon fill="#181818" points="107.829,134.186,97.829,138.186,107.829,142.186,103.829,138.186" style="stroke:#181818;stroke-width:1;"/><text fill="#000000" font-family="sans-serif" font-size="13" lengthAdjust="spacing" textLength="54.9901" x="103.829" y="119.377">Store job</text><polygon fill="#181818" points="241.4291,165.892,251.4291,169.892,241.4291,173.892,245.4291,169.892" style="stroke:#181818;stroke-width:1;"/><line style="stroke:#181818;stroke-width:1;" x1="96.829" x2="247.4291" y1="169.892" y2="169.892"/><text fill="#000000" font-family="monospace" font-size="13" lengthAdjust="spacing" textLength="93.6" x="103.829" y="164.083">V2JobRequest</text><line style="stroke:#181818;stroke-width:1;" x1="263.4291" x2="305.4291" y1="201.598" y2="201.598"/><line style="stroke:#181818;stroke-width:1;" x1="305.4291" x2="305.4291" y1="201.598" y2="214.598"/><line style="stroke:#181818;stroke-width:1;" x1="264.4291" x2="305.4291" y1="214.598" y2="214.598"/><polygon fill="#181818" points="274.4291,210.598,264.4291,214.598,274.4291,218.598,270.4291,214.598" style="stroke:#181818;stroke-width:1;"/><text fill="#000000" font-family="sans-serif" font-size="13" lengthAdjust="spacing" textLength="64.0251" x="270.4291" y="195.789">Pick miner</text><line style="stroke:#181818;stroke-width:1;" x1="263.4291" x2="305.4291" y1="246.304" y2="246.304"/><line style="stroke:#181818;stroke-width:1;" x1="305.4291" x2="305.4291" y1="246.304" y2="259.304"/><line style="stroke:#181818;stroke-width:1;" x1="264.4291" x2="305.4291" y1="259.304" y2="259.304"/><polygon fill="#181818" points="274.4291,255.304,264.4291,259.304,274.4291,263.304,270.4291,259.304" style="stroke:#181818;stroke-width:1;"/><text fill="#000000" font-family="sans-serif" font-size="13" lengthAdjust="spacing" textLength="105.5991" x="270.4291" y="240.495">Submit celery job</text><line style="stroke:#181818;stroke-width:1;" x1="263.4291" x2="310.4291" y1="291.01" y2="291.01"/><line style="stroke:#181818;stroke-width:1;" x1="310.4291" x2="310.4291" y1="291.01" y2="304.01"/><line style="stroke:#181818;stroke-width:1;" x1="269.4291" x2="310.4291" y1="304.01" y2="304.01"/><polygon fill="#181818" points="279.4291,300.01,269.4291,304.01,279.4291,308.01,275.4291,304.01" style="stroke:#181818;stroke-width:1;"/><text fill="#000000" font-family="sans-serif" font-size="13" lengthAdjust="spacing" textLength="149.1361" x="275.4291" y="285.201">Wait for celery job result</text><rect fill="#90EE90" height="25" style="stroke:#181818;stroke-width:0.5;" width="134" x="273.4291" y="317.01"/><text fill="#000000" font-family="sans-serif" font-size="13" lengthAdjust="spacing" textLength="126.1521" x="277.4291" y="334.907">celery result timeout</text><rect fill="#FEFFDD" height="25" style="stroke:#181818;stroke-width:0.5;" width="289" x="200.4013" y="352.716"/><text fill="#000000" font-family="sans-serif" font-size="13" lengthAdjust="spacing" textLength="183.6642" x="253.1651" y="370.6131">Waiting for celery task to start</text><rect fill="#90EE90" height="43" style="stroke:#181818;stroke-width:0.5;" width="72" x="441.5652" y="388.4221"/><text fill="#000000" font-family="sans-serif" font-size="13" lengthAdjust="spacing" textLength="64.792" x="445.5652" y="406.3191">celery task</text><text fill="#000000" font-family="sans-serif" font-size="13" lengthAdjust="spacing" textLength="48.1261" x="445.5652" y="424.0251">timeout</text><polygon fill="#181818" points="625.1653,456.5401,635.1653,460.5401,625.1653,464.5401,629.1653,460.5401" style="stroke:#181818;stroke-width:1;"/><line style="stroke:#181818;stroke-width:1;" x1="441.5652" x2="631.1653" y1="460.5401" y2="460.5401"/><text fill="#000000" font-family="monospace" font-size="13" lengthAdjust="spacing" textLength="148.2001" x="448.5652" y="454.7311">V0InitialJobRequest</text><rect fill="#00CC00" height="43" style="stroke:#181818;stroke-width:0.5;" width="101" x="446.5652" y="473.5401"/><text fill="#000000" font-family="sans-serif" font-size="13" lengthAdjust="spacing" textLength="93.1971" x="450.5652" y="491.4371">initial response</text><text fill="#000000" font-family="sans-serif" font-size="13" lengthAdjust="spacing" textLength="48.1261" x="450.5652" y="509.1431">timeout</text><rect fill="#E2E2F0" height="33.0679" rx="2.5" ry="2.5" style="stroke:#181818;stroke-width:0.5;" width="122.4716" x="782.1774" y="521.9521"/><text fill="#000000" font-family="sans-serif" font-size="14" lengthAdjust="spacing" textLength="108.4716" x="789.1774" y="543.9181">Reservation task</text><polygon fill="#181818" points="770.1774,541.6582,780.1774,545.6582,770.1774,549.6582,774.1774,545.6582" style="stroke:#181818;stroke-width:1;"/><line style="stroke:#181818;stroke-width:1;" x1="652.1653" x2="776.1774" y1="545.6582" y2="545.6582"/><text fill="#000000" font-family="sans-serif" font-size="13" lengthAdjust="spacing" textLength="116.0121" x="659.1653" y="539.8492">"Reserve" executor</text><rect fill="#90EE90" height="43" style="stroke:#181818;stroke-width:0.5;" width="77" x="657.1653" y="561.0201"/><text fill="#000000" font-family="sans-serif" font-size="13" lengthAdjust="spacing" textLength="69.472" x="661.1653" y="578.9171">reservation</text><text fill="#000000" font-family="sans-serif" font-size="13" lengthAdjust="spacing" textLength="48.1261" x="661.1653" y="596.6231">timeout</text><line style="stroke:#181818;stroke-width:1;" x1="853.4131" x2="895.4131" y1="650.8441" y2="650.8441"/><line style="stroke:#181818;stroke-width:1;" x1="895.4131" x2="895.4131" y1="650.8441" y2="663.8441"/><line style="stroke:#181818;stroke-width:1;" x1="854.4131" x2="895.4131" y1="663.8441" y2="663.8441"/><polygon fill="#181818" points="864.4131,659.8441,854.4131,663.8441,864.4131,667.8441,860.4131,663.8441" style="stroke:#181818;stroke-width:1;"/><text fill="#000000" font-family="sans-serif" font-size="13" lengthAdjust="spacing" textLength="105.4041" x="860.4131" y="627.3291">Reserve executor</text><text fill="#000000" font-family="sans-serif" font-size="13" lengthAdjust="spacing" textLength="60.3201" x="860.4131" y="645.0351">from pool</text><polygon fill="#181818" points="663.1653,691.5501,653.1653,695.5501,663.1653,699.5501,659.1653,695.5501" style="stroke:#181818;stroke-width:1;"/><line style="stroke:#181818;stroke-width:1;" x1="657.1653" x2="842.4131" y1="695.5501" y2="695.5501"/><text fill="#000000" font-family="sans-serif" font-size="13" lengthAdjust="spacing" textLength="132.4181" x="669.1653" y="689.7411">set reservation future</text><polygon fill="#181818" points="452.5652,723.2562,442.5652,727.2562,452.5652,731.2562,448.5652,727.2562" style="stroke:#181818;stroke-width:1;"/><line style="stroke:#181818;stroke-width:1;" x1="446.5652" x2="636.1653" y1="727.2562" y2="727.2562"/><text fill="#000000" font-family="monospace" font-size="13" lengthAdjust="spacing" textLength="140.4001" x="458.5652" y="721.4472">V0AcceptJobRequest</text><polygon fill="#181818" points="279.4291,754.9622,269.4291,758.9622,279.4291,762.9622,275.4291,758.9622" style="stroke:#181818;stroke-width:1;"/><line style="stroke:#181818;stroke-width:1;" x1="273.4291" x2="430.5652" y1="758.9622" y2="758.9622"/><text fill="#000000" font-family="sans-serif" font-size="13" lengthAdjust="spacing" textLength="84.7991" x="285.4291" y="753.1532">Status update</text><rect fill="#00CC00" height="43" style="stroke:#181818;stroke-width:0.5;" width="99" x="446.5652" y="771.9622"/><text fill="#000000" font-family="sans-serif" font-size="13" lengthAdjust="spacing" textLength="91.7411" x="450.5652" y="789.8592">executor ready</text><text fill="#000000" font-family="sans-serif" font-size="13" lengthAdjust="spacing" textLength="48.1261" x="450.5652" y="807.5652">timeout</text><polygon fill="#181818" points="107.829,840.0802,97.829,844.0802,107.829,848.0802,103.829,844.0802" style="stroke:#181818;stroke-width:1;"/><line style="stroke:#181818;stroke-width:1;" x1="101.829" x2="257.4291" y1="844.0802" y2="844.0802"/><text fill="#000000" font-family="monospace" font-size="13" lengthAdjust="spacing" textLength="132.6001" x="113.829" y="838.2712">V0JobStatusUpdate</text><line style="stroke:#181818;stroke-width:1;" x1="96.829" x2="138.829" y1="875.7862" y2="875.7862"/><line style="stroke:#181818;stroke-width:1;" x1="138.829" x2="138.829" y1="875.7862" y2="888.7862"/><line style="stroke:#181818;stroke-width:1;" x1="97.829" x2="138.829" y1="888.7862" y2="888.7862"/><polygon fill="#181818" points="107.829,884.7862,97.829,888.7862,107.829,892.7862,103.829,888.7862" style="stroke:#181818;stroke-width:1;"/><text fill="#000000" font-family="sans-serif" font-size="13" lengthAdjust="spacing" textLength="95.5371" x="103.829" y="869.9772">Store job status</text><polygon fill="#181818" points="1179.9988,959.1983,1189.9988,963.1983,1179.9988,967.1983,1183.9988,963.1983" style="stroke:#181818;stroke-width:1;"/><line style="stroke:#181818;stroke-width:1;" x1="853.4131" x2="1185.9988" y1="963.1983" y2="963.1983"/><text fill="#000000" font-family="sans-serif" font-size="13" lengthAdjust="spacing" textLength="86.3071" x="860.4131" y="939.6833">Start executor</text><text fill="#000000" font-family="sans-serif" font-size="13" lengthAdjust="spacing" textLength="104.4421" x="860.4131" y="957.3893">(via vendor code)</text><polygon fill="#181818" points="658.1653,973.1983,648.1653,977.1983,658.1653,981.1983,654.1653,977.1983" style="stroke:#181818;stroke-width:1;"/><line style="stroke:#181818;stroke-width:1;stroke-dasharray:2.0,2.0;" x1="652.1653" x2="842.4131" y1="977.1983" y2="977.1983"/><line style="stroke:#181818;stroke-width:1;" x1="647.1653" x2="689.1653" y1="1008.9043" y2="1008.9043"/><line style="stroke:#181818;stroke-width:1;" x1="689.1653" x2="689.1653" y1="1008.9043" y2="1021.9043"/><line style="stroke:#181818;stroke-width:1;" x1="648.1653" x2="689.1653" y1="1021.9043" y2="1021.9043"/><polygon fill="#181818" points="658.1653,1017.9043,648.1653,1021.9043,658.1653,1025.9043,654.1653,1021.9043" style="stroke:#181818;stroke-width:1;"/><text fill="#000000" font-family="sans-serif" font-size="13" lengthAdjust="spacing" textLength="105.1701" x="654.1653" y="1003.0953">Store executor IP</text><polygon fill="#181818" points="1007.3987,1074.6103,997.3987,1078.6103,1007.3987,1082.6103,1003.3987,1078.6103" style="stroke:#181818;stroke-width:1;"/><line style="stroke:#181818;stroke-width:1;" x1="1001.3987" x2="1190.9988" y1="1078.6103" y2="1078.6103"/><text fill="#000000" font-family="sans-serif" font-size="13" lengthAdjust="spacing" textLength="50.414" x="1013.3987" y="1072.8013">Connect</text><polygon fill="#181818" points="1179.9988,1106.3163,1189.9988,1110.3163,1179.9988,1114.3163,1183.9988,1110.3163" style="stroke:#181818;stroke-width:1;"/><line style="stroke:#181818;stroke-width:1;" x1="996.3987" x2="1185.9988" y1="1110.3163" y2="1110.3163"/><text fill="#000000" font-family="monospace" font-size="13" lengthAdjust="spacing" textLength="148.2001" x="1003.3987" y="1104.5073">V0InitialJobRequest</text><polygon fill="#181818" points="1337.7119,1138.0223,1347.7119,1142.0223,1337.7119,1146.0223,1341.7119,1142.0223" style="stroke:#181818;stroke-width:1;"/><line style="stroke:#181818;stroke-width:1;" x1="1206.9988" x2="1343.7119" y1="1142.0223" y2="1142.0223"/><text fill="#000000" font-family="sans-serif" font-size="13" lengthAdjust="spacing" textLength="61.412" x="1213.9988" y="1136.2133">CVE check</text><rect fill="#90EE90" height="43" style="stroke:#181818;stroke-width:0.5;" width="69" x="1211.9988" y="1155.0223"/><text fill="#000000" font-family="sans-serif" font-size="13" lengthAdjust="spacing" textLength="61.412" x="1215.9988" y="1172.9194">CVE check</text><text fill="#000000" font-family="sans-serif" font-size="13" lengthAdjust="spacing" textLength="48.1261" x="1215.9988" y="1190.6254">timeout</text><polygon fill="#181818" points="1217.9988,1223.1404,1207.9988,1227.1404,1217.9988,1231.1404,1213.9988,1227.1404" style="stroke:#181818;stroke-width:1;"/><line style="stroke:#181818;stroke-width:1;stroke-dasharray:2.0,2.0;" x1="1211.9988" x2="1348.7119" y1="1227.1404" y2="1227.1404"/><text fill="#000000" font-family="sans-serif" font-size="13" lengthAdjust="spacing" textLength="31.226" x="1223.9988" y="1221.3314">done</text><polygon fill="#181818" points="1337.7119,1254.8464,1347.7119,1258.8464,1337.7119,1262.8464,1341.7119,1258.8464" style="stroke:#181818;stroke-width:1;"/><line style="stroke:#181818;stroke-width:1;" x1="1206.9988" x2="1343.7119" y1="1258.8464" y2="1258.8464"/><text fill="#000000" font-family="sans-serif" font-size="13" lengthAdjust="spacing" textLength="103.1031" x="1213.9988" y="1253.0374">toolkit ver. check</text><rect fill="#90EE90" height="43" style="stroke:#181818;stroke-width:0.5;" width="84" x="1211.9988" y="1271.8464"/><text fill="#000000" font-family="sans-serif" font-size="13" lengthAdjust="spacing" textLength="76.9341" x="1215.9988" y="1289.7434">toolkit check</text><text fill="#000000" font-family="sans-serif" font-size="13" lengthAdjust="spacing" textLength="48.1261" x="1215.9988" y="1307.4494">timeout</text><polygon fill="#181818" points="1217.9988,1339.9645,1207.9988,1343.9645,1217.9988,1347.9645,1213.9988,1343.9645" style="stroke:#181818;stroke-width:1;"/><line style="stroke:#181818;stroke-width:1;stroke-dasharray:2.0,2.0;" x1="1211.9988" x2="1348.7119" y1="1343.9645" y2="1343.9645"/><text fill="#000000" font-family="sans-serif" font-size="13" lengthAdjust="spacing" textLength="31.226" x="1223.9988" y="1338.1555">done</text><line style="stroke:#181818;stroke-width:1;" x1="1201.9988" x2="1243.9988" y1="1375.6705" y2="1375.6705"/><line style="stroke:#181818;stroke-width:1;" x1="1243.9988" x2="1243.9988" y1="1375.6705" y2="1388.6705"/><line style="stroke:#181818;stroke-width:1;" x1="1202.9988" x2="1243.9988" y1="1388.6705" y2="1388.6705"/><polygon fill="#181818" points="1212.9988,1384.6705,1202.9988,1388.6705,1212.9988,1392.6705,1208.9988,1388.6705" style="stroke:#181818;stroke-width:1;"/><text fill="#000000" font-family="sans-serif" font-size="13" lengthAdjust="spacing" textLength="81.0031" x="1208.9988" y="1369.8615">clear old jobs</text><path d="M1180.9988,1400.6705 L1424.1709,1400.6705 L1424.1709,1410.3765 L1414.1709,1420.3765 L1180.9988,1420.3765 L1180.9988,1400.6705" fill="#EEEEEE" style="stroke:#000000;stroke-width:1.5;"/><rect fill="none" height="74.412" style="stroke:#000000;stroke-width:1.5;" width="259.1722" x="1180.9988" y="1400.6705"/><text fill="#000000" font-family="sans-serif" font-size="13" font-weight="bold" lengthAdjust="spacing" textLength="198.1722" x="1195.9988" y="1415.5675">docker image in initial details?</text><line style="stroke:#181818;stroke-width:1;" x1="1201.9988" x2="1243.9988" y1="1454.0825" y2="1454.0825"/><line style="stroke:#181818;stroke-width:1;" x1="1243.9988" x2="1243.9988" y1="1454.0825" y2="1467.0825"/><line style="stroke:#181818;stroke-width:1;" x1="1202.9988" x2="1243.9988" y1="1467.0825" y2="1467.0825"/><polygon fill="#181818" points="1212.9988,1463.0825,1202.9988,1467.0825,1212.9988,1471.0825,1208.9988,1467.0825" style="stroke:#181818;stroke-width:1;"/><text fill="#000000" font-family="sans-serif" font-size="13" lengthAdjust="spacing" textLength="109.3691" x="1208.9988" y="1448.2735">pull docker image</text><polygon fill="#181818" points="1007.3987,1508.7885,997.3987,1512.7885,1007.3987,1516.7885,1003.3987,1512.7885" style="stroke:#181818;stroke-width:1;"/><line style="stroke:#181818;stroke-width:1;" x1="1001.3987" x2="1190.9988" y1="1512.7885" y2="1512.7885"/><text fill="#000000" font-family="monospace" font-size="13" lengthAdjust="spacing" textLength="171.6001" x="1013.3987" y="1506.9795">V0ExecutorReadyRequest</text><polygon fill="#181818" points="658.1653,1540.4945,648.1653,1544.4945,658.1653,1548.4945,654.1653,1544.4945" style="stroke:#181818;stroke-width:1;"/><line style="stroke:#181818;stroke-width:1;" x1="652.1653" x2="985.3987" y1="1544.4945" y2="1544.4945"/><text fill="#000000" font-family="monospace" font-size="13" lengthAdjust="spacing" textLength="171.6001" x="664.1653" y="1538.6855">V0ExecutorReadyRequest</text><polygon fill="#181818" points="452.5652,1572.2006,442.5652,1576.2006,452.5652,1580.2006,448.5652,1576.2006" style="stroke:#181818;stroke-width:1;"/><line style="stroke:#181818;stroke-width:1;" x1="446.5652" x2="636.1653" y1="1576.2006" y2="1576.2006"/><text fill="#000000" font-family="monospace" font-size="13" lengthAdjust="spacing" textLength="171.6001" x="458.5652" y="1570.3916">V0ExecutorReadyRequest</text><polygon fill="#181818" points="625.1653,1603.9066,635.1653,1607.9066,625.1653,1611.9066,629.1653,1607.9066" style="stroke:#181818;stroke-width:1;"/><line style="stroke:#181818;stroke-width:1;" x1="441.5652" x2="631.1653" y1="1607.9066" y2="1607.9066"/><text fill="#000000" font-family="monospace" font-size="13" lengthAdjust="spacing" textLength="93.6" x="448.5652" y="1602.0976">V0JobRequest</text><polygon fill="#181818" points="974.3987,1635.6126,984.3987,1639.6126,974.3987,1643.6126,978.3987,1639.6126" style="stroke:#181818;stroke-width:1;"/><line style="stroke:#181818;stroke-width:1;" x1="647.1653" x2="980.3987" y1="1639.6126" y2="1639.6126"/><text fill="#000000" font-family="monospace" font-size="13" lengthAdjust="spacing" textLength="93.6" x="654.1653" y="1633.8036">V0JobRequest</text><polygon fill="#181818" points="1179.9988,1667.3186,1189.9988,1671.3186,1179.9988,1675.3186,1183.9988,1671.3186" style="stroke:#181818;stroke-width:1;"/><line style="stroke:#181818;stroke-width:1;" x1="996.3987" x2="1185.9988" y1="1671.3186" y2="1671.3186"/><text fill="#000000" font-family="monospace" font-size="13" lengthAdjust="spacing" textLength="93.6" x="1003.3987" y="1665.5096">V0JobRequest</text><polygon fill="#181818" points="1337.7119,1699.0246,1347.7119,1703.0246,1337.7119,1707.0246,1341.7119,1703.0246" style="stroke:#181818;stroke-width:1;"/><line style="stroke:#181818;stroke-width:1;" x1="1206.9988" x2="1343.7119" y1="1703.0246" y2="1703.0246"/><text fill="#000000" font-family="monospace" font-size="13" lengthAdjust="spacing" textLength="117" x="1213.9988" y="1697.2156">unpack_volume()</text><rect fill="#90EE90" height="25" style="stroke:#181818;stroke-width:0.5;" width="104" x="1211.9988" y="1716.0246"/><text fill="#000000" font-family="sans-serif" font-size="13" lengthAdjust="spacing" textLength="96.0441" x="1215.9988" y="1733.9216">unpack timeout</text><path d="M1364.7119,1751.7306 L1364.7119,1796.7306 L1539.7119,1796.7306 L1539.7119,1761.7306 L1529.7119,1751.7306 L1364.7119,1751.7306" fill="#FEFFDD" style="stroke:#181818;stroke-width:0.5;"/><path d="M1529.7119,1751.7306 L1529.7119,1761.7306 L1539.7119,1761.7306 L1529.7119,1751.7306" fill="#FEFFDD" style="stroke:#181818;stroke-width:0.5;"/><text fill="#000000" font-family="sans-serif" font-size="13" lengthAdjust="spacing" textLength="154.9861" x="1370.7119" y="1770.6277">Implementation depends</text><text fill="#000000" font-family="sans-serif" font-size="13" lengthAdjust="spacing" textLength="94.6531" x="1370.7119" y="1788.3337">on volume type</text><path d="M1364.7119,1807.1427 L1364.7119,1834.1427 L1570.7119,1834.1427 L1570.7119,1817.1427 L1560.7119,1807.1427 L1364.7119,1807.1427" fill="#FEFFDD" style="stroke:#181818;stroke-width:0.5;"/><path d="M1560.7119,1807.1427 L1560.7119,1817.1427 L1570.7119,1817.1427 L1560.7119,1807.1427" fill="#FEFFDD" style="stroke:#181818;stroke-width:0.5;"/><text fill="#000000" font-family="sans-serif" font-size="13" lengthAdjust="spacing" textLength="185.3282" x="1370.7119" y="1826.0397">Multi volume does a loop here</text><line style="stroke:#181818;stroke-width:1;" x1="1359.7119" x2="1401.7119" y1="1863.5547" y2="1863.5547"/><line style="stroke:#181818;stroke-width:1;" x1="1401.7119" x2="1401.7119" y1="1863.5547" y2="1876.5547"/><line style="stroke:#181818;stroke-width:1;" x1="1360.7119" x2="1401.7119" y1="1876.5547" y2="1876.5547"/><polygon fill="#181818" points="1370.7119,1872.5547,1360.7119,1876.5547,1370.7119,1880.5547,1366.7119,1876.5547" style="stroke:#181818;stroke-width:1;"/><text fill="#000000" font-family="sans-serif" font-size="13" font-weight="bold" lengthAdjust="spacing" textLength="65.221" x="1366.7119" y="1857.7457">Download</text><text fill="#000000" font-family="sans-serif" font-size="13" lengthAdjust="spacing" textLength="55.354" x="1435.3129" y="1857.7457">+ unpack</text><polygon fill="#181818" points="1217.9988,1904.2607,1207.9988,1908.2607,1217.9988,1912.2607,1213.9988,1908.2607" style="stroke:#181818;stroke-width:1;"/><line style="stroke:#181818;stroke-width:1;stroke-dasharray:2.0,2.0;" x1="1211.9988" x2="1348.7119" y1="1908.2607" y2="1908.2607"/><text fill="#000000" font-family="sans-serif" font-size="13" lengthAdjust="spacing" textLength="31.226" x="1223.9988" y="1902.4517">done</text><line style="stroke:#181818;stroke-width:1;" x1="1201.9988" x2="1243.9988" y1="1939.9667" y2="1939.9667"/><line style="stroke:#181818;stroke-width:1;" x1="1243.9988" x2="1243.9988" y1="1939.9667" y2="1952.9667"/><line style="stroke:#181818;stroke-width:1;" x1="1202.9988" x2="1243.9988" y1="1952.9667" y2="1952.9667"/><polygon fill="#181818" points="1212.9988,1948.9667,1202.9988,1952.9667,1212.9988,1956.9667,1208.9988,1952.9667" style="stroke:#181818;stroke-width:1;"/><text fill="#000000" font-family="sans-serif" font-size="13" lengthAdjust="spacing" textLength="66.5601" x="1208.9988" y="1934.1577">docker run</text><polygon fill="#FFAAAA" points="1185.3323,1965.9667,1509.3323,1965.9667,1519.3323,1986.9667,1509.3323,2008.9667,1185.3323,2008.9667,1175.3323,1986.9667,1185.3323,1965.9667" style="stroke:#181818;stroke-width:0.5;"/><text fill="#000000" font-family="sans-serif" font-size="13" lengthAdjust="spacing" textLength="187.9152" x="1253.3753" y="1983.8638">docker will pull the image here</text><text fill="#000000" font-family="sans-serif" font-size="13" lengthAdjust="spacing" textLength="102.7391" x="1253.3753" y="2001.5698">if it's not present</text><polygon fill="#181818" points="1480.667,2016.3788,1490.667,2020.3788,1480.667,2024.3788,1484.667,2020.3788" style="stroke:#181818;stroke-width:1;"/><line style="stroke:#181818;stroke-width:1;stroke-dasharray:2.0,2.0;" x1="1206.9988" x2="1486.667" y1="2020.3788" y2="2020.3788"/><rect fill="#90EE90" height="43" style="stroke:#181818;stroke-width:0.5;" width="90" x="1211.9988" y="2033.3788"/><text fill="#000000" font-family="sans-serif" font-size="13" lengthAdjust="spacing" textLength="82.3551" x="1215.9988" y="2051.2758">job execution</text><text fill="#000000" font-family="sans-serif" font-size="13" lengthAdjust="spacing" textLength="48.1261" x="1215.9988" y="2068.9818">timeout</text><line style="stroke:#181818;stroke-width:1;" x1="1502.667" x2="1544.667" y1="2105.4968" y2="2105.4968"/><line style="stroke:#181818;stroke-width:1;" x1="1544.667" x2="1544.667" y1="2105.4968" y2="2118.4968"/><line style="stroke:#181818;stroke-width:1;" x1="1503.667" x2="1544.667" y1="2118.4968" y2="2118.4968"/><polygon fill="#181818" points="1513.667,2114.4968,1503.667,2118.4968,1513.667,2122.4968,1509.667,2118.4968" style="stroke:#181818;stroke-width:1;"/><text fill="#000000" font-family="sans-serif" font-size="13" lengthAdjust="spacing" textLength="71.6951" x="1509.667" y="2099.6878">Actual work</text><polygon fill="#181818" points="1217.9988,2146.2028,1207.9988,2150.2028,1217.9988,2154.2028,1213.9988,2150.2028" style="stroke:#181818;stroke-width:1;"/><line style="stroke:#181818;stroke-width:1;" x1="1211.9988" x2="1491.667" y1="2150.2028" y2="2150.2028"/><text fill="#000000" font-family="sans-serif" font-size="13" lengthAdjust="spacing" textLength="83.3561" x="1223.9988" y="2144.3938">stdout, stderr</text><line style="stroke:#181818;stroke-width:1;" x1="1201.9988" x2="1243.9988" y1="2181.9089" y2="2181.9089"/><line style="stroke:#181818;stroke-width:1;" x1="1243.9988" x2="1243.9988" y1="2181.9089" y2="2194.9089"/><line style="stroke:#181818;stroke-width:1;" x1="1202.9988" x2="1243.9988" y1="2194.9089" y2="2194.9089"/><polygon fill="#181818" points="1212.9988,2190.9089,1202.9988,2194.9089,1212.9988,2198.9089,1208.9988,2194.9089" style="stroke:#181818;stroke-width:1;"/><text fill="#000000" font-family="sans-serif" font-size="13" lengthAdjust="spacing" textLength="103.6491" x="1208.9988" y="2176.0999">Serialize artifacts</text><path d="M1180.9988,2206.9089 L1254.3388,2206.9089 L1254.3388,2216.6149 L1244.3388,2226.6149 L1180.9988,2226.6149 L1180.9988,2206.9089" fill="#EEEEEE" style="stroke:#000000;stroke-width:1.5;"/><rect fill="none" height="141.8241" style="stroke:#000000;stroke-width:1.5;" width="316.7552" x="1180.9988" y="2206.9089"/><text fill="#000000" font-family="sans-serif" font-size="13" font-weight="bold" lengthAdjust="spacing" textLength="28.34" x="1195.9988" y="2221.8059">loop</text><text fill="#000000" font-family="sans-serif" font-size="11" font-weight="bold" lengthAdjust="spacing" textLength="3.641" x="1269.3388" y="2220.6678">[</text><text fill="#000000" font-family="monospace" font-size="11" font-weight="bold" lengthAdjust="spacing" textLength="164.9986" x="1272.9797" y="2220.6678">MultiUploadOutputUploader</text><text fill="#000000" font-family="sans-serif" font-size="11" font-weight="bold" lengthAdjust="spacing" textLength="3.641" x="1437.9784" y="2220.6678">]</text><line style="stroke:#181818;stroke-width:1;" x1="1201.9988" x2="1243.9988" y1="2260.3209" y2="2260.3209"/><line style="stroke:#181818;stroke-width:1;" x1="1243.9988" x2="1243.9988" y1="2260.3209" y2="2273.3209"/><line style="stroke:#181818;stroke-width:1;" x1="1202.9988" x2="1243.9988" y1="2273.3209" y2="2273.3209"/><polygon fill="#181818" points="1212.9988,2269.3209,1202.9988,2273.3209,1212.9988,2277.3209,1208.9988,2273.3209" style="stroke:#181818;stroke-width:1;"/><text fill="#000000" font-family="sans-serif" font-size="13" lengthAdjust="spacing" textLength="90.9481" x="1208.9988" y="2254.5119">Zip the volume</text><polygon fill="#181818" points="1347.7119,2301.0269,1357.7119,2305.0269,1347.7119,2309.0269,1351.7119,2305.0269" style="stroke:#181818;stroke-width:1;"/><line style="stroke:#181818;stroke-width:1;" x1="1201.9988" x2="1353.7119" y1="2305.0269" y2="2305.0269"/><text fill="#000000" font-family="sans-serif" font-size="13" lengthAdjust="spacing" textLength="75.1011" x="1208.9988" y="2299.2179">Start upload</text><rect fill="#90EE90" height="25" style="stroke:#181818;stroke-width:0.5;" width="102" x="1374.7119" y="2318.0269"/><text fill="#000000" font-family="sans-serif" font-size="13" lengthAdjust="spacing" textLength="94.0421" x="1378.7119" y="2335.9239">upload timeout</text><polygon fill="#181818" points="1352.7119,2382.4389,1362.7119,2386.4389,1352.7119,2390.4389,1356.7119,2386.4389" style="stroke:#181818;stroke-width:1;"/><line style="stroke:#181818;stroke-width:1;" x1="1201.9988" x2="1358.7119" y1="2386.4389" y2="2386.4389"/><text fill="#000000" font-family="sans-serif" font-size="13" lengthAdjust="spacing" textLength="128.7131" x="1208.9988" y="2380.6299">Upload stdout/stderr</text><line style="stroke:#181818;stroke-width:1;" x1="1201.9988" x2="1243.9988" y1="2418.145" y2="2418.145"/><line style="stroke:#181818;stroke-width:1;" x1="1243.9988" x2="1243.9988" y1="2418.145" y2="2431.145"/><line style="stroke:#181818;stroke-width:1;" x1="1202.9988" x2="1243.9988" y1="2431.145" y2="2431.145"/><polygon fill="#181818" points="1212.9988,2427.145,1202.9988,2431.145,1212.9988,2435.145,1208.9988,2431.145" style="stroke:#181818;stroke-width:1;"/><text fill="#000000" font-family="sans-serif" font-size="13" lengthAdjust="spacing" textLength="113.5291" x="1208.9988" y="2412.336">await upload tasks</text><polygon fill="#181818" points="1212.9988,2458.851,1202.9988,2462.851,1212.9988,2466.851,1208.9988,2462.851" style="stroke:#181818;stroke-width:1;"/><line style="stroke:#181818;stroke-width:1;stroke-dasharray:2.0,2.0;" x1="1206.9988" x2="1363.7119" y1="2462.851" y2="2462.851"/><text fill="#000000" font-family="sans-serif" font-size="13" lengthAdjust="spacing" textLength="78.6111" x="1218.9988" y="2457.042">Upload done</text><polygon fill="#181818" points="1212.9988,2490.557,1202.9988,2494.557,1212.9988,2498.557,1208.9988,2494.557" style="stroke:#181818;stroke-width:1;"/><line style="stroke:#181818;stroke-width:1;stroke-dasharray:2.0,2.0;" x1="1206.9988" x2="1358.7119" y1="2494.557" y2="2494.557"/><text fill="#000000" font-family="sans-serif" font-size="13" lengthAdjust="spacing" textLength="78.6111" x="1218.9988" y="2488.748">Upload done</text><polygon fill="#181818" points="1212.9988,2522.263,1202.9988,2526.263,1212.9988,2530.263,1208.9988,2526.263" style="stroke:#181818;stroke-width:1;"/><line style="stroke:#181818;stroke-width:1;stroke-dasharray:2.0,2.0;" x1="1206.9988" x2="1353.7119" y1="2526.263" y2="2526.263"/><text fill="#000000" font-family="sans-serif" font-size="13" lengthAdjust="spacing" textLength="78.6111" x="1218.9988" y="2520.454">Upload done</text><polygon fill="#181818" points="1212.9988,2553.969,1202.9988,2557.969,1212.9988,2561.969,1208.9988,2557.969" style="stroke:#181818;stroke-width:1;"/><line style="stroke:#181818;stroke-width:1;stroke-dasharray:2.0,2.0;" x1="1206.9988" x2="1348.7119" y1="2557.969" y2="2557.969"/><text fill="#000000" font-family="sans-serif" font-size="13" lengthAdjust="spacing" textLength="78.6111" x="1218.9988" y="2552.16">Upload done</text><polygon fill="#181818" points="1007.3987,2585.675,997.3987,2589.675,1007.3987,2593.675,1003.3987,2589.675" style="stroke:#181818;stroke-width:1;"/><line style="stroke:#181818;stroke-width:1;" x1="1001.3987" x2="1190.9988" y1="2589.675" y2="2589.675"/><text fill="#000000" font-family="monospace" font-size="13" lengthAdjust="spacing" textLength="101.4" x="1013.3987" y="2583.866">V0JobFinished</text><polygon fill="#181818" points="658.1653,2617.3811,648.1653,2621.3811,658.1653,2625.3811,654.1653,2621.3811" style="stroke:#181818;stroke-width:1;"/><line style="stroke:#181818;stroke-width:1;" x1="652.1653" x2="985.3987" y1="2621.3811" y2="2621.3811"/><text fill="#000000" font-family="monospace" font-size="13" lengthAdjust="spacing" textLength="101.4" x="664.1653" y="2615.5721">V0JobFinished</text><polygon fill="#181818" points="452.5652,2649.0871,442.5652,2653.0871,452.5652,2657.0871,448.5652,2653.0871" style="stroke:#181818;stroke-width:1;"/><line style="stroke:#181818;stroke-width:1;" x1="446.5652" x2="636.1653" y1="2653.0871" y2="2653.0871"/><text fill="#000000" font-family="monospace" font-size="13" lengthAdjust="spacing" textLength="101.4" x="458.5652" y="2647.2781">V0JobFinished</text><polygon fill="#181818" points="279.4291,2680.7931,269.4291,2684.7931,279.4291,2688.7931,275.4291,2684.7931" style="stroke:#181818;stroke-width:1;"/><line style="stroke:#181818;stroke-width:1;stroke-dasharray:2.0,2.0;" x1="273.4291" x2="425.5652" y1="2684.7931" y2="2684.7931"/><text fill="#000000" font-family="sans-serif" font-size="13" lengthAdjust="spacing" textLength="109.1741" x="285.4291" y="2678.9841">(Celery task done)</text><polygon fill="#181818" points="107.829,2730.2051,97.829,2734.2051,107.829,2738.2051,103.829,2734.2051" style="stroke:#181818;stroke-width:1;"/><line style="stroke:#181818;stroke-width:1;" x1="101.829" x2="252.4291" y1="2734.2051" y2="2734.2051"/><text fill="#000000" font-family="monospace" font-size="13" lengthAdjust="spacing" textLength="132.6001" x="113.829" y="2710.6901">V0JobStatusUpdate</text><text fill="#000000" font-family="sans-serif" font-size="13" lengthAdjust="spacing" textLength="112.5541" x="113.829" y="2728.3961">(contains artifacts)</text><line style="stroke:#181818;stroke-width:1;" x1="96.829" x2="138.829" y1="2765.9111" y2="2765.9111"/><line style="stroke:#181818;stroke-width:1;" x1="138.829" x2="138.829" y1="2765.9111" y2="2778.9111"/><line style="stroke:#181818;stroke-width:1;" x1="97.829" x2="138.829" y1="2778.9111" y2="2778.9111"/><polygon fill="#181818" points="107.829,2774.9111,97.829,2778.9111,107.829,2782.9111,103.829,2778.9111" style="stroke:#181818;stroke-width:1;"/><text fill="#000000" font-family="sans-serif" font-size="13" lengthAdjust="spacing" textLength="95.5371" x="103.829" y="2760.1021">Store job status</text><!--SRC=[tLXBR-Cs4BxhLx3AeOcRTeC5Uj6XnMus2sI1HHT9DmMA00KZZMpMCgcIb1ClykCxb2oPb4Z9SP8UYW298t4Utpo-6VgxKjBvYX8DuXlHie98BHalgQGhek2V2dWAxyN3Uo4paEUY498SpINTH7VYWNoaAIkOfjeypVEx2EKqIrb9kRPVHi0pWWArq0qjMDQ80EG_vxaZ5TiwKy4vf9e97hk7FZCEadoGR0qoThGtRuuADb_e3HI5k7SbTzRF1LVLoiWx1wv0WLnJOvHegfQzrnSFa5Qkk6s-Utq4kVbnXDkNhiRVqSYRw-gkb285fLnxdyHTfp-AVlp5Zcf2pYLG3UHlF4GnJ6lpZnrsEvPzsMlytOZsJeKoa90uldcB3bsPib0wZdT6WrdBmEjO518OT-0BIvTaPJ9ye08Cyuffaa81SbE3FqpF7nIrvEPffub8K5MXfsEoBSwv1E2Hv0AFIlE0Y7mlcQGrsXWacgr0L7ghIc171DMSzZgd0SButCPYYfveGPJ6EhJWE9AZ888d4zl6BMyzxmcOo7lQjAw_iqkE3jCYK8Q-xWuYE4lFfbp78mbXZKaJxnArWkMunrxj_e14o6oMj8yX9j0omSwv8U-CmXfDmCJvn41fZLbeXbvxiIHaYwE3SSjpALQa5A88QV4cL86sNI5vfIi9DcbuCneCUw-uJRsyIrCejLCkjdfta7WACKmb-AnIf2hH4NX-aRMXn7ZGR6CbPOIV73utO15cuzRNsYkxDPuy5ap_ewReyV4nnEB-LBTJhWwHr5QH7AyP9MiSPpMK34vsxdMZqQSpL3zE9eVz4omJRoqsmBiqN7xf8_UMOZVlZTxXRf2OZoPbLe5uDWZFCpUI8UQptVFeTRphxndesyq5IHUGBYtl1jl884LZpECxOzdPbRK4x7HECi6TTk_Am0OsS6aAbqOUMkA0nlRwwJy1s1fyDP2xIaWBe9A88ZCzgg9eBaLLeebqYPJ2LdGEEA-waPM1fgnGlmQKbLLHEBBrhbchZAPBsnHb-_pAi9Pl8kzVxU6P7p0oKVmlDqFsiEypyQGv4mGVs7GyO-P0mA7K1ebcVCawbDwUmcjJ11375LvXq-LVQr6WnF694xhNO836NhUBzmR-qCFBLLd02hXk1bO69NQUkkNukV6Pw4q9qte-ums0jIAP04KeAOGeoG9maHe81E8rctqGzxmGD9lDo0zRCC-ZBp_XRBb6LZnQxAuhxVjJSzqbHpcbtSbxXWnLqvHUm9RV3BHRpdB2zFUAe1fIcYMIQyieMlratueFpwnPXPgjm5cMEyt6Z76xiPYGTwcka7dlXLosptVubSvG-DJy1Ub4qAZn1TaVnskGIE_i6n3pNK6EOYggqnx7TKLyBKqoVwjqMUdcCxPDA2b_ihAERbD5KxtLB7LLhNIagPn0l-mnET4LlSwiFUqwqmmu4wafc4tKjWbxiytNdWxwmqplpPS6hJiehtpzwOXidUXtuB3R_iUAzbf3i7i-uiwZ5f2vq-DYUD5-YOqaQEzr5v6msUVj7wCNtUDpwtiXaw-J4Stscz1tWi-xqk8r4cLmhULgHtudUnb-pSlmlm00]--></g></svg>