<svg xmlns="http://www.w3.org/2000/svg" xmlns:xlink="http://www.w3.org/1999/xlink" contentStyleType="text/css" data-diagram-type="SEQUENCE" height="2678px" preserveAspectRatio="none" style="width:1391px;height:2678px;background:#FFFFFF;" version="1.1" viewBox="0 0 1391 2678" width="1391px" zoomAndPan="magnify"><defs/><g><rect fill="#EEF5FF" height="2666.743" style="stroke:#808080;stroke-width:0.5;" width="307.1917" x="137.2739" y="6"/><text fill="#000000" font-family="sans-serif" font-size="13" font-weight="bold" lengthAdjust="spacing" textLength="59.579" x="259.3902" y="19.897">Validator</text><rect fill="#FFFFE0" height="2666.743" style="stroke:#808080;stroke-width:0.5;" width="501.4749" x="456.4656" y="6"/><text fill="#000000" font-family="sans-serif" font-size="13" font-weight="bold" lengthAdjust="spacing" textLength="38.168" x="686.429" y="19.897">Miner</text><rect fill="#EFEFEF" height="2666.743" style="stroke:#808080;stroke-width:0.5;" width="350.288" x="972.02" y="6"/><text fill="#000000" font-family="sans-serif" font-size="13" font-weight="bold" lengthAdjust="spacing" textLength="57.291" x="1116.8284" y="19.897">Executor</text><g><title>Facilitator</title><rect fill="#000000" fill-opacity="0.00000" height="2570.9011" width="8" x="88.329" y="61.7739"/><line style="stroke:#181818;stroke-width:0.5;stroke-dasharray:5.0,5.0;" x1="91.829" x2="91.829" y1="61.7739" y2="2632.675"/></g><g><title/><rect fill="#FFFFFF" height="76.412" style="stroke:#181818;stroke-width:1;" width="10" x="86.829" y="93.4799"/></g><g><title/><rect fill="#FFFFFF" height="82.706" style="stroke:#181818;stroke-width:1;" width="10" x="86.829" y="844.0802"/></g><g><title/><rect fill="#FFFFFF" height="82.706" style="stroke:#181818;stroke-width:1;" width="10" x="86.829" y="2544.969"/></g><g><title>Facilitator connection</title><rect fill="#000000" fill-opacity="0.00000" height="2570.9011" width="8" x="215.4877" y="61.7739"/><line style="stroke:#181818;stroke-width:0.5;stroke-dasharray:5.0,5.0;" x1="218.9877" x2="218.9877" y1="61.7739" y2="2632.675"/></g><g><title/><rect fill="#FFFFFF" height="2562.9011" style="stroke:#181818;stroke-width:1;" width="10" x="213.9877" y="69.7739"/></g><g><title/><rect fill="#90EE90" height="2209.253" style="stroke:#181818;stroke-width:1;" width="10" x="218.9877" y="304.01"/></g><g><title>Miner Driver</title><rect fill="#000000" fill-opacity="0.00000" height="2570.9011" width="8" x="388.6238" y="61.7739"/><line style="stroke:#181818;stroke-width:0.5;stroke-dasharray:5.0,5.0;" x1="392.1238" x2="392.1238" y1="61.7739" y2="2632.675"/></g><g><title/><rect fill="#90EE90" height="2129.8409" style="stroke:#181818;stroke-width:1;" width="10" x="387.1238" y="383.4221"/></g><g><title/><rect fill="#00CC00" height="266.716" style="stroke:#181818;stroke-width:1;" width="10" x="392.1238" y="460.5401"/></g><g><title/><rect fill="#00CC00" height="817.2384" style="stroke:#181818;stroke-width:1;" width="10" x="392.1238" y="758.9622"/></g><g><title/><rect fill="#00CC00" height="873.6504" style="stroke:#181818;stroke-width:1;" width="10" x="392.1238" y="1607.9066"/></g><g><title>Validator Consumer</title><rect fill="#000000" fill-opacity="0.00000" height="2570.9011" width="8" x="529.4574" y="61.7739"/><line style="stroke:#181818;stroke-width:0.5;stroke-dasharray:5.0,5.0;" x1="532.9574" x2="532.9574" y1="61.7739" y2="2632.675"/></g><g><title/><rect fill="#FFFFFF" height="599.3642" style="stroke:#181818;stroke-width:1;" width="10" x="527.9574" y="460.5401"/></g><g><title/><rect fill="#FFFFFF" height="31.706" style="stroke:#181818;stroke-width:1;" width="10" x="527.9574" y="1544.4945"/></g><g><title/><rect fill="#FFFFFF" height="31.706" style="stroke:#181818;stroke-width:1;" width="10" x="527.9574" y="1607.9066"/></g><g><title/><rect fill="#FFFFFF" height="31.706" style="stroke:#181818;stroke-width:1;" width="10" x="527.9574" y="2449.851"/></g><g><title/><rect fill="#90EE90" height="149.892" style="stroke:#181818;stroke-width:1;" width="10" x="532.9574" y="545.6582"/></g><g><title>Reservation task</title><rect fill="#000000" fill-opacity="0.00000" height="2110.7229" width="8" x="735.7052" y="521.9521"/><line style="stroke:#181818;stroke-width:0.5;stroke-dasharray:5.0,5.0;" x1="739.2052" x2="739.2052" y1="521.9521" y2="2632.675"/></g><g><title/><rect fill="#FFFFFF" height="431.5401" style="stroke:#181818;stroke-width:1;" width="10" x="734.2052" y="545.6582"/></g><g><title>Executor Consumer</title><rect fill="#000000" fill-opacity="0.00000" height="2570.9011" width="8" x="878.6908" y="61.7739"/><line style="stroke:#181818;stroke-width:0.5;stroke-dasharray:5.0,5.0;" x1="882.1908" x2="882.1908" y1="61.7739" y2="2632.675"/></g><g><title/><rect fill="#FFFFFF" height="31.706" style="stroke:#181818;stroke-width:1;" width="10" x="877.1908" y="1078.6103"/></g><g><title/><rect fill="#FFFFFF" height="31.706" style="stroke:#181818;stroke-width:1;" width="10" x="877.1908" y="1512.7885"/></g><g><title/><rect fill="#FFFFFF" height="31.706" style="stroke:#181818;stroke-width:1;" width="10" x="877.1908" y="1639.6126"/></g><g><title/><rect fill="#FFFFFF" height="31.706" style="stroke:#181818;stroke-width:1;" width="10" x="877.1908" y="2418.145"/></g><g><title>Executor</title><rect fill="#000000" fill-opacity="0.00000" height="2570.9011" width="8" x="1008.4019" y="61.7739"/><line style="stroke:#181818;stroke-width:0.5;stroke-dasharray:5.0,5.0;" x1="1011.9019" x2="1011.9019" y1="61.7739" y2="2632.675"/></g><g><title/><rect fill="#FFFFFF" height="1454.9467" style="stroke:#181818;stroke-width:1;" width="10" x="1006.9019" y="963.1983"/></g><g><title/><rect fill="#90EE90" height="85.118" style="stroke:#181818;stroke-width:1;" width="10" x="1011.9019" y="1142.0223"/></g><g><title/><rect fill="#90EE90" height="85.118" style="stroke:#181818;stroke-width:1;" width="10" x="1011.9019" y="1258.8464"/></g><g><title/><rect fill="#90EE90" height="205.2361" style="stroke:#181818;stroke-width:1;" width="10" x="1011.9019" y="1703.0246"/></g><g><title/><rect fill="#90EE90" height="129.8241" style="stroke:#181818;stroke-width:1;" width="10" x="1011.9019" y="2020.3788"/></g><g><title/><rect fill="#90EE90" height="67.412" style="stroke:#181818;stroke-width:1;" width="10" x="1011.9019" y="2305.0269"/></g><g><title>Task/Subprocess</title><rect fill="#000000" fill-opacity="0.00000" height="2570.9011" width="8" x="1154.4019" y="61.7739"/><line style="stroke:#181818;stroke-width:0.5;stroke-dasharray:5.0,5.0;" x1="1157.9019" x2="1157.9019" y1="61.7739" y2="2632.675"/></g><g><title/><rect fill="#FFFFFF" height="85.118" style="stroke:#181818;stroke-width:1;" width="10" x="1152.9019" y="1142.0223"/></g><g><title/><rect fill="#FFFFFF" height="85.118" style="stroke:#181818;stroke-width:1;" width="10" x="1152.9019" y="1258.8464"/></g><g><title/><rect fill="#FFFFFF" height="205.2361" style="stroke:#181818;stroke-width:1;" width="10" x="1152.9019" y="1703.0246"/></g><g><title/><rect fill="#FFFFFF" height="67.412" style="stroke:#181818;stroke-width:1;" width="10" x="1152.9019" y="2305.0269"/></g><g><title>Job</title><rect fill="#000000" fill-opacity="0.00000" height="2570.9011" width="8" x="1297.357" y="61.7739"/><line style="stroke:#181818;stroke-width:0.5;stroke-dasharray:5.0,5.0;" x1="1300.857" x2="1300.857" y1="61.7739" y2="2632.675"/></g><g><title/><rect fill="#FFFFFF" height="129.8241" style="stroke:#181818;stroke-width:1;" width="10" x="1295.857" y="2020.3788"/></g><rect fill="#E2E2F0" height="33.0679" rx="2.5" ry="2.5" style="stroke:#181818;stroke-width:0.5;" width="78.8898" x="52.3842" y="27.706"/><text fill="#000000" font-family="sans-serif" font-size="14" lengthAdjust="spacing" textLength="64.8898" x="59.3842" y="49.672">Facilitator</text><rect fill="#E2E2F0" height="33.0679" rx="2.5" ry="2.5" style="stroke:#181818;stroke-width:0.5;" width="155.4275" x="141.2739" y="27.706"/><text fill="#000000" font-family="sans-serif" font-size="14" lengthAdjust="spacing" textLength="141.4275" x="148.2739" y="49.672">Facilitator connection</text><rect fill="#E2E2F0" height="33.0679" rx="2.5" ry="2.5" style="stroke:#181818;stroke-width:0.5;" width="96.6837" x="343.7819" y="27.706"/><text fill="#000000" font-family="sans-serif" font-size="14" lengthAdjust="spacing" textLength="82.6837" x="350.7819" y="49.672">Miner Driver</text><rect fill="#E2E2F0" height="33.0679" rx="2.5" ry="2.5" style="stroke:#181818;stroke-width:0.5;" width="144.9835" x="460.4656" y="27.706"/><text fill="#000000" font-family="sans-serif" font-size="14" lengthAdjust="spacing" textLength="130.9835" x="467.4656" y="49.672">Validator Consumer</text><rect fill="#E2E2F0" height="33.0679" rx="2.5" ry="2.5" style="stroke:#181818;stroke-width:0.5;" width="143.4995" x="810.441" y="27.706"/><text fill="#000000" font-family="sans-serif" font-size="14" lengthAdjust="spacing" textLength="129.4995" x="817.441" y="49.672">Executor Consumer</text><rect fill="#E2E2F0" height="33.0679" rx="2.5" ry="2.5" style="stroke:#181818;stroke-width:0.5;" width="71.7638" x="976.02" y="27.706"/><text fill="#000000" font-family="sans-serif" font-size="14" lengthAdjust="spacing" textLength="57.7638" x="983.02" y="49.672">Executor</text><rect fill="#E2E2F0" height="33.0679" rx="2.5" ry="2.5" style="stroke:#181818;stroke-width:0.5;" width="124.8656" x="1095.4691" y="27.706"/><text fill="#000000" font-family="sans-serif" font-size="14" lengthAdjust="spacing" textLength="110.8656" x="1102.4691" y="49.672">Task/Subprocess</text><rect fill="#E2E2F0" height="33.0679" rx="2.5" ry="2.5" style="stroke:#181818;stroke-width:0.5;" width="34.9019" x="1283.406" y="27.706"/><text fill="#000000" font-family="sans-serif" font-size="14" lengthAdjust="spacing" textLength="20.9019" x="1290.406" y="49.672">Job</text><rect fill="#E2E2F0" height="33.0679" rx="2.5" ry="2.5" style="stroke:#181818;stroke-width:0.5;" width="78.8898" x="52.3842" y="2632.675"/><text fill="#000000" font-family="sans-serif" font-size="14" lengthAdjust="spacing" textLength="64.8898" x="59.3842" y="2654.641">Facilitator</text><rect fill="#E2E2F0" height="33.0679" rx="2.5" ry="2.5" style="stroke:#181818;stroke-width:0.5;" width="155.4275" x="141.2739" y="2632.675"/><text fill="#000000" font-family="sans-serif" font-size="14" lengthAdjust="spacing" textLength="141.4275" x="148.2739" y="2654.641">Facilitator connection</text><rect fill="#E2E2F0" height="33.0679" rx="2.5" ry="2.5" style="stroke:#181818;stroke-width:0.5;" width="96.6837" x="343.7819" y="2632.675"/><text fill="#000000" font-family="sans-serif" font-size="14" lengthAdjust="spacing" textLength="82.6837" x="350.7819" y="2654.641">Miner Driver</text><rect fill="#E2E2F0" height="33.0679" rx="2.5" ry="2.5" style="stroke:#181818;stroke-width:0.5;" width="144.9835" x="460.4656" y="2632.675"/><text fill="#000000" font-family="sans-serif" font-size="14" lengthAdjust="spacing" textLength="130.9835" x="467.4656" y="2654.641">Validator Consumer</text><rect fill="#E2E2F0" height="33.0679" rx="2.5" ry="2.5" style="stroke:#181818;stroke-width:0.5;" width="122.4716" x="677.9694" y="2632.675"/><text fill="#000000" font-family="sans-serif" font-size="14" lengthAdjust="spacing" textLength="108.4716" x="684.9694" y="2654.641">Reservation task</text><rect fill="#E2E2F0" height="33.0679" rx="2.5" ry="2.5" style="stroke:#181818;stroke-width:0.5;" width="143.4995" x="810.441" y="2632.675"/><text fill="#000000" font-family="sans-serif" font-size="14" lengthAdjust="spacing" textLength="129.4995" x="817.441" y="2654.641">Executor Consumer</text><rect fill="#E2E2F0" height="33.0679" rx="2.5" ry="2.5" style="stroke:#181818;stroke-width:0.5;" width="71.7638" x="976.02" y="2632.675"/><text fill="#000000" font-family="sans-serif" font-size="14" lengthAdjust="spacing" textLength="57.7638" x="983.02" y="2654.641">Executor</text><rect fill="#E2E2F0" height="33.0679" rx="2.5" ry="2.5" style="stroke:#181818;stroke-width:0.5;" width="124.8656" x="1095.4691" y="2632.675"/><text fill="#000000" font-family="sans-serif" font-size="14" lengthAdjust="spacing" textLength="110.8656" x="1102.4691" y="2654.641">Task/Subprocess</text><rect fill="#E2E2F0" height="33.0679" rx="2.5" ry="2.5" style="stroke:#181818;stroke-width:0.5;" width="34.9019" x="1283.406" y="2632.675"/><text fill="#000000" font-family="sans-serif" font-size="14" lengthAdjust="spacing" textLength="20.9019" x="1290.406" y="2654.641">Job</text><polygon fill="#181818" points="74.829,89.4799,84.829,93.4799,74.829,97.4799,78.829,93.4799" style="stroke:#181818;stroke-width:1;"/><line style="stroke:#181818;stroke-width:1;" x1="5" x2="80.829" y1="93.4799" y2="93.4799"/><text fill="#000000" font-family="sans-serif" font-size="13" lengthAdjust="spacing" textLength="62.829" x="12" y="87.6709">Create job</text><line style="stroke:#181818;stroke-width:1;" x1="96.829" x2="138.829" y1="125.186" y2="125.186"/><line style="stroke:#181818;stroke-width:1;" x1="138.829" x2="138.829" y1="125.186" y2="138.186"/><line style="stroke:#181818;stroke-width:1;" x1="97.829" x2="138.829" y1="138.186" y2="138.186"/><polygon fill="#181818" points="107.829,134.186,97.829,138.186,107.829,142.186,103.829,138.186" style="stroke:#181818;stroke-width:1;"/><text fill="#000000" font-family="sans-serif" font-size="13" lengthAdjust="spacing" textLength="54.9901" x="103.829" y="119.377">Store job</text><polygon fill="#181818" points="201.9877,165.892,211.9877,169.892,201.9877,173.892,205.9877,169.892" style="stroke:#181818;stroke-width:1;"/><line style="stroke:#181818;stroke-width:1;" x1="96.829" x2="207.9877" y1="169.892" y2="169.892"/><text fill="#000000" font-family="sans-serif" font-size="13" lengthAdjust="spacing" textLength="69.7711" x="103.829" y="164.083">Job request</text><line style="stroke:#181818;stroke-width:1;" x1="223.9877" x2="265.9877" y1="201.598" y2="201.598"/><line style="stroke:#181818;stroke-width:1;" x1="265.9877" x2="265.9877" y1="201.598" y2="214.598"/><line style="stroke:#181818;stroke-width:1;" x1="224.9877" x2="265.9877" y1="214.598" y2="214.598"/><polygon fill="#181818" points="234.9877,210.598,224.9877,214.598,234.9877,218.598,230.9877,214.598" style="stroke:#181818;stroke-width:1;"/><text fill="#000000" font-family="sans-serif" font-size="13" lengthAdjust="spacing" textLength="64.0251" x="230.9877" y="195.789">Pick miner</text><line style="stroke:#181818;stroke-width:1;" x1="223.9877" x2="265.9877" y1="246.304" y2="246.304"/><line style="stroke:#181818;stroke-width:1;" x1="265.9877" x2="265.9877" y1="246.304" y2="259.304"/><line style="stroke:#181818;stroke-width:1;" x1="224.9877" x2="265.9877" y1="259.304" y2="259.304"/><polygon fill="#181818" points="234.9877,255.304,224.9877,259.304,234.9877,263.304,230.9877,259.304" style="stroke:#181818;stroke-width:1;"/><text fill="#000000" font-family="sans-serif" font-size="13" lengthAdjust="spacing" textLength="105.5991" x="230.9877" y="240.495">Submit celery job</text><line style="stroke:#181818;stroke-width:1;" x1="223.9877" x2="270.9877" y1="291.01" y2="291.01"/><line style="stroke:#181818;stroke-width:1;" x1="270.9877" x2="270.9877" y1="291.01" y2="304.01"/><line style="stroke:#181818;stroke-width:1;" x1="229.9877" x2="270.9877" y1="304.01" y2="304.01"/><polygon fill="#181818" points="239.9877,300.01,229.9877,304.01,239.9877,308.01,235.9877,304.01" style="stroke:#181818;stroke-width:1;"/><text fill="#000000" font-family="sans-serif" font-size="13" lengthAdjust="spacing" textLength="149.1361" x="235.9877" y="285.201">Wait for celery job result</text><rect fill="#90EE90" height="25" style="stroke:#181818;stroke-width:0.5;" width="134" x="233.9877" y="317.01"/><text fill="#000000" font-family="sans-serif" font-size="13" lengthAdjust="spacing" textLength="126.1521" x="237.9877" y="334.907">celery result timeout</text><rect fill="#FEFFDD" height="25" style="stroke:#181818;stroke-width:0.5;" width="289" x="160.9599" y="352.716"/><text fill="#000000" font-family="sans-serif" font-size="13" lengthAdjust="spacing" textLength="183.6642" x="213.7236" y="370.6131">Waiting for celery task to start</text><rect fill="#90EE90" height="43" style="stroke:#181818;stroke-width:0.5;" width="72" x="402.1238" y="388.4221"/><text fill="#000000" font-family="sans-serif" font-size="13" lengthAdjust="spacing" textLength="64.792" x="406.1238" y="406.3191">celery task</text><text fill="#000000" font-family="sans-serif" font-size="13" lengthAdjust="spacing" textLength="48.1261" x="406.1238" y="424.0251">timeout</text><polygon fill="#181818" points="515.9574,456.5401,525.9574,460.5401,515.9574,464.5401,519.9574,460.5401" style="stroke:#181818;stroke-width:1;"/><line style="stroke:#181818;stroke-width:1;" x1="402.1238" x2="521.9574" y1="460.5401" y2="460.5401"/><text fill="#000000" font-family="sans-serif" font-size="13" lengthAdjust="spacing" textLength="107.4451" x="409.1238" y="454.7311">Initial job request</text><rect fill="#00CC00" height="43" style="stroke:#181818;stroke-width:0.5;" width="101" x="407.1238" y="473.5401"/><text fill="#000000" font-family="sans-serif" font-size="13" lengthAdjust="spacing" textLength="93.1971" x="411.1238" y="491.4371">initial response</text><text fill="#000000" font-family="sans-serif" font-size="13" lengthAdjust="spacing" textLength="48.1261" x="411.1238" y="509.1431">timeout</text><rect fill="#E2E2F0" height="33.0679" rx="2.5" ry="2.5" style="stroke:#181818;stroke-width:0.5;" width="122.4716" x="672.9694" y="521.9521"/><text fill="#000000" font-family="sans-serif" font-size="14" lengthAdjust="spacing" textLength="108.4716" x="679.9694" y="543.9181">Reservation task</text><polygon fill="#181818" points="660.9694,541.6582,670.9694,545.6582,660.9694,549.6582,664.9694,545.6582" style="stroke:#181818;stroke-width:1;"/><line style="stroke:#181818;stroke-width:1;" x1="542.9574" x2="666.9694" y1="545.6582" y2="545.6582"/><text fill="#000000" font-family="sans-serif" font-size="13" lengthAdjust="spacing" textLength="116.0121" x="549.9574" y="539.8492">"Reserve" executor</text><rect fill="#90EE90" height="43" style="stroke:#181818;stroke-width:0.5;" width="77" x="547.9574" y="561.0201"/><text fill="#000000" font-family="sans-serif" font-size="13" lengthAdjust="spacing" textLength="69.472" x="551.9574" y="578.9171">reservation</text><text fill="#000000" font-family="sans-serif" font-size="13" lengthAdjust="spacing" textLength="48.1261" x="551.9574" y="596.6231">timeout</text><line style="stroke:#181818;stroke-width:1;" x1="744.2052" x2="786.2052" y1="650.8441" y2="650.8441"/><line style="stroke:#181818;stroke-width:1;" x1="786.2052" x2="786.2052" y1="650.8441" y2="663.8441"/><line style="stroke:#181818;stroke-width:1;" x1="745.2052" x2="786.2052" y1="663.8441" y2="663.8441"/><polygon fill="#181818" points="755.2052,659.8441,745.2052,663.8441,755.2052,667.8441,751.2052,663.8441" style="stroke:#181818;stroke-width:1;"/><text fill="#000000" font-family="sans-serif" font-size="13" lengthAdjust="spacing" textLength="105.4041" x="751.2052" y="627.3291">Reserve executor</text><text fill="#000000" font-family="sans-serif" font-size="13" lengthAdjust="spacing" textLength="60.3201" x="751.2052" y="645.0351">from pool</text><polygon fill="#181818" points="553.9574,691.5501,543.9574,695.5501,553.9574,699.5501,549.9574,695.5501" style="stroke:#181818;stroke-width:1;"/><line style="stroke:#181818;stroke-width:1;" x1="547.9574" x2="733.2052" y1="695.5501" y2="695.5501"/><text fill="#000000" font-family="sans-serif" font-size="13" lengthAdjust="spacing" textLength="132.4181" x="559.9574" y="689.7411">set reservation future</text><polygon fill="#181818" points="413.1238,723.2562,403.1238,727.2562,413.1238,731.2562,409.1238,727.2562" style="stroke:#181818;stroke-width:1;"/><line style="stroke:#181818;stroke-width:1;" x1="407.1238" x2="526.9574" y1="727.2562" y2="727.2562"/><text fill="#000000" font-family="sans-serif" font-size="13" lengthAdjust="spacing" textLength="77.9091" x="419.1238" y="721.4472">Job accepted</text><polygon fill="#181818" points="239.9877,754.9622,229.9877,758.9622,239.9877,762.9622,235.9877,758.9622" style="stroke:#181818;stroke-width:1;"/><line style="stroke:#181818;stroke-width:1;" x1="233.9877" x2="391.1238" y1="758.9622" y2="758.9622"/><text fill="#000000" font-family="sans-serif" font-size="13" lengthAdjust="spacing" textLength="77.9091" x="245.9877" y="753.1532">Job accepted</text><rect fill="#00CC00" height="43" style="stroke:#181818;stroke-width:0.5;" width="99" x="407.1238" y="771.9622"/><text fill="#000000" font-family="sans-serif" font-size="13" lengthAdjust="spacing" textLength="91.7411" x="411.1238" y="789.8592">executor ready</text><text fill="#000000" font-family="sans-serif" font-size="13" lengthAdjust="spacing" textLength="48.1261" x="411.1238" y="807.5652">timeout</text><polygon fill="#181818" points="107.829,840.0802,97.829,844.0802,107.829,848.0802,103.829,844.0802" style="stroke:#181818;stroke-width:1;"/><line style="stroke:#181818;stroke-width:1;" x1="101.829" x2="217.9877" y1="844.0802" y2="844.0802"/><text fill="#000000" font-family="sans-serif" font-size="13" lengthAdjust="spacing" textLength="77.9091" x="113.829" y="838.2712">Job accepted</text><line style="stroke:#181818;stroke-width:1;" x1="96.829" x2="138.829" y1="875.7862" y2="875.7862"/><line style="stroke:#181818;stroke-width:1;" x1="138.829" x2="138.829" y1="875.7862" y2="888.7862"/><line style="stroke:#181818;stroke-width:1;" x1="97.829" x2="138.829" y1="888.7862" y2="888.7862"/><polygon fill="#181818" points="107.829,884.7862,97.829,888.7862,107.829,892.7862,103.829,888.7862" style="stroke:#181818;stroke-width:1;"/><text fill="#000000" font-family="sans-serif" font-size="13" lengthAdjust="spacing" textLength="95.5371" x="103.829" y="869.9772">Store job status</text><polygon fill="#181818" points="994.9019,959.1983,1004.9019,963.1983,994.9019,967.1983,998.9019,963.1983" style="stroke:#181818;stroke-width:1;"/><line style="stroke:#181818;stroke-width:1;stroke-dasharray:2.0,2.0;" x1="744.2052" x2="1000.9019" y1="963.1983" y2="963.1983"/><text fill="#000000" font-family="sans-serif" font-size="13" lengthAdjust="spacing" textLength="86.3071" x="751.2052" y="939.6833">Start executor</text><text fill="#000000" font-family="sans-serif" font-size="13" lengthAdjust="spacing" textLength="104.4421" x="751.2052" y="957.3893">(via vendor code)</text><polygon fill="#181818" points="548.9574,973.1983,538.9574,977.1983,548.9574,981.1983,544.9574,977.1983" style="stroke:#181818;stroke-width:1;"/><line style="stroke:#181818;stroke-width:1;stroke-dasharray:2.0,2.0;" x1="542.9574" x2="733.2052" y1="977.1983" y2="977.1983"/><line style="stroke:#181818;stroke-width:1;" x1="537.9574" x2="579.9574" y1="1008.9043" y2="1008.9043"/><line style="stroke:#181818;stroke-width:1;" x1="579.9574" x2="579.9574" y1="1008.9043" y2="1021.9043"/><line style="stroke:#181818;stroke-width:1;" x1="538.9574" x2="579.9574" y1="1021.9043" y2="1021.9043"/><polygon fill="#181818" points="548.9574,1017.9043,538.9574,1021.9043,548.9574,1025.9043,544.9574,1021.9043" style="stroke:#181818;stroke-width:1;"/><text fill="#000000" font-family="sans-serif" font-size="13" lengthAdjust="spacing" textLength="105.1701" x="544.9574" y="1003.0953">Store executor IP</text><polygon fill="#181818" points="898.1908,1074.6103,888.1908,1078.6103,898.1908,1082.6103,894.1908,1078.6103" style="stroke:#181818;stroke-width:1;"/><line style="stroke:#181818;stroke-width:1;" x1="892.1908" x2="1005.9019" y1="1078.6103" y2="1078.6103"/><text fill="#000000" font-family="sans-serif" font-size="13" lengthAdjust="spacing" textLength="50.414" x="904.1908" y="1072.8013">Connect</text><polygon fill="#181818" points="994.9019,1106.3163,1004.9019,1110.3163,994.9019,1114.3163,998.9019,1110.3163" style="stroke:#181818;stroke-width:1;"/><line style="stroke:#181818;stroke-width:1;" x1="887.1908" x2="1000.9019" y1="1110.3163" y2="1110.3163"/><text fill="#000000" font-family="sans-serif" font-size="13" lengthAdjust="spacing" textLength="100.7111" x="894.1908" y="1104.5073">Initial job details</text><polygon fill="#181818" points="1140.9019,1138.0223,1150.9019,1142.0223,1140.9019,1146.0223,1144.9019,1142.0223" style="stroke:#181818;stroke-width:1;"/><line style="stroke:#181818;stroke-width:1;" x1="1021.9019" x2="1146.9019" y1="1142.0223" y2="1142.0223"/><text fill="#000000" font-family="sans-serif" font-size="13" lengthAdjust="spacing" textLength="61.412" x="1028.9019" y="1136.2133">CVE check</text><rect fill="#90EE90" height="43" style="stroke:#181818;stroke-width:0.5;" width="69" x="1026.9019" y="1155.0223"/><text fill="#000000" font-family="sans-serif" font-size="13" lengthAdjust="spacing" textLength="61.412" x="1030.9019" y="1172.9194">CVE check</text><text fill="#000000" font-family="sans-serif" font-size="13" lengthAdjust="spacing" textLength="48.1261" x="1030.9019" y="1190.6254">timeout</text><polygon fill="#181818" points="1032.9019,1223.1404,1022.9019,1227.1404,1032.9019,1231.1404,1028.9019,1227.1404" style="stroke:#181818;stroke-width:1;"/><line style="stroke:#181818;stroke-width:1;stroke-dasharray:2.0,2.0;" x1="1026.9019" x2="1151.9019" y1="1227.1404" y2="1227.1404"/><text fill="#000000" font-family="sans-serif" font-size="13" lengthAdjust="spacing" textLength="31.226" x="1038.9019" y="1221.3314">done</text><polygon fill="#181818" points="1140.9019,1254.8464,1150.9019,1258.8464,1140.9019,1262.8464,1144.9019,1258.8464" style="stroke:#181818;stroke-width:1;"/><line style="stroke:#181818;stroke-width:1;" x1="1021.9019" x2="1146.9019" y1="1258.8464" y2="1258.8464"/><text fill="#000000" font-family="sans-serif" font-size="13" lengthAdjust="spacing" textLength="103.1031" x="1028.9019" y="1253.0374">toolkit ver. check</text><rect fill="#90EE90" height="43" style="stroke:#181818;stroke-width:0.5;" width="84" x="1026.9019" y="1271.8464"/><text fill="#000000" font-family="sans-serif" font-size="13" lengthAdjust="spacing" textLength="76.9341" x="1030.9019" y="1289.7434">toolkit check</text><text fill="#000000" font-family="sans-serif" font-size="13" lengthAdjust="spacing" textLength="48.1261" x="1030.9019" y="1307.4494">timeout</text><polygon fill="#181818" points="1032.9019,1339.9645,1022.9019,1343.9645,1032.9019,1347.9645,1028.9019,1343.9645" style="stroke:#181818;stroke-width:1;"/><line style="stroke:#181818;stroke-width:1;stroke-dasharray:2.0,2.0;" x1="1026.9019" x2="1151.9019" y1="1343.9645" y2="1343.9645"/><text fill="#000000" font-family="sans-serif" font-size="13" lengthAdjust="spacing" textLength="31.226" x="1038.9019" y="1338.1555">done</text><line style="stroke:#181818;stroke-width:1;" x1="1016.9019" x2="1058.9019" y1="1375.6705" y2="1375.6705"/><line style="stroke:#181818;stroke-width:1;" x1="1058.9019" x2="1058.9019" y1="1375.6705" y2="1388.6705"/><line style="stroke:#181818;stroke-width:1;" x1="1017.9019" x2="1058.9019" y1="1388.6705" y2="1388.6705"/><polygon fill="#181818" points="1027.9019,1384.6705,1017.9019,1388.6705,1027.9019,1392.6705,1023.9019,1388.6705" style="stroke:#181818;stroke-width:1;"/><text fill="#000000" font-family="sans-serif" font-size="13" lengthAdjust="spacing" textLength="81.0031" x="1023.9019" y="1369.8615">clear old jobs</text><path d="M995.9019,1400.6705 L1239.074,1400.6705 L1239.074,1410.3765 L1229.074,1420.3765 L995.9019,1420.3765 L995.9019,1400.6705" fill="#EEEEEE" style="stroke:#000000;stroke-width:1.5;"/><rect fill="none" height="74.412" style="stroke:#000000;stroke-width:1.5;" width="259.1722" x="995.9019" y="1400.6705"/><text fill="#000000" font-family="sans-serif" font-size="13" font-weight="bold" lengthAdjust="spacing" textLength="198.1722" x="1010.9019" y="1415.5675">docker image in initial details?</text><line style="stroke:#181818;stroke-width:1;" x1="1016.9019" x2="1058.9019" y1="1454.0825" y2="1454.0825"/><line style="stroke:#181818;stroke-width:1;" x1="1058.9019" x2="1058.9019" y1="1454.0825" y2="1467.0825"/><line style="stroke:#181818;stroke-width:1;" x1="1017.9019" x2="1058.9019" y1="1467.0825" y2="1467.0825"/><polygon fill="#181818" points="1027.9019,1463.0825,1017.9019,1467.0825,1027.9019,1471.0825,1023.9019,1467.0825" style="stroke:#181818;stroke-width:1;"/><text fill="#000000" font-family="sans-serif" font-size="13" lengthAdjust="spacing" textLength="109.3691" x="1023.9019" y="1448.2735">pull docker image</text><polygon fill="#181818" points="898.1908,1508.7885,888.1908,1512.7885,898.1908,1516.7885,894.1908,1512.7885" style="stroke:#181818;stroke-width:1;"/><line style="stroke:#181818;stroke-width:1;" x1="892.1908" x2="1005.9019" y1="1512.7885" y2="1512.7885"/><text fill="#000000" font-family="sans-serif" font-size="13" lengthAdjust="spacing" textLength="37.336" x="904.1908" y="1506.9795">Ready</text><polygon fill="#181818" points="548.9574,1540.4945,538.9574,1544.4945,548.9574,1548.4945,544.9574,1544.4945" style="stroke:#181818;stroke-width:1;"/><line style="stroke:#181818;stroke-width:1;" x1="542.9574" x2="876.1908" y1="1544.4945" y2="1544.4945"/><text fill="#000000" font-family="sans-serif" font-size="13" lengthAdjust="spacing" textLength="37.336" x="554.9574" y="1538.6855">Ready</text><polygon fill="#181818" points="413.1238,1572.2006,403.1238,1576.2006,413.1238,1580.2006,409.1238,1576.2006" style="stroke:#181818;stroke-width:1;"/><line style="stroke:#181818;stroke-width:1;" x1="407.1238" x2="526.9574" y1="1576.2006" y2="1576.2006"/><text fill="#000000" font-family="sans-serif" font-size="13" lengthAdjust="spacing" textLength="37.336" x="419.1238" y="1570.3916">Ready</text><polygon fill="#181818" points="515.9574,1603.9066,525.9574,1607.9066,515.9574,1611.9066,519.9574,1607.9066" style="stroke:#181818;stroke-width:1;"/><line style="stroke:#181818;stroke-width:1;" x1="402.1238" x2="521.9574" y1="1607.9066" y2="1607.9066"/><text fill="#000000" font-family="sans-serif" font-size="13" lengthAdjust="spacing" textLength="63.037" x="409.1238" y="1602.0976">Job details</text><polygon fill="#181818" points="865.1908,1635.6126,875.1908,1639.6126,865.1908,1643.6126,869.1908,1639.6126" style="stroke:#181818;stroke-width:1;"/><line style="stroke:#181818;stroke-width:1;" x1="537.9574" x2="871.1908" y1="1639.6126" y2="1639.6126"/><text fill="#000000" font-family="sans-serif" font-size="13" lengthAdjust="spacing" textLength="63.037" x="544.9574" y="1633.8036">Job details</text><polygon fill="#181818" points="994.9019,1667.3186,1004.9019,1671.3186,994.9019,1675.3186,998.9019,1671.3186" style="stroke:#181818;stroke-width:1;"/><line style="stroke:#181818;stroke-width:1;" x1="887.1908" x2="1000.9019" y1="1671.3186" y2="1671.3186"/><text fill="#000000" font-family="sans-serif" font-size="13" lengthAdjust="spacing" textLength="63.037" x="894.1908" y="1665.5096">Job details</text><polygon fill="#181818" points="1140.9019,1699.0246,1150.9019,1703.0246,1140.9019,1707.0246,1144.9019,1703.0246" style="stroke:#181818;stroke-width:1;"/><line style="stroke:#181818;stroke-width:1;" x1="1021.9019" x2="1146.9019" y1="1703.0246" y2="1703.0246"/><text fill="#000000" font-family="monospace" font-size="13" lengthAdjust="spacing" textLength="117" x="1028.9019" y="1697.2156">unpack_volume()</text><rect fill="#90EE90" height="25" style="stroke:#181818;stroke-width:0.5;" width="104" x="1026.9019" y="1716.0246"/><text fill="#000000" font-family="sans-serif" font-size="13" lengthAdjust="spacing" textLength="96.0441" x="1030.9019" y="1733.9216">unpack timeout</text><path d="M1167.9019,1751.7306 L1167.9019,1796.7306 L1342.9019,1796.7306 L1342.9019,1761.7306 L1332.9019,1751.7306 L1167.9019,1751.7306" fill="#FEFFDD" style="stroke:#181818;stroke-width:0.5;"/><path d="M1332.9019,1751.7306 L1332.9019,1761.7306 L1342.9019,1761.7306 L1332.9019,1751.7306" fill="#FEFFDD" style="stroke:#181818;stroke-width:0.5;"/><text fill="#000000" font-family="sans-serif" font-size="13" lengthAdjust="spacing" textLength="154.9861" x="1173.9019" y="1770.6277">Implementation depends</text><text fill="#000000" font-family="sans-serif" font-size="13" lengthAdjust="spacing" textLength="94.6531" x="1173.9019" y="1788.3337">on volume type</text><path d="M1167.9019,1807.1427 L1167.9019,1834.1427 L1373.9019,1834.1427 L1373.9019,1817.1427 L1363.9019,1807.1427 L1167.9019,1807.1427" fill="#FEFFDD" style="stroke:#181818;stroke-width:0.5;"/><path d="M1363.9019,1807.1427 L1363.9019,1817.1427 L1373.9019,1817.1427 L1363.9019,1807.1427" fill="#FEFFDD" style="stroke:#181818;stroke-width:0.5;"/><text fill="#000000" font-family="sans-serif" font-size="13" lengthAdjust="spacing" textLength="185.3282" x="1173.9019" y="1826.0397">Multi volume does a loop here</text><line style="stroke:#181818;stroke-width:1;" x1="1162.9019" x2="1204.9019" y1="1863.5547" y2="1863.5547"/><line style="stroke:#181818;stroke-width:1;" x1="1204.9019" x2="1204.9019" y1="1863.5547" y2="1876.5547"/><line style="stroke:#181818;stroke-width:1;" x1="1163.9019" x2="1204.9019" y1="1876.5547" y2="1876.5547"/><polygon fill="#181818" points="1173.9019,1872.5547,1163.9019,1876.5547,1173.9019,1880.5547,1169.9019,1876.5547" style="stroke:#181818;stroke-width:1;"/><text fill="#000000" font-family="sans-serif" font-size="13" font-weight="bold" lengthAdjust="spacing" textLength="65.221" x="1169.9019" y="1857.7457">Download</text><text fill="#000000" font-family="sans-serif" font-size="13" lengthAdjust="spacing" textLength="55.354" x="1238.503" y="1857.7457">+ unpack</text><polygon fill="#181818" points="1032.9019,1904.2607,1022.9019,1908.2607,1032.9019,1912.2607,1028.9019,1908.2607" style="stroke:#181818;stroke-width:1;"/><line style="stroke:#181818;stroke-width:1;stroke-dasharray:2.0,2.0;" x1="1026.9019" x2="1151.9019" y1="1908.2607" y2="1908.2607"/><text fill="#000000" font-family="sans-serif" font-size="13" lengthAdjust="spacing" textLength="31.226" x="1038.9019" y="1902.4517">done</text><line style="stroke:#181818;stroke-width:1;" x1="1016.9019" x2="1058.9019" y1="1939.9667" y2="1939.9667"/><line style="stroke:#181818;stroke-width:1;" x1="1058.9019" x2="1058.9019" y1="1939.9667" y2="1952.9667"/><line style="stroke:#181818;stroke-width:1;" x1="1017.9019" x2="1058.9019" y1="1952.9667" y2="1952.9667"/><polygon fill="#181818" points="1027.9019,1948.9667,1017.9019,1952.9667,1027.9019,1956.9667,1023.9019,1952.9667" style="stroke:#181818;stroke-width:1;"/><text fill="#000000" font-family="sans-serif" font-size="13" lengthAdjust="spacing" textLength="66.5601" x="1023.9019" y="1934.1577">docker run</text><polygon fill="#FFAAAA" points="1000.2354,1965.9667,1312.2354,1965.9667,1322.2354,1986.9667,1312.2354,2008.9667,1000.2354,2008.9667,990.2354,1986.9667,1000.2354,1965.9667" style="stroke:#181818;stroke-width:0.5;"/><text fill="#000000" font-family="sans-serif" font-size="13" lengthAdjust="spacing" textLength="187.9152" x="1062.4219" y="1983.8638">docker will pull the image here</text><text fill="#000000" font-family="sans-serif" font-size="13" lengthAdjust="spacing" textLength="102.7391" x="1062.4219" y="2001.5698">if it's not present</text><polygon fill="#181818" points="1283.857,2016.3788,1293.857,2020.3788,1283.857,2024.3788,1287.857,2020.3788" style="stroke:#181818;stroke-width:1;"/><line style="stroke:#181818;stroke-width:1;stroke-dasharray:2.0,2.0;" x1="1021.9019" x2="1289.857" y1="2020.3788" y2="2020.3788"/><rect fill="#90EE90" height="43" style="stroke:#181818;stroke-width:0.5;" width="90" x="1026.9019" y="2033.3788"/><text fill="#000000" font-family="sans-serif" font-size="13" lengthAdjust="spacing" textLength="82.3551" x="1030.9019" y="2051.2758">job execution</text><text fill="#000000" font-family="sans-serif" font-size="13" lengthAdjust="spacing" textLength="48.1261" x="1030.9019" y="2068.9818">timeout</text><line style="stroke:#181818;stroke-width:1;" x1="1305.857" x2="1347.857" y1="2105.4968" y2="2105.4968"/><line style="stroke:#181818;stroke-width:1;" x1="1347.857" x2="1347.857" y1="2105.4968" y2="2118.4968"/><line style="stroke:#181818;stroke-width:1;" x1="1306.857" x2="1347.857" y1="2118.4968" y2="2118.4968"/><polygon fill="#181818" points="1316.857,2114.4968,1306.857,2118.4968,1316.857,2122.4968,1312.857,2118.4968" style="stroke:#181818;stroke-width:1;"/><text fill="#000000" font-family="sans-serif" font-size="13" lengthAdjust="spacing" textLength="71.6951" x="1312.857" y="2099.6878">Actual work</text><polygon fill="#181818" points="1032.9019,2146.2028,1022.9019,2150.2028,1032.9019,2154.2028,1028.9019,2150.2028" style="stroke:#181818;stroke-width:1;"/><line style="stroke:#181818;stroke-width:1;" x1="1026.9019" x2="1294.857" y1="2150.2028" y2="2150.2028"/><text fill="#000000" font-family="sans-serif" font-size="13" lengthAdjust="spacing" textLength="83.3561" x="1038.9019" y="2144.3938">stdout, stderr</text><line style="stroke:#181818;stroke-width:1;" x1="1016.9019" x2="1058.9019" y1="2181.9089" y2="2181.9089"/><line style="stroke:#181818;stroke-width:1;" x1="1058.9019" x2="1058.9019" y1="2181.9089" y2="2194.9089"/><line style="stroke:#181818;stroke-width:1;" x1="1017.9019" x2="1058.9019" y1="2194.9089" y2="2194.9089"/><polygon fill="#181818" points="1027.9019,2190.9089,1017.9019,2194.9089,1027.9019,2198.9089,1023.9019,2194.9089" style="stroke:#181818;stroke-width:1;"/><text fill="#000000" font-family="sans-serif" font-size="13" lengthAdjust="spacing" textLength="103.6491" x="1023.9019" y="2176.0999">Serialize artifacts</text><path d="M990.9019,2206.9089 L1064.2419,2206.9089 L1064.2419,2216.6149 L1054.2419,2226.6149 L990.9019,2226.6149 L990.9019,2206.9089" fill="#EEEEEE" style="stroke:#000000;stroke-width:1.5;"/><rect fill="none" height="173.5301" style="stroke:#000000;stroke-width:1.5;" width="197.1684" x="990.9019" y="2206.9089"/><text fill="#000000" font-family="sans-serif" font-size="13" font-weight="bold" lengthAdjust="spacing" textLength="28.34" x="1005.9019" y="2221.8059">loop</text><text fill="#000000" font-family="sans-serif" font-size="11" font-weight="bold" lengthAdjust="spacing" textLength="92.8283" x="1079.2419" y="2220.6678">[for each upload]</text><line style="stroke:#181818;stroke-width:1;" x1="1016.9019" x2="1058.9019" y1="2260.3209" y2="2260.3209"/><line style="stroke:#181818;stroke-width:1;" x1="1058.9019" x2="1058.9019" y1="2260.3209" y2="2273.3209"/><line style="stroke:#181818;stroke-width:1;" x1="1017.9019" x2="1058.9019" y1="2273.3209" y2="2273.3209"/><polygon fill="#181818" points="1027.9019,2269.3209,1017.9019,2273.3209,1027.9019,2277.3209,1023.9019,2273.3209" style="stroke:#181818;stroke-width:1;"/><text fill="#000000" font-family="sans-serif" font-size="13" lengthAdjust="spacing" textLength="90.9481" x="1023.9019" y="2254.5119">Zip the volume</text><polygon fill="#181818" points="1140.9019,2301.0269,1150.9019,2305.0269,1140.9019,2309.0269,1144.9019,2305.0269" style="stroke:#181818;stroke-width:1;"/><line style="stroke:#181818;stroke-width:1;" x1="1021.9019" x2="1146.9019" y1="2305.0269" y2="2305.0269"/><text fill="#000000" font-family="sans-serif" font-size="13" lengthAdjust="spacing" textLength="44.005" x="1028.9019" y="2299.2179">Upload</text><rect fill="#90EE90" height="25" style="stroke:#181818;stroke-width:0.5;" width="102" x="1026.9019" y="2318.0269"/><text fill="#000000" font-family="sans-serif" font-size="13" lengthAdjust="spacing" textLength="94.0421" x="1030.9019" y="2335.9239">upload timeout</text><polygon fill="#181818" points="1032.9019,2368.4389,1022.9019,2372.4389,1032.9019,2376.4389,1028.9019,2372.4389" style="stroke:#181818;stroke-width:1;"/><line style="stroke:#181818;stroke-width:1;stroke-dasharray:2.0,2.0;" x1="1026.9019" x2="1151.9019" y1="2372.4389" y2="2372.4389"/><text fill="#000000" font-family="sans-serif" font-size="13" lengthAdjust="spacing" textLength="31.226" x="1038.9019" y="2366.6299">done</text><polygon fill="#181818" points="898.1908,2414.145,888.1908,2418.145,898.1908,2422.145,894.1908,2418.145" style="stroke:#181818;stroke-width:1;"/><line style="stroke:#181818;stroke-width:1;" x1="892.1908" x2="1005.9019" y1="2418.145" y2="2418.145"/><text fill="#000000" font-family="sans-serif" font-size="13" lengthAdjust="spacing" textLength="57.798" x="904.1908" y="2412.336">Job result</text><polygon fill="#181818" points="548.9574,2445.851,538.9574,2449.851,548.9574,2453.851,544.9574,2449.851" style="stroke:#181818;stroke-width:1;"/><line style="stroke:#181818;stroke-width:1;" x1="542.9574" x2="876.1908" y1="2449.851" y2="2449.851"/><text fill="#000000" font-family="sans-serif" font-size="13" lengthAdjust="spacing" textLength="57.798" x="554.9574" y="2444.042">Job result</text><polygon fill="#181818" points="413.1238,2477.557,403.1238,2481.557,413.1238,2485.557,409.1238,2481.557" style="stroke:#181818;stroke-width:1;"/><line style="stroke:#181818;stroke-width:1;" x1="407.1238" x2="526.9574" y1="2481.557" y2="2481.557"/><text fill="#000000" font-family="sans-serif" font-size="13" lengthAdjust="spacing" textLength="57.798" x="419.1238" y="2475.748">Job result</text><polygon fill="#181818" points="239.9877,2509.263,229.9877,2513.263,239.9877,2517.263,235.9877,2513.263" style="stroke:#181818;stroke-width:1;"/><line style="stroke:#181818;stroke-width:1;stroke-dasharray:2.0,2.0;" x1="233.9877" x2="386.1238" y1="2513.263" y2="2513.263"/><text fill="#000000" font-family="sans-serif" font-size="13" lengthAdjust="spacing" textLength="112.9571" x="245.9877" y="2507.454">(Celery task result)</text><polygon fill="#181818" points="107.829,2540.969,97.829,2544.969,107.829,2548.969,103.829,2544.969" style="stroke:#181818;stroke-width:1;"/><line style="stroke:#181818;stroke-width:1;" x1="101.829" x2="212.9877" y1="2544.969" y2="2544.969"/><text fill="#000000" font-family="sans-serif" font-size="13" lengthAdjust="spacing" textLength="57.798" x="113.829" y="2539.16">Job result</text><line style="stroke:#181818;stroke-width:1;" x1="96.829" x2="138.829" y1="2576.675" y2="2576.675"/><line style="stroke:#181818;stroke-width:1;" x1="138.829" x2="138.829" y1="2576.675" y2="2589.675"/><line style="stroke:#181818;stroke-width:1;" x1="97.829" x2="138.829" y1="2589.675" y2="2589.675"/><polygon fill="#181818" points="107.829,2585.675,97.829,2589.675,107.829,2593.675,103.829,2589.675" style="stroke:#181818;stroke-width:1;"/><text fill="#000000" font-family="sans-serif" font-size="13" lengthAdjust="spacing" textLength="95.5371" x="103.829" y="2570.866">Store job status</text><!--SRC=[pLXBR-Cs4BxhLqpjGxDkskwb5nrQTBCfa00BB3RRBL04A1XfPBEMI9MYd7YH7z-XtfIeXxTk6mT8797p-ERnSQYlKiMs2GEDyZDebQENxRb8cM89PFXNZYB0D_BfZLGXgYiPImNhhM97ZxPe7l2K2Gs_i837N3CjbVSWd-0JYtbe_eCrOlH355cxLvtj44WXCD1SYfMzwHqNgE2juWTKAmz52AIvq5wkh6E-tUaZnh5yj2LRwrTIP7bYvAqD7p13TM36A6YMxNlBrqyOvBPurtoplCR8_5Z2zQAjyICP-VukVqYL333BR7ktyg7Hxp4A1Nc6uq7ollsn6syVhXGQWJz9JIFTJKXNKL_sZdwNehrTO-PzuoueKnYPza9qMlJ6fASrl-V17XAJt2zKG15Ek8O0OrJ70jMNwVcDaPR8F6qq4UGiZxK7z9dDKLMRMuKe2Wab96rNvY78Q96SNnil3OFc2SfSTzH9QenHLPUz1Yf1SR7juZAr3rf2fgaSUz0iwLb0exlzhgrxqKNH4p8PSNIk3pU276TnbOMoyA3wjFwwcdwug-Vdw-1risa64ctrWLUkK4vIie8se0AKmuy2se1pOBFnwyUu0go9O-ZqaAuMmHyapOLoHiutK6lZ3hH3L4wiFbGu6vZt8b8oWLJAU4wRioWor5tN8Cfrhh1HrI6coSeOJLUlUGpfiI30L6FeD6AVLYFbFScfblhPYbrIhNMiAL0iFFQQRu8OhHF2YTp9-lNYelF6S8xEiqRe-VdP5LUNVbUPa9twv3L6YCuwbNPnu0mETCGMK4DyDSHntU- -4IFEOdGMn7ZJZjQSiz3BY3Mfl7a_5xB9Uczc5sDlEEVuvgif1GV3EAQY1j5m3QoCT2ayHCrut6Q-x_w4dG62_bn5_d-wXc27mTuIQhKF9Z7djdR4Sr2ee_rS-pk-38cpq854MG92AN0i68Eox0Th0EUKM6aYtprDEaGPtxsOeDLElPZ0jLKSnCWKo3WqTPpP4bibyvHS2lP4mpnXMwHXePaNgfh_QO6HD8zZIuybO-u9XIblUKj_CEn_bePsCvIjVs4hd_Tu7dTXIll9vxSJ_csFqsQFxdy8tPNYMmUlBet2UHX-pWE7RcyXJQrMkKXPiF_Z86EIl7YrMhq0dYfz0XS_zKQp8QAR98qnGQ7ByI34bFewknVqlSG8-fZYQJhVqIMHr-AXn0mOn5Aci4Dbgne8ZyHzitah7qKiMRZPm3SLu7-VYAVfiM96bRSfsxMtuNhVPL6FwuYnHkAH4wyMvAftM36q2Sszu15m_NLcGWofkLC8xN22l30lQawhfaMLP8QYShvpth4QIrtp1bxfaGy_1pgdC-PHgdr_lOrRfaDIUcd-ebAk5ksgdqgWEoztgEYWuvyHp9kjYCHR7YZAqBns8Aqxo5DJKZFgVkTfaQUodfSonQ-swWL5TiOqbhW6XE3ejbv12rmKzqLDO-O34-xbqy6j_MvhpelpZm_J3lntCyIC7-SR92RV15nSTLxDbUwKrzLf6ztLiHV79rtvUv7uFoxyVmC0]--></g></svg>