<svg xmlns="http://www.w3.org/2000/svg" xmlns:xlink="http://www.w3.org/1999/xlink" contentStyleType="text/css" height="878px" preserveAspectRatio="none" style="width:1176px;height:878px;background:#FFFFFF;" version="1.1" viewBox="0 0 1176 878" width="1176px" zoomAndPan="magnify"><defs/><g><rect fill="#90EE90" height="64.6211" style="stroke:#181818;stroke-width:1.0;" width="10" x="1062.6523" y="507.8359"/><rect fill="none" height="46.6211" style="stroke:#000000;stroke-width:1.5;" width="280.251" x="890.6494" y="432.9043"/><rect fill="none" height="46.6211" style="stroke:#000000;stroke-width:1.5;" width="280.251" x="890.6494" y="587.457"/><line style="stroke:#181818;stroke-width:0.5;stroke-dasharray:5.0,5.0;" x1="27" x2="27" y1="81.4883" y2="797.6309"/><line style="stroke:#181818;stroke-width:0.5;stroke-dasharray:5.0,5.0;" x1="152.8506" x2="152.8506" y1="81.4883" y2="797.6309"/><line style="stroke:#181818;stroke-width:0.5;stroke-dasharray:5.0,5.0;" x1="341.8276" x2="341.8276" y1="81.4883" y2="797.6309"/><line style="stroke:#181818;stroke-width:0.5;stroke-dasharray:5.0,5.0;" x1="639.6982" x2="639.6982" y1="81.4883" y2="797.6309"/><line style="stroke:#181818;stroke-width:0.5;stroke-dasharray:5.0,5.0;" x1="936.6494" x2="936.6494" y1="81.4883" y2="797.6309"/><line style="stroke:#181818;stroke-width:0.5;stroke-dasharray:5.0,5.0;" x1="1066.7695" x2="1066.7695" y1="81.4883" y2="797.6309"/><line style="stroke:#181818;stroke-width:0.5;stroke-dasharray:5.0,5.0;" x1="1127.5352" x2="1127.5352" y1="81.4883" y2="797.6309"/><text fill="#000000" font-family="sans-serif" font-size="14" lengthAdjust="spacing" textLength="39.5049" x="5" y="78.5352">Client</text><ellipse cx="27.7524" cy="13.5" fill="#E2E2F0" rx="8" ry="8" style="stroke:#181818;stroke-width:0.5;"/><path d="M27.7524,21.5 L27.7524,48.5 M14.7524,29.5 L40.7524,29.5 M27.7524,48.5 L14.7524,63.5 M27.7524,48.5 L40.7524,63.5 " fill="none" style="stroke:#181818;stroke-width:0.5;"/><text fill="#000000" font-family="sans-serif" font-size="14" lengthAdjust="spacing" textLength="39.5049" x="5" y="810.166">Client</text><ellipse cx="27.7524" cy="821.6191" fill="#E2E2F0" rx="8" ry="8" style="stroke:#181818;stroke-width:0.5;"/><path d="M27.7524,829.6191 L27.7524,856.6191 M14.7524,837.6191 L40.7524,837.6191 M27.7524,856.6191 L14.7524,871.6191 M27.7524,856.6191 L40.7524,871.6191 " fill="none" style="stroke:#181818;stroke-width:0.5;"/><rect fill="#E2E2F0" height="30.4883" rx="2.5" ry="2.5" style="stroke:#181818;stroke-width:0.5;" width="81.0811" x="112.8506" y="50"/><text fill="#000000" font-family="sans-serif" font-size="14" lengthAdjust="spacing" textLength="67.0811" x="119.8506" y="70.5352">Facilitator</text><rect fill="#E2E2F0" height="30.4883" rx="2.5" ry="2.5" style="stroke:#181818;stroke-width:0.5;" width="81.0811" x="112.8506" y="796.6309"/><text fill="#000000" font-family="sans-serif" font-size="14" lengthAdjust="spacing" textLength="67.0811" x="119.8506" y="817.166">Facilitator</text><rect fill="#E2E2F0" height="30.4883" rx="2.5" ry="2.5" style="stroke:#181818;stroke-width:0.5;" width="75.0859" x="304.8276" y="50"/><text fill="#000000" font-family="sans-serif" font-size="14" lengthAdjust="spacing" textLength="61.0859" x="311.8276" y="70.5352">Validator</text><rect fill="#E2E2F0" height="30.4883" rx="2.5" ry="2.5" style="stroke:#181818;stroke-width:0.5;" width="75.0859" x="304.8276" y="796.6309"/><text fill="#000000" font-family="sans-serif" font-size="14" lengthAdjust="spacing" textLength="61.0859" x="311.8276" y="817.166">Validator</text><rect fill="#E2E2F0" height="30.4883" rx="2.5" ry="2.5" style="stroke:#181818;stroke-width:0.5;" width="52.3223" x="613.6982" y="50"/><text fill="#000000" font-family="sans-serif" font-size="14" lengthAdjust="spacing" textLength="38.3223" x="620.6982" y="70.5352">Miner</text><rect fill="#E2E2F0" height="30.4883" rx="2.5" ry="2.5" style="stroke:#181818;stroke-width:0.5;" width="52.3223" x="613.6982" y="796.6309"/><text fill="#000000" font-family="sans-serif" font-size="14" lengthAdjust="spacing" textLength="38.3223" x="620.6982" y="817.166">Miner</text><rect fill="#E2E2F0" height="30.4883" rx="2.5" ry="2.5" style="stroke:#181818;stroke-width:0.5;" width="73.3975" x="900.6494" y="50"/><text fill="#000000" font-family="sans-serif" font-size="14" lengthAdjust="spacing" textLength="59.3975" x="907.6494" y="70.5352">Executor</text><rect fill="#E2E2F0" height="30.4883" rx="2.5" ry="2.5" style="stroke:#181818;stroke-width:0.5;" width="73.3975" x="900.6494" y="796.6309"/><text fill="#000000" font-family="sans-serif" font-size="14" lengthAdjust="spacing" textLength="59.3975" x="907.6494" y="817.166">Executor</text><rect fill="#E2E2F0" height="30.4883" rx="2.5" ry="2.5" style="stroke:#181818;stroke-width:0.5;" width="35.7656" x="1049.7695" y="50"/><text fill="#000000" font-family="sans-serif" font-size="14" lengthAdjust="spacing" textLength="21.7656" x="1056.7695" y="70.5352">Job</text><rect fill="#E2E2F0" height="30.4883" rx="2.5" ry="2.5" style="stroke:#181818;stroke-width:0.5;" width="35.7656" x="1049.7695" y="796.6309"/><text fill="#000000" font-family="sans-serif" font-size="14" lengthAdjust="spacing" textLength="21.7656" x="1056.7695" y="817.166">Job</text><rect fill="#E2E2F0" height="30.4883" rx="2.5" ry="2.5" style="stroke:#181818;stroke-width:0.5;" width="65.3652" x="1095.5352" y="50"/><text fill="#000000" font-family="sans-serif" font-size="14" lengthAdjust="spacing" textLength="51.3652" x="1102.5352" y="70.5352">Storage</text><rect fill="#E2E2F0" height="30.4883" rx="2.5" ry="2.5" style="stroke:#181818;stroke-width:0.5;" width="65.3652" x="1095.5352" y="796.6309"/><text fill="#000000" font-family="sans-serif" font-size="14" lengthAdjust="spacing" textLength="51.3652" x="1102.5352" y="817.166">Storage</text><rect fill="#90EE90" height="64.6211" style="stroke:#181818;stroke-width:1.0;" width="10" x="1062.6523" y="507.8359"/><polygon fill="#181818" points="141.3911,108.7988,151.3911,112.7988,141.3911,116.7988,145.3911,112.7988" style="stroke:#181818;stroke-width:1.0;"/><line style="stroke:#181818;stroke-width:1.0;" x1="27.7524" x2="147.3911" y1="112.7988" y2="112.7988"/><text fill="#000000" font-family="sans-serif" font-size="13" lengthAdjust="spacing" textLength="100.4517" x="34.7524" y="108.0566">Send job details</text><line style="stroke:#181818;stroke-width:1.0;" x1="153.3911" x2="195.3911" y1="142.1094" y2="142.1094"/><line style="stroke:#181818;stroke-width:1.0;" x1="195.3911" x2="195.3911" y1="142.1094" y2="155.1094"/><line style="stroke:#181818;stroke-width:1.0;" x1="154.3911" x2="195.3911" y1="155.1094" y2="155.1094"/><polygon fill="#181818" points="164.3911,151.1094,154.3911,155.1094,164.3911,159.1094,160.3911,155.1094" style="stroke:#181818;stroke-width:1.0;"/><text fill="#000000" font-family="sans-serif" font-size="13" lengthAdjust="spacing" textLength="174.9795" x="160.3911" y="137.3672">Choose Validator and Miner</text><polygon fill="#181818" points="330.3706,180.4199,340.3706,184.4199,330.3706,188.4199,334.3706,184.4199" style="stroke:#181818;stroke-width:1.0;"/><line style="stroke:#181818;stroke-width:1.0;" x1="153.3911" x2="336.3706" y1="184.4199" y2="184.4199"/><text fill="#000000" font-family="sans-serif" font-size="13" lengthAdjust="spacing" textLength="100.4517" x="160.3911" y="179.6777">Send job details</text><polygon fill="#181818" points="627.8594,209.7305,637.8594,213.7305,627.8594,217.7305,631.8594,213.7305" style="stroke:#181818;stroke-width:1.0;"/><line style="stroke:#181818;stroke-width:1.0;" x1="342.3706" x2="633.8594" y1="213.7305" y2="213.7305"/><text fill="#000000" font-family="sans-serif" font-size="13" lengthAdjust="spacing" textLength="139.7056" x="349.3706" y="208.9883">Send initial job details</text><line style="stroke:#181818;stroke-width:1.0;" x1="639.8594" x2="681.8594" y1="258.3516" y2="258.3516"/><line style="stroke:#181818;stroke-width:1.0;" x1="681.8594" x2="681.8594" y1="258.3516" y2="271.3516"/><line style="stroke:#181818;stroke-width:1.0;" x1="640.8594" x2="681.8594" y1="271.3516" y2="271.3516"/><polygon fill="#181818" points="650.8594,267.3516,640.8594,271.3516,650.8594,275.3516,646.8594,271.3516" style="stroke:#181818;stroke-width:1.0;"/><text fill="#000000" font-family="sans-serif" font-size="13" lengthAdjust="spacing" textLength="164.3281" x="646.8594" y="238.2988">Check for a free executor,</text><text fill="#000000" font-family="sans-serif" font-size="13" lengthAdjust="spacing" textLength="171.1646" x="646.8594" y="253.6094">possibly spin up a new one</text><polygon fill="#181818" points="925.3481,296.6621,935.3481,300.6621,925.3481,304.6621,929.3481,300.6621" style="stroke:#181818;stroke-width:1.0;"/><line style="stroke:#181818;stroke-width:1.0;" x1="639.8594" x2="931.3481" y1="300.6621" y2="300.6621"/><text fill="#000000" font-family="sans-serif" font-size="13" lengthAdjust="spacing" textLength="136.8301" x="646.8594" y="295.9199">Pass initial job details</text><polygon fill="#181818" points="650.8594,325.9727,640.8594,329.9727,650.8594,333.9727,646.8594,329.9727" style="stroke:#181818;stroke-width:1.0;"/><line style="stroke:#181818;stroke-width:1.0;" x1="644.8594" x2="936.3481" y1="329.9727" y2="329.9727"/><text fill="#000000" font-family="sans-serif" font-size="13" lengthAdjust="spacing" textLength="273.4888" x="656.8594" y="325.2305">Report readiness (initial preparations done)</text><polygon fill="#181818" points="353.3706,355.2832,343.3706,359.2832,353.3706,363.2832,349.3706,359.2832" style="stroke:#181818;stroke-width:1.0;"/><line style="stroke:#181818;stroke-width:1.0;" x1="347.3706" x2="638.8594" y1="359.2832" y2="359.2832"/><text fill="#000000" font-family="sans-serif" font-size="13" lengthAdjust="spacing" textLength="273.4888" x="359.3706" y="354.541">Report readiness (initial preparations done)</text><polygon fill="#181818" points="627.8594,384.5938,637.8594,388.5938,627.8594,392.5938,631.8594,388.5938" style="stroke:#181818;stroke-width:1.0;"/><line style="stroke:#181818;stroke-width:1.0;" x1="342.3706" x2="633.8594" y1="388.5938" y2="388.5938"/><text fill="#000000" font-family="sans-serif" font-size="13" lengthAdjust="spacing" textLength="119.2598" x="349.3706" y="383.8516">Send all job details</text><polygon fill="#181818" points="925.3481,413.9043,935.3481,417.9043,925.3481,421.9043,929.3481,417.9043" style="stroke:#181818;stroke-width:1.0;"/><line style="stroke:#181818;stroke-width:1.0;" x1="639.8594" x2="931.3481" y1="417.9043" y2="417.9043"/><text fill="#000000" font-family="sans-serif" font-size="13" lengthAdjust="spacing" textLength="119.2598" x="646.8594" y="413.1621">Send all job details</text><path d="M890.6494,432.9043 L957.8345,432.9043 L957.8345,440.2148 L947.8345,450.2148 L890.6494,450.2148 L890.6494,432.9043 " fill="#EEEEEE" style="stroke:#000000;stroke-width:1.5;"/><rect fill="none" height="46.6211" style="stroke:#000000;stroke-width:1.5;" width="280.251" x="890.6494" y="432.9043"/><text fill="#000000" font-family="sans-serif" font-size="13" font-weight="bold" lengthAdjust="spacing" textLength="22.1851" x="905.6494" y="446.4727">opt</text><text fill="#000000" font-family="sans-serif" font-size="11" font-weight="bold" lengthAdjust="spacing" textLength="155.4878" x="972.8345" y="445.5391">[job requires fetching data]</text><polygon fill="#181818" points="1116.2178,467.5254,1126.2178,471.5254,1116.2178,475.5254,1120.2178,471.5254" style="stroke:#181818;stroke-width:1.0;"/><line style="stroke:#181818;stroke-width:1.0;" x1="937.3481" x2="1122.2178" y1="471.5254" y2="471.5254"/><text fill="#000000" font-family="sans-serif" font-size="13" lengthAdjust="spacing" textLength="65.3174" x="944.3481" y="466.7832">Fetch data</text><polygon fill="#181818" points="1050.6523,503.8359,1060.6523,507.8359,1050.6523,511.8359,1054.6523,507.8359" style="stroke:#181818;stroke-width:1.0;"/><line style="stroke:#181818;stroke-width:1.0;" x1="937.3481" x2="1056.6523" y1="507.8359" y2="507.8359"/><text fill="#000000" font-family="sans-serif" font-size="13" lengthAdjust="spacing" textLength="106.3042" x="944.3481" y="503.0938">Start Job process</text><path d="M1046,520.8359 L1046,545.8359 L1088,545.8359 L1088,530.8359 L1078,520.8359 L1046,520.8359 " fill="#FEFFDD" style="stroke:#181818;stroke-width:0.5;"/><path d="M1078,520.8359 L1078,530.8359 L1088,530.8359 L1078,520.8359 " fill="#FEFFDD" style="stroke:#181818;stroke-width:0.5;"/><text fill="#000000" font-family="sans-serif" font-size="13" lengthAdjust="spacing" textLength="21.4551" x="1052" y="538.4043">run</text><polygon fill="#181818" points="948.3481,568.457,938.3481,572.457,948.3481,576.457,944.3481,572.457" style="stroke:#181818;stroke-width:1.0;"/><line style="stroke:#181818;stroke-width:1.0;" x1="942.3481" x2="1066.6523" y1="572.457" y2="572.457"/><text fill="#000000" font-family="sans-serif" font-size="13" lengthAdjust="spacing" textLength="80.9834" x="954.3481" y="567.7148">Report finish</text><path d="M890.6494,587.457 L957.8345,587.457 L957.8345,594.7676 L947.8345,604.7676 L890.6494,604.7676 L890.6494,587.457 " fill="#EEEEEE" style="stroke:#000000;stroke-width:1.5;"/><rect fill="none" height="46.6211" style="stroke:#000000;stroke-width:1.5;" width="280.251" x="890.6494" y="587.457"/><text fill="#000000" font-family="sans-serif" font-size="13" font-weight="bold" lengthAdjust="spacing" textLength="22.1851" x="905.6494" y="601.0254">opt</text><text fill="#000000" font-family="sans-serif" font-size="11" font-weight="bold" lengthAdjust="spacing" textLength="165.8164" x="972.8345" y="600.0918">[job requires uploading data]</text><polygon fill="#181818" points="1116.2178,622.0781,1126.2178,626.0781,1116.2178,630.0781,1120.2178,626.0781" style="stroke:#181818;stroke-width:1.0;"/><line style="stroke:#181818;stroke-width:1.0;" x1="937.3481" x2="1122.2178" y1="626.0781" y2="626.0781"/><text fill="#000000" font-family="sans-serif" font-size="13" lengthAdjust="spacing" textLength="75.8101" x="944.3481" y="621.3359">Upload data</text><polygon fill="#181818" points="1116.2178,658.3887,1126.2178,662.3887,1116.2178,666.3887,1120.2178,662.3887" style="stroke:#181818;stroke-width:1.0;"/><line style="stroke:#181818;stroke-width:1.0;" x1="937.3481" x2="1122.2178" y1="662.3887" y2="662.3887"/><text fill="#000000" font-family="sans-serif" font-size="13" lengthAdjust="spacing" textLength="158.2026" x="944.3481" y="657.6465">Upload stdout and stderr</text><polygon fill="#181818" points="650.8594,687.6992,640.8594,691.6992,650.8594,695.6992,646.8594,691.6992" style="stroke:#181818;stroke-width:1.0;"/><line style="stroke:#181818;stroke-width:1.0;" x1="644.8594" x2="936.3481" y1="691.6992" y2="691.6992"/><text fill="#000000" font-family="sans-serif" font-size="13" lengthAdjust="spacing" textLength="101.6387" x="656.8594" y="686.957">Report job done</text><polygon fill="#181818" points="353.3706,717.0098,343.3706,721.0098,353.3706,725.0098,349.3706,721.0098" style="stroke:#181818;stroke-width:1.0;"/><line style="stroke:#181818;stroke-width:1.0;" x1="347.3706" x2="638.8594" y1="721.0098" y2="721.0098"/><text fill="#000000" font-family="sans-serif" font-size="13" lengthAdjust="spacing" textLength="101.6387" x="359.3706" y="716.2676">Report job done</text><polygon fill="#181818" points="164.3911,746.3203,154.3911,750.3203,164.3911,754.3203,160.3911,750.3203" style="stroke:#181818;stroke-width:1.0;"/><line style="stroke:#181818;stroke-width:1.0;" x1="158.3911" x2="341.3706" y1="750.3203" y2="750.3203"/><text fill="#000000" font-family="sans-serif" font-size="13" lengthAdjust="spacing" textLength="101.6387" x="170.3911" y="745.5781">Report job done</text><polygon fill="#181818" points="38.7524,775.6309,28.7524,779.6309,38.7524,783.6309,34.7524,779.6309" style="stroke:#181818;stroke-width:1.0;"/><line style="stroke:#181818;stroke-width:1.0;" x1="32.7524" x2="152.3911" y1="779.6309" y2="779.6309"/><text fill="#000000" font-family="sans-serif" font-size="13" lengthAdjust="spacing" textLength="101.6387" x="44.7524" y="774.8887">Report job done</text><!--SRC=[bPFDJiCm3CVlUGfBN41YBx3393In0n8IOe8JbwnrMqEKXCGTyFQut-dM8T5JQl_yzOzpbx4Bi3M4bfNNWIaZhot3JcTaYBMuP_PNRIW_ipwInRdb_Xkp-XHxS8VP_ru0NQ9INGEhJL9r3NkqERox0-J8canKYVS4tLREHPoQ0osXNLEpe15Oo3xwLfisiaV84fCsCxJrZzYsmkm3YgOg504Hi9_zzirw5oCTp0z4JnPgBuZ5Bt0MXoI3K6juqZ4kbXkGiU8pUXSO0kfS319rFOJvW2AmPd8sGYvbReOwoUZ_2hyWYpQBaapJB5BAUMuD0Jzh2XYXGCugiYL83Qr0lcdQVZtMi6kWZf2iAX54DafAiUnKirpIlyja8AKpfgDcR8rNXigAIxaPgwmJepjYW3Oor5R98Usx5wSGIMAbSanJBVHVU-CQ6VyUuAMbfWak8v5pLtExltB44DJ5ws-5JJRf_8P78hd4sRivvMQFfNkKvz0l]--></g></svg>