<svg xmlns="http://www.w3.org/2000/svg" xmlns:xlink="http://www.w3.org/1999/xlink" contentStyleType="text/css" data-diagram-type="SEQUENCE" height="744px" preserveAspectRatio="none" style="width:713px;height:744px;background:#FFFFFF;" version="1.1" viewBox="0 0 713 744" width="713px" zoomAndPan="magnify"><defs/><g><g><title>Job</title><rect fill="#90EE90" height="312.4722" style="stroke:#181818;stroke-width:1;" width="10" x="609.3304" y="267.304"/></g><g><title>Job</title><rect fill="#006400" height="67.118" style="stroke:#181818;stroke-width:1;" width="10" x="614.3304" y="473.9521"/></g><rect fill="none" height="136.2361" style="stroke:#000000;stroke-width:1.5;" width="631.7813" x="10" y="412.8341"/><g><title>Client</title><rect fill="#000000" fill-opacity="0.00000" height="577.1203" width="8" x="37.8369" y="84.0679"/><line style="stroke:#181818;stroke-width:0.5;stroke-dasharray:5.0,5.0;" x1="41" x2="41" y1="84.0679" y2="661.1882"/></g><g><title>ComputeHorde</title><rect fill="#000000" fill-opacity="0.00000" height="577.1203" width="8" x="351.4772" y="84.0679"/><line style="stroke:#181818;stroke-width:0.5;stroke-dasharray:5.0,5.0;" x1="354.6014" x2="354.6014" y1="84.0679" y2="661.1882"/></g><g><title>Job</title><rect fill="#000000" fill-opacity="0.00000" height="577.1203" width="8" x="610.3304" y="84.0679"/><line style="stroke:#181818;stroke-width:0.5;stroke-dasharray:5.0,5.0;" x1="613.8794" x2="613.8794" y1="84.0679" y2="661.1882"/></g><g><title>Storage</title><rect fill="#000000" fill-opacity="0.00000" height="577.1203" width="8" x="670.4573" y="84.0679"/><line style="stroke:#181818;stroke-width:0.5;stroke-dasharray:5.0,5.0;" x1="673.7813" x2="673.7813" y1="84.0679" y2="661.1882"/></g><g class="participant participant-head" data-participant="Client"><text fill="#000000" font-family="sans-serif" font-size="14" lengthAdjust="spacing" textLength="37.6738" x="20" y="79.9659">Client</text><ellipse cx="41.8369" cy="13.5" fill="#E2E2F0" rx="8" ry="8" style="stroke:#181818;stroke-width:0.5;"/><path d="M41.8369,21.5 L41.8369,48.5 M28.8369,29.5 L54.8369,29.5 M41.8369,48.5 L28.8369,63.5 M41.8369,48.5 L54.8369,63.5" fill="none" style="stroke:#181818;stroke-width:0.5;"/></g><g class="participant participant-tail" data-participant="Client"><text fill="#000000" font-family="sans-serif" font-size="14" lengthAdjust="spacing" textLength="37.6738" x="20" y="675.1542">Client</text><ellipse cx="41.8369" cy="687.7562" fill="#E2E2F0" rx="8" ry="8" style="stroke:#181818;stroke-width:0.5;"/><path d="M41.8369,695.7562 L41.8369,722.7562 M28.8369,703.7562 L54.8369,703.7562 M41.8369,722.7562 L28.8369,737.7562 M41.8369,722.7562 L54.8369,737.7562" fill="none" style="stroke:#181818;stroke-width:0.5;"/></g><g class="participant participant-head" data-participant="ComputeHorde"><rect fill="#E2E2F0" height="33.0679" rx="2.5" ry="2.5" style="stroke:#181818;stroke-width:0.5;" width="115.7516" x="297.6014" y="50"/><text fill="#000000" font-family="sans-serif" font-size="14" lengthAdjust="spacing" textLength="101.7516" x="304.6014" y="71.9659">ComputeHorde</text></g><g class="participant participant-tail" data-participant="ComputeHorde"><rect fill="#E2E2F0" height="33.0679" rx="2.5" ry="2.5" style="stroke:#181818;stroke-width:0.5;" width="115.7516" x="297.6014" y="660.1882"/><text fill="#000000" font-family="sans-serif" font-size="14" lengthAdjust="spacing" textLength="101.7516" x="304.6014" y="682.1542">ComputeHorde</text></g><g class="participant participant-head" data-participant="Job"><rect fill="#E2E2F0" height="33.0679" rx="2.5" ry="2.5" style="stroke:#181818;stroke-width:0.5;" width="34.9019" x="596.8794" y="50"/><text fill="#000000" font-family="sans-serif" font-size="14" lengthAdjust="spacing" textLength="20.9019" x="603.8794" y="71.9659">Job</text></g><g class="participant participant-tail" data-participant="Job"><rect fill="#E2E2F0" height="33.0679" rx="2.5" ry="2.5" style="stroke:#181818;stroke-width:0.5;" width="34.9019" x="596.8794" y="660.1882"/><text fill="#000000" font-family="sans-serif" font-size="14" lengthAdjust="spacing" textLength="20.9019" x="603.8794" y="682.1542">Job</text></g><g class="participant participant-head" data-participant="Storage"><rect fill="#E2E2F0" height="33.0679" rx="2.5" ry="2.5" style="stroke:#181818;stroke-width:0.5;" width="65.3518" x="641.7813" y="50"/><text fill="#000000" font-family="sans-serif" font-size="14" lengthAdjust="spacing" textLength="51.3518" x="648.7813" y="71.9659">Storage</text></g><g class="participant participant-tail" data-participant="Storage"><rect fill="#E2E2F0" height="33.0679" rx="2.5" ry="2.5" style="stroke:#181818;stroke-width:0.5;" width="65.3518" x="641.7813" y="660.1882"/><text fill="#000000" font-family="sans-serif" font-size="14" lengthAdjust="spacing" textLength="51.3518" x="648.7813" y="682.1542">Storage</text></g><g><title>Job</title><rect fill="#90EE90" height="312.4722" style="stroke:#181818;stroke-width:1;" width="10" x="609.3304" y="267.304"/></g><g><title>Job</title><rect fill="#006400" height="67.118" style="stroke:#181818;stroke-width:1;" width="10" x="614.3304" y="473.9521"/></g><path d="M185,99.0679 L185,162.0679 L524,162.0679 L524,109.0679 L514,99.0679 L185,99.0679" fill="#FEFFDD" style="stroke:#181818;stroke-width:0.5;"/><path d="M514,99.0679 L514,109.0679 L524,109.0679 L514,99.0679" fill="#FEFFDD" style="stroke:#181818;stroke-width:0.5;"/><text fill="#000000" font-family="sans-serif" font-size="13" lengthAdjust="spacing" textLength="251.6672" x="191" y="117.9649">this component represents several layers</text><text fill="#000000" font-family="sans-serif" font-size="13" lengthAdjust="spacing" textLength="235.1702" x="191" y="135.6709">of ComputeHorde, merged for brevity.</text><text fill="#000000" font-family="sans-serif" font-size="13" lengthAdjust="spacing" textLength="318.4743" x="191" y="153.377">These are: Facilitator, Validator, Miner and Executor.</text><g class="message" data-participant-1="Client" data-participant-2="Client"><line style="stroke:#181818;stroke-width:1;" x1="41.8369" x2="83.8369" y1="190.892" y2="190.892"/><line style="stroke:#181818;stroke-width:1;" x1="83.8369" x2="83.8369" y1="190.892" y2="203.892"/><line style="stroke:#181818;stroke-width:1;" x1="42.8369" x2="83.8369" y1="203.892" y2="203.892"/><polygon fill="#181818" points="52.8369,199.892,42.8369,203.892,52.8369,207.892,48.8369,203.892" style="stroke:#181818;stroke-width:1;"/><text fill="#000000" font-family="sans-serif" font-size="13" lengthAdjust="spacing" textLength="67.522" x="48.8369" y="185.083">Generate a</text><text fill="#000000" font-family="sans-serif" font-size="13" font-weight="bold" lengthAdjust="spacing" textLength="88.6471" x="119.739" y="185.083">client keypair</text><text fill="#000000" font-family="sans-serif" font-size="13" lengthAdjust="spacing" textLength="110.9551" x="211.766" y="185.083">(via facilitator sdk)</text></g><g class="message" data-participant-1="Client" data-participant-2="ComputeHorde"><polygon fill="#181818" points="343.4772,231.598,353.4772,235.598,343.4772,239.598,347.4772,235.598" style="stroke:#181818;stroke-width:1;"/><line style="stroke:#181818;stroke-width:1;" x1="41.8369" x2="349.4772" y1="235.598" y2="235.598"/><text fill="#000000" font-family="sans-serif" font-size="13" lengthAdjust="spacing" textLength="211.4972" x="48.8369" y="229.789">Send job details and the public key</text></g><g class="message" data-participant-1="ComputeHorde" data-participant-2="Job"><polygon fill="#181818" points="597.3304,263.304,607.3304,267.304,597.3304,271.304,601.3304,267.304" style="stroke:#181818;stroke-width:1;"/><line style="stroke:#181818;stroke-width:1;" x1="355.4772" x2="603.3304" y1="267.304" y2="267.304"/><text fill="#000000" font-family="sans-serif" font-size="13" lengthAdjust="spacing" textLength="102.6091" x="362.4772" y="261.495">Start Job process</text></g><g class="message" data-participant-1="ComputeHorde" data-participant-2="Job"><polygon fill="#181818" points="597.3304,312.716,607.3304,316.716,597.3304,320.716,601.3304,316.716" style="stroke:#181818;stroke-width:1;"/><line style="stroke:#181818;stroke-width:1;stroke-dasharray:2.0,2.0;" x1="355.4772" x2="603.3304" y1="316.716" y2="316.716"/><text fill="#000000" font-family="sans-serif" font-size="13" lengthAdjust="spacing" textLength="147.6802" x="362.4772" y="293.201">Attempt connecting to a</text><text fill="#000000" font-family="sans-serif" font-size="13" lengthAdjust="spacing" textLength="172.1071" x="362.4772" y="310.907">predefined websocket route</text></g><g class="message" data-participant-1="Job" data-participant-2="ComputeHorde"><polygon fill="#181818" points="366.4772,344.4221,356.4772,348.4221,366.4772,352.4221,362.4772,348.4221" style="stroke:#181818;stroke-width:1;"/><line style="stroke:#181818;stroke-width:1;" x1="360.4772" x2="608.3304" y1="348.4221" y2="348.4221"/><text fill="#000000" font-family="sans-serif" font-size="13" lengthAdjust="spacing" textLength="229.8532" x="372.4772" y="342.6131">Report readiness for serving requests</text></g><g class="message" data-participant-1="ComputeHorde" data-participant-2="Client"><polygon fill="#181818" points="52.8369,393.8341,42.8369,397.8341,52.8369,401.8341,48.8369,397.8341" style="stroke:#181818;stroke-width:1;"/><line style="stroke:#181818;stroke-width:1;" x1="46.8369" x2="354.4772" y1="397.8341" y2="397.8341"/><text fill="#000000" font-family="sans-serif" font-size="13" lengthAdjust="spacing" textLength="233.3372" x="58.8369" y="374.3191">Report readiness for serving requests,</text><text fill="#000000" font-family="sans-serif" font-size="13" lengthAdjust="spacing" textLength="196.2612" x="58.8369" y="392.0251">provide Job IP address, port and</text><text fill="#000000" font-family="sans-serif" font-size="13" font-weight="bold" lengthAdjust="spacing" textLength="89.9991" x="258.4781" y="392.0251">Job public key</text></g><path d="M10,412.8341 L83.34,412.8341 L83.34,422.5401 L73.34,432.5401 L10,432.5401 L10,412.8341" fill="#EEEEEE" style="stroke:#000000;stroke-width:1.5;"/><rect fill="none" height="136.2361" style="stroke:#000000;stroke-width:1.5;" width="631.7813" x="10" y="412.8341"/><text fill="#000000" font-family="sans-serif" font-size="13" font-weight="bold" lengthAdjust="spacing" textLength="28.34" x="25" y="427.7311">loop</text><text fill="#000000" font-family="sans-serif" font-size="11" font-weight="bold" lengthAdjust="spacing" textLength="273.2931" x="98.34" y="426.593">[until Client terminates the job or timeout occurs]</text><g class="message" data-participant-1="Client" data-participant-2="Job"><polygon fill="#181818" points="602.3304,469.9521,612.3304,473.9521,602.3304,477.9521,606.3304,473.9521" style="stroke:#181818;stroke-width:1;"/><line style="stroke:#181818;stroke-width:1;" x1="41.8369" x2="608.3304" y1="473.9521" y2="473.9521"/><text fill="#000000" font-family="sans-serif" font-size="13" lengthAdjust="spacing" textLength="284.8693" x="48.8369" y="450.4371">Send request, it can be a streamed or buffered</text><text fill="#000000" font-family="sans-serif" font-size="13" lengthAdjust="spacing" textLength="278.3303" x="48.8369" y="468.1431">HTTP or a websocket. Request is signed using</text><text fill="#000000" font-family="sans-serif" font-size="13" font-weight="bold" lengthAdjust="spacing" textLength="88.6471" x="330.5472" y="468.1431">client keypair</text><text fill="#000000" font-family="sans-serif" font-size="13" lengthAdjust="spacing" textLength="3.484" x="419.1943" y="468.1431">.</text></g><g class="message" data-participant-1="Job" data-participant-2="Client"><polygon fill="#181818" points="52.8369,537.0702,42.8369,541.0702,52.8369,545.0702,48.8369,541.0702" style="stroke:#181818;stroke-width:1;"/><line style="stroke:#181818;stroke-width:1;" x1="46.8369" x2="608.3304" y1="541.0702" y2="541.0702"/><text fill="#000000" font-family="sans-serif" font-size="13" lengthAdjust="spacing" textLength="333.8142" x="58.8369" y="499.8492">Reply. Before the transmission ends, sign input/output</text><text fill="#000000" font-family="sans-serif" font-size="13" lengthAdjust="spacing" textLength="228.7872" x="58.8369" y="517.5552">digest (or full value(s) in case of texts)</text><text fill="#000000" font-family="sans-serif" font-size="13" lengthAdjust="spacing" textLength="187.7722" x="58.8369" y="535.2612">with the private counterpart of</text><text fill="#000000" font-family="sans-serif" font-size="13" font-weight="bold" lengthAdjust="spacing" textLength="89.9991" x="249.9891" y="535.2612">Job public key</text><text fill="#000000" font-family="sans-serif" font-size="13" lengthAdjust="spacing" textLength="3.484" x="339.9882" y="535.2612">.</text></g><g class="message" data-participant-1="Job" data-participant-2="ComputeHorde"><polygon fill="#181818" points="366.4772,575.7762,356.4772,579.7762,366.4772,583.7762,362.4772,579.7762" style="stroke:#181818;stroke-width:1;"/><line style="stroke:#181818;stroke-width:1;" x1="360.4772" x2="613.3304" y1="579.7762" y2="579.7762"/><text fill="#000000" font-family="sans-serif" font-size="13" lengthAdjust="spacing" textLength="78.1951" x="372.4772" y="573.9672">Report finish</text></g><g class="message" data-participant-1="ComputeHorde" data-participant-2="Storage"><polygon fill="#181818" points="662.4573,607.4822,672.4573,611.4822,662.4573,615.4822,666.4573,611.4822" style="stroke:#181818;stroke-width:1;"/><line style="stroke:#181818;stroke-width:1;" x1="355.4772" x2="668.4573" y1="611.4822" y2="611.4822"/><text fill="#000000" font-family="sans-serif" font-size="13" lengthAdjust="spacing" textLength="153.9592" x="362.4772" y="605.6732">Upload stdout and stderr</text></g><g class="message" data-participant-1="ComputeHorde" data-participant-2="Client"><polygon fill="#181818" points="52.8369,639.1882,42.8369,643.1882,52.8369,647.1882,48.8369,643.1882" style="stroke:#181818;stroke-width:1;"/><line style="stroke:#181818;stroke-width:1;" x1="46.8369" x2="354.4772" y1="643.1882" y2="643.1882"/><text fill="#000000" font-family="sans-serif" font-size="13" lengthAdjust="spacing" textLength="98.5401" x="58.8369" y="637.3792">Report job done</text></g><!--SRC=[ZPJ1Rjim38RlUWe2kxH6cjrpAD0LtRe10uersoaNHQ8TBhBaYRJRlFqeErtg5DYMYnLPF_dp8-KR9od3RI2COZgRXHnrDWhSfhRh1UzJzZXxyILjP_yVDO1jq9YO124Dc6VQ5SYE69nkfQX986ENaNN5mAYdRO1W3vXv4rCzaowWnToWXrejRZCE98Vb9gvtAWURDVH7woYGMBMmW1ysa9-MNocg3Hizt3sZwtLlQQOQhwwdvme-ePwnQjb2LRbn4_Puw2pbgeABWIpKf_30VdzvYZ4hy14rqS-q1OzYAV2OM7O8NRyDv4fKOrvBhguLekf4CHQUqENaaDbO9pGKJsNpNQ1c9qr6Z7FrKNuZWcqdYZP6L65iG1BOJLI-7cj5uE49jvpS7XLxKhrHuRdxRzYbNDfYlKgOHzgCUIW1C_xgaONF_Rz0_2_nebXA0_cfhiyFOBtN6U05ZEg2gwf63d-0LPKn8QKE-YWKZWCAWhcbg81uv5kOQpwX5hKwICxrcGtexwLH4-VIdwEP1P0Iin6sfV4iwhnLJcN0-hf69RU9z-lrGzcn9tnBhNJKWyuoKrFOzboAV3ixoz71l9NUvltKoV9kwi89OJWiuGCgEXpBacmZjyHCAO9wLqub9L3K3hpNIlMnYPwQukT2ZTPz233OqEC5N-enBL1lYDucmMVXoqry8jbD4vadKoufLypb7fTpR-bFHNXyNOPHB-Ol8wGZHxmpPwApoJb-BbRmlGl9Ucs1BxqhCw1BpFaVepRUC_sIcDy0]--></g></svg>