<svg xmlns="http://www.w3.org/2000/svg" xmlns:xlink="http://www.w3.org/1999/xlink" contentStyleType="text/css" height="1077px" preserveAspectRatio="none" style="width:1122px;height:1077px;background:#FFFFFF;" version="1.1" viewBox="0 0 1122 1077" width="1122px" zoomAndPan="magnify"><defs/><g><rect fill="#ADD8E6" height="29.3105" style="stroke:#181818;stroke-width:1.0;" width="10" x="444.5166" y="625.6309"/><rect fill="#90EE90" height="29.3105" style="stroke:#181818;stroke-width:1.0;" width="10" x="629.8311" y="438.1465"/><rect fill="#90EE90" height="638.7637" style="stroke:#181818;stroke-width:1.0;" width="10" x="1007.9614" y="265.9727"/><rect fill="#006400" height="59.9316" style="stroke:#181818;stroke-width:1.0;" width="10" x="1012.9614" y="512.0781"/><rect fill="none" height="46.6211" style="stroke:#000000;stroke-width:1.5;" width="437.4233" x="678.7861" y="191.041"/><rect fill="none" height="476.9004" style="stroke:#000000;stroke-width:1.5;" width="1030.8442" x="10" y="399.5254"/><rect fill="none" height="282.416" style="stroke:#000000;stroke-width:1.5;" width="1007.2437" x="20" y="587.0098"/><rect fill="none" height="150.1738" style="stroke:#000000;stroke-width:1.5;" width="987.2437" x="30" y="712.252"/><rect fill="none" height="46.6211" style="stroke:#000000;stroke-width:1.5;" width="437.4233" x="678.7861" y="919.7363"/><line style="stroke:#181818;stroke-width:0.5;stroke-dasharray:5.0,5.0;" x1="95" x2="95" y1="36.4883" y2="1041.9785"/><line style="stroke:#181818;stroke-width:0.5;stroke-dasharray:5.0,5.0;" x1="449.1572" x2="449.1572" y1="36.4883" y2="1041.9785"/><line style="stroke:#181818;stroke-width:0.5;stroke-dasharray:5.0,5.0;" x1="633.876" x2="633.876" y1="36.4883" y2="1041.9785"/><line style="stroke:#181818;stroke-width:0.5;stroke-dasharray:5.0,5.0;" x1="746.7861" x2="746.7861" y1="36.4883" y2="1041.9785"/><line style="stroke:#181818;stroke-width:0.5;stroke-dasharray:5.0,5.0;" x1="1012.0786" x2="1012.0786" y1="36.4883" y2="1041.9785"/><line style="stroke:#181818;stroke-width:0.5;stroke-dasharray:5.0,5.0;" x1="1072.8442" x2="1072.8442" y1="36.4883" y2="1041.9785"/><rect fill="#E2E2F0" height="30.4883" rx="2.5" ry="2.5" style="stroke:#181818;stroke-width:0.5;" width="110.6738" x="40" y="5"/><text fill="#000000" font-family="sans-serif" font-size="14" lengthAdjust="spacing" textLength="96.6738" x="47" y="25.5352">SN17Validator</text><rect fill="#E2E2F0" height="30.4883" rx="2.5" ry="2.5" style="stroke:#181818;stroke-width:0.5;" width="110.6738" x="40" y="1040.9785"/><text fill="#000000" font-family="sans-serif" font-size="14" lengthAdjust="spacing" textLength="96.6738" x="47" y="1061.5137">SN17Validator</text><rect fill="#E2E2F0" height="30.4883" rx="2.5" ry="2.5" style="stroke:#181818;stroke-width:0.5;" width="262.7188" x="318.1572" y="5"/><text fill="#000000" font-family="sans-serif" font-size="14" lengthAdjust="spacing" textLength="248.7188" x="325.1572" y="25.5352">SN17ValidatorPrivateExecutionAgent</text><rect fill="#E2E2F0" height="30.4883" rx="2.5" ry="2.5" style="stroke:#181818;stroke-width:0.5;" width="262.7188" x="318.1572" y="1040.9785"/><text fill="#000000" font-family="sans-serif" font-size="14" lengthAdjust="spacing" textLength="248.7188" x="325.1572" y="1061.5137">SN17ValidatorPrivateExecutionAgent</text><rect fill="#E2E2F0" height="30.4883" rx="2.5" ry="2.5" style="stroke:#181818;stroke-width:0.5;" width="87.9102" x="590.876" y="5"/><text fill="#000000" font-family="sans-serif" font-size="14" lengthAdjust="spacing" textLength="73.9102" x="597.876" y="25.5352">SN17Miner</text><rect fill="#E2E2F0" height="30.4883" rx="2.5" ry="2.5" style="stroke:#181818;stroke-width:0.5;" width="87.9102" x="590.876" y="1040.9785"/><text fill="#000000" font-family="sans-serif" font-size="14" lengthAdjust="spacing" textLength="73.9102" x="597.876" y="1061.5137">SN17Miner</text><rect fill="#E2E2F0" height="30.4883" rx="2.5" ry="2.5" style="stroke:#181818;stroke-width:0.5;" width="117.1201" x="688.7861" y="5"/><text fill="#000000" font-family="sans-serif" font-size="14" lengthAdjust="spacing" textLength="103.1201" x="695.7861" y="25.5352">ComputeHorde</text><rect fill="#E2E2F0" height="30.4883" rx="2.5" ry="2.5" style="stroke:#181818;stroke-width:0.5;" width="117.1201" x="688.7861" y="1040.9785"/><text fill="#000000" font-family="sans-serif" font-size="14" lengthAdjust="spacing" textLength="103.1201" x="695.7861" y="1061.5137">ComputeHorde</text><rect fill="#E2E2F0" height="30.4883" rx="2.5" ry="2.5" style="stroke:#181818;stroke-width:0.5;" width="35.7656" x="995.0786" y="5"/><text fill="#000000" font-family="sans-serif" font-size="14" lengthAdjust="spacing" textLength="21.7656" x="1002.0786" y="25.5352">Job</text><rect fill="#E2E2F0" height="30.4883" rx="2.5" ry="2.5" style="stroke:#181818;stroke-width:0.5;" width="35.7656" x="995.0786" y="1040.9785"/><text fill="#000000" font-family="sans-serif" font-size="14" lengthAdjust="spacing" textLength="21.7656" x="1002.0786" y="1061.5137">Job</text><rect fill="#E2E2F0" height="30.4883" rx="2.5" ry="2.5" style="stroke:#181818;stroke-width:0.5;" width="65.3652" x="1040.8442" y="5"/><text fill="#000000" font-family="sans-serif" font-size="14" lengthAdjust="spacing" textLength="51.3652" x="1047.8442" y="25.5352">Storage</text><rect fill="#E2E2F0" height="30.4883" rx="2.5" ry="2.5" style="stroke:#181818;stroke-width:0.5;" width="65.3652" x="1040.8442" y="1040.9785"/><text fill="#000000" font-family="sans-serif" font-size="14" lengthAdjust="spacing" textLength="51.3652" x="1047.8442" y="1061.5137">Storage</text><rect fill="#ADD8E6" height="29.3105" style="stroke:#181818;stroke-width:1.0;" width="10" x="444.5166" y="625.6309"/><rect fill="#90EE90" height="29.3105" style="stroke:#181818;stroke-width:1.0;" width="10" x="629.8311" y="438.1465"/><rect fill="#90EE90" height="638.7637" style="stroke:#181818;stroke-width:1.0;" width="10" x="1007.9614" y="265.9727"/><rect fill="#006400" height="59.9316" style="stroke:#181818;stroke-width:1.0;" width="10" x="1012.9614" y="512.0781"/><path d="M571,51.4883 L571,106.4883 L923,106.4883 L923,61.4883 L913,51.4883 L571,51.4883 " fill="#FEFFDD" style="stroke:#181818;stroke-width:0.5;"/><path d="M913,51.4883 L913,61.4883 L923,61.4883 L913,51.4883 " fill="#FEFFDD" style="stroke:#181818;stroke-width:0.5;"/><text fill="#000000" font-family="sans-serif" font-size="13" lengthAdjust="spacing" textLength="262.063" x="577" y="69.0566">This component represents several layers</text><text fill="#000000" font-family="sans-serif" font-size="13" lengthAdjust="spacing" textLength="242.3979" x="577" y="84.3672">of ComputeHorde, merged for brevity.</text><text fill="#000000" font-family="sans-serif" font-size="13" lengthAdjust="spacing" textLength="331.4556" x="577" y="99.6777">These are: Facilitator, Validator, Miner and Executor.</text><line style="stroke:#181818;stroke-width:1.0;" x1="95.3369" x2="137.3369" y1="133.7305" y2="133.7305"/><line style="stroke:#181818;stroke-width:1.0;" x1="137.3369" x2="137.3369" y1="133.7305" y2="146.7305"/><line style="stroke:#181818;stroke-width:1.0;" x1="96.3369" x2="137.3369" y1="146.7305" y2="146.7305"/><polygon fill="#181818" points="106.3369,142.7305,96.3369,146.7305,106.3369,150.7305,102.3369,146.7305" style="stroke:#181818;stroke-width:1.0;"/><text fill="#000000" font-family="sans-serif" font-size="13" lengthAdjust="spacing" textLength="67.8438" x="102.3369" y="128.9883">Generate a</text><text fill="#000000" font-family="sans-serif" font-size="13" font-weight="bold" lengthAdjust="spacing" textLength="90.8984" x="174.2939" y="128.9883">client keypair</text><text fill="#000000" font-family="sans-serif" font-size="13" lengthAdjust="spacing" textLength="116.854" x="269.3057" y="128.9883">(via facilitator sdk)</text><polygon fill="#181818" points="735.3462,172.041,745.3462,176.041,735.3462,180.041,739.3462,176.041" style="stroke:#181818;stroke-width:1.0;"/><line style="stroke:#181818;stroke-width:1.0;" x1="95.3369" x2="741.3462" y1="176.041" y2="176.041"/><text fill="#000000" font-family="sans-serif" font-size="13" lengthAdjust="spacing" textLength="220.7461" x="102.3369" y="171.2988">Send job details and the public key</text><path d="M678.7861,191.041 L745.9712,191.041 L745.9712,198.3516 L735.9712,208.3516 L678.7861,208.3516 L678.7861,191.041 " fill="#EEEEEE" style="stroke:#000000;stroke-width:1.5;"/><rect fill="none" height="46.6211" style="stroke:#000000;stroke-width:1.5;" width="437.4233" x="678.7861" y="191.041"/><text fill="#000000" font-family="sans-serif" font-size="13" font-weight="bold" lengthAdjust="spacing" textLength="22.1851" x="693.7861" y="204.6094">opt</text><text fill="#000000" font-family="sans-serif" font-size="11" font-weight="bold" lengthAdjust="spacing" textLength="155.4878" x="760.9712" y="203.6758">[job requires fetching data]</text><polygon fill="#181818" points="1061.5269,225.6621,1071.5269,229.6621,1061.5269,233.6621,1065.5269,229.6621" style="stroke:#181818;stroke-width:1.0;"/><line style="stroke:#181818;stroke-width:1.0;" x1="747.3462" x2="1067.5269" y1="229.6621" y2="229.6621"/><text fill="#000000" font-family="sans-serif" font-size="13" lengthAdjust="spacing" textLength="65.3174" x="754.3462" y="224.9199">Fetch data</text><polygon fill="#181818" points="995.9614,261.9727,1005.9614,265.9727,995.9614,269.9727,999.9614,265.9727" style="stroke:#181818;stroke-width:1.0;"/><line style="stroke:#181818;stroke-width:1.0;" x1="747.3462" x2="1001.9614" y1="265.9727" y2="265.9727"/><text fill="#000000" font-family="sans-serif" font-size="13" lengthAdjust="spacing" textLength="106.3042" x="754.3462" y="261.2305">Start Job process</text><polygon fill="#181818" points="995.9614,306.5938,1005.9614,310.5938,995.9614,314.5938,999.9614,310.5938" style="stroke:#181818;stroke-width:1.0;"/><line style="stroke:#181818;stroke-width:1.0;stroke-dasharray:2.0,2.0;" x1="747.3462" x2="1001.9614" y1="310.5938" y2="310.5938"/><text fill="#000000" font-family="sans-serif" font-size="13" lengthAdjust="spacing" textLength="152.9595" x="754.3462" y="290.541">Attempt connecting to a</text><text fill="#000000" font-family="sans-serif" font-size="13" lengthAdjust="spacing" textLength="176.3188" x="754.3462" y="305.8516">predefined websocket route</text><polygon fill="#181818" points="758.3462,335.9043,748.3462,339.9043,758.3462,343.9043,754.3462,339.9043" style="stroke:#181818;stroke-width:1.0;"/><line style="stroke:#181818;stroke-width:1.0;" x1="752.3462" x2="1006.9614" y1="339.9043" y2="339.9043"/><text fill="#000000" font-family="sans-serif" font-size="13" lengthAdjust="spacing" textLength="236.6152" x="764.3462" y="335.1621">Report readiness for serving requests</text><polygon fill="#181818" points="106.3369,380.5254,96.3369,384.5254,106.3369,388.5254,102.3369,384.5254" style="stroke:#181818;stroke-width:1.0;"/><line style="stroke:#181818;stroke-width:1.0;" x1="100.3369" x2="746.3462" y1="384.5254" y2="384.5254"/><text fill="#000000" font-family="sans-serif" font-size="13" lengthAdjust="spacing" textLength="240.7285" x="112.3369" y="364.4727">Report readiness for serving requests,</text><text fill="#000000" font-family="sans-serif" font-size="13" lengthAdjust="spacing" textLength="202.3569" x="112.3369" y="379.7832">provide Job IP address, port and</text><text fill="#000000" font-family="sans-serif" font-size="13" font-weight="bold" lengthAdjust="spacing" textLength="95.4878" x="318.8071" y="379.7832">Job public key</text><path d="M10,399.5254 L84.4468,399.5254 L84.4468,406.8359 L74.4468,416.8359 L10,416.8359 L10,399.5254 " fill="#EEEEEE" style="stroke:#000000;stroke-width:1.5;"/><rect fill="none" height="476.9004" style="stroke:#000000;stroke-width:1.5;" width="1030.8442" x="10" y="399.5254"/><text fill="#000000" font-family="sans-serif" font-size="13" font-weight="bold" lengthAdjust="spacing" textLength="29.4468" x="25" y="413.0938">loop</text><polygon fill="#181818" points="617.8311,434.1465,627.8311,438.1465,617.8311,442.1465,621.8311,438.1465" style="stroke:#181818;stroke-width:1.0;"/><line style="stroke:#181818;stroke-width:1.0;" x1="95.3369" x2="623.8311" y1="438.1465" y2="438.1465"/><text fill="#000000" font-family="sans-serif" font-size="13" lengthAdjust="spacing" textLength="83.9668" x="102.3369" y="433.4043">Issue request</text><polygon fill="#181818" points="106.3369,463.457,96.3369,467.457,106.3369,471.457,102.3369,467.457" style="stroke:#181818;stroke-width:1.0;"/><line style="stroke:#181818;stroke-width:1.0;" x1="100.3369" x2="633.8311" y1="467.457" y2="467.457"/><text fill="#000000" font-family="sans-serif" font-size="13" lengthAdjust="spacing" textLength="34.1948" x="112.3369" y="462.7148">Reply</text><polygon fill="#181818" points="1000.9614,508.0781,1010.9614,512.0781,1000.9614,516.0781,1004.9614,512.0781" style="stroke:#181818;stroke-width:1.0;"/><line style="stroke:#181818;stroke-width:1.0;" x1="95.3369" x2="1006.9614" y1="512.0781" y2="512.0781"/><text fill="#000000" font-family="sans-serif" font-size="13" lengthAdjust="spacing" textLength="256.8135" x="102.3369" y="492.0254">Send a request to validate Miner's result.</text><text fill="#000000" font-family="sans-serif" font-size="13" lengthAdjust="spacing" textLength="149.7793" x="102.3369" y="507.3359">Request is signed using</text><text fill="#000000" font-family="sans-serif" font-size="13" font-weight="bold" lengthAdjust="spacing" textLength="90.8984" x="256.2295" y="507.3359">client keypair</text><text fill="#000000" font-family="sans-serif" font-size="13" lengthAdjust="spacing" textLength="4.1133" x="347.1279" y="507.3359">.</text><polygon fill="#181818" points="106.3369,568.0098,96.3369,572.0098,106.3369,576.0098,102.3369,572.0098" style="stroke:#181818;stroke-width:1.0;"/><line style="stroke:#181818;stroke-width:1.0;" x1="100.3369" x2="1006.9614" y1="572.0098" y2="572.0098"/><text fill="#000000" font-family="sans-serif" font-size="13" lengthAdjust="spacing" textLength="346.7979" x="112.3369" y="536.6465">Reply. Before the transmission ends, sign input/output</text><text fill="#000000" font-family="sans-serif" font-size="13" lengthAdjust="spacing" textLength="241.6172" x="112.3369" y="551.957">digest (or full value(s) in case of texts)</text><text fill="#000000" font-family="sans-serif" font-size="13" lengthAdjust="spacing" textLength="193.1147" x="112.3369" y="567.2676">with the private counterpart of</text><text fill="#000000" font-family="sans-serif" font-size="13" font-weight="bold" lengthAdjust="spacing" textLength="95.4878" x="309.5649" y="567.2676">Job public key</text><text fill="#000000" font-family="sans-serif" font-size="13" lengthAdjust="spacing" textLength="4.1133" x="405.0527" y="567.2676">.</text><path d="M20,587.0098 L87.1851,587.0098 L87.1851,594.3203 L77.1851,604.3203 L20,604.3203 L20,587.0098 " fill="#EEEEEE" style="stroke:#000000;stroke-width:1.5;"/><rect fill="none" height="282.416" style="stroke:#000000;stroke-width:1.5;" width="1007.2437" x="20" y="587.0098"/><text fill="#000000" font-family="sans-serif" font-size="13" font-weight="bold" lengthAdjust="spacing" textLength="22.1851" x="35" y="600.5781">opt</text><text fill="#000000" font-family="sans-serif" font-size="11" font-weight="bold" lengthAdjust="spacing" textLength="373.0332" x="102.1851" y="599.6445">[Validate every nth ComputeHorde's answer on trusted hardware]</text><polygon fill="#181818" points="432.5166,621.6309,442.5166,625.6309,432.5166,629.6309,436.5166,625.6309" style="stroke:#181818;stroke-width:1.0;"/><line style="stroke:#181818;stroke-width:1.0;" x1="95.3369" x2="438.5166" y1="625.6309" y2="625.6309"/><text fill="#000000" font-family="sans-serif" font-size="13" lengthAdjust="spacing" textLength="330.1797" x="102.3369" y="620.8887">Send the same request as the one to ComputeHorde</text><polygon fill="#181818" points="106.3369,650.9414,96.3369,654.9414,106.3369,658.9414,102.3369,654.9414" style="stroke:#181818;stroke-width:1.0;"/><line style="stroke:#181818;stroke-width:1.0;" x1="100.3369" x2="448.5166" y1="654.9414" y2="654.9414"/><text fill="#000000" font-family="sans-serif" font-size="13" lengthAdjust="spacing" textLength="34.1948" x="112.3369" y="650.1992">Reply</text><line style="stroke:#181818;stroke-width:1.0;" x1="95.3369" x2="137.3369" y1="684.252" y2="684.252"/><line style="stroke:#181818;stroke-width:1.0;" x1="137.3369" x2="137.3369" y1="684.252" y2="697.252"/><line style="stroke:#181818;stroke-width:1.0;" x1="96.3369" x2="137.3369" y1="697.252" y2="697.252"/><polygon fill="#181818" points="106.3369,693.252,96.3369,697.252,106.3369,701.252,102.3369,697.252" style="stroke:#181818;stroke-width:1.0;"/><text fill="#000000" font-family="sans-serif" font-size="13" lengthAdjust="spacing" textLength="103.2827" x="102.3369" y="679.5098">Compare replies</text><path d="M30,712.252 L97.1851,712.252 L97.1851,719.5625 L87.1851,729.5625 L30,729.5625 L30,712.252 " fill="#EEEEEE" style="stroke:#000000;stroke-width:1.5;"/><rect fill="none" height="150.1738" style="stroke:#000000;stroke-width:1.5;" width="987.2437" x="30" y="712.252"/><text fill="#000000" font-family="sans-serif" font-size="13" font-weight="bold" lengthAdjust="spacing" textLength="22.1851" x="45" y="725.8203">opt</text><text fill="#000000" font-family="sans-serif" font-size="11" font-weight="bold" lengthAdjust="spacing" textLength="312.3398" x="112.1851" y="724.8867">[If malicious ComputeHorde miner behaviour detected]</text><polygon fill="#181818" points="735.3462,777.4941,745.3462,781.4941,735.3462,785.4941,739.3462,781.4941" style="stroke:#181818;stroke-width:1.0;"/><line style="stroke:#181818;stroke-width:1.0;" x1="95.3369" x2="741.3462" y1="781.4941" y2="781.4941"/><text fill="#000000" font-family="sans-serif" font-size="13" lengthAdjust="spacing" textLength="375.5845" x="102.3369" y="746.1309">Inform all validators about malicious ComputeHorde miner.</text><text fill="#000000" font-family="sans-serif" font-size="13" lengthAdjust="spacing" textLength="288.5518" x="102.3369" y="761.4414">The signature (using the job key) in the result</text><text fill="#000000" font-family="sans-serif" font-size="13" lengthAdjust="spacing" textLength="264.7227" x="102.3369" y="776.752">ascertains validators of the miner's result.</text><line style="stroke:#181818;stroke-width:1.0;" x1="747.3462" x2="789.3462" y1="841.4258" y2="841.4258"/><line style="stroke:#181818;stroke-width:1.0;" x1="789.3462" x2="789.3462" y1="841.4258" y2="854.4258"/><line style="stroke:#181818;stroke-width:1.0;" x1="748.3462" x2="789.3462" y1="854.4258" y2="854.4258"/><polygon fill="#181818" points="758.3462,850.4258,748.3462,854.4258,758.3462,858.4258,754.3462,854.4258" style="stroke:#181818;stroke-width:1.0;"/><text fill="#000000" font-family="sans-serif" font-size="13" lengthAdjust="spacing" textLength="250.8975" x="754.3462" y="806.0625">All validators, after verifying the correct</text><text fill="#000000" font-family="sans-serif" font-size="13" lengthAdjust="spacing" textLength="250.8022" x="754.3462" y="821.373">answers on their own trusted hardware,</text><text fill="#000000" font-family="sans-serif" font-size="13" lengthAdjust="spacing" textLength="241.0015" x="754.3462" y="836.6836">give 0 weights to the malicious miner.</text><polygon fill="#181818" points="758.3462,900.7363,748.3462,904.7363,758.3462,908.7363,754.3462,904.7363" style="stroke:#181818;stroke-width:1.0;"/><line style="stroke:#181818;stroke-width:1.0;" x1="752.3462" x2="1011.9614" y1="904.7363" y2="904.7363"/><text fill="#000000" font-family="sans-serif" font-size="13" lengthAdjust="spacing" textLength="80.9834" x="764.3462" y="899.9941">Report finish</text><path d="M678.7861,919.7363 L745.9712,919.7363 L745.9712,927.0469 L735.9712,937.0469 L678.7861,937.0469 L678.7861,919.7363 " fill="#EEEEEE" style="stroke:#000000;stroke-width:1.5;"/><rect fill="none" height="46.6211" style="stroke:#000000;stroke-width:1.5;" width="437.4233" x="678.7861" y="919.7363"/><text fill="#000000" font-family="sans-serif" font-size="13" font-weight="bold" lengthAdjust="spacing" textLength="22.1851" x="693.7861" y="933.3047">opt</text><text fill="#000000" font-family="sans-serif" font-size="11" font-weight="bold" lengthAdjust="spacing" textLength="165.8164" x="760.9712" y="932.3711">[job requires uploading data]</text><polygon fill="#181818" points="1061.5269,954.3574,1071.5269,958.3574,1061.5269,962.3574,1065.5269,958.3574" style="stroke:#181818;stroke-width:1.0;"/><line style="stroke:#181818;stroke-width:1.0;" x1="747.3462" x2="1067.5269" y1="958.3574" y2="958.3574"/><text fill="#000000" font-family="sans-serif" font-size="13" lengthAdjust="spacing" textLength="75.8101" x="754.3462" y="953.6152">Upload data</text><polygon fill="#181818" points="1061.5269,990.668,1071.5269,994.668,1061.5269,998.668,1065.5269,994.668" style="stroke:#181818;stroke-width:1.0;"/><line style="stroke:#181818;stroke-width:1.0;" x1="747.3462" x2="1067.5269" y1="994.668" y2="994.668"/><text fill="#000000" font-family="sans-serif" font-size="13" lengthAdjust="spacing" textLength="158.2026" x="754.3462" y="989.9258">Upload stdout and stderr</text><polygon fill="#181818" points="106.3369,1019.9785,96.3369,1023.9785,106.3369,1027.9785,102.3369,1023.9785" style="stroke:#181818;stroke-width:1.0;"/><line style="stroke:#181818;stroke-width:1.0;" x1="100.3369" x2="746.3462" y1="1023.9785" y2="1023.9785"/><text fill="#000000" font-family="sans-serif" font-size="13" lengthAdjust="spacing" textLength="101.6387" x="112.3369" y="1019.2363">Report job done</text><!--SRC=[ZLLDRzj64BtpLmpGGsn1LPfJ01yAk4K_NA15aAGvwR8YX-JMr2wpiwIYVzytIudsIh9YNIIHy_dUcvdUX6XBsniNwTC_xzv_CPsjJFIXw5zwyo7OqKJ-xHkNGxJUtJViufdvtzPn7kHNl-s7o7_wK77suY-_oTsHn3HS5Cv79Zzoo7plw7DhXKeyyWwfAN0VMF1BI1ZMfgFEx3d8slawSrtIbaF35TK-q2RmQED-jNQVMxYJ2GZzkobjPwFskQIvvIMbTiYuYgQ-VLWL6Ie__fpzlQC_61x0YGmj5cLdjT97tlV6XiM2RaPhg7vAHb8ztfv6pBl-nCZ-dzzGnT7OJb8riMNgXqrdImrU5BwFoIRmry425Qevbgrr3I6cAGYVvr5HzGGsEbV3oGg9YY8t0qUe888bfOlwu4iMAKmPanZImnywsxIn2SmkzpwutyV8MzHNUkSOZYWgUZ9h1_eghe5mHJlUY2yV6Qnw-1TmFCNX8_S-AEkcWej88bCuZ1fG-sQ9Sbh_2JclYh7KolnegwczXmzagWgOofAIj-A_M2GuPWOMYwBelEyJqXS4adHqHmyY0nyJ9TiPoTagm_COBhsvr4wtJpOLdmSgBXKp4QgICiSwb8rnik19y6y4xsJe8eRauy48eoUsKQu6KRJEnRtA6qhIg4nuVEeaiNgfXnNzmg22awvZC4wsLWHBXb0fSDVCP1s8VGjvu6ljAjjeMJSWi1wwJZiO-4PkOKQbmLnZ1qJ-5kLsxNOsjjF8J3iCKXnSvA3RH-tEsLoTeghBIX_fe7qvWgLRPqyEmP-hxesEgEp09EgFOP08q5eJgXrMJGhoWaYkhze3RTg6cEsi8ZAIdc4dAf7PjZtcohHnFSj1VHk0URdKYrvNb7b1dTyvAQ-2w2vr2a3r3428CdifGmyrRM5PMZz81WbjquXjk3KZNWPTgjX9NCtk5nBdU-Z1GQbRCfFc9Ximle4mhoQT3awIiea32h-P1ad9qzKDtINnwlzf-jREICa1Mz_9yrogxFOGzMbKimxoBPWtS9zLlYHJOnG8KhRr_bXGwKC0BgWWALcIb5ksqFJkNDJOc8qTcNx27bVrY2enbJZZCK4mrwYdvlYTpixB2ny7mafRdCpY-SKR-ixhMl_-oVitMJxTlEjc4YkbLhS-Vd88hxinwM9ZA8l_0G00]--></g></svg>