<svg xmlns="http://www.w3.org/2000/svg" xmlns:xlink="http://www.w3.org/1999/xlink" contentStyleType="text/css" height="2219px" preserveAspectRatio="none" style="width:2031px;height:2219px;background:#FFFFFF;" version="1.1" viewBox="0 0 2031 2219" width="2031px" zoomAndPan="magnify"><defs/><g><rect fill="none" height="46.6211" style="stroke:#000000;stroke-width:1.5;" width="478.876" x="1508.5298" y="475.2148"/><rect fill="none" height="1084.043" style="stroke:#000000;stroke-width:1.5;" width="2016.7813" x="9" y="830.5625"/><rect fill="none" height="474.2109" style="stroke:#000000;stroke-width:1.5;" width="1896.4058" x="91" y="854.873"/><rect fill="none" height="52.6211" style="stroke:#000000;stroke-width:1.5;" width="512.3008" x="19" y="1387.7051"/><rect fill="none" height="259.1055" style="stroke:#000000;stroke-width:1.5;" width="1772.7813" x="243" y="1498.9473"/><rect fill="none" height="135.5527" style="stroke:#000000;stroke-width:1.5;" width="429.251" x="233" y="1772.0527"/><rect fill="none" height="61.9316" style="stroke:#000000;stroke-width:1.5;" width="409.251" x="243" y="1838.6738"/><rect fill="none" height="46.6211" style="stroke:#000000;stroke-width:1.5;" width="478.876" x="1508.5298" y="1928.6055"/><line style="stroke:#181818;stroke-width:0.5;stroke-dasharray:5.0,5.0;" x1="275" x2="275" y1="81.4883" y2="2138.7793"/><line style="stroke:#181818;stroke-width:0.5;stroke-dasharray:5.0,5.0;" x1="601.1699" x2="601.1699" y1="81.4883" y2="2138.7793"/><line style="stroke:#181818;stroke-width:0.5;stroke-dasharray:5.0,5.0;" x1="927.1255" x2="927.1255" y1="81.4883" y2="2138.7793"/><line style="stroke:#181818;stroke-width:0.5;stroke-dasharray:5.0,5.0;" x1="1257.5786" x2="1257.5786" y1="81.4883" y2="2138.7793"/><line style="stroke:#181818;stroke-width:0.5;stroke-dasharray:5.0,5.0;" x1="1554.5298" x2="1554.5298" y1="81.4883" y2="2138.7793"/><line style="stroke:#181818;stroke-width:0.5;stroke-dasharray:5.0,5.0;" x1="1839.0122" x2="1839.0122" y1="81.4883" y2="2138.7793"/><line style="stroke:#181818;stroke-width:0.5;stroke-dasharray:5.0,5.0;" x1="1921.7778" x2="1921.7778" y1="81.4883" y2="2138.7793"/><text fill="#000000" font-family="sans-serif" font-size="14" lengthAdjust="spacing" textLength="39.5049" x="253" y="78.5352">Client</text><ellipse cx="275.7524" cy="13.5" fill="#E2E2F0" rx="8" ry="8" style="stroke:#181818;stroke-width:0.5;"/><path d="M275.7524,21.5 L275.7524,48.5 M262.7524,29.5 L288.7524,29.5 M275.7524,48.5 L262.7524,63.5 M275.7524,48.5 L288.7524,63.5 " fill="none" style="stroke:#181818;stroke-width:0.5;"/><text fill="#000000" font-family="sans-serif" font-size="14" lengthAdjust="spacing" textLength="39.5049" x="253" y="2151.3145">Client</text><ellipse cx="275.7524" cy="2162.7676" fill="#E2E2F0" rx="8" ry="8" style="stroke:#181818;stroke-width:0.5;"/><path d="M275.7524,2170.7676 L275.7524,2197.7676 M262.7524,2178.7676 L288.7524,2178.7676 M275.7524,2197.7676 L262.7524,2212.7676 M275.7524,2197.7676 L288.7524,2212.7676 " fill="none" style="stroke:#181818;stroke-width:0.5;"/><rect fill="#E2E2F0" height="30.4883" rx="2.5" ry="2.5" style="stroke:#181818;stroke-width:0.5;" width="81.0811" x="561.1699" y="50"/><text fill="#000000" font-family="sans-serif" font-size="14" lengthAdjust="spacing" textLength="67.0811" x="568.1699" y="70.5352">Facilitator</text><rect fill="#E2E2F0" height="30.4883" rx="2.5" ry="2.5" style="stroke:#181818;stroke-width:0.5;" width="81.0811" x="561.1699" y="2137.7793"/><text fill="#000000" font-family="sans-serif" font-size="14" lengthAdjust="spacing" textLength="67.0811" x="568.1699" y="2158.3145">Facilitator</text><rect fill="#E2E2F0" height="30.4883" rx="2.5" ry="2.5" style="stroke:#181818;stroke-width:0.5;" width="75.0859" x="890.1255" y="50"/><text fill="#000000" font-family="sans-serif" font-size="14" lengthAdjust="spacing" textLength="61.0859" x="897.1255" y="70.5352">Validator</text><rect fill="#E2E2F0" height="30.4883" rx="2.5" ry="2.5" style="stroke:#181818;stroke-width:0.5;" width="75.0859" x="890.1255" y="2137.7793"/><text fill="#000000" font-family="sans-serif" font-size="14" lengthAdjust="spacing" textLength="61.0859" x="897.1255" y="2158.3145">Validator</text><rect fill="#E2E2F0" height="30.4883" rx="2.5" ry="2.5" style="stroke:#181818;stroke-width:0.5;" width="52.3223" x="1231.5786" y="50"/><text fill="#000000" font-family="sans-serif" font-size="14" lengthAdjust="spacing" textLength="38.3223" x="1238.5786" y="70.5352">Miner</text><rect fill="#E2E2F0" height="30.4883" rx="2.5" ry="2.5" style="stroke:#181818;stroke-width:0.5;" width="52.3223" x="1231.5786" y="2137.7793"/><text fill="#000000" font-family="sans-serif" font-size="14" lengthAdjust="spacing" textLength="38.3223" x="1238.5786" y="2158.3145">Miner</text><rect fill="#E2E2F0" height="30.4883" rx="2.5" ry="2.5" style="stroke:#181818;stroke-width:0.5;" width="73.3975" x="1518.5298" y="50"/><text fill="#000000" font-family="sans-serif" font-size="14" lengthAdjust="spacing" textLength="59.3975" x="1525.5298" y="70.5352">Executor</text><rect fill="#E2E2F0" height="30.4883" rx="2.5" ry="2.5" style="stroke:#181818;stroke-width:0.5;" width="73.3975" x="1518.5298" y="2137.7793"/><text fill="#000000" font-family="sans-serif" font-size="14" lengthAdjust="spacing" textLength="59.3975" x="1525.5298" y="2158.3145">Executor</text><rect fill="#E2E2F0" height="30.4883" rx="2.5" ry="2.5" style="stroke:#181818;stroke-width:0.5;" width="35.7656" x="1822.0122" y="50"/><text fill="#000000" font-family="sans-serif" font-size="14" lengthAdjust="spacing" textLength="21.7656" x="1829.0122" y="70.5352">Job</text><rect fill="#E2E2F0" height="30.4883" rx="2.5" ry="2.5" style="stroke:#181818;stroke-width:0.5;" width="35.7656" x="1822.0122" y="2137.7793"/><text fill="#000000" font-family="sans-serif" font-size="14" lengthAdjust="spacing" textLength="21.7656" x="1829.0122" y="2158.3145">Job</text><rect fill="#E2E2F0" height="30.4883" rx="2.5" ry="2.5" style="stroke:#181818;stroke-width:0.5;" width="109.6279" x="1867.7778" y="50"/><text fill="#000000" font-family="sans-serif" font-size="14" lengthAdjust="spacing" textLength="95.6279" x="1874.7778" y="70.5352">Cloud Storage</text><rect fill="#E2E2F0" height="30.4883" rx="2.5" ry="2.5" style="stroke:#181818;stroke-width:0.5;" width="109.6279" x="1867.7778" y="2137.7793"/><text fill="#000000" font-family="sans-serif" font-size="14" lengthAdjust="spacing" textLength="95.6279" x="1874.7778" y="2158.3145">Cloud Storage</text><line style="stroke:#181818;stroke-width:1.0;" x1="275.7524" x2="317.7524" y1="112.7988" y2="112.7988"/><line style="stroke:#181818;stroke-width:1.0;" x1="317.7524" x2="317.7524" y1="112.7988" y2="125.7988"/><line style="stroke:#181818;stroke-width:1.0;" x1="276.7524" x2="317.7524" y1="125.7988" y2="125.7988"/><polygon fill="#181818" points="286.7524,121.7988,276.7524,125.7988,286.7524,129.7988,282.7524,125.7988" style="stroke:#181818;stroke-width:1.0;"/><text fill="#000000" font-family="sans-serif" font-size="13" lengthAdjust="spacing" textLength="67.8438" x="282.7524" y="108.0566">Generate a</text><text fill="#000000" font-family="sans-serif" font-size="13" font-weight="bold" lengthAdjust="spacing" textLength="90.8984" x="354.7095" y="108.0566">client keypair</text><text fill="#000000" font-family="sans-serif" font-size="13" lengthAdjust="spacing" textLength="116.854" x="449.7212" y="108.0566">(via facilitator sdk)</text><polygon fill="#181818" points="589.7104,151.1094,599.7104,155.1094,589.7104,159.1094,593.7104,155.1094" style="stroke:#181818;stroke-width:1.0;"/><line style="stroke:#181818;stroke-width:1.0;" x1="275.7524" x2="595.7104" y1="155.1094" y2="155.1094"/><text fill="#000000" font-family="sans-serif" font-size="13" lengthAdjust="spacing" textLength="220.7461" x="282.7524" y="150.3672">Send job details and the public key</text><line style="stroke:#181818;stroke-width:1.0;" x1="601.7104" x2="643.7104" y1="184.4199" y2="184.4199"/><line style="stroke:#181818;stroke-width:1.0;" x1="643.7104" x2="643.7104" y1="184.4199" y2="197.4199"/><line style="stroke:#181818;stroke-width:1.0;" x1="602.7104" x2="643.7104" y1="197.4199" y2="197.4199"/><polygon fill="#181818" points="612.7104,193.4199,602.7104,197.4199,612.7104,201.4199,608.7104,197.4199" style="stroke:#181818;stroke-width:1.0;"/><text fill="#000000" font-family="sans-serif" font-size="13" lengthAdjust="spacing" textLength="174.9795" x="608.7104" y="179.6777">Choose Validator and Miner</text><polygon fill="#181818" points="915.6685,222.7305,925.6685,226.7305,915.6685,230.7305,919.6685,226.7305" style="stroke:#181818;stroke-width:1.0;"/><line style="stroke:#181818;stroke-width:1.0;" x1="601.7104" x2="921.6685" y1="226.7305" y2="226.7305"/><text fill="#000000" font-family="sans-serif" font-size="13" lengthAdjust="spacing" textLength="100.4517" x="608.7104" y="221.9883">Send job details</text><polygon fill="#181818" points="1245.7397,252.041,1255.7397,256.041,1245.7397,260.041,1249.7397,256.041" style="stroke:#181818;stroke-width:1.0;"/><line style="stroke:#181818;stroke-width:1.0;" x1="927.6685" x2="1251.7397" y1="256.041" y2="256.041"/><text fill="#000000" font-family="sans-serif" font-size="13" lengthAdjust="spacing" textLength="139.7056" x="934.6685" y="251.2988">Send initial job details</text><line style="stroke:#181818;stroke-width:1.0;" x1="1257.7397" x2="1299.7397" y1="300.6621" y2="300.6621"/><line style="stroke:#181818;stroke-width:1.0;" x1="1299.7397" x2="1299.7397" y1="300.6621" y2="313.6621"/><line style="stroke:#181818;stroke-width:1.0;" x1="1258.7397" x2="1299.7397" y1="313.6621" y2="313.6621"/><polygon fill="#181818" points="1268.7397,309.6621,1258.7397,313.6621,1268.7397,317.6621,1264.7397,313.6621" style="stroke:#181818;stroke-width:1.0;"/><text fill="#000000" font-family="sans-serif" font-size="13" lengthAdjust="spacing" textLength="164.3281" x="1264.7397" y="280.6094">Check for a free executor,</text><text fill="#000000" font-family="sans-serif" font-size="13" lengthAdjust="spacing" textLength="171.1646" x="1264.7397" y="295.9199">possibly spin up a new one</text><polygon fill="#181818" points="1543.2285,338.9727,1553.2285,342.9727,1543.2285,346.9727,1547.2285,342.9727" style="stroke:#181818;stroke-width:1.0;"/><line style="stroke:#181818;stroke-width:1.0;" x1="1257.7397" x2="1549.2285" y1="342.9727" y2="342.9727"/><text fill="#000000" font-family="sans-serif" font-size="13" lengthAdjust="spacing" textLength="136.8301" x="1264.7397" y="338.2305">Pass initial job details</text><polygon fill="#181818" points="1268.7397,368.2832,1258.7397,372.2832,1268.7397,376.2832,1264.7397,372.2832" style="stroke:#181818;stroke-width:1.0;"/><line style="stroke:#181818;stroke-width:1.0;" x1="1262.7397" x2="1554.2285" y1="372.2832" y2="372.2832"/><text fill="#000000" font-family="sans-serif" font-size="13" lengthAdjust="spacing" textLength="273.4888" x="1274.7397" y="367.541">Report readiness (initial preparations done)</text><polygon fill="#181818" points="938.6685,397.5938,928.6685,401.5938,938.6685,405.5938,934.6685,401.5938" style="stroke:#181818;stroke-width:1.0;"/><line style="stroke:#181818;stroke-width:1.0;" x1="932.6685" x2="1256.7397" y1="401.5938" y2="401.5938"/><text fill="#000000" font-family="sans-serif" font-size="13" lengthAdjust="spacing" textLength="273.4888" x="944.6685" y="396.8516">Report readiness (initial preparations done)</text><polygon fill="#181818" points="1245.7397,426.9043,1255.7397,430.9043,1245.7397,434.9043,1249.7397,430.9043" style="stroke:#181818;stroke-width:1.0;"/><line style="stroke:#181818;stroke-width:1.0;" x1="927.6685" x2="1251.7397" y1="430.9043" y2="430.9043"/><text fill="#000000" font-family="sans-serif" font-size="13" lengthAdjust="spacing" textLength="119.2598" x="934.6685" y="426.1621">Send all job details</text><polygon fill="#181818" points="1543.2285,456.2148,1553.2285,460.2148,1543.2285,464.2148,1547.2285,460.2148" style="stroke:#181818;stroke-width:1.0;"/><line style="stroke:#181818;stroke-width:1.0;" x1="1257.7397" x2="1549.2285" y1="460.2148" y2="460.2148"/><text fill="#000000" font-family="sans-serif" font-size="13" lengthAdjust="spacing" textLength="119.2598" x="1264.7397" y="455.4727">Send all job details</text><path d="M1508.5298,475.2148 L1570.6685,475.2148 L1570.6685,482.5254 L1560.6685,492.5254 L1508.5298,492.5254 L1508.5298,475.2148 " fill="#EEEEEE" style="stroke:#000000;stroke-width:1.5;"/><rect fill="none" height="46.6211" style="stroke:#000000;stroke-width:1.5;" width="478.876" x="1508.5298" y="475.2148"/><text fill="#000000" font-family="sans-serif" font-size="13" font-weight="bold" lengthAdjust="spacing" textLength="17.1387" x="1523.5298" y="488.7832">alt</text><text fill="#000000" font-family="sans-serif" font-size="11" font-weight="bold" lengthAdjust="spacing" textLength="155.4878" x="1585.6685" y="487.8496">[job requires fetching data]</text><polygon fill="#181818" points="1910.5918,509.8359,1920.5918,513.8359,1910.5918,517.8359,1914.5918,513.8359" style="stroke:#181818;stroke-width:1.0;"/><line style="stroke:#181818;stroke-width:1.0;" x1="1555.2285" x2="1916.5918" y1="513.8359" y2="513.8359"/><text fill="#000000" font-family="sans-serif" font-size="13" lengthAdjust="spacing" textLength="65.3174" x="1562.2285" y="509.0938">Fetch data</text><line style="stroke:#181818;stroke-width:1.0;" x1="1555.2285" x2="1597.2285" y1="550.1465" y2="550.1465"/><line style="stroke:#181818;stroke-width:1.0;" x1="1597.2285" x2="1597.2285" y1="550.1465" y2="563.1465"/><line style="stroke:#181818;stroke-width:1.0;" x1="1556.2285" x2="1597.2285" y1="563.1465" y2="563.1465"/><polygon fill="#181818" points="1566.2285,559.1465,1556.2285,563.1465,1566.2285,567.1465,1562.2285,563.1465" style="stroke:#181818;stroke-width:1.0;"/><text fill="#000000" font-family="sans-serif" font-size="13" lengthAdjust="spacing" textLength="106.3042" x="1562.2285" y="545.4043">Start Job process</text><polygon fill="#181818" points="1827.895,603.7676,1837.895,607.7676,1827.895,611.7676,1831.895,607.7676" style="stroke:#181818;stroke-width:1.0;"/><line style="stroke:#181818;stroke-width:1.0;stroke-dasharray:2.0,2.0;" x1="1555.2285" x2="1833.895" y1="607.7676" y2="607.7676"/><text fill="#000000" font-family="sans-serif" font-size="13" lengthAdjust="spacing" textLength="152.9595" x="1562.2285" y="587.7148">Attempt connecting to a</text><text fill="#000000" font-family="sans-serif" font-size="13" lengthAdjust="spacing" textLength="176.3188" x="1562.2285" y="603.0254">predefined websocket route</text><polygon fill="#181818" points="1566.2285,633.0781,1556.2285,637.0781,1566.2285,641.0781,1562.2285,637.0781" style="stroke:#181818;stroke-width:1.0;"/><line style="stroke:#181818;stroke-width:1.0;" x1="1560.2285" x2="1838.895" y1="637.0781" y2="637.0781"/><text fill="#000000" font-family="sans-serif" font-size="13" lengthAdjust="spacing" textLength="236.6152" x="1572.2285" y="632.3359">Report readiness for serving requests</text><polygon fill="#181818" points="1268.7397,662.3887,1258.7397,666.3887,1268.7397,670.3887,1264.7397,666.3887" style="stroke:#181818;stroke-width:1.0;"/><line style="stroke:#181818;stroke-width:1.0;" x1="1262.7397" x2="1554.2285" y1="666.3887" y2="666.3887"/><text fill="#000000" font-family="sans-serif" font-size="13" lengthAdjust="spacing" textLength="236.6152" x="1274.7397" y="661.6465">Report readiness for serving requests</text><polygon fill="#181818" points="938.6685,722.3203,928.6685,726.3203,938.6685,730.3203,934.6685,726.3203" style="stroke:#181818;stroke-width:1.0;"/><line style="stroke:#181818;stroke-width:1.0;" x1="932.6685" x2="1256.7397" y1="726.3203" y2="726.3203"/><text fill="#000000" font-family="sans-serif" font-size="13" lengthAdjust="spacing" textLength="240.7285" x="944.6685" y="690.957">Report readiness for serving requests,</text><text fill="#000000" font-family="sans-serif" font-size="13" lengthAdjust="spacing" textLength="202.3569" x="944.6685" y="706.2676">provide Job IP address, port and</text><text fill="#000000" font-family="sans-serif" font-size="13" font-weight="bold" lengthAdjust="spacing" textLength="95.4878" x="1151.1387" y="706.2676">Job public key</text><text fill="#000000" font-family="sans-serif" font-size="13" lengthAdjust="spacing" textLength="4.1133" x="1246.6265" y="706.2676">.</text><text fill="#000000" font-family="sans-serif" font-size="13" lengthAdjust="spacing" textLength="218.1626" x="944.6685" y="721.5781">This is signed with Miner's hotkey.</text><polygon fill="#181818" points="612.7104,766.9414,602.7104,770.9414,612.7104,774.9414,608.7104,770.9414" style="stroke:#181818;stroke-width:1.0;"/><line style="stroke:#181818;stroke-width:1.0;" x1="606.7104" x2="926.6685" y1="770.9414" y2="770.9414"/><text fill="#000000" font-family="sans-serif" font-size="13" lengthAdjust="spacing" textLength="240.7285" x="618.7104" y="750.8887">Report readiness for serving requests,</text><text fill="#000000" font-family="sans-serif" font-size="13" lengthAdjust="spacing" textLength="202.3569" x="618.7104" y="766.1992">provide Job IP address, port and</text><text fill="#000000" font-family="sans-serif" font-size="13" font-weight="bold" lengthAdjust="spacing" textLength="95.4878" x="825.1807" y="766.1992">Job public key</text><polygon fill="#181818" points="286.7524,811.5625,276.7524,815.5625,286.7524,819.5625,282.7524,815.5625" style="stroke:#181818;stroke-width:1.0;"/><line style="stroke:#181818;stroke-width:1.0;" x1="280.7524" x2="600.7104" y1="815.5625" y2="815.5625"/><text fill="#000000" font-family="sans-serif" font-size="13" lengthAdjust="spacing" textLength="240.7285" x="292.7524" y="795.5098">Report readiness for serving requests,</text><text fill="#000000" font-family="sans-serif" font-size="13" lengthAdjust="spacing" textLength="202.3569" x="292.7524" y="810.8203">provide Job IP address, port and</text><text fill="#000000" font-family="sans-serif" font-size="13" font-weight="bold" lengthAdjust="spacing" textLength="95.4878" x="499.2227" y="810.8203">Job public key</text><path d="M9,830.5625 L83.4468,830.5625 L83.4468,837.873 L73.4468,847.873 L9,847.873 L9,830.5625 " fill="#EEEEEE" style="stroke:#000000;stroke-width:1.5;"/><rect fill="none" height="1084.043" style="stroke:#000000;stroke-width:1.5;" width="2016.7813" x="9" y="830.5625"/><text fill="#000000" font-family="sans-serif" font-size="13" font-weight="bold" lengthAdjust="spacing" textLength="29.4468" x="24" y="844.1309">loop</text><text fill="#000000" font-family="sans-serif" font-size="11" font-weight="bold" lengthAdjust="spacing" textLength="282.8364" x="98.4468" y="843.1973">[until Client terminates the job or timeout occurs]</text><path d="M91,854.873 L158.1851,854.873 L158.1851,862.1836 L148.1851,872.1836 L91,872.1836 L91,854.873 " fill="#EEEEEE" style="stroke:#000000;stroke-width:1.5;"/><rect fill="none" height="474.2109" style="stroke:#000000;stroke-width:1.5;" width="1896.4058" x="91" y="854.873"/><text fill="#000000" font-family="sans-serif" font-size="13" font-weight="bold" lengthAdjust="spacing" textLength="22.1851" x="106" y="868.4414">opt</text><text fill="#000000" font-family="sans-serif" font-size="11" font-weight="bold" lengthAdjust="spacing" textLength="295.5605" x="173.1851" y="867.5078">[if uploading or downloading large data is required]</text><polygon fill="#181818" points="589.7104,920.1152,599.7104,924.1152,589.7104,928.1152,593.7104,924.1152" style="stroke:#181818;stroke-width:1.0;"/><line style="stroke:#181818;stroke-width:1.0;" x1="275.7524" x2="595.7104" y1="924.1152" y2="924.1152"/><text fill="#000000" font-family="sans-serif" font-size="13" lengthAdjust="spacing" textLength="103.27" x="282.7524" y="888.752">send volume list</text><text fill="#000000" font-family="sans-serif" font-size="13" lengthAdjust="spacing" textLength="245.6924" x="282.7524" y="904.0625">(contains info about data to be fetched</text><text fill="#000000" font-family="sans-serif" font-size="13" lengthAdjust="spacing" textLength="244.8545" x="282.7524" y="919.373">before and uploaded after the request)</text><path d="M126,937.1152 L126,962.1152 L424,962.1152 L424,947.1152 L414,937.1152 L126,937.1152 " fill="#FEFFDD" style="stroke:#181818;stroke-width:0.5;"/><path d="M414,937.1152 L414,947.1152 L424,947.1152 L414,937.1152 " fill="#FEFFDD" style="stroke:#181818;stroke-width:0.5;"/><text fill="#000000" font-family="sans-serif" font-size="13" lengthAdjust="spacing" textLength="51.6572" x="132" y="954.6836">assign a</text><text fill="#000000" font-family="sans-serif" font-size="13" font-weight="bold" lengthAdjust="spacing" textLength="129.1748" x="187.7705" y="954.6836">volume message id</text><text fill="#000000" font-family="sans-serif" font-size="13" lengthAdjust="spacing" textLength="88.791" x="321.0586" y="954.6836">to the request</text><path d="M101,972.4258 L101,1027.4258 L448,1027.4258 L448,982.4258 L438,972.4258 L101,972.4258 " fill="#FEFFDD" style="stroke:#181818;stroke-width:0.5;"/><path d="M438,972.4258 L438,982.4258 L448,982.4258 L438,972.4258 " fill="#FEFFDD" style="stroke:#181818;stroke-width:0.5;"/><text fill="#000000" font-family="sans-serif" font-size="13" font-weight="bold" lengthAdjust="spacing" textLength="130.2158" x="107" y="989.9941">volume uniqueness</text><text fill="#000000" font-family="sans-serif" font-size="13" lengthAdjust="spacing" textLength="112.3789" x="241.3291" y="989.9941">Client will have to</text><text fill="#000000" font-family="sans-serif" font-size="13" lengthAdjust="spacing" textLength="233.4414" x="107" y="1005.3047">make sure file names are unique and</text><text fill="#000000" font-family="sans-serif" font-size="13" lengthAdjust="spacing" textLength="326.7329" x="107" y="1020.6152">store them to pass them to Job in subsequent steps</text><polygon fill="#181818" points="915.6685,1050.668,925.6685,1054.668,915.6685,1058.668,919.6685,1054.668" style="stroke:#181818;stroke-width:1.0;"/><line style="stroke:#181818;stroke-width:1.0;" x1="601.7104" x2="921.6685" y1="1054.668" y2="1054.668"/><text fill="#000000" font-family="sans-serif" font-size="13" lengthAdjust="spacing" textLength="103.27" x="608.7104" y="1049.9258">send volume list</text><polygon fill="#181818" points="1245.7397,1079.9785,1255.7397,1083.9785,1245.7397,1087.9785,1249.7397,1083.9785" style="stroke:#181818;stroke-width:1.0;"/><line style="stroke:#181818;stroke-width:1.0;" x1="927.6685" x2="1251.7397" y1="1083.9785" y2="1083.9785"/><text fill="#000000" font-family="sans-serif" font-size="13" lengthAdjust="spacing" textLength="103.27" x="934.6685" y="1079.2363">send volume list</text><polygon fill="#181818" points="1543.2285,1109.2891,1553.2285,1113.2891,1543.2285,1117.2891,1547.2285,1113.2891" style="stroke:#181818;stroke-width:1.0;"/><line style="stroke:#181818;stroke-width:1.0;" x1="1257.7397" x2="1549.2285" y1="1113.2891" y2="1113.2891"/><text fill="#000000" font-family="sans-serif" font-size="13" lengthAdjust="spacing" textLength="103.27" x="1264.7397" y="1108.5469">send volume list</text><polygon fill="#181818" points="1910.5918,1138.5996,1920.5918,1142.5996,1910.5918,1146.5996,1914.5918,1142.5996" style="stroke:#181818;stroke-width:1.0;"/><line style="stroke:#181818;stroke-width:1.0;" x1="1555.2285" x2="1916.5918" y1="1142.5996" y2="1142.5996"/><text fill="#000000" font-family="sans-serif" font-size="13" lengthAdjust="spacing" textLength="65.3174" x="1562.2285" y="1137.8574">Fetch data</text><polygon fill="#181818" points="1268.7397,1183.2207,1258.7397,1187.2207,1268.7397,1191.2207,1264.7397,1187.2207" style="stroke:#181818;stroke-width:1.0;"/><line style="stroke:#181818;stroke-width:1.0;" x1="1262.7397" x2="1554.2285" y1="1187.2207" y2="1187.2207"/><text fill="#000000" font-family="sans-serif" font-size="13" lengthAdjust="spacing" textLength="137.1729" x="1274.7397" y="1167.168">Report fetching done.</text><text fill="#000000" font-family="sans-serif" font-size="13" lengthAdjust="spacing" textLength="45.7222" x="1274.7397" y="1182.4785">Include</text><text fill="#000000" font-family="sans-serif" font-size="13" font-weight="bold" lengthAdjust="spacing" textLength="129.1748" x="1324.5752" y="1182.4785">volume message id</text><text fill="#000000" font-family="sans-serif" font-size="13" lengthAdjust="spacing" textLength="4.1133" x="1453.75" y="1182.4785">.</text><polygon fill="#181818" points="938.6685,1227.8418,928.6685,1231.8418,938.6685,1235.8418,934.6685,1231.8418" style="stroke:#181818;stroke-width:1.0;"/><line style="stroke:#181818;stroke-width:1.0;" x1="932.6685" x2="1256.7397" y1="1231.8418" y2="1231.8418"/><text fill="#000000" font-family="sans-serif" font-size="13" lengthAdjust="spacing" textLength="137.1729" x="944.6685" y="1211.7891">Report fetching done.</text><text fill="#000000" font-family="sans-serif" font-size="13" lengthAdjust="spacing" textLength="45.7222" x="944.6685" y="1227.0996">Include</text><text fill="#000000" font-family="sans-serif" font-size="13" font-weight="bold" lengthAdjust="spacing" textLength="129.1748" x="994.5039" y="1227.0996">volume message id</text><text fill="#000000" font-family="sans-serif" font-size="13" lengthAdjust="spacing" textLength="4.1133" x="1123.6787" y="1227.0996">.</text><polygon fill="#181818" points="612.7104,1272.4629,602.7104,1276.4629,612.7104,1280.4629,608.7104,1276.4629" style="stroke:#181818;stroke-width:1.0;"/><line style="stroke:#181818;stroke-width:1.0;" x1="606.7104" x2="926.6685" y1="1276.4629" y2="1276.4629"/><text fill="#000000" font-family="sans-serif" font-size="13" lengthAdjust="spacing" textLength="137.1729" x="618.7104" y="1256.4102">Report fetching done.</text><text fill="#000000" font-family="sans-serif" font-size="13" lengthAdjust="spacing" textLength="45.7222" x="618.7104" y="1271.7207">Include</text><text fill="#000000" font-family="sans-serif" font-size="13" font-weight="bold" lengthAdjust="spacing" textLength="129.1748" x="668.5459" y="1271.7207">volume message id</text><text fill="#000000" font-family="sans-serif" font-size="13" lengthAdjust="spacing" textLength="4.1133" x="797.7207" y="1271.7207">.</text><polygon fill="#181818" points="286.7524,1317.084,276.7524,1321.084,286.7524,1325.084,282.7524,1321.084" style="stroke:#181818;stroke-width:1.0;"/><line style="stroke:#181818;stroke-width:1.0;" x1="280.7524" x2="600.7104" y1="1321.084" y2="1321.084"/><text fill="#000000" font-family="sans-serif" font-size="13" lengthAdjust="spacing" textLength="137.1729" x="292.7524" y="1301.0313">Report fetching done.</text><text fill="#000000" font-family="sans-serif" font-size="13" lengthAdjust="spacing" textLength="45.7222" x="292.7524" y="1316.3418">Include</text><text fill="#000000" font-family="sans-serif" font-size="13" font-weight="bold" lengthAdjust="spacing" textLength="129.1748" x="342.5879" y="1316.3418">volume message id</text><text fill="#000000" font-family="sans-serif" font-size="13" lengthAdjust="spacing" textLength="4.1133" x="471.7627" y="1316.3418">.</text><polygon fill="#181818" points="1827.895,1368.7051,1837.895,1372.7051,1827.895,1376.7051,1831.895,1372.7051" style="stroke:#181818;stroke-width:1.0;"/><line style="stroke:#181818;stroke-width:1.0;" x1="275.7524" x2="1833.895" y1="1372.7051" y2="1372.7051"/><text fill="#000000" font-family="sans-serif" font-size="13" lengthAdjust="spacing" textLength="294.0806" x="282.7524" y="1352.6523">Send request, it can be a streamed or buffered</text><text fill="#000000" font-family="sans-serif" font-size="13" lengthAdjust="spacing" textLength="290.4243" x="282.7524" y="1367.9629">HTTP or a websocket. Request is signed using</text><text fill="#000000" font-family="sans-serif" font-size="13" font-weight="bold" lengthAdjust="spacing" textLength="90.8984" x="577.29" y="1367.9629">client keypair</text><text fill="#000000" font-family="sans-serif" font-size="13" lengthAdjust="spacing" textLength="4.1133" x="668.1885" y="1367.9629">.</text><path d="M19,1387.7051 L86.1851,1387.7051 L86.1851,1395.0156 L76.1851,1405.0156 L19,1405.0156 L19,1387.7051 " fill="#EEEEEE" style="stroke:#000000;stroke-width:1.5;"/><rect fill="none" height="52.6211" style="stroke:#000000;stroke-width:1.5;" width="512.3008" x="19" y="1387.7051"/><text fill="#000000" font-family="sans-serif" font-size="13" font-weight="bold" lengthAdjust="spacing" textLength="22.1851" x="34" y="1401.2734">opt</text><path d="M29,1410.0156 L29,1435.0156 L521,1435.0156 L521,1420.0156 L511,1410.0156 L29,1410.0156 " fill="#FEFFDD" style="stroke:#181818;stroke-width:0.5;"/><path d="M511,1410.0156 L511,1420.0156 L521,1420.0156 L511,1410.0156 " fill="#FEFFDD" style="stroke:#181818;stroke-width:0.5;"/><text fill="#000000" font-family="sans-serif" font-size="13" lengthAdjust="spacing" textLength="332.7441" x="35" y="1427.584">Pass input/output file names (the ones referred to in</text><text fill="#000000" font-family="sans-serif" font-size="13" font-weight="bold" lengthAdjust="spacing" textLength="130.2158" x="371.8574" y="1427.584">volume uniqueness</text><text fill="#000000" font-family="sans-serif" font-size="13" lengthAdjust="spacing" textLength="4.2275" x="502.0732" y="1427.584">)</text><polygon fill="#181818" points="286.7524,1479.9473,276.7524,1483.9473,286.7524,1487.9473,282.7524,1483.9473" style="stroke:#181818;stroke-width:1.0;"/><line style="stroke:#181818;stroke-width:1.0;" x1="280.7524" x2="1838.895" y1="1483.9473" y2="1483.9473"/><text fill="#000000" font-family="sans-serif" font-size="13" lengthAdjust="spacing" textLength="285.1875" x="292.7524" y="1463.8945">Reply. Before the transmission ends, sign the</text><text fill="#000000" font-family="sans-serif" font-size="13" lengthAdjust="spacing" textLength="254.522" x="292.7524" y="1479.2051">response with the private counterpart of</text><text fill="#000000" font-family="sans-serif" font-size="13" font-weight="bold" lengthAdjust="spacing" textLength="95.4878" x="551.3877" y="1479.2051">Job public key</text><path d="M243,1498.9473 L310.1851,1498.9473 L310.1851,1506.2578 L300.1851,1516.2578 L243,1516.2578 L243,1498.9473 " fill="#EEEEEE" style="stroke:#000000;stroke-width:1.5;"/><rect fill="none" height="259.1055" style="stroke:#000000;stroke-width:1.5;" width="1772.7813" x="243" y="1498.9473"/><text fill="#000000" font-family="sans-serif" font-size="13" font-weight="bold" lengthAdjust="spacing" textLength="22.1851" x="258" y="1512.5156">opt</text><polygon fill="#181818" points="1566.2285,1533.5684,1556.2285,1537.5684,1566.2285,1541.5684,1562.2285,1537.5684" style="stroke:#181818;stroke-width:1.0;"/><line style="stroke:#181818;stroke-width:1.0;" x1="1560.2285" x2="1838.895" y1="1537.5684" y2="1537.5684"/><text fill="#000000" font-family="sans-serif" font-size="13" lengthAdjust="spacing" textLength="260.6665" x="1572.2285" y="1532.8262">Inform about files being ready for upload</text><path d="M1674,1550.5684 L1674,1605.5684 L2005,1605.5684 L2005,1560.5684 L1995,1550.5684 L1674,1550.5684 " fill="#FEFFDD" style="stroke:#181818;stroke-width:0.5;"/><path d="M1995,1550.5684 L1995,1560.5684 L2005,1560.5684 L1995,1550.5684 " fill="#FEFFDD" style="stroke:#181818;stroke-width:0.5;"/><text fill="#000000" font-family="sans-serif" font-size="13" lengthAdjust="spacing" textLength="220.4287" x="1680" y="1568.1367">if this is a cross validation request,</text><text fill="#000000" font-family="sans-serif" font-size="13" lengthAdjust="spacing" textLength="310.7813" x="1680" y="1583.4473">also dump a signature of input/output, using the</text><text fill="#000000" font-family="sans-serif" font-size="13" lengthAdjust="spacing" textLength="138.0107" x="1680" y="1598.7578">private counterpart of</text><text fill="#000000" font-family="sans-serif" font-size="13" font-weight="bold" lengthAdjust="spacing" textLength="95.4878" x="1822.124" y="1598.7578">Job public key</text><polygon fill="#181818" points="1910.5918,1628.8105,1920.5918,1632.8105,1910.5918,1636.8105,1914.5918,1632.8105" style="stroke:#181818;stroke-width:1.0;"/><line style="stroke:#181818;stroke-width:1.0;" x1="1555.2285" x2="1916.5918" y1="1632.8105" y2="1632.8105"/><text fill="#000000" font-family="sans-serif" font-size="13" lengthAdjust="spacing" textLength="75.8101" x="1562.2285" y="1628.0684">Upload data</text><polygon fill="#181818" points="1268.7397,1658.1211,1258.7397,1662.1211,1268.7397,1666.1211,1264.7397,1662.1211" style="stroke:#181818;stroke-width:1.0;"/><line style="stroke:#181818;stroke-width:1.0;" x1="1262.7397" x2="1554.2285" y1="1662.1211" y2="1662.1211"/><text fill="#000000" font-family="sans-serif" font-size="13" lengthAdjust="spacing" textLength="144.8027" x="1274.7397" y="1657.3789">Report uploading done</text><polygon fill="#181818" points="938.6685,1687.4316,928.6685,1691.4316,938.6685,1695.4316,934.6685,1691.4316" style="stroke:#181818;stroke-width:1.0;"/><line style="stroke:#181818;stroke-width:1.0;" x1="932.6685" x2="1256.7397" y1="1691.4316" y2="1691.4316"/><text fill="#000000" font-family="sans-serif" font-size="13" lengthAdjust="spacing" textLength="144.8027" x="944.6685" y="1686.6895">Report uploading done</text><polygon fill="#181818" points="612.7104,1716.7422,602.7104,1720.7422,612.7104,1724.7422,608.7104,1720.7422" style="stroke:#181818;stroke-width:1.0;"/><line style="stroke:#181818;stroke-width:1.0;" x1="606.7104" x2="926.6685" y1="1720.7422" y2="1720.7422"/><text fill="#000000" font-family="sans-serif" font-size="13" lengthAdjust="spacing" textLength="144.8027" x="618.7104" y="1716">Report uploading done</text><polygon fill="#181818" points="286.7524,1746.0527,276.7524,1750.0527,286.7524,1754.0527,282.7524,1750.0527" style="stroke:#181818;stroke-width:1.0;"/><line style="stroke:#181818;stroke-width:1.0;" x1="280.7524" x2="600.7104" y1="1750.0527" y2="1750.0527"/><text fill="#000000" font-family="sans-serif" font-size="13" lengthAdjust="spacing" textLength="144.8027" x="292.7524" y="1745.3105">Report uploading done</text><path d="M233,1772.0527 L300.1851,1772.0527 L300.1851,1779.3633 L290.1851,1789.3633 L233,1789.3633 L233,1772.0527 " fill="#EEEEEE" style="stroke:#000000;stroke-width:1.5;"/><rect fill="none" height="135.5527" style="stroke:#000000;stroke-width:1.5;" width="429.251" x="233" y="1772.0527"/><text fill="#000000" font-family="sans-serif" font-size="13" font-weight="bold" lengthAdjust="spacing" textLength="22.1851" x="248" y="1785.6211">opt</text><text fill="#000000" font-family="sans-serif" font-size="11" font-weight="bold" lengthAdjust="spacing" textLength="208.8442" x="315.1851" y="1784.6875">[If this is a cross-validation request]</text><line style="stroke:#181818;stroke-width:1.0;" x1="275.7524" x2="317.7524" y1="1810.6738" y2="1810.6738"/><line style="stroke:#181818;stroke-width:1.0;" x1="317.7524" x2="317.7524" y1="1810.6738" y2="1823.6738"/><line style="stroke:#181818;stroke-width:1.0;" x1="276.7524" x2="317.7524" y1="1823.6738" y2="1823.6738"/><polygon fill="#181818" points="286.7524,1819.6738,276.7524,1823.6738,286.7524,1827.6738,282.7524,1823.6738" style="stroke:#181818;stroke-width:1.0;"/><text fill="#000000" font-family="sans-serif" font-size="13" lengthAdjust="spacing" textLength="187.7954" x="282.7524" y="1805.9316">Asses validity of the reposnse</text><path d="M243,1838.6738 L310.1851,1838.6738 L310.1851,1845.9844 L300.1851,1855.9844 L243,1855.9844 L243,1838.6738 " fill="#EEEEEE" style="stroke:#000000;stroke-width:1.5;"/><rect fill="none" height="61.9316" style="stroke:#000000;stroke-width:1.5;" width="409.251" x="243" y="1838.6738"/><text fill="#000000" font-family="sans-serif" font-size="13" font-weight="bold" lengthAdjust="spacing" textLength="22.1851" x="258" y="1852.2422">opt</text><text fill="#000000" font-family="sans-serif" font-size="11" font-weight="bold" lengthAdjust="spacing" textLength="120.8496" x="325.1851" y="1851.3086">[if reponse is invalid]</text><polygon fill="#181818" points="589.7104,1888.6055,599.7104,1892.6055,589.7104,1896.6055,593.7104,1892.6055" style="stroke:#181818;stroke-width:1.0;"/><line style="stroke:#181818;stroke-width:1.0;" x1="275.7524" x2="595.7104" y1="1892.6055" y2="1892.6055"/><text fill="#000000" font-family="sans-serif" font-size="13" lengthAdjust="spacing" textLength="254.4775" x="282.7524" y="1872.5527">Send info about malicious miner, signed</text><text fill="#000000" font-family="sans-serif" font-size="13" lengthAdjust="spacing" textLength="275.6343" x="282.7524" y="1887.8633">with a validator (not sn12 validator) hotkey.</text><path d="M1508.5298,1928.6055 L1570.6685,1928.6055 L1570.6685,1935.916 L1560.6685,1945.916 L1508.5298,1945.916 L1508.5298,1928.6055 " fill="#EEEEEE" style="stroke:#000000;stroke-width:1.5;"/><rect fill="none" height="46.6211" style="stroke:#000000;stroke-width:1.5;" width="478.876" x="1508.5298" y="1928.6055"/><text fill="#000000" font-family="sans-serif" font-size="13" font-weight="bold" lengthAdjust="spacing" textLength="17.1387" x="1523.5298" y="1942.1738">alt</text><text fill="#000000" font-family="sans-serif" font-size="11" font-weight="bold" lengthAdjust="spacing" textLength="165.8164" x="1585.6685" y="1941.2402">[job requires uploading data]</text><polygon fill="#181818" points="1910.5918,1963.2266,1920.5918,1967.2266,1910.5918,1971.2266,1914.5918,1967.2266" style="stroke:#181818;stroke-width:1.0;"/><line style="stroke:#181818;stroke-width:1.0;" x1="1555.2285" x2="1916.5918" y1="1967.2266" y2="1967.2266"/><text fill="#000000" font-family="sans-serif" font-size="13" lengthAdjust="spacing" textLength="75.8101" x="1562.2285" y="1962.4844">Upload data</text><polygon fill="#181818" points="1910.5918,1999.5371,1920.5918,2003.5371,1910.5918,2007.5371,1914.5918,2003.5371" style="stroke:#181818;stroke-width:1.0;"/><line style="stroke:#181818;stroke-width:1.0;" x1="1555.2285" x2="1916.5918" y1="2003.5371" y2="2003.5371"/><text fill="#000000" font-family="sans-serif" font-size="13" lengthAdjust="spacing" textLength="158.2026" x="1562.2285" y="1998.7949">Upload stdout and stderr</text><polygon fill="#181818" points="1268.7397,2028.8477,1258.7397,2032.8477,1268.7397,2036.8477,1264.7397,2032.8477" style="stroke:#181818;stroke-width:1.0;"/><line style="stroke:#181818;stroke-width:1.0;" x1="1262.7397" x2="1554.2285" y1="2032.8477" y2="2032.8477"/><text fill="#000000" font-family="sans-serif" font-size="13" lengthAdjust="spacing" textLength="101.6387" x="1274.7397" y="2028.1055">Report job done</text><polygon fill="#181818" points="938.6685,2058.1582,928.6685,2062.1582,938.6685,2066.1582,934.6685,2062.1582" style="stroke:#181818;stroke-width:1.0;"/><line style="stroke:#181818;stroke-width:1.0;" x1="932.6685" x2="1256.7397" y1="2062.1582" y2="2062.1582"/><text fill="#000000" font-family="sans-serif" font-size="13" lengthAdjust="spacing" textLength="101.6387" x="944.6685" y="2057.416">Report job done</text><polygon fill="#181818" points="612.7104,2087.4688,602.7104,2091.4688,612.7104,2095.4688,608.7104,2091.4688" style="stroke:#181818;stroke-width:1.0;"/><line style="stroke:#181818;stroke-width:1.0;" x1="606.7104" x2="926.6685" y1="2091.4688" y2="2091.4688"/><text fill="#000000" font-family="sans-serif" font-size="13" lengthAdjust="spacing" textLength="101.6387" x="618.7104" y="2086.7266">Report job done</text><polygon fill="#181818" points="286.7524,2116.7793,276.7524,2120.7793,286.7524,2124.7793,282.7524,2120.7793" style="stroke:#181818;stroke-width:1.0;"/><line style="stroke:#181818;stroke-width:1.0;" x1="280.7524" x2="600.7104" y1="2120.7793" y2="2120.7793"/><text fill="#000000" font-family="sans-serif" font-size="13" lengthAdjust="spacing" textLength="101.6387" x="292.7524" y="2116.0371">Report job done</text><!--SRC=[jLTDR-Cs4BthLmpsKjj8NBH77m9aWswR0WM2RjgJBxGqYbbBf4fIJlFl-uRwi6p9iJV0vk8rFT_pvitiVHgieuT2imb9fLpGgQwK2VH5fRhGGU7de_U_LQ6pqUiVsl3noo__SLgVYlrkDqVVFpqKjixeA-JK2tzAaYQGsxlcSqM_CkogmAHeiKZZ8-tuhLBQBHOqssj5-I5GyjbktjiOPB2Yhsmo-iTkAEEWTE59uNlOCbNrfj2f64q62YVQ3rjhFHzoZzfDpaTAlS3OOTB_TdiNDLiHRNJGgZWIZR_tOWzRJdUKYrVA7JDnMzgRjQciztfJl96ljA6wWeZXLxA6EoDT7rRqfBoVTDU9z1x_vCgwG8vLXWTepJgroZ7wfuAsnbC6D_FEpo3rRr8_KnPLJ9RaaCsaLAAA41yS_rjhnvvo3kbMcnU23vKG_WxPdg1lHLz4k964zMHGc87V0FmAa96CJP7TGUhs3iyhkW-1oofGQetXD8ZpO4cXMOuppf58Hg-yyJRTCQfawy0958TEHXMKxdjsUp4ckR4FFhcYSPDwLtHiIa_WvknUPnpJVtmYbMMeiR-Xg2qpiLZ4olGpjLWir-Pvgm4yJrw_nDnrs3R3yuEdhGqGMmvXS3Hvtp6ouz7j6ETxEamAQokgJT15IxaKs9NQWE5yP2F1Blm5NJ9mGJPDQ-SZR2qGfNECU64biXSHo-ohwRuMohrmnAwKkiL_5bNbRv8KlSpGtXProLHe7zPc1j1Yb8mGHGxGRYIAQ1GGtd0pJfojpOPH5uw9DY6XiIf7DZ6Djaxpthsnu72xvsxLh0Xa13X4NcyZA54_p27f3DGETmD3xzZfrMkZ8IijWtfRtLSDWjYgFSFUsfHgn-HhX9thWiaeU2JbEbL9PcryaBpWkvGOAk7Cxelq4ophwusNi63V1wvy7zovLN1QvbvXp7rdHKVyTrRoEduRInzJo84tmTAOuKUJ5ZNWFjcjvMcOOshveBqBjF11g-yD_WTCoguOpbZS0d4_jV2z8Orre8nCa09eG2ubvWKJlAdpd9qCr6_FpqyKTto_6vQ8AUeFoBFs4jlu5bfs9F7EgBG7G5M77p7M-1ZEmKp63IaBTo0an2IG1zmd1sn-b7ZSNeCw5czB-jmGX5WDJXbVQWoyDQ83beopZz_M1gnPuHhWPYt4YypflPnygGLJifDxaMm-nQUdAPziqKTGc2jR4fDKFHhGqBZAtYAnDzmrKRFOG_1jQ7UNejJXrg9z0qZ9f6lksgZ2MyhgKiuloKm58Hd4F2psJTkxcFMtvNXXhF-AILmtruVz8VY-FBTdv2_CvHcjz-PkGgM3bwo-nr4hRiUj66sxpiUzzzpsJeStgNIpN70-0tgzMhjZvLqGAUvCLEebpgxIzfRlTsO9jLJRsbCffRrfvtTj8inLXoD0S0RGaJS__Nnuc_TdKUUpAuLynjDqTEWEwdV5fJk4ZDYxBEf39dd9miS_GH3dpyzuaG_-2p96LIzn0KUzt7l8wON-1m00]--></g></svg>