<svg xmlns="http://www.w3.org/2000/svg" xmlns:xlink="http://www.w3.org/1999/xlink" contentStyleType="text/css" height="1423px" preserveAspectRatio="none" style="width:1717px;height:1423px;background:#FFFFFF;" version="1.1" viewBox="0 0 1717 1423" width="1717px" zoomAndPan="magnify"><defs/><g><rect fill="#90EE90" height="567.1426" style="stroke:#181818;stroke-width:1.0;" width="10" x="1602.8438" y="550.1465"/><rect fill="#006400" height="59.9316" style="stroke:#181818;stroke-width:1.0;" width="10" x="1607.8438" y="871.4941"/><rect fill="none" height="46.6211" style="stroke:#000000;stroke-width:1.5;" width="415.562" x="1295.5298" y="475.2148"/><rect fill="none" height="271.416" style="stroke:#000000;stroke-width:1.5;" width="1625.7266" x="10" y="817.5625"/><rect fill="none" height="135.5527" style="stroke:#000000;stroke-width:1.5;" width="429.251" x="20" y="946.4258"/><rect fill="none" height="61.9316" style="stroke:#000000;stroke-width:1.5;" width="409.251" x="30" y="1013.0469"/><rect fill="none" height="46.6211" style="stroke:#000000;stroke-width:1.5;" width="415.562" x="1295.5298" y="1132.2891"/><line style="stroke:#181818;stroke-width:0.5;stroke-dasharray:5.0,5.0;" x1="62" x2="62" y1="81.4883" y2="1342.4629"/><line style="stroke:#181818;stroke-width:0.5;stroke-dasharray:5.0,5.0;" x1="388.1699" x2="388.1699" y1="81.4883" y2="1342.4629"/><line style="stroke:#181818;stroke-width:0.5;stroke-dasharray:5.0,5.0;" x1="714.1255" x2="714.1255" y1="81.4883" y2="1342.4629"/><line style="stroke:#181818;stroke-width:0.5;stroke-dasharray:5.0,5.0;" x1="1044.5786" x2="1044.5786" y1="81.4883" y2="1342.4629"/><line style="stroke:#181818;stroke-width:0.5;stroke-dasharray:5.0,5.0;" x1="1341.5298" x2="1341.5298" y1="81.4883" y2="1342.4629"/><line style="stroke:#181818;stroke-width:0.5;stroke-dasharray:5.0,5.0;" x1="1606.9609" x2="1606.9609" y1="81.4883" y2="1342.4629"/><line style="stroke:#181818;stroke-width:0.5;stroke-dasharray:5.0,5.0;" x1="1667.7266" x2="1667.7266" y1="81.4883" y2="1342.4629"/><text fill="#000000" font-family="sans-serif" font-size="14" lengthAdjust="spacing" textLength="39.5049" x="40" y="78.5352">Client</text><ellipse cx="62.7524" cy="13.5" fill="#E2E2F0" rx="8" ry="8" style="stroke:#181818;stroke-width:0.5;"/><path d="M62.7524,21.5 L62.7524,48.5 M49.7524,29.5 L75.7524,29.5 M62.7524,48.5 L49.7524,63.5 M62.7524,48.5 L75.7524,63.5 " fill="none" style="stroke:#181818;stroke-width:0.5;"/><text fill="#000000" font-family="sans-serif" font-size="14" lengthAdjust="spacing" textLength="39.5049" x="40" y="1354.998">Client</text><ellipse cx="62.7524" cy="1366.4512" fill="#E2E2F0" rx="8" ry="8" style="stroke:#181818;stroke-width:0.5;"/><path d="M62.7524,1374.4512 L62.7524,1401.4512 M49.7524,1382.4512 L75.7524,1382.4512 M62.7524,1401.4512 L49.7524,1416.4512 M62.7524,1401.4512 L75.7524,1416.4512 " fill="none" style="stroke:#181818;stroke-width:0.5;"/><rect fill="#E2E2F0" height="30.4883" rx="2.5" ry="2.5" style="stroke:#181818;stroke-width:0.5;" width="81.0811" x="348.1699" y="50"/><text fill="#000000" font-family="sans-serif" font-size="14" lengthAdjust="spacing" textLength="67.0811" x="355.1699" y="70.5352">Facilitator</text><rect fill="#E2E2F0" height="30.4883" rx="2.5" ry="2.5" style="stroke:#181818;stroke-width:0.5;" width="81.0811" x="348.1699" y="1341.4629"/><text fill="#000000" font-family="sans-serif" font-size="14" lengthAdjust="spacing" textLength="67.0811" x="355.1699" y="1361.998">Facilitator</text><rect fill="#E2E2F0" height="30.4883" rx="2.5" ry="2.5" style="stroke:#181818;stroke-width:0.5;" width="75.0859" x="677.1255" y="50"/><text fill="#000000" font-family="sans-serif" font-size="14" lengthAdjust="spacing" textLength="61.0859" x="684.1255" y="70.5352">Validator</text><rect fill="#E2E2F0" height="30.4883" rx="2.5" ry="2.5" style="stroke:#181818;stroke-width:0.5;" width="75.0859" x="677.1255" y="1341.4629"/><text fill="#000000" font-family="sans-serif" font-size="14" lengthAdjust="spacing" textLength="61.0859" x="684.1255" y="1361.998">Validator</text><rect fill="#E2E2F0" height="30.4883" rx="2.5" ry="2.5" style="stroke:#181818;stroke-width:0.5;" width="52.3223" x="1018.5786" y="50"/><text fill="#000000" font-family="sans-serif" font-size="14" lengthAdjust="spacing" textLength="38.3223" x="1025.5786" y="70.5352">Miner</text><rect fill="#E2E2F0" height="30.4883" rx="2.5" ry="2.5" style="stroke:#181818;stroke-width:0.5;" width="52.3223" x="1018.5786" y="1341.4629"/><text fill="#000000" font-family="sans-serif" font-size="14" lengthAdjust="spacing" textLength="38.3223" x="1025.5786" y="1361.998">Miner</text><rect fill="#E2E2F0" height="30.4883" rx="2.5" ry="2.5" style="stroke:#181818;stroke-width:0.5;" width="73.3975" x="1305.5298" y="50"/><text fill="#000000" font-family="sans-serif" font-size="14" lengthAdjust="spacing" textLength="59.3975" x="1312.5298" y="70.5352">Executor</text><rect fill="#E2E2F0" height="30.4883" rx="2.5" ry="2.5" style="stroke:#181818;stroke-width:0.5;" width="73.3975" x="1305.5298" y="1341.4629"/><text fill="#000000" font-family="sans-serif" font-size="14" lengthAdjust="spacing" textLength="59.3975" x="1312.5298" y="1361.998">Executor</text><rect fill="#E2E2F0" height="30.4883" rx="2.5" ry="2.5" style="stroke:#181818;stroke-width:0.5;" width="35.7656" x="1589.9609" y="50"/><text fill="#000000" font-family="sans-serif" font-size="14" lengthAdjust="spacing" textLength="21.7656" x="1596.9609" y="70.5352">Job</text><rect fill="#E2E2F0" height="30.4883" rx="2.5" ry="2.5" style="stroke:#181818;stroke-width:0.5;" width="35.7656" x="1589.9609" y="1341.4629"/><text fill="#000000" font-family="sans-serif" font-size="14" lengthAdjust="spacing" textLength="21.7656" x="1596.9609" y="1361.998">Job</text><rect fill="#E2E2F0" height="30.4883" rx="2.5" ry="2.5" style="stroke:#181818;stroke-width:0.5;" width="65.3652" x="1635.7266" y="50"/><text fill="#000000" font-family="sans-serif" font-size="14" lengthAdjust="spacing" textLength="51.3652" x="1642.7266" y="70.5352">Storage</text><rect fill="#E2E2F0" height="30.4883" rx="2.5" ry="2.5" style="stroke:#181818;stroke-width:0.5;" width="65.3652" x="1635.7266" y="1341.4629"/><text fill="#000000" font-family="sans-serif" font-size="14" lengthAdjust="spacing" textLength="51.3652" x="1642.7266" y="1361.998">Storage</text><rect fill="#90EE90" height="567.1426" style="stroke:#181818;stroke-width:1.0;" width="10" x="1602.8438" y="550.1465"/><rect fill="#006400" height="59.9316" style="stroke:#181818;stroke-width:1.0;" width="10" x="1607.8438" y="871.4941"/><line style="stroke:#181818;stroke-width:1.0;" x1="62.7524" x2="104.7524" y1="112.7988" y2="112.7988"/><line style="stroke:#181818;stroke-width:1.0;" x1="104.7524" x2="104.7524" y1="112.7988" y2="125.7988"/><line style="stroke:#181818;stroke-width:1.0;" x1="63.7524" x2="104.7524" y1="125.7988" y2="125.7988"/><polygon fill="#181818" points="73.7524,121.7988,63.7524,125.7988,73.7524,129.7988,69.7524,125.7988" style="stroke:#181818;stroke-width:1.0;"/><text fill="#000000" font-family="sans-serif" font-size="13" lengthAdjust="spacing" textLength="67.8438" x="69.7524" y="108.0566">Generate a</text><text fill="#000000" font-family="sans-serif" font-size="13" font-weight="bold" lengthAdjust="spacing" textLength="90.8984" x="141.7095" y="108.0566">client keypair</text><text fill="#000000" font-family="sans-serif" font-size="13" lengthAdjust="spacing" textLength="116.854" x="236.7212" y="108.0566">(via facilitator sdk)</text><polygon fill="#181818" points="376.7104,151.1094,386.7104,155.1094,376.7104,159.1094,380.7104,155.1094" style="stroke:#181818;stroke-width:1.0;"/><line style="stroke:#181818;stroke-width:1.0;" x1="62.7524" x2="382.7104" y1="155.1094" y2="155.1094"/><text fill="#000000" font-family="sans-serif" font-size="13" lengthAdjust="spacing" textLength="220.7461" x="69.7524" y="150.3672">Send job details and the public key</text><line style="stroke:#181818;stroke-width:1.0;" x1="388.7104" x2="430.7104" y1="184.4199" y2="184.4199"/><line style="stroke:#181818;stroke-width:1.0;" x1="430.7104" x2="430.7104" y1="184.4199" y2="197.4199"/><line style="stroke:#181818;stroke-width:1.0;" x1="389.7104" x2="430.7104" y1="197.4199" y2="197.4199"/><polygon fill="#181818" points="399.7104,193.4199,389.7104,197.4199,399.7104,201.4199,395.7104,197.4199" style="stroke:#181818;stroke-width:1.0;"/><text fill="#000000" font-family="sans-serif" font-size="13" lengthAdjust="spacing" textLength="174.9795" x="395.7104" y="179.6777">Choose Validator and Miner</text><polygon fill="#181818" points="702.6685,222.7305,712.6685,226.7305,702.6685,230.7305,706.6685,226.7305" style="stroke:#181818;stroke-width:1.0;"/><line style="stroke:#181818;stroke-width:1.0;" x1="388.7104" x2="708.6685" y1="226.7305" y2="226.7305"/><text fill="#000000" font-family="sans-serif" font-size="13" lengthAdjust="spacing" textLength="100.4517" x="395.7104" y="221.9883">Send job details</text><polygon fill="#181818" points="1032.7397,252.041,1042.7397,256.041,1032.7397,260.041,1036.7397,256.041" style="stroke:#181818;stroke-width:1.0;"/><line style="stroke:#181818;stroke-width:1.0;" x1="714.6685" x2="1038.7397" y1="256.041" y2="256.041"/><text fill="#000000" font-family="sans-serif" font-size="13" lengthAdjust="spacing" textLength="139.7056" x="721.6685" y="251.2988">Send initial job details</text><line style="stroke:#181818;stroke-width:1.0;" x1="1044.7397" x2="1086.7397" y1="300.6621" y2="300.6621"/><line style="stroke:#181818;stroke-width:1.0;" x1="1086.7397" x2="1086.7397" y1="300.6621" y2="313.6621"/><line style="stroke:#181818;stroke-width:1.0;" x1="1045.7397" x2="1086.7397" y1="313.6621" y2="313.6621"/><polygon fill="#181818" points="1055.7397,309.6621,1045.7397,313.6621,1055.7397,317.6621,1051.7397,313.6621" style="stroke:#181818;stroke-width:1.0;"/><text fill="#000000" font-family="sans-serif" font-size="13" lengthAdjust="spacing" textLength="164.3281" x="1051.7397" y="280.6094">Check for a free executor,</text><text fill="#000000" font-family="sans-serif" font-size="13" lengthAdjust="spacing" textLength="171.1646" x="1051.7397" y="295.9199">possibly spin up a new one</text><polygon fill="#181818" points="1330.2285,338.9727,1340.2285,342.9727,1330.2285,346.9727,1334.2285,342.9727" style="stroke:#181818;stroke-width:1.0;"/><line style="stroke:#181818;stroke-width:1.0;" x1="1044.7397" x2="1336.2285" y1="342.9727" y2="342.9727"/><text fill="#000000" font-family="sans-serif" font-size="13" lengthAdjust="spacing" textLength="136.8301" x="1051.7397" y="338.2305">Pass initial job details</text><polygon fill="#181818" points="1055.7397,368.2832,1045.7397,372.2832,1055.7397,376.2832,1051.7397,372.2832" style="stroke:#181818;stroke-width:1.0;"/><line style="stroke:#181818;stroke-width:1.0;" x1="1049.7397" x2="1341.2285" y1="372.2832" y2="372.2832"/><text fill="#000000" font-family="sans-serif" font-size="13" lengthAdjust="spacing" textLength="273.4888" x="1061.7397" y="367.541">Report readiness (initial preparations done)</text><polygon fill="#181818" points="725.6685,397.5938,715.6685,401.5938,725.6685,405.5938,721.6685,401.5938" style="stroke:#181818;stroke-width:1.0;"/><line style="stroke:#181818;stroke-width:1.0;" x1="719.6685" x2="1043.7397" y1="401.5938" y2="401.5938"/><text fill="#000000" font-family="sans-serif" font-size="13" lengthAdjust="spacing" textLength="273.4888" x="731.6685" y="396.8516">Report readiness (initial preparations done)</text><polygon fill="#181818" points="1032.7397,426.9043,1042.7397,430.9043,1032.7397,434.9043,1036.7397,430.9043" style="stroke:#181818;stroke-width:1.0;"/><line style="stroke:#181818;stroke-width:1.0;" x1="714.6685" x2="1038.7397" y1="430.9043" y2="430.9043"/><text fill="#000000" font-family="sans-serif" font-size="13" lengthAdjust="spacing" textLength="119.2598" x="721.6685" y="426.1621">Send all job details</text><polygon fill="#181818" points="1330.2285,456.2148,1340.2285,460.2148,1330.2285,464.2148,1334.2285,460.2148" style="stroke:#181818;stroke-width:1.0;"/><line style="stroke:#181818;stroke-width:1.0;" x1="1044.7397" x2="1336.2285" y1="460.2148" y2="460.2148"/><text fill="#000000" font-family="sans-serif" font-size="13" lengthAdjust="spacing" textLength="119.2598" x="1051.7397" y="455.4727">Send all job details</text><path d="M1295.5298,475.2148 L1362.7148,475.2148 L1362.7148,482.5254 L1352.7148,492.5254 L1295.5298,492.5254 L1295.5298,475.2148 " fill="#EEEEEE" style="stroke:#000000;stroke-width:1.5;"/><rect fill="none" height="46.6211" style="stroke:#000000;stroke-width:1.5;" width="415.562" x="1295.5298" y="475.2148"/><text fill="#000000" font-family="sans-serif" font-size="13" font-weight="bold" lengthAdjust="spacing" textLength="22.1851" x="1310.5298" y="488.7832">opt</text><text fill="#000000" font-family="sans-serif" font-size="11" font-weight="bold" lengthAdjust="spacing" textLength="155.4878" x="1377.7148" y="487.8496">[job requires fetching data]</text><polygon fill="#181818" points="1656.4092,509.8359,1666.4092,513.8359,1656.4092,517.8359,1660.4092,513.8359" style="stroke:#181818;stroke-width:1.0;"/><line style="stroke:#181818;stroke-width:1.0;" x1="1342.2285" x2="1662.4092" y1="513.8359" y2="513.8359"/><text fill="#000000" font-family="sans-serif" font-size="13" lengthAdjust="spacing" textLength="65.3174" x="1349.2285" y="509.0938">Fetch data</text><polygon fill="#181818" points="1590.8438,546.1465,1600.8438,550.1465,1590.8438,554.1465,1594.8438,550.1465" style="stroke:#181818;stroke-width:1.0;"/><line style="stroke:#181818;stroke-width:1.0;" x1="1342.2285" x2="1596.8438" y1="550.1465" y2="550.1465"/><text fill="#000000" font-family="sans-serif" font-size="13" lengthAdjust="spacing" textLength="106.3042" x="1349.2285" y="545.4043">Start Job process</text><polygon fill="#181818" points="1590.8438,590.7676,1600.8438,594.7676,1590.8438,598.7676,1594.8438,594.7676" style="stroke:#181818;stroke-width:1.0;"/><line style="stroke:#181818;stroke-width:1.0;stroke-dasharray:2.0,2.0;" x1="1342.2285" x2="1596.8438" y1="594.7676" y2="594.7676"/><text fill="#000000" font-family="sans-serif" font-size="13" lengthAdjust="spacing" textLength="152.9595" x="1349.2285" y="574.7148">Attempt connecting to a</text><text fill="#000000" font-family="sans-serif" font-size="13" lengthAdjust="spacing" textLength="176.3188" x="1349.2285" y="590.0254">predefined websocket route</text><polygon fill="#181818" points="1353.2285,620.0781,1343.2285,624.0781,1353.2285,628.0781,1349.2285,624.0781" style="stroke:#181818;stroke-width:1.0;"/><line style="stroke:#181818;stroke-width:1.0;" x1="1347.2285" x2="1601.8438" y1="624.0781" y2="624.0781"/><text fill="#000000" font-family="sans-serif" font-size="13" lengthAdjust="spacing" textLength="236.6152" x="1359.2285" y="619.3359">Report readiness for serving requests</text><polygon fill="#181818" points="1055.7397,649.3887,1045.7397,653.3887,1055.7397,657.3887,1051.7397,653.3887" style="stroke:#181818;stroke-width:1.0;"/><line style="stroke:#181818;stroke-width:1.0;" x1="1049.7397" x2="1341.2285" y1="653.3887" y2="653.3887"/><text fill="#000000" font-family="sans-serif" font-size="13" lengthAdjust="spacing" textLength="236.6152" x="1061.7397" y="648.6465">Report readiness for serving requests</text><polygon fill="#181818" points="725.6685,709.3203,715.6685,713.3203,725.6685,717.3203,721.6685,713.3203" style="stroke:#181818;stroke-width:1.0;"/><line style="stroke:#181818;stroke-width:1.0;" x1="719.6685" x2="1043.7397" y1="713.3203" y2="713.3203"/><text fill="#000000" font-family="sans-serif" font-size="13" lengthAdjust="spacing" textLength="240.7285" x="731.6685" y="677.957">Report readiness for serving requests,</text><text fill="#000000" font-family="sans-serif" font-size="13" lengthAdjust="spacing" textLength="202.3569" x="731.6685" y="693.2676">provide Job IP address, port and</text><text fill="#000000" font-family="sans-serif" font-size="13" font-weight="bold" lengthAdjust="spacing" textLength="95.4878" x="938.1387" y="693.2676">Job public key</text><text fill="#000000" font-family="sans-serif" font-size="13" lengthAdjust="spacing" textLength="4.1133" x="1033.6265" y="693.2676">.</text><text fill="#000000" font-family="sans-serif" font-size="13" lengthAdjust="spacing" textLength="218.1626" x="731.6685" y="708.5781">This is signed with Miner's hotkey.</text><polygon fill="#181818" points="399.7104,753.9414,389.7104,757.9414,399.7104,761.9414,395.7104,757.9414" style="stroke:#181818;stroke-width:1.0;"/><line style="stroke:#181818;stroke-width:1.0;" x1="393.7104" x2="713.6685" y1="757.9414" y2="757.9414"/><text fill="#000000" font-family="sans-serif" font-size="13" lengthAdjust="spacing" textLength="240.7285" x="405.7104" y="737.8887">Report readiness for serving requests,</text><text fill="#000000" font-family="sans-serif" font-size="13" lengthAdjust="spacing" textLength="202.3569" x="405.7104" y="753.1992">provide Job IP address, port and</text><text fill="#000000" font-family="sans-serif" font-size="13" font-weight="bold" lengthAdjust="spacing" textLength="95.4878" x="612.1807" y="753.1992">Job public key</text><polygon fill="#181818" points="73.7524,798.5625,63.7524,802.5625,73.7524,806.5625,69.7524,802.5625" style="stroke:#181818;stroke-width:1.0;"/><line style="stroke:#181818;stroke-width:1.0;" x1="67.7524" x2="387.7104" y1="802.5625" y2="802.5625"/><text fill="#000000" font-family="sans-serif" font-size="13" lengthAdjust="spacing" textLength="240.7285" x="79.7524" y="782.5098">Report readiness for serving requests,</text><text fill="#000000" font-family="sans-serif" font-size="13" lengthAdjust="spacing" textLength="202.3569" x="79.7524" y="797.8203">provide Job IP address, port and</text><text fill="#000000" font-family="sans-serif" font-size="13" font-weight="bold" lengthAdjust="spacing" textLength="95.4878" x="286.2227" y="797.8203">Job public key</text><path d="M10,817.5625 L84.4468,817.5625 L84.4468,824.873 L74.4468,834.873 L10,834.873 L10,817.5625 " fill="#EEEEEE" style="stroke:#000000;stroke-width:1.5;"/><rect fill="none" height="271.416" style="stroke:#000000;stroke-width:1.5;" width="1625.7266" x="10" y="817.5625"/><text fill="#000000" font-family="sans-serif" font-size="13" font-weight="bold" lengthAdjust="spacing" textLength="29.4468" x="25" y="831.1309">loop</text><text fill="#000000" font-family="sans-serif" font-size="11" font-weight="bold" lengthAdjust="spacing" textLength="282.8364" x="99.4468" y="830.1973">[until Client terminates the job or timeout occurs]</text><polygon fill="#181818" points="1595.8438,867.4941,1605.8438,871.4941,1595.8438,875.4941,1599.8438,871.4941" style="stroke:#181818;stroke-width:1.0;"/><line style="stroke:#181818;stroke-width:1.0;" x1="62.7524" x2="1601.8438" y1="871.4941" y2="871.4941"/><text fill="#000000" font-family="sans-serif" font-size="13" lengthAdjust="spacing" textLength="294.0806" x="69.7524" y="851.4414">Send request, it can be a streamed or buffered</text><text fill="#000000" font-family="sans-serif" font-size="13" lengthAdjust="spacing" textLength="290.4243" x="69.7524" y="866.752">HTTP or a websocket. Request is signed using</text><text fill="#000000" font-family="sans-serif" font-size="13" font-weight="bold" lengthAdjust="spacing" textLength="90.8984" x="364.29" y="866.752">client keypair</text><text fill="#000000" font-family="sans-serif" font-size="13" lengthAdjust="spacing" textLength="4.1133" x="455.1885" y="866.752">.</text><polygon fill="#181818" points="73.7524,927.4258,63.7524,931.4258,73.7524,935.4258,69.7524,931.4258" style="stroke:#181818;stroke-width:1.0;"/><line style="stroke:#181818;stroke-width:1.0;" x1="67.7524" x2="1601.8438" y1="931.4258" y2="931.4258"/><text fill="#000000" font-family="sans-serif" font-size="13" lengthAdjust="spacing" textLength="346.7979" x="79.7524" y="896.0625">Reply. Before the transmission ends, sign input/output</text><text fill="#000000" font-family="sans-serif" font-size="13" lengthAdjust="spacing" textLength="241.6172" x="79.7524" y="911.373">digest (or full value(s) in case of texts)</text><text fill="#000000" font-family="sans-serif" font-size="13" lengthAdjust="spacing" textLength="193.1147" x="79.7524" y="926.6836">with the private counterpart of</text><text fill="#000000" font-family="sans-serif" font-size="13" font-weight="bold" lengthAdjust="spacing" textLength="95.4878" x="276.9805" y="926.6836">Job public key</text><text fill="#000000" font-family="sans-serif" font-size="13" lengthAdjust="spacing" textLength="4.1133" x="372.4683" y="926.6836">.</text><path d="M20,946.4258 L87.1851,946.4258 L87.1851,953.7363 L77.1851,963.7363 L20,963.7363 L20,946.4258 " fill="#EEEEEE" style="stroke:#000000;stroke-width:1.5;"/><rect fill="none" height="135.5527" style="stroke:#000000;stroke-width:1.5;" width="429.251" x="20" y="946.4258"/><text fill="#000000" font-family="sans-serif" font-size="13" font-weight="bold" lengthAdjust="spacing" textLength="22.1851" x="35" y="959.9941">opt</text><text fill="#000000" font-family="sans-serif" font-size="11" font-weight="bold" lengthAdjust="spacing" textLength="208.8442" x="102.1851" y="959.0605">[If this is a cross-validation request]</text><line style="stroke:#181818;stroke-width:1.0;" x1="62.7524" x2="104.7524" y1="985.0469" y2="985.0469"/><line style="stroke:#181818;stroke-width:1.0;" x1="104.7524" x2="104.7524" y1="985.0469" y2="998.0469"/><line style="stroke:#181818;stroke-width:1.0;" x1="63.7524" x2="104.7524" y1="998.0469" y2="998.0469"/><polygon fill="#181818" points="73.7524,994.0469,63.7524,998.0469,73.7524,1002.0469,69.7524,998.0469" style="stroke:#181818;stroke-width:1.0;"/><text fill="#000000" font-family="sans-serif" font-size="13" lengthAdjust="spacing" textLength="187.7954" x="69.7524" y="980.3047">Asses validity of the reposnse</text><path d="M30,1013.0469 L97.1851,1013.0469 L97.1851,1020.3574 L87.1851,1030.3574 L30,1030.3574 L30,1013.0469 " fill="#EEEEEE" style="stroke:#000000;stroke-width:1.5;"/><rect fill="none" height="61.9316" style="stroke:#000000;stroke-width:1.5;" width="409.251" x="30" y="1013.0469"/><text fill="#000000" font-family="sans-serif" font-size="13" font-weight="bold" lengthAdjust="spacing" textLength="22.1851" x="45" y="1026.6152">opt</text><text fill="#000000" font-family="sans-serif" font-size="11" font-weight="bold" lengthAdjust="spacing" textLength="120.8496" x="112.1851" y="1025.6816">[if reponse is invalid]</text><polygon fill="#181818" points="376.7104,1062.9785,386.7104,1066.9785,376.7104,1070.9785,380.7104,1066.9785" style="stroke:#181818;stroke-width:1.0;"/><line style="stroke:#181818;stroke-width:1.0;" x1="62.7524" x2="382.7104" y1="1066.9785" y2="1066.9785"/><text fill="#000000" font-family="sans-serif" font-size="13" lengthAdjust="spacing" textLength="254.4775" x="69.7524" y="1046.9258">Send info about malicious miner, signed</text><text fill="#000000" font-family="sans-serif" font-size="13" lengthAdjust="spacing" textLength="275.6343" x="69.7524" y="1062.2363">with a validator (not sn12 validator) hotkey.</text><polygon fill="#181818" points="1353.2285,1113.2891,1343.2285,1117.2891,1353.2285,1121.2891,1349.2285,1117.2891" style="stroke:#181818;stroke-width:1.0;"/><line style="stroke:#181818;stroke-width:1.0;" x1="1347.2285" x2="1606.8438" y1="1117.2891" y2="1117.2891"/><text fill="#000000" font-family="sans-serif" font-size="13" lengthAdjust="spacing" textLength="80.9834" x="1359.2285" y="1112.5469">Report finish</text><path d="M1295.5298,1132.2891 L1362.7148,1132.2891 L1362.7148,1139.5996 L1352.7148,1149.5996 L1295.5298,1149.5996 L1295.5298,1132.2891 " fill="#EEEEEE" style="stroke:#000000;stroke-width:1.5;"/><rect fill="none" height="46.6211" style="stroke:#000000;stroke-width:1.5;" width="415.562" x="1295.5298" y="1132.2891"/><text fill="#000000" font-family="sans-serif" font-size="13" font-weight="bold" lengthAdjust="spacing" textLength="22.1851" x="1310.5298" y="1145.8574">opt</text><text fill="#000000" font-family="sans-serif" font-size="11" font-weight="bold" lengthAdjust="spacing" textLength="165.8164" x="1377.7148" y="1144.9238">[job requires uploading data]</text><polygon fill="#181818" points="1656.4092,1166.9102,1666.4092,1170.9102,1656.4092,1174.9102,1660.4092,1170.9102" style="stroke:#181818;stroke-width:1.0;"/><line style="stroke:#181818;stroke-width:1.0;" x1="1342.2285" x2="1662.4092" y1="1170.9102" y2="1170.9102"/><text fill="#000000" font-family="sans-serif" font-size="13" lengthAdjust="spacing" textLength="75.8101" x="1349.2285" y="1166.168">Upload data</text><polygon fill="#181818" points="1656.4092,1203.2207,1666.4092,1207.2207,1656.4092,1211.2207,1660.4092,1207.2207" style="stroke:#181818;stroke-width:1.0;"/><line style="stroke:#181818;stroke-width:1.0;" x1="1342.2285" x2="1662.4092" y1="1207.2207" y2="1207.2207"/><text fill="#000000" font-family="sans-serif" font-size="13" lengthAdjust="spacing" textLength="158.2026" x="1349.2285" y="1202.4785">Upload stdout and stderr</text><polygon fill="#181818" points="1055.7397,1232.5313,1045.7397,1236.5313,1055.7397,1240.5313,1051.7397,1236.5313" style="stroke:#181818;stroke-width:1.0;"/><line style="stroke:#181818;stroke-width:1.0;" x1="1049.7397" x2="1341.2285" y1="1236.5313" y2="1236.5313"/><text fill="#000000" font-family="sans-serif" font-size="13" lengthAdjust="spacing" textLength="101.6387" x="1061.7397" y="1231.7891">Report job done</text><polygon fill="#181818" points="725.6685,1261.8418,715.6685,1265.8418,725.6685,1269.8418,721.6685,1265.8418" style="stroke:#181818;stroke-width:1.0;"/><line style="stroke:#181818;stroke-width:1.0;" x1="719.6685" x2="1043.7397" y1="1265.8418" y2="1265.8418"/><text fill="#000000" font-family="sans-serif" font-size="13" lengthAdjust="spacing" textLength="101.6387" x="731.6685" y="1261.0996">Report job done</text><polygon fill="#181818" points="399.7104,1291.1523,389.7104,1295.1523,399.7104,1299.1523,395.7104,1295.1523" style="stroke:#181818;stroke-width:1.0;"/><line style="stroke:#181818;stroke-width:1.0;" x1="393.7104" x2="713.6685" y1="1295.1523" y2="1295.1523"/><text fill="#000000" font-family="sans-serif" font-size="13" lengthAdjust="spacing" textLength="101.6387" x="405.7104" y="1290.4102">Report job done</text><polygon fill="#181818" points="73.7524,1320.4629,63.7524,1324.4629,73.7524,1328.4629,69.7524,1324.4629" style="stroke:#181818;stroke-width:1.0;"/><line style="stroke:#181818;stroke-width:1.0;" x1="67.7524" x2="387.7104" y1="1324.4629" y2="1324.4629"/><text fill="#000000" font-family="sans-serif" font-size="13" lengthAdjust="spacing" textLength="101.6387" x="79.7524" y="1319.7207">Report job done</text><!--SRC=[jLLDJzj04BtxLupKGvC8KhL73fKeAYsLAg52Uyfbinx7qpYxxiuumB_lxFeZ3WcK7k1YCdvlvsFVF9zRyG4kAa8dMMs2aANQE85BOwaYCVfwB_xBL9GVHB-Jm_t8vtkqpMFODx_S-tsZ0BF2B6iBEFtOFi_W2-fvHX0Cp6Os1M6D3xMXC9l1P4i6Ybs1mFbwEfmnglmCRj3byDil8KSnL34O_IqbGjqiAxBnq6n4UCI-ABrdtFMSs6slUwG1S9Wm6zwTVapC3aAEX4or1qtl1zX5YNODHSmAHK04x4Pwid2rPwPbzG1SauEcLeZ3E_0E-qFw-P_1jM4-cgw731b_OEs3G42JQq1PavvM1zHxCqBUCUIQPjhd6RN-N_GdncAgeoFPTNCKbVbQKY3WduO2CXGejYIt0irXCj2_NRUTwixWCe9QX9wQZGQYGjLKebADcjNwlTM6CcE5jb6MCVYcebKfAxqPjsDsr7CHt6XDrZk7Ij92n8FHYmkOOw5DvN27I_PsZJentmXcIXmtUZ3Dg0J6i8s7nJwHXRCNNE9HtWjkxnWlIY_uBUNj2AwkmUIvpfjF8B7ZVincQMJ3VircyuMxBKb5oC2qIhsJbEqYlMKelIXiFfR4tXQ-OcNxQzoxpsicp2hlQsYSKDNPBWY63JcL5ITdYZhMV48RL5s0jxO9d2JSErohphW8NJ4dGAerus0P7PD5Az_ebFMKPLCKg9fRkA-tjzUGp6GGtbmxJVpHpJGScpmqtNcgO7y1SXFMhVxZkwJVqGYhXpbyGXqTfhOa6CSRKj_o3hHsdLDCgSvKD_9EEzN7mkMqYlLCjD2YqItVcgh12KyLfWsg5_j2vtKlF5su9ABavQ4jodgTAuRuXOcu8q9CXUOuRYE5edzSwScTIWtOe0vxkcqL6Ilk9ftGuxle6pvdrljB19A7LAPMfhxdsJ4Ej9Y8YXJNSCn5Bf46nFZmmqyPkK9zP1c5iL6Q9TymRE8YdNGtsCt5m7RuQasS5s3t_iCkDXsshiyP7R1_9ZSyxaVgNSHbzcY6XmRSr9MFw_Ey0_zCg9q5FmrXoMFJSQlqNmpXQUjBNuRHf_3Gv0R4Fondm3rd4mFeBm00]--></g></svg>