<svg xmlns="http://www.w3.org/2000/svg" xmlns:xlink="http://www.w3.org/1999/xlink" contentStyleType="text/css" data-diagram-type="SEQUENCE" height="1536px" preserveAspectRatio="none" style="width:1663px;height:1536px;background:#FFFFFF;" version="1.1" viewBox="0 0 1663 1536" width="1663px" zoomAndPan="magnify"><defs/><g><g><title>Job</title><rect fill="#90EE90" height="622.2384" style="stroke:#181818;stroke-width:1;" width="10" x="1549.3992" y="588.6582"/></g><g><title>Job</title><rect fill="#006400" height="67.118" style="stroke:#181818;stroke-width:1;" width="10" x="1554.3992" y="943.5424"/></g><rect fill="none" height="51.412" style="stroke:#000000;stroke-width:1.5;" width="407.5379" x="1249.6641" y="506.5401"/><rect fill="none" height="297.7662" style="stroke:#000000;stroke-width:1.5;" width="1571.8501" x="10" y="882.4243"/><rect fill="none" height="147.5301" style="stroke:#000000;stroke-width:1.5;" width="414.9221" x="20" y="1025.6604"/><rect fill="none" height="69.118" style="stroke:#000000;stroke-width:1.5;" width="394.9221" x="30" y="1097.0725"/><rect fill="none" height="51.412" style="stroke:#000000;stroke-width:1.5;" width="407.5379" x="1249.6641" y="1225.8965"/><g><title>Client</title><rect fill="#000000" fill-opacity="0.00000" height="1368.7707" width="8" x="57.8369" y="84.0679"/><line style="stroke:#181818;stroke-width:0.5;stroke-dasharray:5.0,5.0;" x1="61" x2="61" y1="84.0679" y2="1452.8387"/></g><g><title>Facilitator</title><rect fill="#000000" fill-opacity="0.00000" height="1368.7707" width="8" x="371.4772" y="84.0679"/><line style="stroke:#181818;stroke-width:0.5;stroke-dasharray:5.0,5.0;" x1="375.0323" x2="375.0323" y1="84.0679" y2="1452.8387"/></g><g><title>Validator</title><rect fill="#000000" fill-opacity="0.00000" height="1368.7707" width="8" x="685.1174" y="84.0679"/><line style="stroke:#181818;stroke-width:0.5;stroke-dasharray:5.0,5.0;" x1="688.4935" x2="688.4935" y1="84.0679" y2="1452.8387"/></g><g><title>Miner</title><rect fill="#000000" fill-opacity="0.00000" height="1368.7707" width="8" x="1002.2417" y="84.0679"/><line style="stroke:#181818;stroke-width:0.5;stroke-dasharray:5.0,5.0;" x1="1005.9218" x2="1005.9218" y1="84.0679" y2="1452.8387"/></g><g><title>Executor</title><rect fill="#000000" fill-opacity="0.00000" height="1368.7707" width="8" x="1291.546" y="84.0679"/><line style="stroke:#181818;stroke-width:0.5;stroke-dasharray:5.0,5.0;" x1="1294.6641" x2="1294.6641" y1="84.0679" y2="1452.8387"/></g><g><title>Job</title><rect fill="#000000" fill-opacity="0.00000" height="1368.7707" width="8" x="1550.3992" y="84.0679"/><line style="stroke:#181818;stroke-width:0.5;stroke-dasharray:5.0,5.0;" x1="1553.9482" x2="1553.9482" y1="84.0679" y2="1452.8387"/></g><g><title>Storage</title><rect fill="#000000" fill-opacity="0.00000" height="1368.7707" width="8" x="1610.526" y="84.0679"/><line style="stroke:#181818;stroke-width:0.5;stroke-dasharray:5.0,5.0;" x1="1613.8501" x2="1613.8501" y1="84.0679" y2="1452.8387"/></g><g class="participant participant-head" data-participant="Client"><text fill="#000000" font-family="sans-serif" font-size="14" lengthAdjust="spacing" textLength="37.6738" x="40" y="79.9659">Client</text><ellipse cx="61.8369" cy="13.5" fill="#E2E2F0" rx="8" ry="8" style="stroke:#181818;stroke-width:0.5;"/><path d="M61.8369,21.5 L61.8369,48.5 M48.8369,29.5 L74.8369,29.5 M61.8369,48.5 L48.8369,63.5 M61.8369,48.5 L74.8369,63.5" fill="none" style="stroke:#181818;stroke-width:0.5;"/></g><g class="participant participant-tail" data-participant="Client"><text fill="#000000" font-family="sans-serif" font-size="14" lengthAdjust="spacing" textLength="37.6738" x="40" y="1466.8046">Client</text><ellipse cx="61.8369" cy="1479.4066" fill="#E2E2F0" rx="8" ry="8" style="stroke:#181818;stroke-width:0.5;"/><path d="M61.8369,1487.4066 L61.8369,1514.4066 M48.8369,1495.4066 L74.8369,1495.4066 M61.8369,1514.4066 L48.8369,1529.4066 M61.8369,1514.4066 L74.8369,1529.4066" fill="none" style="stroke:#181818;stroke-width:0.5;"/></g><g class="participant participant-head" data-participant="Facilitator"><rect fill="#E2E2F0" height="33.0679" rx="2.5" ry="2.5" style="stroke:#181818;stroke-width:0.5;" width="78.8898" x="336.0323" y="50"/><text fill="#000000" font-family="sans-serif" font-size="14" lengthAdjust="spacing" textLength="64.8898" x="343.0323" y="71.9659">Facilitator</text></g><g class="participant participant-tail" data-participant="Facilitator"><rect fill="#E2E2F0" height="33.0679" rx="2.5" ry="2.5" style="stroke:#181818;stroke-width:0.5;" width="78.8898" x="336.0323" y="1451.8387"/><text fill="#000000" font-family="sans-serif" font-size="14" lengthAdjust="spacing" textLength="64.8898" x="343.0323" y="1473.8046">Facilitator</text></g><g class="participant participant-head" data-participant="Validator"><rect fill="#E2E2F0" height="33.0679" rx="2.5" ry="2.5" style="stroke:#181818;stroke-width:0.5;" width="73.2478" x="652.4935" y="50"/><text fill="#000000" font-family="sans-serif" font-size="14" lengthAdjust="spacing" textLength="59.2478" x="659.4935" y="71.9659">Validator</text></g><g class="participant participant-tail" data-participant="Validator"><rect fill="#E2E2F0" height="33.0679" rx="2.5" ry="2.5" style="stroke:#181818;stroke-width:0.5;" width="73.2478" x="652.4935" y="1451.8387"/><text fill="#000000" font-family="sans-serif" font-size="14" lengthAdjust="spacing" textLength="59.2478" x="659.4935" y="1473.8046">Validator</text></g><g class="participant participant-head" data-participant="Miner"><rect fill="#E2E2F0" height="33.0679" rx="2.5" ry="2.5" style="stroke:#181818;stroke-width:0.5;" width="52.6398" x="979.9218" y="50"/><text fill="#000000" font-family="sans-serif" font-size="14" lengthAdjust="spacing" textLength="38.6398" x="986.9218" y="71.9659">Miner</text></g><g class="participant participant-tail" data-participant="Miner"><rect fill="#E2E2F0" height="33.0679" rx="2.5" ry="2.5" style="stroke:#181818;stroke-width:0.5;" width="52.6398" x="979.9218" y="1451.8387"/><text fill="#000000" font-family="sans-serif" font-size="14" lengthAdjust="spacing" textLength="38.6398" x="986.9218" y="1473.8046">Miner</text></g><g class="participant participant-head" data-participant="Executor"><rect fill="#E2E2F0" height="33.0679" rx="2.5" ry="2.5" style="stroke:#181818;stroke-width:0.5;" width="71.7638" x="1259.6641" y="50"/><text fill="#000000" font-family="sans-serif" font-size="14" lengthAdjust="spacing" textLength="57.7638" x="1266.6641" y="71.9659">Executor</text></g><g class="participant participant-tail" data-participant="Executor"><rect fill="#E2E2F0" height="33.0679" rx="2.5" ry="2.5" style="stroke:#181818;stroke-width:0.5;" width="71.7638" x="1259.6641" y="1451.8387"/><text fill="#000000" font-family="sans-serif" font-size="14" lengthAdjust="spacing" textLength="57.7638" x="1266.6641" y="1473.8046">Executor</text></g><g class="participant participant-head" data-participant="Job"><rect fill="#E2E2F0" height="33.0679" rx="2.5" ry="2.5" style="stroke:#181818;stroke-width:0.5;" width="34.9019" x="1536.9482" y="50"/><text fill="#000000" font-family="sans-serif" font-size="14" lengthAdjust="spacing" textLength="20.9019" x="1543.9482" y="71.9659">Job</text></g><g class="participant participant-tail" data-participant="Job"><rect fill="#E2E2F0" height="33.0679" rx="2.5" ry="2.5" style="stroke:#181818;stroke-width:0.5;" width="34.9019" x="1536.9482" y="1451.8387"/><text fill="#000000" font-family="sans-serif" font-size="14" lengthAdjust="spacing" textLength="20.9019" x="1543.9482" y="1473.8046">Job</text></g><g class="participant participant-head" data-participant="Storage"><rect fill="#E2E2F0" height="33.0679" rx="2.5" ry="2.5" style="stroke:#181818;stroke-width:0.5;" width="65.3518" x="1581.8501" y="50"/><text fill="#000000" font-family="sans-serif" font-size="14" lengthAdjust="spacing" textLength="51.3518" x="1588.8501" y="71.9659">Storage</text></g><g class="participant participant-tail" data-participant="Storage"><rect fill="#E2E2F0" height="33.0679" rx="2.5" ry="2.5" style="stroke:#181818;stroke-width:0.5;" width="65.3518" x="1581.8501" y="1451.8387"/><text fill="#000000" font-family="sans-serif" font-size="14" lengthAdjust="spacing" textLength="51.3518" x="1588.8501" y="1473.8046">Storage</text></g><g><title>Job</title><rect fill="#90EE90" height="622.2384" style="stroke:#181818;stroke-width:1;" width="10" x="1549.3992" y="588.6582"/></g><g><title>Job</title><rect fill="#006400" height="67.118" style="stroke:#181818;stroke-width:1;" width="10" x="1554.3992" y="943.5424"/></g><g class="message" data-participant-1="Client" data-participant-2="Client"><line style="stroke:#181818;stroke-width:1;" x1="61.8369" x2="103.8369" y1="117.7739" y2="117.7739"/><line style="stroke:#181818;stroke-width:1;" x1="103.8369" x2="103.8369" y1="117.7739" y2="130.7739"/><line style="stroke:#181818;stroke-width:1;" x1="62.8369" x2="103.8369" y1="130.7739" y2="130.7739"/><polygon fill="#181818" points="72.8369,126.7739,62.8369,130.7739,72.8369,134.7739,68.8369,130.7739" style="stroke:#181818;stroke-width:1;"/><text fill="#000000" font-family="sans-serif" font-size="13" lengthAdjust="spacing" textLength="67.522" x="68.8369" y="111.9649">Generate a</text><text fill="#000000" font-family="sans-serif" font-size="13" font-weight="bold" lengthAdjust="spacing" textLength="88.6471" x="139.739" y="111.9649">client keypair</text><text fill="#000000" font-family="sans-serif" font-size="13" lengthAdjust="spacing" textLength="110.9551" x="231.766" y="111.9649">(via facilitator sdk)</text></g><g class="message" data-participant-1="Client" data-participant-2="Facilitator"><polygon fill="#181818" points="363.4772,158.4799,373.4772,162.4799,363.4772,166.4799,367.4772,162.4799" style="stroke:#181818;stroke-width:1;"/><line style="stroke:#181818;stroke-width:1;" x1="61.8369" x2="369.4772" y1="162.4799" y2="162.4799"/><text fill="#000000" font-family="sans-serif" font-size="13" lengthAdjust="spacing" textLength="211.4972" x="68.8369" y="156.6709">Send job details and the public key</text></g><g class="message" data-participant-1="Facilitator" data-participant-2="Facilitator"><line style="stroke:#181818;stroke-width:1;" x1="375.4772" x2="417.4772" y1="194.186" y2="194.186"/><line style="stroke:#181818;stroke-width:1;" x1="417.4772" x2="417.4772" y1="194.186" y2="207.186"/><line style="stroke:#181818;stroke-width:1;" x1="376.4772" x2="417.4772" y1="207.186" y2="207.186"/><polygon fill="#181818" points="386.4772,203.186,376.4772,207.186,386.4772,211.186,382.4772,207.186" style="stroke:#181818;stroke-width:1;"/><text fill="#000000" font-family="sans-serif" font-size="13" lengthAdjust="spacing" textLength="169.8971" x="382.4772" y="188.377">Choose Validator and Miner</text></g><g class="message" data-participant-1="Facilitator" data-participant-2="Validator"><polygon fill="#181818" points="677.1174,234.892,687.1174,238.892,677.1174,242.892,681.1174,238.892" style="stroke:#181818;stroke-width:1;"/><line style="stroke:#181818;stroke-width:1;" x1="375.4772" x2="683.1174" y1="238.892" y2="238.892"/><text fill="#000000" font-family="sans-serif" font-size="13" lengthAdjust="spacing" textLength="96.7201" x="382.4772" y="233.083">Send job details</text></g><g class="message" data-participant-1="Validator" data-participant-2="Miner"><polygon fill="#181818" points="994.2417,266.598,1004.2417,270.598,994.2417,274.598,998.2417,270.598" style="stroke:#181818;stroke-width:1;"/><line style="stroke:#181818;stroke-width:1;" x1="689.1174" x2="1000.2417" y1="270.598" y2="270.598"/><text fill="#000000" font-family="sans-serif" font-size="13" lengthAdjust="spacing" textLength="133.5361" x="696.1174" y="264.789">Send initial job details</text></g><g class="message" data-participant-1="Miner" data-participant-2="Miner"><line style="stroke:#181818;stroke-width:1;" x1="1006.2417" x2="1048.2417" y1="320.01" y2="320.01"/><line style="stroke:#181818;stroke-width:1;" x1="1048.2417" x2="1048.2417" y1="320.01" y2="333.01"/><line style="stroke:#181818;stroke-width:1;" x1="1007.2417" x2="1048.2417" y1="333.01" y2="333.01"/><polygon fill="#181818" points="1017.2417,329.01,1007.2417,333.01,1017.2417,337.01,1013.2417,333.01" style="stroke:#181818;stroke-width:1;"/><text fill="#000000" font-family="sans-serif" font-size="13" lengthAdjust="spacing" textLength="157.0141" x="1013.2417" y="296.495">Check for a free executor,</text><text fill="#000000" font-family="sans-serif" font-size="13" lengthAdjust="spacing" textLength="164.2942" x="1013.2417" y="314.201">possibly spin up a new one</text></g><g class="message" data-participant-1="Miner" data-participant-2="Executor"><polygon fill="#181818" points="1283.546,360.716,1293.546,364.716,1283.546,368.716,1287.546,364.716" style="stroke:#181818;stroke-width:1;"/><line style="stroke:#181818;stroke-width:1;" x1="1006.2417" x2="1289.546" y1="364.716" y2="364.716"/><text fill="#000000" font-family="sans-serif" font-size="13" lengthAdjust="spacing" textLength="130.6501" x="1013.2417" y="358.907">Pass initial job details</text></g><g class="message" data-participant-1="Executor" data-participant-2="Miner"><polygon fill="#181818" points="1017.2417,392.4221,1007.2417,396.4221,1017.2417,400.4221,1013.2417,396.4221" style="stroke:#181818;stroke-width:1;"/><line style="stroke:#181818;stroke-width:1;" x1="1011.2417" x2="1294.546" y1="396.4221" y2="396.4221"/><text fill="#000000" font-family="sans-serif" font-size="13" lengthAdjust="spacing" textLength="265.3043" x="1023.2417" y="390.6131">Report readiness (initial preparations done)</text></g><g class="message" data-participant-1="Miner" data-participant-2="Validator"><polygon fill="#181818" points="700.1174,424.1281,690.1174,428.1281,700.1174,432.1281,696.1174,428.1281" style="stroke:#181818;stroke-width:1;"/><line style="stroke:#181818;stroke-width:1;" x1="694.1174" x2="1005.2417" y1="428.1281" y2="428.1281"/><text fill="#000000" font-family="sans-serif" font-size="13" lengthAdjust="spacing" textLength="265.3043" x="706.1174" y="422.3191">Report readiness (initial preparations done)</text></g><g class="message" data-participant-1="Validator" data-participant-2="Miner"><polygon fill="#181818" points="994.2417,455.8341,1004.2417,459.8341,994.2417,463.8341,998.2417,459.8341" style="stroke:#181818;stroke-width:1;"/><line style="stroke:#181818;stroke-width:1;" x1="689.1174" x2="1000.2417" y1="459.8341" y2="459.8341"/><text fill="#000000" font-family="sans-serif" font-size="13" lengthAdjust="spacing" textLength="114.1011" x="696.1174" y="454.0251">Send all job details</text></g><g class="message" data-participant-1="Miner" data-participant-2="Executor"><polygon fill="#181818" points="1283.546,487.5401,1293.546,491.5401,1283.546,495.5401,1287.546,491.5401" style="stroke:#181818;stroke-width:1;"/><line style="stroke:#181818;stroke-width:1;" x1="1006.2417" x2="1289.546" y1="491.5401" y2="491.5401"/><text fill="#000000" font-family="sans-serif" font-size="13" lengthAdjust="spacing" textLength="114.1011" x="1013.2417" y="485.7311">Send all job details</text></g><path d="M1249.6641,506.5401 L1316.6471,506.5401 L1316.6471,516.2461 L1306.6471,526.2461 L1249.6641,526.2461 L1249.6641,506.5401" fill="#EEEEEE" style="stroke:#000000;stroke-width:1.5;"/><rect fill="none" height="51.412" style="stroke:#000000;stroke-width:1.5;" width="407.5379" x="1249.6641" y="506.5401"/><text fill="#000000" font-family="sans-serif" font-size="13" font-weight="bold" lengthAdjust="spacing" textLength="21.983" x="1264.6641" y="521.4371">opt</text><text fill="#000000" font-family="sans-serif" font-size="11" font-weight="bold" lengthAdjust="spacing" textLength="149.5659" x="1331.6471" y="520.299">[job requires fetching data]</text><g class="message" data-participant-1="Executor" data-participant-2="Storage"><polygon fill="#181818" points="1602.526,545.9521,1612.526,549.9521,1602.526,553.9521,1606.526,549.9521" style="stroke:#181818;stroke-width:1;"/><line style="stroke:#181818;stroke-width:1;" x1="1295.546" x2="1608.526" y1="549.9521" y2="549.9521"/><text fill="#000000" font-family="sans-serif" font-size="13" lengthAdjust="spacing" textLength="63.7001" x="1302.546" y="544.1431">Fetch data</text></g><g class="message" data-participant-1="Executor" data-participant-2="Job"><polygon fill="#181818" points="1537.3992,584.6582,1547.3992,588.6582,1537.3992,592.6582,1541.3992,588.6582" style="stroke:#181818;stroke-width:1;"/><line style="stroke:#181818;stroke-width:1;" x1="1295.546" x2="1543.3992" y1="588.6582" y2="588.6582"/><text fill="#000000" font-family="sans-serif" font-size="13" lengthAdjust="spacing" textLength="102.6091" x="1302.546" y="582.8492">Start Job process</text></g><g class="message" data-participant-1="Executor" data-participant-2="Job"><polygon fill="#181818" points="1537.3992,634.0702,1547.3992,638.0702,1537.3992,642.0702,1541.3992,638.0702" style="stroke:#181818;stroke-width:1;"/><line style="stroke:#181818;stroke-width:1;stroke-dasharray:2.0,2.0;" x1="1295.546" x2="1543.3992" y1="638.0702" y2="638.0702"/><text fill="#000000" font-family="sans-serif" font-size="13" lengthAdjust="spacing" textLength="147.6802" x="1302.546" y="614.5552">Attempt connecting to a</text><text fill="#000000" font-family="sans-serif" font-size="13" lengthAdjust="spacing" textLength="172.1071" x="1302.546" y="632.2612">predefined websocket route</text></g><g class="message" data-participant-1="Job" data-participant-2="Executor"><polygon fill="#181818" points="1306.546,665.7762,1296.546,669.7762,1306.546,673.7762,1302.546,669.7762" style="stroke:#181818;stroke-width:1;"/><line style="stroke:#181818;stroke-width:1;" x1="1300.546" x2="1548.3992" y1="669.7762" y2="669.7762"/><text fill="#000000" font-family="sans-serif" font-size="13" lengthAdjust="spacing" textLength="229.8532" x="1312.546" y="663.9672">Report readiness for serving requests</text></g><g class="message" data-participant-1="Executor" data-participant-2="Miner"><polygon fill="#181818" points="1017.2417,697.4822,1007.2417,701.4822,1017.2417,705.4822,1013.2417,701.4822" style="stroke:#181818;stroke-width:1;"/><line style="stroke:#181818;stroke-width:1;" x1="1011.2417" x2="1294.546" y1="701.4822" y2="701.4822"/><text fill="#000000" font-family="sans-serif" font-size="13" lengthAdjust="spacing" textLength="229.8532" x="1023.2417" y="695.6732">Report readiness for serving requests</text></g><g class="message" data-participant-1="Miner" data-participant-2="Validator"><polygon fill="#181818" points="700.1174,764.6003,690.1174,768.6003,700.1174,772.6003,696.1174,768.6003" style="stroke:#181818;stroke-width:1;"/><line style="stroke:#181818;stroke-width:1;" x1="694.1174" x2="1005.2417" y1="768.6003" y2="768.6003"/><text fill="#000000" font-family="sans-serif" font-size="13" lengthAdjust="spacing" textLength="233.3372" x="706.1174" y="727.3792">Report readiness for serving requests,</text><text fill="#000000" font-family="sans-serif" font-size="13" lengthAdjust="spacing" textLength="196.2612" x="706.1174" y="745.0853">provide Job IP address, port and</text><text fill="#000000" font-family="sans-serif" font-size="13" font-weight="bold" lengthAdjust="spacing" textLength="89.9991" x="905.7586" y="745.0853">Job public key</text><text fill="#000000" font-family="sans-serif" font-size="13" lengthAdjust="spacing" textLength="3.484" x="995.7577" y="745.0853">.</text><text fill="#000000" font-family="sans-serif" font-size="13" lengthAdjust="spacing" textLength="208.5722" x="706.1174" y="762.7913">This is signed with Miner's hotkey.</text></g><g class="message" data-participant-1="Validator" data-participant-2="Facilitator"><polygon fill="#181818" points="386.4772,814.0123,376.4772,818.0123,386.4772,822.0123,382.4772,818.0123" style="stroke:#181818;stroke-width:1;"/><line style="stroke:#181818;stroke-width:1;" x1="380.4772" x2="688.1174" y1="818.0123" y2="818.0123"/><text fill="#000000" font-family="sans-serif" font-size="13" lengthAdjust="spacing" textLength="233.3372" x="392.4772" y="794.4973">Report readiness for serving requests,</text><text fill="#000000" font-family="sans-serif" font-size="13" lengthAdjust="spacing" textLength="196.2612" x="392.4772" y="812.2033">provide Job IP address, port and</text><text fill="#000000" font-family="sans-serif" font-size="13" font-weight="bold" lengthAdjust="spacing" textLength="89.9991" x="592.1184" y="812.2033">Job public key</text></g><g class="message" data-participant-1="Facilitator" data-participant-2="Client"><polygon fill="#181818" points="72.8369,863.4243,62.8369,867.4243,72.8369,871.4243,68.8369,867.4243" style="stroke:#181818;stroke-width:1;"/><line style="stroke:#181818;stroke-width:1;" x1="66.8369" x2="374.4772" y1="867.4243" y2="867.4243"/><text fill="#000000" font-family="sans-serif" font-size="13" lengthAdjust="spacing" textLength="233.3372" x="78.8369" y="843.9093">Report readiness for serving requests,</text><text fill="#000000" font-family="sans-serif" font-size="13" lengthAdjust="spacing" textLength="196.2612" x="78.8369" y="861.6153">provide Job IP address, port and</text><text fill="#000000" font-family="sans-serif" font-size="13" font-weight="bold" lengthAdjust="spacing" textLength="89.9991" x="278.4781" y="861.6153">Job public key</text></g><path d="M10,882.4243 L83.34,882.4243 L83.34,892.1304 L73.34,902.1304 L10,902.1304 L10,882.4243" fill="#EEEEEE" style="stroke:#000000;stroke-width:1.5;"/><rect fill="none" height="297.7662" style="stroke:#000000;stroke-width:1.5;" width="1571.8501" x="10" y="882.4243"/><text fill="#000000" font-family="sans-serif" font-size="13" font-weight="bold" lengthAdjust="spacing" textLength="28.34" x="25" y="897.3214">loop</text><text fill="#000000" font-family="sans-serif" font-size="11" font-weight="bold" lengthAdjust="spacing" textLength="273.2931" x="98.34" y="896.1833">[until Client terminates the job or timeout occurs]</text><g class="message" data-participant-1="Client" data-participant-2="Job"><polygon fill="#181818" points="1542.3992,939.5424,1552.3992,943.5424,1542.3992,947.5424,1546.3992,943.5424" style="stroke:#181818;stroke-width:1;"/><line style="stroke:#181818;stroke-width:1;" x1="61.8369" x2="1548.3992" y1="943.5424" y2="943.5424"/><text fill="#000000" font-family="sans-serif" font-size="13" lengthAdjust="spacing" textLength="284.8693" x="68.8369" y="920.0274">Send request, it can be a streamed or buffered</text><text fill="#000000" font-family="sans-serif" font-size="13" lengthAdjust="spacing" textLength="278.3303" x="68.8369" y="937.7334">HTTP or a websocket. Request is signed using</text><text fill="#000000" font-family="sans-serif" font-size="13" font-weight="bold" lengthAdjust="spacing" textLength="88.6471" x="350.5472" y="937.7334">client keypair</text><text fill="#000000" font-family="sans-serif" font-size="13" lengthAdjust="spacing" textLength="3.484" x="439.1943" y="937.7334">.</text></g><g class="message" data-participant-1="Job" data-participant-2="Client"><polygon fill="#181818" points="72.8369,1006.6604,62.8369,1010.6604,72.8369,1014.6604,68.8369,1010.6604" style="stroke:#181818;stroke-width:1;"/><line style="stroke:#181818;stroke-width:1;" x1="66.8369" x2="1548.3992" y1="1010.6604" y2="1010.6604"/><text fill="#000000" font-family="sans-serif" font-size="13" lengthAdjust="spacing" textLength="333.8142" x="78.8369" y="969.4394">Reply. Before the transmission ends, sign input/output</text><text fill="#000000" font-family="sans-serif" font-size="13" lengthAdjust="spacing" textLength="228.7872" x="78.8369" y="987.1454">digest (or full value(s) in case of texts)</text><text fill="#000000" font-family="sans-serif" font-size="13" lengthAdjust="spacing" textLength="187.7722" x="78.8369" y="1004.8514">with the private counterpart of</text><text fill="#000000" font-family="sans-serif" font-size="13" font-weight="bold" lengthAdjust="spacing" textLength="89.9991" x="269.9891" y="1004.8514">Job public key</text><text fill="#000000" font-family="sans-serif" font-size="13" lengthAdjust="spacing" textLength="3.484" x="359.9882" y="1004.8514">.</text></g><path d="M20,1025.6604 L86.983,1025.6604 L86.983,1035.3665 L76.983,1045.3665 L20,1045.3665 L20,1025.6604" fill="#EEEEEE" style="stroke:#000000;stroke-width:1.5;"/><rect fill="none" height="147.5301" style="stroke:#000000;stroke-width:1.5;" width="414.9221" x="20" y="1025.6604"/><text fill="#000000" font-family="sans-serif" font-size="13" font-weight="bold" lengthAdjust="spacing" textLength="21.983" x="35" y="1040.5575">opt</text><text fill="#000000" font-family="sans-serif" font-size="11" font-weight="bold" lengthAdjust="spacing" textLength="195.7986" x="101.983" y="1039.4194">[If this is a cross-validation request]</text><g class="message" data-participant-1="Client" data-participant-2="Client"><line style="stroke:#181818;stroke-width:1;" x1="61.8369" x2="103.8369" y1="1069.0725" y2="1069.0725"/><line style="stroke:#181818;stroke-width:1;" x1="103.8369" x2="103.8369" y1="1069.0725" y2="1082.0725"/><line style="stroke:#181818;stroke-width:1;" x1="62.8369" x2="103.8369" y1="1082.0725" y2="1082.0725"/><polygon fill="#181818" points="72.8369,1078.0725,62.8369,1082.0725,72.8369,1086.0725,68.8369,1082.0725" style="stroke:#181818;stroke-width:1;"/><text fill="#000000" font-family="sans-serif" font-size="13" lengthAdjust="spacing" textLength="179.8941" x="68.8369" y="1063.2635">Asses validity of the reposnse</text></g><path d="M30,1097.0725 L96.983,1097.0725 L96.983,1106.7785 L86.983,1116.7785 L30,1116.7785 L30,1097.0725" fill="#EEEEEE" style="stroke:#000000;stroke-width:1.5;"/><rect fill="none" height="69.118" style="stroke:#000000;stroke-width:1.5;" width="394.9221" x="30" y="1097.0725"/><text fill="#000000" font-family="sans-serif" font-size="13" font-weight="bold" lengthAdjust="spacing" textLength="21.983" x="45" y="1111.9695">opt</text><text fill="#000000" font-family="sans-serif" font-size="11" font-weight="bold" lengthAdjust="spacing" textLength="113.5962" x="111.983" y="1110.8314">[if reponse is invalid]</text><g class="message" data-participant-1="Client" data-participant-2="Facilitator"><polygon fill="#181818" points="363.4772,1154.1905,373.4772,1158.1905,363.4772,1162.1905,367.4772,1158.1905" style="stroke:#181818;stroke-width:1;"/><line style="stroke:#181818;stroke-width:1;" x1="61.8369" x2="369.4772" y1="1158.1905" y2="1158.1905"/><text fill="#000000" font-family="sans-serif" font-size="13" lengthAdjust="spacing" textLength="245.5443" x="68.8369" y="1134.6755">Send info about malicious miner, signed</text><text fill="#000000" font-family="sans-serif" font-size="13" lengthAdjust="spacing" textLength="264.0172" x="68.8369" y="1152.3815">with a validator (not sn12 validator) hotkey.</text></g><g class="message" data-participant-1="Job" data-participant-2="Executor"><polygon fill="#181818" points="1306.546,1206.8965,1296.546,1210.8965,1306.546,1214.8965,1302.546,1210.8965" style="stroke:#181818;stroke-width:1;"/><line style="stroke:#181818;stroke-width:1;" x1="1300.546" x2="1553.3992" y1="1210.8965" y2="1210.8965"/><text fill="#000000" font-family="sans-serif" font-size="13" lengthAdjust="spacing" textLength="78.1951" x="1312.546" y="1205.0875">Report finish</text></g><path d="M1249.6641,1225.8965 L1316.6471,1225.8965 L1316.6471,1235.6026 L1306.6471,1245.6026 L1249.6641,1245.6026 L1249.6641,1225.8965" fill="#EEEEEE" style="stroke:#000000;stroke-width:1.5;"/><rect fill="none" height="51.412" style="stroke:#000000;stroke-width:1.5;" width="407.5379" x="1249.6641" y="1225.8965"/><text fill="#000000" font-family="sans-serif" font-size="13" font-weight="bold" lengthAdjust="spacing" textLength="21.983" x="1264.6641" y="1240.7936">opt</text><text fill="#000000" font-family="sans-serif" font-size="11" font-weight="bold" lengthAdjust="spacing" textLength="158.9378" x="1331.6471" y="1239.6555">[job requires uploading data]</text><g class="message" data-participant-1="Executor" data-participant-2="Storage"><polygon fill="#181818" points="1602.526,1265.3086,1612.526,1269.3086,1602.526,1273.3086,1606.526,1269.3086" style="stroke:#181818;stroke-width:1;"/><line style="stroke:#181818;stroke-width:1;" x1="1295.546" x2="1608.526" y1="1269.3086" y2="1269.3086"/><text fill="#000000" font-family="sans-serif" font-size="13" lengthAdjust="spacing" textLength="74.6591" x="1302.546" y="1263.4996">Upload data</text></g><g class="message" data-participant-1="Executor" data-participant-2="Storage"><polygon fill="#181818" points="1602.526,1304.0146,1612.526,1308.0146,1602.526,1312.0146,1606.526,1308.0146" style="stroke:#181818;stroke-width:1;"/><line style="stroke:#181818;stroke-width:1;" x1="1295.546" x2="1608.526" y1="1308.0146" y2="1308.0146"/><text fill="#000000" font-family="sans-serif" font-size="13" lengthAdjust="spacing" textLength="153.9592" x="1302.546" y="1302.2056">Upload stdout and stderr</text></g><g class="message" data-participant-1="Executor" data-participant-2="Miner"><polygon fill="#181818" points="1017.2417,1335.7206,1007.2417,1339.7206,1017.2417,1343.7206,1013.2417,1339.7206" style="stroke:#181818;stroke-width:1;"/><line style="stroke:#181818;stroke-width:1;" x1="1011.2417" x2="1294.546" y1="1339.7206" y2="1339.7206"/><text fill="#000000" font-family="sans-serif" font-size="13" lengthAdjust="spacing" textLength="98.5401" x="1023.2417" y="1333.9116">Report job done</text></g><g class="message" data-participant-1="Miner" data-participant-2="Validator"><polygon fill="#181818" points="700.1174,1367.4266,690.1174,1371.4266,700.1174,1375.4266,696.1174,1371.4266" style="stroke:#181818;stroke-width:1;"/><line style="stroke:#181818;stroke-width:1;" x1="694.1174" x2="1005.2417" y1="1371.4266" y2="1371.4266"/><text fill="#000000" font-family="sans-serif" font-size="13" lengthAdjust="spacing" textLength="98.5401" x="706.1174" y="1365.6176">Report job done</text></g><g class="message" data-participant-1="Validator" data-participant-2="Facilitator"><polygon fill="#181818" points="386.4772,1399.1326,376.4772,1403.1326,386.4772,1407.1326,382.4772,1403.1326" style="stroke:#181818;stroke-width:1;"/><line style="stroke:#181818;stroke-width:1;" x1="380.4772" x2="688.1174" y1="1403.1326" y2="1403.1326"/><text fill="#000000" font-family="sans-serif" font-size="13" lengthAdjust="spacing" textLength="98.5401" x="392.4772" y="1397.3236">Report job done</text></g><g class="message" data-participant-1="Facilitator" data-participant-2="Client"><polygon fill="#181818" points="72.8369,1430.8387,62.8369,1434.8387,72.8369,1438.8387,68.8369,1434.8387" style="stroke:#181818;stroke-width:1;"/><line style="stroke:#181818;stroke-width:1;" x1="66.8369" x2="374.4772" y1="1434.8387" y2="1434.8387"/><text fill="#000000" font-family="sans-serif" font-size="13" lengthAdjust="spacing" textLength="98.5401" x="78.8369" y="1429.0297">Report job done</text></g><!--SRC=[jLLDJzj04BtxLupKGvC8KhL73fKeAYsLAg52Uyfbinx7qpYxxiuumB_lxFeZ3WcK7k1YCdvlvsFVF9zRyG4kAa8dMMs2aANQE85BOwaYCVfwB_xBL9GVHB-Jm_t8vtkqpMFODx_S-tsZ0BF2B6iBEFtOFi_W2-fvHX0Cp6Os1M6D3xMXC9l1P4i6Ybs1mFbwEfmnglmCRj3byDil8KSnL34O_IqbGjqiAxBnq6n4UCI-ABrdtFMSs6slUwG1S9Wm6zwTVapC3aAEX4or1qtl1zX5YNODHSmAHK04x4Pwid2rPwPbzG1SauEcLeZ3E_0E-qFw-P_1jM4-cgw731b_OEs3G42JQq1PavvM1zHxCqBUCUIQPjhd6RN-N_GdncAgeoFPTNCKbVbQKY3WduO2CXGejYIt0irXCj2_NRUTwixWCe9QX9wQZGQYGjLKebADcjNwlTM6CcE5jb6MCVYcebKfAxqPjsDsr7CHt6XDrZk7Ij92n8FHYmkOOw5DvN27I_PsZJentmXcIXmtUZ3Dg0J6i8s7nJwHXRCNNE9HtWjkxnWlIY_uBUNj2AwkmUIvpfjF8B7ZVincQMJ3VircyuMxBKb5oC2qIhsJbEqYlMKelIXiFfR4tXQ-OcNxQzoxpsicp2hlQsYSKDNPBWY63JcL5ITdYZhMV48RL5s0jxO9d2JSErohphW8NJ4dGAerus0P7PD5Az_ebFMKPLCKg9fRkA-tjzUGp6GGtbmxJVpHpJGScpmqtNcgO7y1SXFMhVxZkwJVqGYhXpbyGXqTfhOa6CSRKj_o3hHsdLDCgSvKD_9EEzN7mkMqYlLCjD2YqItVcgh12KyLfWsg5_j2vtKlF5su9ABavQ4jodgTAuRuXOcu8q9CXUOuRYE5edzSwScTIWtOe0vxkcqL6Ilk9ftGuxle6pvdrljB19A7LAPMfhxdsJ4Ej9Y8YXJNSCn5Bf46nFZmmqyPkK9zP1c5iL6Q9TymRE8YdNGtsCt5m7RuQasS5s3t_iCkDXsshiyP7R1_9ZSyxaVgNSHbzcY6XmRSr9MFw_Ey0_zCg9q5FmrXoMFJSQlqNmpXQUjBNuRHf_3Gv0R4Fondm3rd4mFeBm00]--></g></svg>