<svg xmlns="http://www.w3.org/2000/svg" xmlns:xlink="http://www.w3.org/1999/xlink" contentStyleType="text/css" data-diagram-type="SEQUENCE" height="2367px" preserveAspectRatio="none" style="width:1901px;height:2367px;background:#FFFFFF;" version="1.1" viewBox="0 0 1901 2367" width="1901px" zoomAndPan="magnify"><defs/><g><g><title>Job</title><rect fill="#90EE90" height="1453.7129" style="stroke:#181818;stroke-width:1;" width="10" x="1777.3182" y="588.6582"/></g><g><title>Job</title><rect fill="#006400" height="138.5301" style="stroke:#181818;stroke-width:1;" width="10" x="1782.3182" y="1479.6627"/></g><rect fill="none" height="51.412" style="stroke:#000000;stroke-width:1.5;" width="430.4569" x="1454.6641" y="506.5401"/><rect fill="none" height="1129.2407" style="stroke:#000000;stroke-width:1.5;" width="1886.121" x="9" y="882.4243"/><rect fill="none" height="522.1203" style="stroke:#000000;stroke-width:1.5;" width="1796.121" x="89" y="909.1304"/><rect fill="none" height="57.412" style="stroke:#000000;stroke-width:1.5;" width="494.8434" x="19" y="1494.6627"/><rect fill="none" height="209.9421" style="stroke:#000000;stroke-width:1.5;" width="1650.121" x="235" y="1633.1928"/><rect fill="none" height="147.5301" style="stroke:#000000;stroke-width:1.5;" width="414.9221" x="225" y="1857.1349"/><rect fill="none" height="69.118" style="stroke:#000000;stroke-width:1.5;" width="394.9221" x="235" y="1928.547"/><rect fill="none" height="51.412" style="stroke:#000000;stroke-width:1.5;" width="430.4569" x="1454.6641" y="2057.371"/><g><title>Client</title><rect fill="#000000" fill-opacity="0.00000" height="2200.2452" width="8" x="262.8369" y="84.0679"/><line style="stroke:#181818;stroke-width:0.5;stroke-dasharray:5.0,5.0;" x1="266" x2="266" y1="84.0679" y2="2284.3131"/></g><g><title>Facilitator</title><rect fill="#000000" fill-opacity="0.00000" height="2200.2452" width="8" x="576.4772" y="84.0679"/><line style="stroke:#181818;stroke-width:0.5;stroke-dasharray:5.0,5.0;" x1="580.0323" x2="580.0323" y1="84.0679" y2="2284.3131"/></g><g><title>Validator</title><rect fill="#000000" fill-opacity="0.00000" height="2200.2452" width="8" x="890.1174" y="84.0679"/><line style="stroke:#181818;stroke-width:0.5;stroke-dasharray:5.0,5.0;" x1="893.4935" x2="893.4935" y1="84.0679" y2="2284.3131"/></g><g><title>Miner</title><rect fill="#000000" fill-opacity="0.00000" height="2200.2452" width="8" x="1207.2417" y="84.0679"/><line style="stroke:#181818;stroke-width:0.5;stroke-dasharray:5.0,5.0;" x1="1210.9218" x2="1210.9218" y1="84.0679" y2="2284.3131"/></g><g><title>Executor</title><rect fill="#000000" fill-opacity="0.00000" height="2200.2452" width="8" x="1496.546" y="84.0679"/><line style="stroke:#181818;stroke-width:0.5;stroke-dasharray:5.0,5.0;" x1="1499.6641" x2="1499.6641" y1="84.0679" y2="2284.3131"/></g><g><title>Job</title><rect fill="#000000" fill-opacity="0.00000" height="2200.2452" width="8" x="1778.3182" y="84.0679"/><line style="stroke:#181818;stroke-width:0.5;stroke-dasharray:5.0,5.0;" x1="1781.8672" x2="1781.8672" y1="84.0679" y2="2284.3131"/></g><g><title>Storage</title><rect fill="#000000" fill-opacity="0.00000" height="2200.2452" width="8" x="1838.4451" y="84.0679"/><line style="stroke:#181818;stroke-width:0.5;stroke-dasharray:5.0,5.0;" x1="1841.7691" x2="1841.7691" y1="84.0679" y2="2284.3131"/></g><g class="participant participant-head" data-participant="Client"><text fill="#000000" font-family="sans-serif" font-size="14" lengthAdjust="spacing" textLength="37.6738" x="245" y="79.9659">Client</text><ellipse cx="266.8369" cy="13.5" fill="#E2E2F0" rx="8" ry="8" style="stroke:#181818;stroke-width:0.5;"/><path d="M266.8369,21.5 L266.8369,48.5 M253.8369,29.5 L279.8369,29.5 M266.8369,48.5 L253.8369,63.5 M266.8369,48.5 L279.8369,63.5" fill="none" style="stroke:#181818;stroke-width:0.5;"/></g><g class="participant participant-tail" data-participant="Client"><text fill="#000000" font-family="sans-serif" font-size="14" lengthAdjust="spacing" textLength="37.6738" x="245" y="2298.2791">Client</text><ellipse cx="266.8369" cy="2310.8811" fill="#E2E2F0" rx="8" ry="8" style="stroke:#181818;stroke-width:0.5;"/><path d="M266.8369,2318.8811 L266.8369,2345.8811 M253.8369,2326.8811 L279.8369,2326.8811 M266.8369,2345.8811 L253.8369,2360.8811 M266.8369,2345.8811 L279.8369,2360.8811" fill="none" style="stroke:#181818;stroke-width:0.5;"/></g><g class="participant participant-head" data-participant="Facilitator"><rect fill="#E2E2F0" height="33.0679" rx="2.5" ry="2.5" style="stroke:#181818;stroke-width:0.5;" width="78.8898" x="541.0323" y="50"/><text fill="#000000" font-family="sans-serif" font-size="14" lengthAdjust="spacing" textLength="64.8898" x="548.0323" y="71.9659">Facilitator</text></g><g class="participant participant-tail" data-participant="Facilitator"><rect fill="#E2E2F0" height="33.0679" rx="2.5" ry="2.5" style="stroke:#181818;stroke-width:0.5;" width="78.8898" x="541.0323" y="2283.3131"/><text fill="#000000" font-family="sans-serif" font-size="14" lengthAdjust="spacing" textLength="64.8898" x="548.0323" y="2305.2791">Facilitator</text></g><g class="participant participant-head" data-participant="Validator"><rect fill="#E2E2F0" height="33.0679" rx="2.5" ry="2.5" style="stroke:#181818;stroke-width:0.5;" width="73.2478" x="857.4935" y="50"/><text fill="#000000" font-family="sans-serif" font-size="14" lengthAdjust="spacing" textLength="59.2478" x="864.4935" y="71.9659">Validator</text></g><g class="participant participant-tail" data-participant="Validator"><rect fill="#E2E2F0" height="33.0679" rx="2.5" ry="2.5" style="stroke:#181818;stroke-width:0.5;" width="73.2478" x="857.4935" y="2283.3131"/><text fill="#000000" font-family="sans-serif" font-size="14" lengthAdjust="spacing" textLength="59.2478" x="864.4935" y="2305.2791">Validator</text></g><g class="participant participant-head" data-participant="Miner"><rect fill="#E2E2F0" height="33.0679" rx="2.5" ry="2.5" style="stroke:#181818;stroke-width:0.5;" width="52.6398" x="1184.9218" y="50"/><text fill="#000000" font-family="sans-serif" font-size="14" lengthAdjust="spacing" textLength="38.6398" x="1191.9218" y="71.9659">Miner</text></g><g class="participant participant-tail" data-participant="Miner"><rect fill="#E2E2F0" height="33.0679" rx="2.5" ry="2.5" style="stroke:#181818;stroke-width:0.5;" width="52.6398" x="1184.9218" y="2283.3131"/><text fill="#000000" font-family="sans-serif" font-size="14" lengthAdjust="spacing" textLength="38.6398" x="1191.9218" y="2305.2791">Miner</text></g><g class="participant participant-head" data-participant="Executor"><rect fill="#E2E2F0" height="33.0679" rx="2.5" ry="2.5" style="stroke:#181818;stroke-width:0.5;" width="71.7638" x="1464.6641" y="50"/><text fill="#000000" font-family="sans-serif" font-size="14" lengthAdjust="spacing" textLength="57.7638" x="1471.6641" y="71.9659">Executor</text></g><g class="participant participant-tail" data-participant="Executor"><rect fill="#E2E2F0" height="33.0679" rx="2.5" ry="2.5" style="stroke:#181818;stroke-width:0.5;" width="71.7638" x="1464.6641" y="2283.3131"/><text fill="#000000" font-family="sans-serif" font-size="14" lengthAdjust="spacing" textLength="57.7638" x="1471.6641" y="2305.2791">Executor</text></g><g class="participant participant-head" data-participant="Job"><rect fill="#E2E2F0" height="33.0679" rx="2.5" ry="2.5" style="stroke:#181818;stroke-width:0.5;" width="34.9019" x="1764.8672" y="50"/><text fill="#000000" font-family="sans-serif" font-size="14" lengthAdjust="spacing" textLength="20.9019" x="1771.8672" y="71.9659">Job</text></g><g class="participant participant-tail" data-participant="Job"><rect fill="#E2E2F0" height="33.0679" rx="2.5" ry="2.5" style="stroke:#181818;stroke-width:0.5;" width="34.9019" x="1764.8672" y="2283.3131"/><text fill="#000000" font-family="sans-serif" font-size="14" lengthAdjust="spacing" textLength="20.9019" x="1771.8672" y="2305.2791">Job</text></g><g class="participant participant-head" data-participant="Storage"><rect fill="#E2E2F0" height="33.0679" rx="2.5" ry="2.5" style="stroke:#181818;stroke-width:0.5;" width="65.3518" x="1809.7691" y="50"/><text fill="#000000" font-family="sans-serif" font-size="14" lengthAdjust="spacing" textLength="51.3518" x="1816.7691" y="71.9659">Storage</text></g><g class="participant participant-tail" data-participant="Storage"><rect fill="#E2E2F0" height="33.0679" rx="2.5" ry="2.5" style="stroke:#181818;stroke-width:0.5;" width="65.3518" x="1809.7691" y="2283.3131"/><text fill="#000000" font-family="sans-serif" font-size="14" lengthAdjust="spacing" textLength="51.3518" x="1816.7691" y="2305.2791">Storage</text></g><g><title>Job</title><rect fill="#90EE90" height="1453.7129" style="stroke:#181818;stroke-width:1;" width="10" x="1777.3182" y="588.6582"/></g><g><title>Job</title><rect fill="#006400" height="138.5301" style="stroke:#181818;stroke-width:1;" width="10" x="1782.3182" y="1479.6627"/></g><g class="message" data-participant-1="Client" data-participant-2="Client"><line style="stroke:#181818;stroke-width:1;" x1="266.8369" x2="308.8369" y1="117.7739" y2="117.7739"/><line style="stroke:#181818;stroke-width:1;" x1="308.8369" x2="308.8369" y1="117.7739" y2="130.7739"/><line style="stroke:#181818;stroke-width:1;" x1="267.8369" x2="308.8369" y1="130.7739" y2="130.7739"/><polygon fill="#181818" points="277.8369,126.7739,267.8369,130.7739,277.8369,134.7739,273.8369,130.7739" style="stroke:#181818;stroke-width:1;"/><text fill="#000000" font-family="sans-serif" font-size="13" lengthAdjust="spacing" textLength="67.522" x="273.8369" y="111.9649">Generate a</text><text fill="#000000" font-family="sans-serif" font-size="13" font-weight="bold" lengthAdjust="spacing" textLength="88.6471" x="344.739" y="111.9649">client keypair</text><text fill="#000000" font-family="sans-serif" font-size="13" lengthAdjust="spacing" textLength="110.9551" x="436.766" y="111.9649">(via facilitator sdk)</text></g><g class="message" data-participant-1="Client" data-participant-2="Facilitator"><polygon fill="#181818" points="568.4772,158.4799,578.4772,162.4799,568.4772,166.4799,572.4772,162.4799" style="stroke:#181818;stroke-width:1;"/><line style="stroke:#181818;stroke-width:1;" x1="266.8369" x2="574.4772" y1="162.4799" y2="162.4799"/><text fill="#000000" font-family="sans-serif" font-size="13" lengthAdjust="spacing" textLength="211.4972" x="273.8369" y="156.6709">Send job details and the public key</text></g><g class="message" data-participant-1="Facilitator" data-participant-2="Facilitator"><line style="stroke:#181818;stroke-width:1;" x1="580.4772" x2="622.4772" y1="194.186" y2="194.186"/><line style="stroke:#181818;stroke-width:1;" x1="622.4772" x2="622.4772" y1="194.186" y2="207.186"/><line style="stroke:#181818;stroke-width:1;" x1="581.4772" x2="622.4772" y1="207.186" y2="207.186"/><polygon fill="#181818" points="591.4772,203.186,581.4772,207.186,591.4772,211.186,587.4772,207.186" style="stroke:#181818;stroke-width:1;"/><text fill="#000000" font-family="sans-serif" font-size="13" lengthAdjust="spacing" textLength="169.8971" x="587.4772" y="188.377">Choose Validator and Miner</text></g><g class="message" data-participant-1="Facilitator" data-participant-2="Validator"><polygon fill="#181818" points="882.1174,234.892,892.1174,238.892,882.1174,242.892,886.1174,238.892" style="stroke:#181818;stroke-width:1;"/><line style="stroke:#181818;stroke-width:1;" x1="580.4772" x2="888.1174" y1="238.892" y2="238.892"/><text fill="#000000" font-family="sans-serif" font-size="13" lengthAdjust="spacing" textLength="96.7201" x="587.4772" y="233.083">Send job details</text></g><g class="message" data-participant-1="Validator" data-participant-2="Miner"><polygon fill="#181818" points="1199.2417,266.598,1209.2417,270.598,1199.2417,274.598,1203.2417,270.598" style="stroke:#181818;stroke-width:1;"/><line style="stroke:#181818;stroke-width:1;" x1="894.1174" x2="1205.2417" y1="270.598" y2="270.598"/><text fill="#000000" font-family="sans-serif" font-size="13" lengthAdjust="spacing" textLength="133.5361" x="901.1174" y="264.789">Send initial job details</text></g><g class="message" data-participant-1="Miner" data-participant-2="Miner"><line style="stroke:#181818;stroke-width:1;" x1="1211.2417" x2="1253.2417" y1="320.01" y2="320.01"/><line style="stroke:#181818;stroke-width:1;" x1="1253.2417" x2="1253.2417" y1="320.01" y2="333.01"/><line style="stroke:#181818;stroke-width:1;" x1="1212.2417" x2="1253.2417" y1="333.01" y2="333.01"/><polygon fill="#181818" points="1222.2417,329.01,1212.2417,333.01,1222.2417,337.01,1218.2417,333.01" style="stroke:#181818;stroke-width:1;"/><text fill="#000000" font-family="sans-serif" font-size="13" lengthAdjust="spacing" textLength="157.0141" x="1218.2417" y="296.495">Check for a free executor,</text><text fill="#000000" font-family="sans-serif" font-size="13" lengthAdjust="spacing" textLength="164.2942" x="1218.2417" y="314.201">possibly spin up a new one</text></g><g class="message" data-participant-1="Miner" data-participant-2="Executor"><polygon fill="#181818" points="1488.546,360.716,1498.546,364.716,1488.546,368.716,1492.546,364.716" style="stroke:#181818;stroke-width:1;"/><line style="stroke:#181818;stroke-width:1;" x1="1211.2417" x2="1494.546" y1="364.716" y2="364.716"/><text fill="#000000" font-family="sans-serif" font-size="13" lengthAdjust="spacing" textLength="130.6501" x="1218.2417" y="358.907">Pass initial job details</text></g><g class="message" data-participant-1="Executor" data-participant-2="Miner"><polygon fill="#181818" points="1222.2417,392.4221,1212.2417,396.4221,1222.2417,400.4221,1218.2417,396.4221" style="stroke:#181818;stroke-width:1;"/><line style="stroke:#181818;stroke-width:1;" x1="1216.2417" x2="1499.546" y1="396.4221" y2="396.4221"/><text fill="#000000" font-family="sans-serif" font-size="13" lengthAdjust="spacing" textLength="265.3043" x="1228.2417" y="390.6131">Report readiness (initial preparations done)</text></g><g class="message" data-participant-1="Miner" data-participant-2="Validator"><polygon fill="#181818" points="905.1174,424.1281,895.1174,428.1281,905.1174,432.1281,901.1174,428.1281" style="stroke:#181818;stroke-width:1;"/><line style="stroke:#181818;stroke-width:1;" x1="899.1174" x2="1210.2417" y1="428.1281" y2="428.1281"/><text fill="#000000" font-family="sans-serif" font-size="13" lengthAdjust="spacing" textLength="265.3043" x="911.1174" y="422.3191">Report readiness (initial preparations done)</text></g><g class="message" data-participant-1="Validator" data-participant-2="Miner"><polygon fill="#181818" points="1199.2417,455.8341,1209.2417,459.8341,1199.2417,463.8341,1203.2417,459.8341" style="stroke:#181818;stroke-width:1;"/><line style="stroke:#181818;stroke-width:1;" x1="894.1174" x2="1205.2417" y1="459.8341" y2="459.8341"/><text fill="#000000" font-family="sans-serif" font-size="13" lengthAdjust="spacing" textLength="114.1011" x="901.1174" y="454.0251">Send all job details</text></g><g class="message" data-participant-1="Miner" data-participant-2="Executor"><polygon fill="#181818" points="1488.546,487.5401,1498.546,491.5401,1488.546,495.5401,1492.546,491.5401" style="stroke:#181818;stroke-width:1;"/><line style="stroke:#181818;stroke-width:1;" x1="1211.2417" x2="1494.546" y1="491.5401" y2="491.5401"/><text fill="#000000" font-family="sans-serif" font-size="13" lengthAdjust="spacing" textLength="114.1011" x="1218.2417" y="485.7311">Send all job details</text></g><path d="M1454.6641,506.5401 L1521.6471,506.5401 L1521.6471,516.2461 L1511.6471,526.2461 L1454.6641,526.2461 L1454.6641,506.5401" fill="#EEEEEE" style="stroke:#000000;stroke-width:1.5;"/><rect fill="none" height="51.412" style="stroke:#000000;stroke-width:1.5;" width="430.4569" x="1454.6641" y="506.5401"/><text fill="#000000" font-family="sans-serif" font-size="13" font-weight="bold" lengthAdjust="spacing" textLength="21.983" x="1469.6641" y="521.4371">opt</text><text fill="#000000" font-family="sans-serif" font-size="11" font-weight="bold" lengthAdjust="spacing" textLength="149.5659" x="1536.6471" y="520.299">[job requires fetching data]</text><g class="message" data-participant-1="Executor" data-participant-2="Storage"><polygon fill="#181818" points="1830.4451,545.9521,1840.4451,549.9521,1830.4451,553.9521,1834.4451,549.9521" style="stroke:#181818;stroke-width:1;"/><line style="stroke:#181818;stroke-width:1;" x1="1500.546" x2="1836.4451" y1="549.9521" y2="549.9521"/><text fill="#000000" font-family="sans-serif" font-size="13" lengthAdjust="spacing" textLength="63.7001" x="1507.546" y="544.1431">Fetch data</text></g><g class="message" data-participant-1="Executor" data-participant-2="Job"><polygon fill="#181818" points="1765.3182,584.6582,1775.3182,588.6582,1765.3182,592.6582,1769.3182,588.6582" style="stroke:#181818;stroke-width:1;"/><line style="stroke:#181818;stroke-width:1;" x1="1500.546" x2="1771.3182" y1="588.6582" y2="588.6582"/><text fill="#000000" font-family="sans-serif" font-size="13" lengthAdjust="spacing" textLength="102.6091" x="1507.546" y="582.8492">Start Job process</text></g><g class="message" data-participant-1="Executor" data-participant-2="Job"><polygon fill="#181818" points="1765.3182,634.0702,1775.3182,638.0702,1765.3182,642.0702,1769.3182,638.0702" style="stroke:#181818;stroke-width:1;"/><line style="stroke:#181818;stroke-width:1;stroke-dasharray:2.0,2.0;" x1="1500.546" x2="1771.3182" y1="638.0702" y2="638.0702"/><text fill="#000000" font-family="sans-serif" font-size="13" lengthAdjust="spacing" textLength="147.6802" x="1507.546" y="614.5552">Attempt connecting to a</text><text fill="#000000" font-family="sans-serif" font-size="13" lengthAdjust="spacing" textLength="172.1071" x="1507.546" y="632.2612">predefined websocket route</text></g><g class="message" data-participant-1="Job" data-participant-2="Executor"><polygon fill="#181818" points="1511.546,665.7762,1501.546,669.7762,1511.546,673.7762,1507.546,669.7762" style="stroke:#181818;stroke-width:1;"/><line style="stroke:#181818;stroke-width:1;" x1="1505.546" x2="1776.3182" y1="669.7762" y2="669.7762"/><text fill="#000000" font-family="sans-serif" font-size="13" lengthAdjust="spacing" textLength="229.8532" x="1517.546" y="663.9672">Report readiness for serving requests</text></g><g class="message" data-participant-1="Executor" data-participant-2="Miner"><polygon fill="#181818" points="1222.2417,697.4822,1212.2417,701.4822,1222.2417,705.4822,1218.2417,701.4822" style="stroke:#181818;stroke-width:1;"/><line style="stroke:#181818;stroke-width:1;" x1="1216.2417" x2="1499.546" y1="701.4822" y2="701.4822"/><text fill="#000000" font-family="sans-serif" font-size="13" lengthAdjust="spacing" textLength="229.8532" x="1228.2417" y="695.6732">Report readiness for serving requests</text></g><g class="message" data-participant-1="Miner" data-participant-2="Validator"><polygon fill="#181818" points="905.1174,764.6003,895.1174,768.6003,905.1174,772.6003,901.1174,768.6003" style="stroke:#181818;stroke-width:1;"/><line style="stroke:#181818;stroke-width:1;" x1="899.1174" x2="1210.2417" y1="768.6003" y2="768.6003"/><text fill="#000000" font-family="sans-serif" font-size="13" lengthAdjust="spacing" textLength="233.3372" x="911.1174" y="727.3792">Report readiness for serving requests,</text><text fill="#000000" font-family="sans-serif" font-size="13" lengthAdjust="spacing" textLength="196.2612" x="911.1174" y="745.0853">provide Job IP address, port and</text><text fill="#000000" font-family="sans-serif" font-size="13" font-weight="bold" lengthAdjust="spacing" textLength="89.9991" x="1110.7586" y="745.0853">Job public key</text><text fill="#000000" font-family="sans-serif" font-size="13" lengthAdjust="spacing" textLength="3.484" x="1200.7577" y="745.0853">.</text><text fill="#000000" font-family="sans-serif" font-size="13" lengthAdjust="spacing" textLength="208.5722" x="911.1174" y="762.7913">This is signed with Miner's hotkey.</text></g><g class="message" data-participant-1="Validator" data-participant-2="Facilitator"><polygon fill="#181818" points="591.4772,814.0123,581.4772,818.0123,591.4772,822.0123,587.4772,818.0123" style="stroke:#181818;stroke-width:1;"/><line style="stroke:#181818;stroke-width:1;" x1="585.4772" x2="893.1174" y1="818.0123" y2="818.0123"/><text fill="#000000" font-family="sans-serif" font-size="13" lengthAdjust="spacing" textLength="233.3372" x="597.4772" y="794.4973">Report readiness for serving requests,</text><text fill="#000000" font-family="sans-serif" font-size="13" lengthAdjust="spacing" textLength="196.2612" x="597.4772" y="812.2033">provide Job IP address, port and</text><text fill="#000000" font-family="sans-serif" font-size="13" font-weight="bold" lengthAdjust="spacing" textLength="89.9991" x="797.1184" y="812.2033">Job public key</text></g><g class="message" data-participant-1="Facilitator" data-participant-2="Client"><polygon fill="#181818" points="277.8369,863.4243,267.8369,867.4243,277.8369,871.4243,273.8369,867.4243" style="stroke:#181818;stroke-width:1;"/><line style="stroke:#181818;stroke-width:1;" x1="271.8369" x2="579.4772" y1="867.4243" y2="867.4243"/><text fill="#000000" font-family="sans-serif" font-size="13" lengthAdjust="spacing" textLength="233.3372" x="283.8369" y="843.9093">Report readiness for serving requests,</text><text fill="#000000" font-family="sans-serif" font-size="13" lengthAdjust="spacing" textLength="196.2612" x="283.8369" y="861.6153">provide Job IP address, port and</text><text fill="#000000" font-family="sans-serif" font-size="13" font-weight="bold" lengthAdjust="spacing" textLength="89.9991" x="483.4781" y="861.6153">Job public key</text></g><path d="M9,882.4243 L82.34,882.4243 L82.34,892.1304 L72.34,902.1304 L9,902.1304 L9,882.4243" fill="#EEEEEE" style="stroke:#000000;stroke-width:1.5;"/><rect fill="none" height="1129.2407" style="stroke:#000000;stroke-width:1.5;" width="1886.121" x="9" y="882.4243"/><text fill="#000000" font-family="sans-serif" font-size="13" font-weight="bold" lengthAdjust="spacing" textLength="28.34" x="24" y="897.3214">loop</text><text fill="#000000" font-family="sans-serif" font-size="11" font-weight="bold" lengthAdjust="spacing" textLength="273.2931" x="97.34" y="896.1833">[until Client terminates the job or timeout occurs]</text><path d="M89,909.1304 L155.983,909.1304 L155.983,918.8364 L145.983,928.8364 L89,928.8364 L89,909.1304" fill="#EEEEEE" style="stroke:#000000;stroke-width:1.5;"/><rect fill="none" height="522.1203" style="stroke:#000000;stroke-width:1.5;" width="1796.121" x="89" y="909.1304"/><text fill="#000000" font-family="sans-serif" font-size="13" font-weight="bold" lengthAdjust="spacing" textLength="21.983" x="104" y="924.0274">opt</text><text fill="#000000" font-family="sans-serif" font-size="11" font-weight="bold" lengthAdjust="spacing" textLength="282.632" x="170.983" y="922.8893">[if uploading or downloading large data is required]</text><g class="message" data-participant-1="Client" data-participant-2="Facilitator"><polygon fill="#181818" points="568.4772,983.9544,578.4772,987.9544,568.4772,991.9544,572.4772,987.9544" style="stroke:#181818;stroke-width:1;"/><line style="stroke:#181818;stroke-width:1;" x1="266.8369" x2="574.4772" y1="987.9544" y2="987.9544"/><text fill="#000000" font-family="sans-serif" font-size="13" lengthAdjust="spacing" textLength="99.3201" x="273.8369" y="946.7334">send volume list</text><text fill="#000000" font-family="sans-serif" font-size="13" lengthAdjust="spacing" textLength="236.7822" x="273.8369" y="964.4394">(contains info about data to be fetched</text><text fill="#000000" font-family="sans-serif" font-size="13" lengthAdjust="spacing" textLength="238.5502" x="273.8369" y="982.1454">before and uploaded after the request)</text></g><path d="M122,1000.9544 L122,1027.9544 L410,1027.9544 L410,1010.9544 L400,1000.9544 L122,1000.9544" fill="#FEFFDD" style="stroke:#181818;stroke-width:0.5;"/><path d="M400,1000.9544 L400,1010.9544 L410,1010.9544 L400,1000.9544" fill="#FEFFDD" style="stroke:#181818;stroke-width:0.5;"/><text fill="#000000" font-family="sans-serif" font-size="13" lengthAdjust="spacing" textLength="49.803" x="128" y="1019.8514">assign a</text><text fill="#000000" font-family="sans-serif" font-size="13" font-weight="bold" lengthAdjust="spacing" textLength="124.4231" x="181.183" y="1019.8514">volume message id</text><text fill="#000000" font-family="sans-serif" font-size="13" lengthAdjust="spacing" textLength="86.3591" x="308.9861" y="1019.8514">to the request</text><path d="M99,1038.6604 L99,1101.6604 L434,1101.6604 L434,1048.6604 L424,1038.6604 L99,1038.6604" fill="#FEFFDD" style="stroke:#181818;stroke-width:0.5;"/><path d="M424,1038.6604 L424,1048.6604 L434,1048.6604 L424,1038.6604" fill="#FEFFDD" style="stroke:#181818;stroke-width:0.5;"/><text fill="#000000" font-family="sans-serif" font-size="13" font-weight="bold" lengthAdjust="spacing" textLength="126.1651" x="105" y="1057.5575">volume uniqueness</text><text fill="#000000" font-family="sans-serif" font-size="13" lengthAdjust="spacing" textLength="107.2241" x="234.5451" y="1057.5575">Client will have to</text><text fill="#000000" font-family="sans-serif" font-size="13" lengthAdjust="spacing" textLength="226.6162" x="105" y="1075.2635">make sure file names are unique and</text><text fill="#000000" font-family="sans-serif" font-size="13" lengthAdjust="spacing" textLength="314.3663" x="105" y="1092.9695">store them to pass them to Job in subsequent steps</text><g class="message" data-participant-1="Facilitator" data-participant-2="Validator"><polygon fill="#181818" points="882.1174,1126.4845,892.1174,1130.4845,882.1174,1134.4845,886.1174,1130.4845" style="stroke:#181818;stroke-width:1;"/><line style="stroke:#181818;stroke-width:1;" x1="580.4772" x2="888.1174" y1="1130.4845" y2="1130.4845"/><text fill="#000000" font-family="sans-serif" font-size="13" lengthAdjust="spacing" textLength="99.3201" x="587.4772" y="1124.6755">send volume list</text></g><g class="message" data-participant-1="Validator" data-participant-2="Miner"><polygon fill="#181818" points="1199.2417,1158.1905,1209.2417,1162.1905,1199.2417,1166.1905,1203.2417,1162.1905" style="stroke:#181818;stroke-width:1;"/><line style="stroke:#181818;stroke-width:1;" x1="894.1174" x2="1205.2417" y1="1162.1905" y2="1162.1905"/><text fill="#000000" font-family="sans-serif" font-size="13" lengthAdjust="spacing" textLength="99.3201" x="901.1174" y="1156.3815">send volume list</text></g><g class="message" data-participant-1="Miner" data-participant-2="Executor"><polygon fill="#181818" points="1488.546,1189.8965,1498.546,1193.8965,1488.546,1197.8965,1492.546,1193.8965" style="stroke:#181818;stroke-width:1;"/><line style="stroke:#181818;stroke-width:1;" x1="1211.2417" x2="1494.546" y1="1193.8965" y2="1193.8965"/><text fill="#000000" font-family="sans-serif" font-size="13" lengthAdjust="spacing" textLength="99.3201" x="1218.2417" y="1188.0875">send volume list</text></g><g class="message" data-participant-1="Executor" data-participant-2="Storage"><polygon fill="#181818" points="1830.4451,1221.6026,1840.4451,1225.6026,1830.4451,1229.6026,1834.4451,1225.6026" style="stroke:#181818;stroke-width:1;"/><line style="stroke:#181818;stroke-width:1;" x1="1500.546" x2="1836.4451" y1="1225.6026" y2="1225.6026"/><text fill="#000000" font-family="sans-serif" font-size="13" lengthAdjust="spacing" textLength="63.7001" x="1507.546" y="1219.7936">Fetch data</text></g><g class="message" data-participant-1="Executor" data-participant-2="Miner"><polygon fill="#181818" points="1222.2417,1271.0146,1212.2417,1275.0146,1222.2417,1279.0146,1218.2417,1275.0146" style="stroke:#181818;stroke-width:1;"/><line style="stroke:#181818;stroke-width:1;" x1="1216.2417" x2="1499.546" y1="1275.0146" y2="1275.0146"/><text fill="#000000" font-family="sans-serif" font-size="13" lengthAdjust="spacing" textLength="132.9641" x="1228.2417" y="1251.4996">Report fetching done.</text><text fill="#000000" font-family="sans-serif" font-size="13" lengthAdjust="spacing" textLength="45.396" x="1228.2417" y="1269.2056">Include</text><text fill="#000000" font-family="sans-serif" font-size="13" font-weight="bold" lengthAdjust="spacing" textLength="124.4231" x="1277.0178" y="1269.2056">volume message id</text><text fill="#000000" font-family="sans-serif" font-size="13" lengthAdjust="spacing" textLength="3.484" x="1401.4408" y="1269.2056">.</text></g><g class="message" data-participant-1="Miner" data-participant-2="Validator"><polygon fill="#181818" points="905.1174,1320.4266,895.1174,1324.4266,905.1174,1328.4266,901.1174,1324.4266" style="stroke:#181818;stroke-width:1;"/><line style="stroke:#181818;stroke-width:1;" x1="899.1174" x2="1210.2417" y1="1324.4266" y2="1324.4266"/><text fill="#000000" font-family="sans-serif" font-size="13" lengthAdjust="spacing" textLength="132.9641" x="911.1174" y="1300.9116">Report fetching done.</text><text fill="#000000" font-family="sans-serif" font-size="13" lengthAdjust="spacing" textLength="45.396" x="911.1174" y="1318.6176">Include</text><text fill="#000000" font-family="sans-serif" font-size="13" font-weight="bold" lengthAdjust="spacing" textLength="124.4231" x="959.8935" y="1318.6176">volume message id</text><text fill="#000000" font-family="sans-serif" font-size="13" lengthAdjust="spacing" textLength="3.484" x="1084.3166" y="1318.6176">.</text></g><g class="message" data-participant-1="Validator" data-participant-2="Facilitator"><polygon fill="#181818" points="591.4772,1369.8387,581.4772,1373.8387,591.4772,1377.8387,587.4772,1373.8387" style="stroke:#181818;stroke-width:1;"/><line style="stroke:#181818;stroke-width:1;" x1="585.4772" x2="893.1174" y1="1373.8387" y2="1373.8387"/><text fill="#000000" font-family="sans-serif" font-size="13" lengthAdjust="spacing" textLength="132.9641" x="597.4772" y="1350.3236">Report fetching done.</text><text fill="#000000" font-family="sans-serif" font-size="13" lengthAdjust="spacing" textLength="45.396" x="597.4772" y="1368.0297">Include</text><text fill="#000000" font-family="sans-serif" font-size="13" font-weight="bold" lengthAdjust="spacing" textLength="124.4231" x="646.2532" y="1368.0297">volume message id</text><text fill="#000000" font-family="sans-serif" font-size="13" lengthAdjust="spacing" textLength="3.484" x="770.6763" y="1368.0297">.</text></g><g class="message" data-participant-1="Facilitator" data-participant-2="Client"><polygon fill="#181818" points="277.8369,1419.2507,267.8369,1423.2507,277.8369,1427.2507,273.8369,1423.2507" style="stroke:#181818;stroke-width:1;"/><line style="stroke:#181818;stroke-width:1;" x1="271.8369" x2="579.4772" y1="1423.2507" y2="1423.2507"/><text fill="#000000" font-family="sans-serif" font-size="13" lengthAdjust="spacing" textLength="132.9641" x="283.8369" y="1399.7357">Report fetching done.</text><text fill="#000000" font-family="sans-serif" font-size="13" lengthAdjust="spacing" textLength="45.396" x="283.8369" y="1417.4417">Include</text><text fill="#000000" font-family="sans-serif" font-size="13" font-weight="bold" lengthAdjust="spacing" textLength="124.4231" x="332.613" y="1417.4417">volume message id</text><text fill="#000000" font-family="sans-serif" font-size="13" lengthAdjust="spacing" textLength="3.484" x="457.0361" y="1417.4417">.</text></g><g class="message" data-participant-1="Client" data-participant-2="Job"><polygon fill="#181818" points="1770.3182,1475.6627,1780.3182,1479.6627,1770.3182,1483.6627,1774.3182,1479.6627" style="stroke:#181818;stroke-width:1;"/><line style="stroke:#181818;stroke-width:1;" x1="266.8369" x2="1776.3182" y1="1479.6627" y2="1479.6627"/><text fill="#000000" font-family="sans-serif" font-size="13" lengthAdjust="spacing" textLength="284.8693" x="273.8369" y="1456.1477">Send request, it can be a streamed or buffered</text><text fill="#000000" font-family="sans-serif" font-size="13" lengthAdjust="spacing" textLength="278.3303" x="273.8369" y="1473.8537">HTTP or a websocket. Request is signed using</text><text fill="#000000" font-family="sans-serif" font-size="13" font-weight="bold" lengthAdjust="spacing" textLength="88.6471" x="555.5472" y="1473.8537">client keypair</text><text fill="#000000" font-family="sans-serif" font-size="13" lengthAdjust="spacing" textLength="3.484" x="644.1943" y="1473.8537">.</text></g><path d="M19,1494.6627 L85.983,1494.6627 L85.983,1504.3687 L75.983,1514.3687 L19,1514.3687 L19,1494.6627" fill="#EEEEEE" style="stroke:#000000;stroke-width:1.5;"/><rect fill="none" height="57.412" style="stroke:#000000;stroke-width:1.5;" width="494.8434" x="19" y="1494.6627"/><text fill="#000000" font-family="sans-serif" font-size="13" font-weight="bold" lengthAdjust="spacing" textLength="21.983" x="34" y="1509.5597">opt</text><path d="M29,1519.3687 L29,1546.3687 L503,1546.3687 L503,1529.3687 L493,1519.3687 L29,1519.3687" fill="#FEFFDD" style="stroke:#181818;stroke-width:0.5;"/><path d="M493,1519.3687 L493,1529.3687 L503,1529.3687 L493,1519.3687" fill="#FEFFDD" style="stroke:#181818;stroke-width:0.5;"/><text fill="#000000" font-family="sans-serif" font-size="13" lengthAdjust="spacing" textLength="320.3983" x="35" y="1538.2658">Pass input/output file names (the ones referred to in</text><text fill="#000000" font-family="sans-serif" font-size="13" font-weight="bold" lengthAdjust="spacing" textLength="126.1651" x="358.7783" y="1538.2658">volume uniqueness</text><text fill="#000000" font-family="sans-serif" font-size="13" lengthAdjust="spacing" textLength="3.9" x="484.9434" y="1538.2658">)</text><g class="message" data-participant-1="Job" data-participant-2="Client"><polygon fill="#181818" points="277.8369,1614.1928,267.8369,1618.1928,277.8369,1622.1928,273.8369,1618.1928" style="stroke:#181818;stroke-width:1;"/><line style="stroke:#181818;stroke-width:1;" x1="271.8369" x2="1776.3182" y1="1618.1928" y2="1618.1928"/><text fill="#000000" font-family="sans-serif" font-size="13" lengthAdjust="spacing" textLength="333.8142" x="283.8369" y="1576.9718">Reply. Before the transmission ends, sign input/output</text><text fill="#000000" font-family="sans-serif" font-size="13" lengthAdjust="spacing" textLength="228.7872" x="283.8369" y="1594.6778">digest (or full value(s) in case of texts)</text><text fill="#000000" font-family="sans-serif" font-size="13" lengthAdjust="spacing" textLength="187.7722" x="283.8369" y="1612.3838">with the private counterpart of</text><text fill="#000000" font-family="sans-serif" font-size="13" font-weight="bold" lengthAdjust="spacing" textLength="89.9991" x="474.9891" y="1612.3838">Job public key</text><text fill="#000000" font-family="sans-serif" font-size="13" lengthAdjust="spacing" textLength="3.484" x="564.9882" y="1612.3838">.</text></g><path d="M235,1633.1928 L301.983,1633.1928 L301.983,1642.8988 L291.983,1652.8988 L235,1652.8988 L235,1633.1928" fill="#EEEEEE" style="stroke:#000000;stroke-width:1.5;"/><rect fill="none" height="209.9421" style="stroke:#000000;stroke-width:1.5;" width="1650.121" x="235" y="1633.1928"/><text fill="#000000" font-family="sans-serif" font-size="13" font-weight="bold" lengthAdjust="spacing" textLength="21.983" x="250" y="1648.0898">opt</text><g class="message" data-participant-1="Job" data-participant-2="Executor"><polygon fill="#181818" points="1511.546,1672.6048,1501.546,1676.6048,1511.546,1680.6048,1507.546,1676.6048" style="stroke:#181818;stroke-width:1;"/><line style="stroke:#181818;stroke-width:1;" x1="1505.546" x2="1776.3182" y1="1676.6048" y2="1676.6048"/><text fill="#000000" font-family="sans-serif" font-size="13" lengthAdjust="spacing" textLength="252.7722" x="1517.546" y="1670.7958">Inform about files being ready for upload</text></g><g class="message" data-participant-1="Executor" data-participant-2="Storage"><polygon fill="#181818" points="1830.4451,1704.3109,1840.4451,1708.3109,1830.4451,1712.3109,1834.4451,1708.3109" style="stroke:#181818;stroke-width:1;"/><line style="stroke:#181818;stroke-width:1;" x1="1500.546" x2="1836.4451" y1="1708.3109" y2="1708.3109"/><text fill="#000000" font-family="sans-serif" font-size="13" lengthAdjust="spacing" textLength="74.6591" x="1507.546" y="1702.5019">Upload data</text></g><g class="message" data-participant-1="Executor" data-participant-2="Miner"><polygon fill="#181818" points="1222.2417,1736.0169,1212.2417,1740.0169,1222.2417,1744.0169,1218.2417,1740.0169" style="stroke:#181818;stroke-width:1;"/><line style="stroke:#181818;stroke-width:1;" x1="1216.2417" x2="1499.546" y1="1740.0169" y2="1740.0169"/><text fill="#000000" font-family="sans-serif" font-size="13" lengthAdjust="spacing" textLength="141.2451" x="1228.2417" y="1734.2079">Report uploading done</text></g><g class="message" data-participant-1="Miner" data-participant-2="Validator"><polygon fill="#181818" points="905.1174,1767.7229,895.1174,1771.7229,905.1174,1775.7229,901.1174,1771.7229" style="stroke:#181818;stroke-width:1;"/><line style="stroke:#181818;stroke-width:1;" x1="899.1174" x2="1210.2417" y1="1771.7229" y2="1771.7229"/><text fill="#000000" font-family="sans-serif" font-size="13" lengthAdjust="spacing" textLength="141.2451" x="911.1174" y="1765.9139">Report uploading done</text></g><g class="message" data-participant-1="Validator" data-participant-2="Facilitator"><polygon fill="#181818" points="591.4772,1799.4289,581.4772,1803.4289,591.4772,1807.4289,587.4772,1803.4289" style="stroke:#181818;stroke-width:1;"/><line style="stroke:#181818;stroke-width:1;" x1="585.4772" x2="893.1174" y1="1803.4289" y2="1803.4289"/><text fill="#000000" font-family="sans-serif" font-size="13" lengthAdjust="spacing" textLength="141.2451" x="597.4772" y="1797.6199">Report uploading done</text></g><g class="message" data-participant-1="Facilitator" data-participant-2="Client"><polygon fill="#181818" points="277.8369,1831.1349,267.8369,1835.1349,277.8369,1839.1349,273.8369,1835.1349" style="stroke:#181818;stroke-width:1;"/><line style="stroke:#181818;stroke-width:1;" x1="271.8369" x2="579.4772" y1="1835.1349" y2="1835.1349"/><text fill="#000000" font-family="sans-serif" font-size="13" lengthAdjust="spacing" textLength="141.2451" x="283.8369" y="1829.3259">Report uploading done</text></g><path d="M225,1857.1349 L291.983,1857.1349 L291.983,1866.8409 L281.983,1876.8409 L225,1876.8409 L225,1857.1349" fill="#EEEEEE" style="stroke:#000000;stroke-width:1.5;"/><rect fill="none" height="147.5301" style="stroke:#000000;stroke-width:1.5;" width="414.9221" x="225" y="1857.1349"/><text fill="#000000" font-family="sans-serif" font-size="13" font-weight="bold" lengthAdjust="spacing" textLength="21.983" x="240" y="1872.0319">opt</text><text fill="#000000" font-family="sans-serif" font-size="11" font-weight="bold" lengthAdjust="spacing" textLength="195.7986" x="306.983" y="1870.8938">[If this is a cross-validation request]</text><g class="message" data-participant-1="Client" data-participant-2="Client"><line style="stroke:#181818;stroke-width:1;" x1="266.8369" x2="308.8369" y1="1900.547" y2="1900.547"/><line style="stroke:#181818;stroke-width:1;" x1="308.8369" x2="308.8369" y1="1900.547" y2="1913.547"/><line style="stroke:#181818;stroke-width:1;" x1="267.8369" x2="308.8369" y1="1913.547" y2="1913.547"/><polygon fill="#181818" points="277.8369,1909.547,267.8369,1913.547,277.8369,1917.547,273.8369,1913.547" style="stroke:#181818;stroke-width:1;"/><text fill="#000000" font-family="sans-serif" font-size="13" lengthAdjust="spacing" textLength="179.8941" x="273.8369" y="1894.738">Asses validity of the reposnse</text></g><path d="M235,1928.547 L301.983,1928.547 L301.983,1938.253 L291.983,1948.253 L235,1948.253 L235,1928.547" fill="#EEEEEE" style="stroke:#000000;stroke-width:1.5;"/><rect fill="none" height="69.118" style="stroke:#000000;stroke-width:1.5;" width="394.9221" x="235" y="1928.547"/><text fill="#000000" font-family="sans-serif" font-size="13" font-weight="bold" lengthAdjust="spacing" textLength="21.983" x="250" y="1943.444">opt</text><text fill="#000000" font-family="sans-serif" font-size="11" font-weight="bold" lengthAdjust="spacing" textLength="113.5962" x="316.983" y="1942.3059">[if reponse is invalid]</text><g class="message" data-participant-1="Client" data-participant-2="Facilitator"><polygon fill="#181818" points="568.4772,1985.665,578.4772,1989.665,568.4772,1993.665,572.4772,1989.665" style="stroke:#181818;stroke-width:1;"/><line style="stroke:#181818;stroke-width:1;" x1="266.8369" x2="574.4772" y1="1989.665" y2="1989.665"/><text fill="#000000" font-family="sans-serif" font-size="13" lengthAdjust="spacing" textLength="245.5443" x="273.8369" y="1966.15">Send info about malicious miner, signed</text><text fill="#000000" font-family="sans-serif" font-size="13" lengthAdjust="spacing" textLength="264.0172" x="273.8369" y="1983.856">with a validator (not sn12 validator) hotkey.</text></g><g class="message" data-participant-1="Job" data-participant-2="Executor"><polygon fill="#181818" points="1511.546,2038.371,1501.546,2042.371,1511.546,2046.371,1507.546,2042.371" style="stroke:#181818;stroke-width:1;"/><line style="stroke:#181818;stroke-width:1;" x1="1505.546" x2="1781.3182" y1="2042.371" y2="2042.371"/><text fill="#000000" font-family="sans-serif" font-size="13" lengthAdjust="spacing" textLength="78.1951" x="1517.546" y="2036.562">Report finish</text></g><path d="M1454.6641,2057.371 L1521.6471,2057.371 L1521.6471,2067.077 L1511.6471,2077.077 L1454.6641,2077.077 L1454.6641,2057.371" fill="#EEEEEE" style="stroke:#000000;stroke-width:1.5;"/><rect fill="none" height="51.412" style="stroke:#000000;stroke-width:1.5;" width="430.4569" x="1454.6641" y="2057.371"/><text fill="#000000" font-family="sans-serif" font-size="13" font-weight="bold" lengthAdjust="spacing" textLength="21.983" x="1469.6641" y="2072.268">opt</text><text fill="#000000" font-family="sans-serif" font-size="11" font-weight="bold" lengthAdjust="spacing" textLength="158.9378" x="1536.6471" y="2071.1299">[job requires uploading data]</text><g class="message" data-participant-1="Executor" data-participant-2="Storage"><polygon fill="#181818" points="1830.4451,2096.7831,1840.4451,2100.7831,1830.4451,2104.7831,1834.4451,2100.7831" style="stroke:#181818;stroke-width:1;"/><line style="stroke:#181818;stroke-width:1;" x1="1500.546" x2="1836.4451" y1="2100.7831" y2="2100.7831"/><text fill="#000000" font-family="sans-serif" font-size="13" lengthAdjust="spacing" textLength="74.6591" x="1507.546" y="2094.9741">Upload data</text></g><g class="message" data-participant-1="Executor" data-participant-2="Storage"><polygon fill="#181818" points="1830.4451,2135.4891,1840.4451,2139.4891,1830.4451,2143.4891,1834.4451,2139.4891" style="stroke:#181818;stroke-width:1;"/><line style="stroke:#181818;stroke-width:1;" x1="1500.546" x2="1836.4451" y1="2139.4891" y2="2139.4891"/><text fill="#000000" font-family="sans-serif" font-size="13" lengthAdjust="spacing" textLength="153.9592" x="1507.546" y="2133.6801">Upload stdout and stderr</text></g><g class="message" data-participant-1="Executor" data-participant-2="Miner"><polygon fill="#181818" points="1222.2417,2167.1951,1212.2417,2171.1951,1222.2417,2175.1951,1218.2417,2171.1951" style="stroke:#181818;stroke-width:1;"/><line style="stroke:#181818;stroke-width:1;" x1="1216.2417" x2="1499.546" y1="2171.1951" y2="2171.1951"/><text fill="#000000" font-family="sans-serif" font-size="13" lengthAdjust="spacing" textLength="98.5401" x="1228.2417" y="2165.3861">Report job done</text></g><g class="message" data-participant-1="Miner" data-participant-2="Validator"><polygon fill="#181818" points="905.1174,2198.9011,895.1174,2202.9011,905.1174,2206.9011,901.1174,2202.9011" style="stroke:#181818;stroke-width:1;"/><line style="stroke:#181818;stroke-width:1;" x1="899.1174" x2="1210.2417" y1="2202.9011" y2="2202.9011"/><text fill="#000000" font-family="sans-serif" font-size="13" lengthAdjust="spacing" textLength="98.5401" x="911.1174" y="2197.0921">Report job done</text></g><g class="message" data-participant-1="Validator" data-participant-2="Facilitator"><polygon fill="#181818" points="591.4772,2230.6071,581.4772,2234.6071,591.4772,2238.6071,587.4772,2234.6071" style="stroke:#181818;stroke-width:1;"/><line style="stroke:#181818;stroke-width:1;" x1="585.4772" x2="893.1174" y1="2234.6071" y2="2234.6071"/><text fill="#000000" font-family="sans-serif" font-size="13" lengthAdjust="spacing" textLength="98.5401" x="597.4772" y="2228.7981">Report job done</text></g><g class="message" data-participant-1="Facilitator" data-participant-2="Client"><polygon fill="#181818" points="277.8369,2262.3131,267.8369,2266.3131,277.8369,2270.3131,273.8369,2266.3131" style="stroke:#181818;stroke-width:1;"/><line style="stroke:#181818;stroke-width:1;" x1="271.8369" x2="579.4772" y1="2266.3131" y2="2266.3131"/><text fill="#000000" font-family="sans-serif" font-size="13" lengthAdjust="spacing" textLength="98.5401" x="283.8369" y="2260.5041">Report job done</text></g><!--SRC=[jLTDR-Cs4BthLmpGGsqZST4UVLWW3Rfj2XG8kcbFlj3Io6OjaIf9EUj_tpVKXsLBTj80wuijUhuvxyte8GtMqMEXsOIaKYxeL5VA1FgiKbteeF3tsVdVgj3PwFGFRVZyv9UldDQNOh_RpTdp5mYeBIT94y3zf-PxHRyoxAd0f6YnIECXxVbOAUqM2veTjABy523vR3_lRGmYNz4NDXdzOpUKSL2wyAJm77PCLRqfT2f6au72XVRZpbhFfvoZTfFhcL8lC7QOzF_TVugQhOWsEcXLd8d6_tknnnsdUyh5A-MEcRWjwTtQLDPxlIcEv2jjgAuWOlYLhE7EI5V_5JqhxoVTTIAznp-viYwGOvNX05gpJgroZ7jJGLlZAOERUUTdaFh_KhzI5bLCbkIKpQHKOgiG3np_Msl7dd8EwKwRBS67IWYVKxPjrwteimWr4h2Q30g2HeMhW5QLdaNyDaL2YKg3FaXRok5tXTxkmXOtOqwQhUf325mYfjGQmr128C6ImiKvpZX7KXczyiRRTC-ecAq39r0S9ZggfdI2PtSGOv8d- -2JTrpYfDuxRczAJrhFsOFEcX8yFPFACjJRtr7K5dmi5h5aFRuMY-NQlEmqcj2JrzkOkmwx1aZVUzhP0B7bi2NEKFWD8pk7SSS-tz9XKbXRKMs2BbhQfS2kr0PjvICpIH_3Nz0beo_8fcdjV6nXwNAT0-w5bSYs8fRPLzCz5ifjEVQpbBh5GXPLvJD9a5xmTB15NJ8LseUrcQ5f0IiZf96ZQJSIHJIA5jvm0otErcR3g0l7H9kGSB4gHpOnZRPEyzwziG2EFN0tRbO4Oa8xH8vl8oXHFq2JT0QQXxk1eHjsUlNQQCZAbK6zhUwh1bdir85XRsrAjMVoDSBETS5a53oISfsg9BCsFaXUy5rA39NmP_SWzmd6zVN6IrYmxmDNlW_ksbYuB7ElCER1gw8ZBhmgUPlhnbBdr77YJZ0riFjaqg96cq_Uql8ol36bVD3U6tJmGQkt0Fy1ap8tXjXg1eVSIzksTwGn1fGHv2Wq2qYb14w0t4sTv-m4IB-zl3nJdFFzJ5WYfgW_8CtQIspZVQY9v7msPShjcz7K4iSD-BGBGbM77m1rV0snCHC8eXp29mWNyGeC0859qCtFYX8dsg36nN59FpUa8LQ3KyQN6YHWZUY0EICV34DPcqnlfGmpr2Ul0UM3AcgU-Rd4a2fiPpO7WtuDVhusSQp4xSurjKWjc9QTx9mYDp6QOg0P3witAjd5P7u2BRgo9KOfbSVbDgD1PSSuB1e-l8N7lwB4-m1v8dnfpBS1TqN-3K1TqRe5c0cLxkvbLZtXPjgvhoXrs5dl3qqCSkENl7xv3l3WFIeR5NGunckEqm2xh_6d-DgXAESu5b_QHALUukhiQnVnViYLK4krhJsLKjgx5dXjNoawzEy1Cw28lFdnfzFPlDzZEfzTAUGxxfVJ6nwsGUrtoKKFZbVQGR5lxBJ3lXAdrqLyo2Hf6T_u2MXVNoRZhZrukHYtN2_nHfFrShVQgXVw3m00]--></g></svg>