<svg xmlns="http://www.w3.org/2000/svg" xmlns:xlink="http://www.w3.org/1999/xlink" contentStyleType="text/css" height="2185px" preserveAspectRatio="none" style="width:1964px;height:2185px;background:#FFFFFF;" version="1.1" viewBox="0 0 1964 2185" width="1964px" zoomAndPan="magnify"><defs/><g><rect fill="#90EE90" height="1329.1484" style="stroke:#181818;stroke-width:1.0;" width="10" x="1839.895" y="550.1465"/><rect fill="#006400" height="126.5527" style="stroke:#181818;stroke-width:1.0;" width="10" x="1844.895" y="1359.7051"/><rect fill="none" height="46.6211" style="stroke:#000000;stroke-width:1.5;" width="439.6133" x="1508.5298" y="475.2148"/><rect fill="none" height="1033.4219" style="stroke:#000000;stroke-width:1.5;" width="1949.1431" x="9" y="817.5625"/><rect fill="none" height="474.2109" style="stroke:#000000;stroke-width:1.5;" width="1857.1431" x="91" y="841.873"/><rect fill="none" height="52.6211" style="stroke:#000000;stroke-width:1.5;" width="512.3008" x="19" y="1374.7051"/><rect fill="none" height="193.1738" style="stroke:#000000;stroke-width:1.5;" width="1705.1431" x="243" y="1501.2578"/><rect fill="none" height="135.5527" style="stroke:#000000;stroke-width:1.5;" width="429.251" x="233" y="1708.4316"/><rect fill="none" height="61.9316" style="stroke:#000000;stroke-width:1.5;" width="409.251" x="243" y="1775.0527"/><rect fill="none" height="46.6211" style="stroke:#000000;stroke-width:1.5;" width="439.6133" x="1508.5298" y="1894.2949"/><line style="stroke:#181818;stroke-width:0.5;stroke-dasharray:5.0,5.0;" x1="275" x2="275" y1="81.4883" y2="2104.4688"/><line style="stroke:#181818;stroke-width:0.5;stroke-dasharray:5.0,5.0;" x1="601.1699" x2="601.1699" y1="81.4883" y2="2104.4688"/><line style="stroke:#181818;stroke-width:0.5;stroke-dasharray:5.0,5.0;" x1="927.1255" x2="927.1255" y1="81.4883" y2="2104.4688"/><line style="stroke:#181818;stroke-width:0.5;stroke-dasharray:5.0,5.0;" x1="1257.5786" x2="1257.5786" y1="81.4883" y2="2104.4688"/><line style="stroke:#181818;stroke-width:0.5;stroke-dasharray:5.0,5.0;" x1="1554.5298" x2="1554.5298" y1="81.4883" y2="2104.4688"/><line style="stroke:#181818;stroke-width:0.5;stroke-dasharray:5.0,5.0;" x1="1844.0122" x2="1844.0122" y1="81.4883" y2="2104.4688"/><line style="stroke:#181818;stroke-width:0.5;stroke-dasharray:5.0,5.0;" x1="1904.7778" x2="1904.7778" y1="81.4883" y2="2104.4688"/><text fill="#000000" font-family="sans-serif" font-size="14" lengthAdjust="spacing" textLength="39.5049" x="253" y="78.5352">Client</text><ellipse cx="275.7524" cy="13.5" fill="#E2E2F0" rx="8" ry="8" style="stroke:#181818;stroke-width:0.5;"/><path d="M275.7524,21.5 L275.7524,48.5 M262.7524,29.5 L288.7524,29.5 M275.7524,48.5 L262.7524,63.5 M275.7524,48.5 L288.7524,63.5 " fill="none" style="stroke:#181818;stroke-width:0.5;"/><text fill="#000000" font-family="sans-serif" font-size="14" lengthAdjust="spacing" textLength="39.5049" x="253" y="2117.0039">Client</text><ellipse cx="275.7524" cy="2128.457" fill="#E2E2F0" rx="8" ry="8" style="stroke:#181818;stroke-width:0.5;"/><path d="M275.7524,2136.457 L275.7524,2163.457 M262.7524,2144.457 L288.7524,2144.457 M275.7524,2163.457 L262.7524,2178.457 M275.7524,2163.457 L288.7524,2178.457 " fill="none" style="stroke:#181818;stroke-width:0.5;"/><rect fill="#E2E2F0" height="30.4883" rx="2.5" ry="2.5" style="stroke:#181818;stroke-width:0.5;" width="81.0811" x="561.1699" y="50"/><text fill="#000000" font-family="sans-serif" font-size="14" lengthAdjust="spacing" textLength="67.0811" x="568.1699" y="70.5352">Facilitator</text><rect fill="#E2E2F0" height="30.4883" rx="2.5" ry="2.5" style="stroke:#181818;stroke-width:0.5;" width="81.0811" x="561.1699" y="2103.4688"/><text fill="#000000" font-family="sans-serif" font-size="14" lengthAdjust="spacing" textLength="67.0811" x="568.1699" y="2124.0039">Facilitator</text><rect fill="#E2E2F0" height="30.4883" rx="2.5" ry="2.5" style="stroke:#181818;stroke-width:0.5;" width="75.0859" x="890.1255" y="50"/><text fill="#000000" font-family="sans-serif" font-size="14" lengthAdjust="spacing" textLength="61.0859" x="897.1255" y="70.5352">Validator</text><rect fill="#E2E2F0" height="30.4883" rx="2.5" ry="2.5" style="stroke:#181818;stroke-width:0.5;" width="75.0859" x="890.1255" y="2103.4688"/><text fill="#000000" font-family="sans-serif" font-size="14" lengthAdjust="spacing" textLength="61.0859" x="897.1255" y="2124.0039">Validator</text><rect fill="#E2E2F0" height="30.4883" rx="2.5" ry="2.5" style="stroke:#181818;stroke-width:0.5;" width="52.3223" x="1231.5786" y="50"/><text fill="#000000" font-family="sans-serif" font-size="14" lengthAdjust="spacing" textLength="38.3223" x="1238.5786" y="70.5352">Miner</text><rect fill="#E2E2F0" height="30.4883" rx="2.5" ry="2.5" style="stroke:#181818;stroke-width:0.5;" width="52.3223" x="1231.5786" y="2103.4688"/><text fill="#000000" font-family="sans-serif" font-size="14" lengthAdjust="spacing" textLength="38.3223" x="1238.5786" y="2124.0039">Miner</text><rect fill="#E2E2F0" height="30.4883" rx="2.5" ry="2.5" style="stroke:#181818;stroke-width:0.5;" width="73.3975" x="1518.5298" y="50"/><text fill="#000000" font-family="sans-serif" font-size="14" lengthAdjust="spacing" textLength="59.3975" x="1525.5298" y="70.5352">Executor</text><rect fill="#E2E2F0" height="30.4883" rx="2.5" ry="2.5" style="stroke:#181818;stroke-width:0.5;" width="73.3975" x="1518.5298" y="2103.4688"/><text fill="#000000" font-family="sans-serif" font-size="14" lengthAdjust="spacing" textLength="59.3975" x="1525.5298" y="2124.0039">Executor</text><rect fill="#E2E2F0" height="30.4883" rx="2.5" ry="2.5" style="stroke:#181818;stroke-width:0.5;" width="35.7656" x="1827.0122" y="50"/><text fill="#000000" font-family="sans-serif" font-size="14" lengthAdjust="spacing" textLength="21.7656" x="1834.0122" y="70.5352">Job</text><rect fill="#E2E2F0" height="30.4883" rx="2.5" ry="2.5" style="stroke:#181818;stroke-width:0.5;" width="35.7656" x="1827.0122" y="2103.4688"/><text fill="#000000" font-family="sans-serif" font-size="14" lengthAdjust="spacing" textLength="21.7656" x="1834.0122" y="2124.0039">Job</text><rect fill="#E2E2F0" height="30.4883" rx="2.5" ry="2.5" style="stroke:#181818;stroke-width:0.5;" width="65.3652" x="1872.7778" y="50"/><text fill="#000000" font-family="sans-serif" font-size="14" lengthAdjust="spacing" textLength="51.3652" x="1879.7778" y="70.5352">Storage</text><rect fill="#E2E2F0" height="30.4883" rx="2.5" ry="2.5" style="stroke:#181818;stroke-width:0.5;" width="65.3652" x="1872.7778" y="2103.4688"/><text fill="#000000" font-family="sans-serif" font-size="14" lengthAdjust="spacing" textLength="51.3652" x="1879.7778" y="2124.0039">Storage</text><rect fill="#90EE90" height="1329.1484" style="stroke:#181818;stroke-width:1.0;" width="10" x="1839.895" y="550.1465"/><rect fill="#006400" height="126.5527" style="stroke:#181818;stroke-width:1.0;" width="10" x="1844.895" y="1359.7051"/><line style="stroke:#181818;stroke-width:1.0;" x1="275.7524" x2="317.7524" y1="112.7988" y2="112.7988"/><line style="stroke:#181818;stroke-width:1.0;" x1="317.7524" x2="317.7524" y1="112.7988" y2="125.7988"/><line style="stroke:#181818;stroke-width:1.0;" x1="276.7524" x2="317.7524" y1="125.7988" y2="125.7988"/><polygon fill="#181818" points="286.7524,121.7988,276.7524,125.7988,286.7524,129.7988,282.7524,125.7988" style="stroke:#181818;stroke-width:1.0;"/><text fill="#000000" font-family="sans-serif" font-size="13" lengthAdjust="spacing" textLength="67.8438" x="282.7524" y="108.0566">Generate a</text><text fill="#000000" font-family="sans-serif" font-size="13" font-weight="bold" lengthAdjust="spacing" textLength="90.8984" x="354.7095" y="108.0566">client keypair</text><text fill="#000000" font-family="sans-serif" font-size="13" lengthAdjust="spacing" textLength="116.854" x="449.7212" y="108.0566">(via facilitator sdk)</text><polygon fill="#181818" points="589.7104,151.1094,599.7104,155.1094,589.7104,159.1094,593.7104,155.1094" style="stroke:#181818;stroke-width:1.0;"/><line style="stroke:#181818;stroke-width:1.0;" x1="275.7524" x2="595.7104" y1="155.1094" y2="155.1094"/><text fill="#000000" font-family="sans-serif" font-size="13" lengthAdjust="spacing" textLength="220.7461" x="282.7524" y="150.3672">Send job details and the public key</text><line style="stroke:#181818;stroke-width:1.0;" x1="601.7104" x2="643.7104" y1="184.4199" y2="184.4199"/><line style="stroke:#181818;stroke-width:1.0;" x1="643.7104" x2="643.7104" y1="184.4199" y2="197.4199"/><line style="stroke:#181818;stroke-width:1.0;" x1="602.7104" x2="643.7104" y1="197.4199" y2="197.4199"/><polygon fill="#181818" points="612.7104,193.4199,602.7104,197.4199,612.7104,201.4199,608.7104,197.4199" style="stroke:#181818;stroke-width:1.0;"/><text fill="#000000" font-family="sans-serif" font-size="13" lengthAdjust="spacing" textLength="174.9795" x="608.7104" y="179.6777">Choose Validator and Miner</text><polygon fill="#181818" points="915.6685,222.7305,925.6685,226.7305,915.6685,230.7305,919.6685,226.7305" style="stroke:#181818;stroke-width:1.0;"/><line style="stroke:#181818;stroke-width:1.0;" x1="601.7104" x2="921.6685" y1="226.7305" y2="226.7305"/><text fill="#000000" font-family="sans-serif" font-size="13" lengthAdjust="spacing" textLength="100.4517" x="608.7104" y="221.9883">Send job details</text><polygon fill="#181818" points="1245.7397,252.041,1255.7397,256.041,1245.7397,260.041,1249.7397,256.041" style="stroke:#181818;stroke-width:1.0;"/><line style="stroke:#181818;stroke-width:1.0;" x1="927.6685" x2="1251.7397" y1="256.041" y2="256.041"/><text fill="#000000" font-family="sans-serif" font-size="13" lengthAdjust="spacing" textLength="139.7056" x="934.6685" y="251.2988">Send initial job details</text><line style="stroke:#181818;stroke-width:1.0;" x1="1257.7397" x2="1299.7397" y1="300.6621" y2="300.6621"/><line style="stroke:#181818;stroke-width:1.0;" x1="1299.7397" x2="1299.7397" y1="300.6621" y2="313.6621"/><line style="stroke:#181818;stroke-width:1.0;" x1="1258.7397" x2="1299.7397" y1="313.6621" y2="313.6621"/><polygon fill="#181818" points="1268.7397,309.6621,1258.7397,313.6621,1268.7397,317.6621,1264.7397,313.6621" style="stroke:#181818;stroke-width:1.0;"/><text fill="#000000" font-family="sans-serif" font-size="13" lengthAdjust="spacing" textLength="164.3281" x="1264.7397" y="280.6094">Check for a free executor,</text><text fill="#000000" font-family="sans-serif" font-size="13" lengthAdjust="spacing" textLength="171.1646" x="1264.7397" y="295.9199">possibly spin up a new one</text><polygon fill="#181818" points="1543.2285,338.9727,1553.2285,342.9727,1543.2285,346.9727,1547.2285,342.9727" style="stroke:#181818;stroke-width:1.0;"/><line style="stroke:#181818;stroke-width:1.0;" x1="1257.7397" x2="1549.2285" y1="342.9727" y2="342.9727"/><text fill="#000000" font-family="sans-serif" font-size="13" lengthAdjust="spacing" textLength="136.8301" x="1264.7397" y="338.2305">Pass initial job details</text><polygon fill="#181818" points="1268.7397,368.2832,1258.7397,372.2832,1268.7397,376.2832,1264.7397,372.2832" style="stroke:#181818;stroke-width:1.0;"/><line style="stroke:#181818;stroke-width:1.0;" x1="1262.7397" x2="1554.2285" y1="372.2832" y2="372.2832"/><text fill="#000000" font-family="sans-serif" font-size="13" lengthAdjust="spacing" textLength="273.4888" x="1274.7397" y="367.541">Report readiness (initial preparations done)</text><polygon fill="#181818" points="938.6685,397.5938,928.6685,401.5938,938.6685,405.5938,934.6685,401.5938" style="stroke:#181818;stroke-width:1.0;"/><line style="stroke:#181818;stroke-width:1.0;" x1="932.6685" x2="1256.7397" y1="401.5938" y2="401.5938"/><text fill="#000000" font-family="sans-serif" font-size="13" lengthAdjust="spacing" textLength="273.4888" x="944.6685" y="396.8516">Report readiness (initial preparations done)</text><polygon fill="#181818" points="1245.7397,426.9043,1255.7397,430.9043,1245.7397,434.9043,1249.7397,430.9043" style="stroke:#181818;stroke-width:1.0;"/><line style="stroke:#181818;stroke-width:1.0;" x1="927.6685" x2="1251.7397" y1="430.9043" y2="430.9043"/><text fill="#000000" font-family="sans-serif" font-size="13" lengthAdjust="spacing" textLength="119.2598" x="934.6685" y="426.1621">Send all job details</text><polygon fill="#181818" points="1543.2285,456.2148,1553.2285,460.2148,1543.2285,464.2148,1547.2285,460.2148" style="stroke:#181818;stroke-width:1.0;"/><line style="stroke:#181818;stroke-width:1.0;" x1="1257.7397" x2="1549.2285" y1="460.2148" y2="460.2148"/><text fill="#000000" font-family="sans-serif" font-size="13" lengthAdjust="spacing" textLength="119.2598" x="1264.7397" y="455.4727">Send all job details</text><path d="M1508.5298,475.2148 L1575.7148,475.2148 L1575.7148,482.5254 L1565.7148,492.5254 L1508.5298,492.5254 L1508.5298,475.2148 " fill="#EEEEEE" style="stroke:#000000;stroke-width:1.5;"/><rect fill="none" height="46.6211" style="stroke:#000000;stroke-width:1.5;" width="439.6133" x="1508.5298" y="475.2148"/><text fill="#000000" font-family="sans-serif" font-size="13" font-weight="bold" lengthAdjust="spacing" textLength="22.1851" x="1523.5298" y="488.7832">opt</text><text fill="#000000" font-family="sans-serif" font-size="11" font-weight="bold" lengthAdjust="spacing" textLength="155.4878" x="1590.7148" y="487.8496">[job requires fetching data]</text><polygon fill="#181818" points="1893.4604,509.8359,1903.4604,513.8359,1893.4604,517.8359,1897.4604,513.8359" style="stroke:#181818;stroke-width:1.0;"/><line style="stroke:#181818;stroke-width:1.0;" x1="1555.2285" x2="1899.4604" y1="513.8359" y2="513.8359"/><text fill="#000000" font-family="sans-serif" font-size="13" lengthAdjust="spacing" textLength="65.3174" x="1562.2285" y="509.0938">Fetch data</text><polygon fill="#181818" points="1827.895,546.1465,1837.895,550.1465,1827.895,554.1465,1831.895,550.1465" style="stroke:#181818;stroke-width:1.0;"/><line style="stroke:#181818;stroke-width:1.0;" x1="1555.2285" x2="1833.895" y1="550.1465" y2="550.1465"/><text fill="#000000" font-family="sans-serif" font-size="13" lengthAdjust="spacing" textLength="106.3042" x="1562.2285" y="545.4043">Start Job process</text><polygon fill="#181818" points="1827.895,590.7676,1837.895,594.7676,1827.895,598.7676,1831.895,594.7676" style="stroke:#181818;stroke-width:1.0;"/><line style="stroke:#181818;stroke-width:1.0;stroke-dasharray:2.0,2.0;" x1="1555.2285" x2="1833.895" y1="594.7676" y2="594.7676"/><text fill="#000000" font-family="sans-serif" font-size="13" lengthAdjust="spacing" textLength="152.9595" x="1562.2285" y="574.7148">Attempt connecting to a</text><text fill="#000000" font-family="sans-serif" font-size="13" lengthAdjust="spacing" textLength="176.3188" x="1562.2285" y="590.0254">predefined websocket route</text><polygon fill="#181818" points="1566.2285,620.0781,1556.2285,624.0781,1566.2285,628.0781,1562.2285,624.0781" style="stroke:#181818;stroke-width:1.0;"/><line style="stroke:#181818;stroke-width:1.0;" x1="1560.2285" x2="1838.895" y1="624.0781" y2="624.0781"/><text fill="#000000" font-family="sans-serif" font-size="13" lengthAdjust="spacing" textLength="236.6152" x="1572.2285" y="619.3359">Report readiness for serving requests</text><polygon fill="#181818" points="1268.7397,649.3887,1258.7397,653.3887,1268.7397,657.3887,1264.7397,653.3887" style="stroke:#181818;stroke-width:1.0;"/><line style="stroke:#181818;stroke-width:1.0;" x1="1262.7397" x2="1554.2285" y1="653.3887" y2="653.3887"/><text fill="#000000" font-family="sans-serif" font-size="13" lengthAdjust="spacing" textLength="236.6152" x="1274.7397" y="648.6465">Report readiness for serving requests</text><polygon fill="#181818" points="938.6685,709.3203,928.6685,713.3203,938.6685,717.3203,934.6685,713.3203" style="stroke:#181818;stroke-width:1.0;"/><line style="stroke:#181818;stroke-width:1.0;" x1="932.6685" x2="1256.7397" y1="713.3203" y2="713.3203"/><text fill="#000000" font-family="sans-serif" font-size="13" lengthAdjust="spacing" textLength="240.7285" x="944.6685" y="677.957">Report readiness for serving requests,</text><text fill="#000000" font-family="sans-serif" font-size="13" lengthAdjust="spacing" textLength="202.3569" x="944.6685" y="693.2676">provide Job IP address, port and</text><text fill="#000000" font-family="sans-serif" font-size="13" font-weight="bold" lengthAdjust="spacing" textLength="95.4878" x="1151.1387" y="693.2676">Job public key</text><text fill="#000000" font-family="sans-serif" font-size="13" lengthAdjust="spacing" textLength="4.1133" x="1246.6265" y="693.2676">.</text><text fill="#000000" font-family="sans-serif" font-size="13" lengthAdjust="spacing" textLength="218.1626" x="944.6685" y="708.5781">This is signed with Miner's hotkey.</text><polygon fill="#181818" points="612.7104,753.9414,602.7104,757.9414,612.7104,761.9414,608.7104,757.9414" style="stroke:#181818;stroke-width:1.0;"/><line style="stroke:#181818;stroke-width:1.0;" x1="606.7104" x2="926.6685" y1="757.9414" y2="757.9414"/><text fill="#000000" font-family="sans-serif" font-size="13" lengthAdjust="spacing" textLength="240.7285" x="618.7104" y="737.8887">Report readiness for serving requests,</text><text fill="#000000" font-family="sans-serif" font-size="13" lengthAdjust="spacing" textLength="202.3569" x="618.7104" y="753.1992">provide Job IP address, port and</text><text fill="#000000" font-family="sans-serif" font-size="13" font-weight="bold" lengthAdjust="spacing" textLength="95.4878" x="825.1807" y="753.1992">Job public key</text><polygon fill="#181818" points="286.7524,798.5625,276.7524,802.5625,286.7524,806.5625,282.7524,802.5625" style="stroke:#181818;stroke-width:1.0;"/><line style="stroke:#181818;stroke-width:1.0;" x1="280.7524" x2="600.7104" y1="802.5625" y2="802.5625"/><text fill="#000000" font-family="sans-serif" font-size="13" lengthAdjust="spacing" textLength="240.7285" x="292.7524" y="782.5098">Report readiness for serving requests,</text><text fill="#000000" font-family="sans-serif" font-size="13" lengthAdjust="spacing" textLength="202.3569" x="292.7524" y="797.8203">provide Job IP address, port and</text><text fill="#000000" font-family="sans-serif" font-size="13" font-weight="bold" lengthAdjust="spacing" textLength="95.4878" x="499.2227" y="797.8203">Job public key</text><path d="M9,817.5625 L83.4468,817.5625 L83.4468,824.873 L73.4468,834.873 L9,834.873 L9,817.5625 " fill="#EEEEEE" style="stroke:#000000;stroke-width:1.5;"/><rect fill="none" height="1033.4219" style="stroke:#000000;stroke-width:1.5;" width="1949.1431" x="9" y="817.5625"/><text fill="#000000" font-family="sans-serif" font-size="13" font-weight="bold" lengthAdjust="spacing" textLength="29.4468" x="24" y="831.1309">loop</text><text fill="#000000" font-family="sans-serif" font-size="11" font-weight="bold" lengthAdjust="spacing" textLength="282.8364" x="98.4468" y="830.1973">[until Client terminates the job or timeout occurs]</text><path d="M91,841.873 L158.1851,841.873 L158.1851,849.1836 L148.1851,859.1836 L91,859.1836 L91,841.873 " fill="#EEEEEE" style="stroke:#000000;stroke-width:1.5;"/><rect fill="none" height="474.2109" style="stroke:#000000;stroke-width:1.5;" width="1857.1431" x="91" y="841.873"/><text fill="#000000" font-family="sans-serif" font-size="13" font-weight="bold" lengthAdjust="spacing" textLength="22.1851" x="106" y="855.4414">opt</text><text fill="#000000" font-family="sans-serif" font-size="11" font-weight="bold" lengthAdjust="spacing" textLength="295.5605" x="173.1851" y="854.5078">[if uploading or downloading large data is required]</text><polygon fill="#181818" points="589.7104,907.1152,599.7104,911.1152,589.7104,915.1152,593.7104,911.1152" style="stroke:#181818;stroke-width:1.0;"/><line style="stroke:#181818;stroke-width:1.0;" x1="275.7524" x2="595.7104" y1="911.1152" y2="911.1152"/><text fill="#000000" font-family="sans-serif" font-size="13" lengthAdjust="spacing" textLength="103.27" x="282.7524" y="875.752">send volume list</text><text fill="#000000" font-family="sans-serif" font-size="13" lengthAdjust="spacing" textLength="245.6924" x="282.7524" y="891.0625">(contains info about data to be fetched</text><text fill="#000000" font-family="sans-serif" font-size="13" lengthAdjust="spacing" textLength="244.8545" x="282.7524" y="906.373">before and uploaded after the request)</text><path d="M126,924.1152 L126,949.1152 L424,949.1152 L424,934.1152 L414,924.1152 L126,924.1152 " fill="#FEFFDD" style="stroke:#181818;stroke-width:0.5;"/><path d="M414,924.1152 L414,934.1152 L424,934.1152 L414,924.1152 " fill="#FEFFDD" style="stroke:#181818;stroke-width:0.5;"/><text fill="#000000" font-family="sans-serif" font-size="13" lengthAdjust="spacing" textLength="51.6572" x="132" y="941.6836">assign a</text><text fill="#000000" font-family="sans-serif" font-size="13" font-weight="bold" lengthAdjust="spacing" textLength="129.1748" x="187.7705" y="941.6836">volume message id</text><text fill="#000000" font-family="sans-serif" font-size="13" lengthAdjust="spacing" textLength="88.791" x="321.0586" y="941.6836">to the request</text><path d="M101,959.4258 L101,1014.4258 L448,1014.4258 L448,969.4258 L438,959.4258 L101,959.4258 " fill="#FEFFDD" style="stroke:#181818;stroke-width:0.5;"/><path d="M438,959.4258 L438,969.4258 L448,969.4258 L438,959.4258 " fill="#FEFFDD" style="stroke:#181818;stroke-width:0.5;"/><text fill="#000000" font-family="sans-serif" font-size="13" font-weight="bold" lengthAdjust="spacing" textLength="130.2158" x="107" y="976.9941">volume uniqueness</text><text fill="#000000" font-family="sans-serif" font-size="13" lengthAdjust="spacing" textLength="112.3789" x="241.3291" y="976.9941">Client will have to</text><text fill="#000000" font-family="sans-serif" font-size="13" lengthAdjust="spacing" textLength="233.4414" x="107" y="992.3047">make sure file names are unique and</text><text fill="#000000" font-family="sans-serif" font-size="13" lengthAdjust="spacing" textLength="326.7329" x="107" y="1007.6152">store them to pass them to Job in subsequent steps</text><polygon fill="#181818" points="915.6685,1037.668,925.6685,1041.668,915.6685,1045.668,919.6685,1041.668" style="stroke:#181818;stroke-width:1.0;"/><line style="stroke:#181818;stroke-width:1.0;" x1="601.7104" x2="921.6685" y1="1041.668" y2="1041.668"/><text fill="#000000" font-family="sans-serif" font-size="13" lengthAdjust="spacing" textLength="103.27" x="608.7104" y="1036.9258">send volume list</text><polygon fill="#181818" points="1245.7397,1066.9785,1255.7397,1070.9785,1245.7397,1074.9785,1249.7397,1070.9785" style="stroke:#181818;stroke-width:1.0;"/><line style="stroke:#181818;stroke-width:1.0;" x1="927.6685" x2="1251.7397" y1="1070.9785" y2="1070.9785"/><text fill="#000000" font-family="sans-serif" font-size="13" lengthAdjust="spacing" textLength="103.27" x="934.6685" y="1066.2363">send volume list</text><polygon fill="#181818" points="1543.2285,1096.2891,1553.2285,1100.2891,1543.2285,1104.2891,1547.2285,1100.2891" style="stroke:#181818;stroke-width:1.0;"/><line style="stroke:#181818;stroke-width:1.0;" x1="1257.7397" x2="1549.2285" y1="1100.2891" y2="1100.2891"/><text fill="#000000" font-family="sans-serif" font-size="13" lengthAdjust="spacing" textLength="103.27" x="1264.7397" y="1095.5469">send volume list</text><polygon fill="#181818" points="1893.4604,1125.5996,1903.4604,1129.5996,1893.4604,1133.5996,1897.4604,1129.5996" style="stroke:#181818;stroke-width:1.0;"/><line style="stroke:#181818;stroke-width:1.0;" x1="1555.2285" x2="1899.4604" y1="1129.5996" y2="1129.5996"/><text fill="#000000" font-family="sans-serif" font-size="13" lengthAdjust="spacing" textLength="65.3174" x="1562.2285" y="1124.8574">Fetch data</text><polygon fill="#181818" points="1268.7397,1170.2207,1258.7397,1174.2207,1268.7397,1178.2207,1264.7397,1174.2207" style="stroke:#181818;stroke-width:1.0;"/><line style="stroke:#181818;stroke-width:1.0;" x1="1262.7397" x2="1554.2285" y1="1174.2207" y2="1174.2207"/><text fill="#000000" font-family="sans-serif" font-size="13" lengthAdjust="spacing" textLength="137.1729" x="1274.7397" y="1154.168">Report fetching done.</text><text fill="#000000" font-family="sans-serif" font-size="13" lengthAdjust="spacing" textLength="45.7222" x="1274.7397" y="1169.4785">Include</text><text fill="#000000" font-family="sans-serif" font-size="13" font-weight="bold" lengthAdjust="spacing" textLength="129.1748" x="1324.5752" y="1169.4785">volume message id</text><text fill="#000000" font-family="sans-serif" font-size="13" lengthAdjust="spacing" textLength="4.1133" x="1453.75" y="1169.4785">.</text><polygon fill="#181818" points="938.6685,1214.8418,928.6685,1218.8418,938.6685,1222.8418,934.6685,1218.8418" style="stroke:#181818;stroke-width:1.0;"/><line style="stroke:#181818;stroke-width:1.0;" x1="932.6685" x2="1256.7397" y1="1218.8418" y2="1218.8418"/><text fill="#000000" font-family="sans-serif" font-size="13" lengthAdjust="spacing" textLength="137.1729" x="944.6685" y="1198.7891">Report fetching done.</text><text fill="#000000" font-family="sans-serif" font-size="13" lengthAdjust="spacing" textLength="45.7222" x="944.6685" y="1214.0996">Include</text><text fill="#000000" font-family="sans-serif" font-size="13" font-weight="bold" lengthAdjust="spacing" textLength="129.1748" x="994.5039" y="1214.0996">volume message id</text><text fill="#000000" font-family="sans-serif" font-size="13" lengthAdjust="spacing" textLength="4.1133" x="1123.6787" y="1214.0996">.</text><polygon fill="#181818" points="612.7104,1259.4629,602.7104,1263.4629,612.7104,1267.4629,608.7104,1263.4629" style="stroke:#181818;stroke-width:1.0;"/><line style="stroke:#181818;stroke-width:1.0;" x1="606.7104" x2="926.6685" y1="1263.4629" y2="1263.4629"/><text fill="#000000" font-family="sans-serif" font-size="13" lengthAdjust="spacing" textLength="137.1729" x="618.7104" y="1243.4102">Report fetching done.</text><text fill="#000000" font-family="sans-serif" font-size="13" lengthAdjust="spacing" textLength="45.7222" x="618.7104" y="1258.7207">Include</text><text fill="#000000" font-family="sans-serif" font-size="13" font-weight="bold" lengthAdjust="spacing" textLength="129.1748" x="668.5459" y="1258.7207">volume message id</text><text fill="#000000" font-family="sans-serif" font-size="13" lengthAdjust="spacing" textLength="4.1133" x="797.7207" y="1258.7207">.</text><polygon fill="#181818" points="286.7524,1304.084,276.7524,1308.084,286.7524,1312.084,282.7524,1308.084" style="stroke:#181818;stroke-width:1.0;"/><line style="stroke:#181818;stroke-width:1.0;" x1="280.7524" x2="600.7104" y1="1308.084" y2="1308.084"/><text fill="#000000" font-family="sans-serif" font-size="13" lengthAdjust="spacing" textLength="137.1729" x="292.7524" y="1288.0313">Report fetching done.</text><text fill="#000000" font-family="sans-serif" font-size="13" lengthAdjust="spacing" textLength="45.7222" x="292.7524" y="1303.3418">Include</text><text fill="#000000" font-family="sans-serif" font-size="13" font-weight="bold" lengthAdjust="spacing" textLength="129.1748" x="342.5879" y="1303.3418">volume message id</text><text fill="#000000" font-family="sans-serif" font-size="13" lengthAdjust="spacing" textLength="4.1133" x="471.7627" y="1303.3418">.</text><polygon fill="#181818" points="1832.895,1355.7051,1842.895,1359.7051,1832.895,1363.7051,1836.895,1359.7051" style="stroke:#181818;stroke-width:1.0;"/><line style="stroke:#181818;stroke-width:1.0;" x1="275.7524" x2="1838.895" y1="1359.7051" y2="1359.7051"/><text fill="#000000" font-family="sans-serif" font-size="13" lengthAdjust="spacing" textLength="294.0806" x="282.7524" y="1339.6523">Send request, it can be a streamed or buffered</text><text fill="#000000" font-family="sans-serif" font-size="13" lengthAdjust="spacing" textLength="290.4243" x="282.7524" y="1354.9629">HTTP or a websocket. Request is signed using</text><text fill="#000000" font-family="sans-serif" font-size="13" font-weight="bold" lengthAdjust="spacing" textLength="90.8984" x="577.29" y="1354.9629">client keypair</text><text fill="#000000" font-family="sans-serif" font-size="13" lengthAdjust="spacing" textLength="4.1133" x="668.1885" y="1354.9629">.</text><path d="M19,1374.7051 L86.1851,1374.7051 L86.1851,1382.0156 L76.1851,1392.0156 L19,1392.0156 L19,1374.7051 " fill="#EEEEEE" style="stroke:#000000;stroke-width:1.5;"/><rect fill="none" height="52.6211" style="stroke:#000000;stroke-width:1.5;" width="512.3008" x="19" y="1374.7051"/><text fill="#000000" font-family="sans-serif" font-size="13" font-weight="bold" lengthAdjust="spacing" textLength="22.1851" x="34" y="1388.2734">opt</text><path d="M29,1397.0156 L29,1422.0156 L521,1422.0156 L521,1407.0156 L511,1397.0156 L29,1397.0156 " fill="#FEFFDD" style="stroke:#181818;stroke-width:0.5;"/><path d="M511,1397.0156 L511,1407.0156 L521,1407.0156 L511,1397.0156 " fill="#FEFFDD" style="stroke:#181818;stroke-width:0.5;"/><text fill="#000000" font-family="sans-serif" font-size="13" lengthAdjust="spacing" textLength="332.7441" x="35" y="1414.584">Pass input/output file names (the ones referred to in</text><text fill="#000000" font-family="sans-serif" font-size="13" font-weight="bold" lengthAdjust="spacing" textLength="130.2158" x="371.8574" y="1414.584">volume uniqueness</text><text fill="#000000" font-family="sans-serif" font-size="13" lengthAdjust="spacing" textLength="4.2275" x="502.0732" y="1414.584">)</text><polygon fill="#181818" points="286.7524,1482.2578,276.7524,1486.2578,286.7524,1490.2578,282.7524,1486.2578" style="stroke:#181818;stroke-width:1.0;"/><line style="stroke:#181818;stroke-width:1.0;" x1="280.7524" x2="1838.895" y1="1486.2578" y2="1486.2578"/><text fill="#000000" font-family="sans-serif" font-size="13" lengthAdjust="spacing" textLength="346.7979" x="292.7524" y="1450.8945">Reply. Before the transmission ends, sign input/output</text><text fill="#000000" font-family="sans-serif" font-size="13" lengthAdjust="spacing" textLength="241.6172" x="292.7524" y="1466.2051">digest (or full value(s) in case of texts)</text><text fill="#000000" font-family="sans-serif" font-size="13" lengthAdjust="spacing" textLength="193.1147" x="292.7524" y="1481.5156">with the private counterpart of</text><text fill="#000000" font-family="sans-serif" font-size="13" font-weight="bold" lengthAdjust="spacing" textLength="95.4878" x="489.9805" y="1481.5156">Job public key</text><text fill="#000000" font-family="sans-serif" font-size="13" lengthAdjust="spacing" textLength="4.1133" x="585.4683" y="1481.5156">.</text><path d="M243,1501.2578 L310.1851,1501.2578 L310.1851,1508.5684 L300.1851,1518.5684 L243,1518.5684 L243,1501.2578 " fill="#EEEEEE" style="stroke:#000000;stroke-width:1.5;"/><rect fill="none" height="193.1738" style="stroke:#000000;stroke-width:1.5;" width="1705.1431" x="243" y="1501.2578"/><text fill="#000000" font-family="sans-serif" font-size="13" font-weight="bold" lengthAdjust="spacing" textLength="22.1851" x="258" y="1514.8262">opt</text><polygon fill="#181818" points="1566.2285,1535.8789,1556.2285,1539.8789,1566.2285,1543.8789,1562.2285,1539.8789" style="stroke:#181818;stroke-width:1.0;"/><line style="stroke:#181818;stroke-width:1.0;" x1="1560.2285" x2="1838.895" y1="1539.8789" y2="1539.8789"/><text fill="#000000" font-family="sans-serif" font-size="13" lengthAdjust="spacing" textLength="260.6665" x="1572.2285" y="1535.1367">Inform about files being ready for upload</text><polygon fill="#181818" points="1893.4604,1565.1895,1903.4604,1569.1895,1893.4604,1573.1895,1897.4604,1569.1895" style="stroke:#181818;stroke-width:1.0;"/><line style="stroke:#181818;stroke-width:1.0;" x1="1555.2285" x2="1899.4604" y1="1569.1895" y2="1569.1895"/><text fill="#000000" font-family="sans-serif" font-size="13" lengthAdjust="spacing" textLength="75.8101" x="1562.2285" y="1564.4473">Upload data</text><polygon fill="#181818" points="1268.7397,1594.5,1258.7397,1598.5,1268.7397,1602.5,1264.7397,1598.5" style="stroke:#181818;stroke-width:1.0;"/><line style="stroke:#181818;stroke-width:1.0;" x1="1262.7397" x2="1554.2285" y1="1598.5" y2="1598.5"/><text fill="#000000" font-family="sans-serif" font-size="13" lengthAdjust="spacing" textLength="144.8027" x="1274.7397" y="1593.7578">Report uploading done</text><polygon fill="#181818" points="938.6685,1623.8105,928.6685,1627.8105,938.6685,1631.8105,934.6685,1627.8105" style="stroke:#181818;stroke-width:1.0;"/><line style="stroke:#181818;stroke-width:1.0;" x1="932.6685" x2="1256.7397" y1="1627.8105" y2="1627.8105"/><text fill="#000000" font-family="sans-serif" font-size="13" lengthAdjust="spacing" textLength="144.8027" x="944.6685" y="1623.0684">Report uploading done</text><polygon fill="#181818" points="612.7104,1653.1211,602.7104,1657.1211,612.7104,1661.1211,608.7104,1657.1211" style="stroke:#181818;stroke-width:1.0;"/><line style="stroke:#181818;stroke-width:1.0;" x1="606.7104" x2="926.6685" y1="1657.1211" y2="1657.1211"/><text fill="#000000" font-family="sans-serif" font-size="13" lengthAdjust="spacing" textLength="144.8027" x="618.7104" y="1652.3789">Report uploading done</text><polygon fill="#181818" points="286.7524,1682.4316,276.7524,1686.4316,286.7524,1690.4316,282.7524,1686.4316" style="stroke:#181818;stroke-width:1.0;"/><line style="stroke:#181818;stroke-width:1.0;" x1="280.7524" x2="600.7104" y1="1686.4316" y2="1686.4316"/><text fill="#000000" font-family="sans-serif" font-size="13" lengthAdjust="spacing" textLength="144.8027" x="292.7524" y="1681.6895">Report uploading done</text><path d="M233,1708.4316 L300.1851,1708.4316 L300.1851,1715.7422 L290.1851,1725.7422 L233,1725.7422 L233,1708.4316 " fill="#EEEEEE" style="stroke:#000000;stroke-width:1.5;"/><rect fill="none" height="135.5527" style="stroke:#000000;stroke-width:1.5;" width="429.251" x="233" y="1708.4316"/><text fill="#000000" font-family="sans-serif" font-size="13" font-weight="bold" lengthAdjust="spacing" textLength="22.1851" x="248" y="1722">opt</text><text fill="#000000" font-family="sans-serif" font-size="11" font-weight="bold" lengthAdjust="spacing" textLength="208.8442" x="315.1851" y="1721.0664">[If this is a cross-validation request]</text><line style="stroke:#181818;stroke-width:1.0;" x1="275.7524" x2="317.7524" y1="1747.0527" y2="1747.0527"/><line style="stroke:#181818;stroke-width:1.0;" x1="317.7524" x2="317.7524" y1="1747.0527" y2="1760.0527"/><line style="stroke:#181818;stroke-width:1.0;" x1="276.7524" x2="317.7524" y1="1760.0527" y2="1760.0527"/><polygon fill="#181818" points="286.7524,1756.0527,276.7524,1760.0527,286.7524,1764.0527,282.7524,1760.0527" style="stroke:#181818;stroke-width:1.0;"/><text fill="#000000" font-family="sans-serif" font-size="13" lengthAdjust="spacing" textLength="187.7954" x="282.7524" y="1742.3105">Asses validity of the reposnse</text><path d="M243,1775.0527 L310.1851,1775.0527 L310.1851,1782.3633 L300.1851,1792.3633 L243,1792.3633 L243,1775.0527 " fill="#EEEEEE" style="stroke:#000000;stroke-width:1.5;"/><rect fill="none" height="61.9316" style="stroke:#000000;stroke-width:1.5;" width="409.251" x="243" y="1775.0527"/><text fill="#000000" font-family="sans-serif" font-size="13" font-weight="bold" lengthAdjust="spacing" textLength="22.1851" x="258" y="1788.6211">opt</text><text fill="#000000" font-family="sans-serif" font-size="11" font-weight="bold" lengthAdjust="spacing" textLength="120.8496" x="325.1851" y="1787.6875">[if reponse is invalid]</text><polygon fill="#181818" points="589.7104,1824.9844,599.7104,1828.9844,589.7104,1832.9844,593.7104,1828.9844" style="stroke:#181818;stroke-width:1.0;"/><line style="stroke:#181818;stroke-width:1.0;" x1="275.7524" x2="595.7104" y1="1828.9844" y2="1828.9844"/><text fill="#000000" font-family="sans-serif" font-size="13" lengthAdjust="spacing" textLength="254.4775" x="282.7524" y="1808.9316">Send info about malicious miner, signed</text><text fill="#000000" font-family="sans-serif" font-size="13" lengthAdjust="spacing" textLength="275.6343" x="282.7524" y="1824.2422">with a validator (not sn12 validator) hotkey.</text><polygon fill="#181818" points="1566.2285,1875.2949,1556.2285,1879.2949,1566.2285,1883.2949,1562.2285,1879.2949" style="stroke:#181818;stroke-width:1.0;"/><line style="stroke:#181818;stroke-width:1.0;" x1="1560.2285" x2="1843.895" y1="1879.2949" y2="1879.2949"/><text fill="#000000" font-family="sans-serif" font-size="13" lengthAdjust="spacing" textLength="80.9834" x="1572.2285" y="1874.5527">Report finish</text><path d="M1508.5298,1894.2949 L1575.7148,1894.2949 L1575.7148,1901.6055 L1565.7148,1911.6055 L1508.5298,1911.6055 L1508.5298,1894.2949 " fill="#EEEEEE" style="stroke:#000000;stroke-width:1.5;"/><rect fill="none" height="46.6211" style="stroke:#000000;stroke-width:1.5;" width="439.6133" x="1508.5298" y="1894.2949"/><text fill="#000000" font-family="sans-serif" font-size="13" font-weight="bold" lengthAdjust="spacing" textLength="22.1851" x="1523.5298" y="1907.8633">opt</text><text fill="#000000" font-family="sans-serif" font-size="11" font-weight="bold" lengthAdjust="spacing" textLength="165.8164" x="1590.7148" y="1906.9297">[job requires uploading data]</text><polygon fill="#181818" points="1893.4604,1928.916,1903.4604,1932.916,1893.4604,1936.916,1897.4604,1932.916" style="stroke:#181818;stroke-width:1.0;"/><line style="stroke:#181818;stroke-width:1.0;" x1="1555.2285" x2="1899.4604" y1="1932.916" y2="1932.916"/><text fill="#000000" font-family="sans-serif" font-size="13" lengthAdjust="spacing" textLength="75.8101" x="1562.2285" y="1928.1738">Upload data</text><polygon fill="#181818" points="1893.4604,1965.2266,1903.4604,1969.2266,1893.4604,1973.2266,1897.4604,1969.2266" style="stroke:#181818;stroke-width:1.0;"/><line style="stroke:#181818;stroke-width:1.0;" x1="1555.2285" x2="1899.4604" y1="1969.2266" y2="1969.2266"/><text fill="#000000" font-family="sans-serif" font-size="13" lengthAdjust="spacing" textLength="158.2026" x="1562.2285" y="1964.4844">Upload stdout and stderr</text><polygon fill="#181818" points="1268.7397,1994.5371,1258.7397,1998.5371,1268.7397,2002.5371,1264.7397,1998.5371" style="stroke:#181818;stroke-width:1.0;"/><line style="stroke:#181818;stroke-width:1.0;" x1="1262.7397" x2="1554.2285" y1="1998.5371" y2="1998.5371"/><text fill="#000000" font-family="sans-serif" font-size="13" lengthAdjust="spacing" textLength="101.6387" x="1274.7397" y="1993.7949">Report job done</text><polygon fill="#181818" points="938.6685,2023.8477,928.6685,2027.8477,938.6685,2031.8477,934.6685,2027.8477" style="stroke:#181818;stroke-width:1.0;"/><line style="stroke:#181818;stroke-width:1.0;" x1="932.6685" x2="1256.7397" y1="2027.8477" y2="2027.8477"/><text fill="#000000" font-family="sans-serif" font-size="13" lengthAdjust="spacing" textLength="101.6387" x="944.6685" y="2023.1055">Report job done</text><polygon fill="#181818" points="612.7104,2053.1582,602.7104,2057.1582,612.7104,2061.1582,608.7104,2057.1582" style="stroke:#181818;stroke-width:1.0;"/><line style="stroke:#181818;stroke-width:1.0;" x1="606.7104" x2="926.6685" y1="2057.1582" y2="2057.1582"/><text fill="#000000" font-family="sans-serif" font-size="13" lengthAdjust="spacing" textLength="101.6387" x="618.7104" y="2052.416">Report job done</text><polygon fill="#181818" points="286.7524,2082.4688,276.7524,2086.4688,286.7524,2090.4688,282.7524,2086.4688" style="stroke:#181818;stroke-width:1.0;"/><line style="stroke:#181818;stroke-width:1.0;" x1="280.7524" x2="600.7104" y1="2086.4688" y2="2086.4688"/><text fill="#000000" font-family="sans-serif" font-size="13" lengthAdjust="spacing" textLength="101.6387" x="292.7524" y="2081.7266">Report job done</text><!--SRC=[jLTDR-Cs4BthLmpGGsqZST4UVLWW3Rfj2XG8kcbFlj3Io6OjaIf9EUj_tpVKXsLBTj80wuijUhuvxyte8GtMqMEXsOIaKYxeL5VA1FgiKbteeF3tsVdVgj3PwFGFRVZyv9UldDQNOh_RpTdp5mYeBIT94y3zf-PxHRyoxAd0f6YnIECXxVbOAUqM2veTjABy523vR3_lRGmYNz4NDXdzOpUKSL2wyAJm77PCLRqfT2f6au72XVRZpbhFfvoZTfFhcL8lC7QOzF_TVugQhOWsEcXLd8d6_tknnnsdUyh5A-MEcRWjwTtQLDPxlIcEv2jjgAuWOlYLhE7EI5V_5JqhxoVTTIAznp-viYwGOvNX05gpJgroZ7jJGLlZAOERUUTdaFh_KhzI5bLCbkIKpQHKOgiG3np_Msl7dd8EwKwRBS67IWYVKxPjrwteimWr4h2Q30g2HeMhW5QLdaNyDaL2YKg3FaXRok5tXTxkmXOtOqwQhUf325mYfjGQmr128C6ImiKvpZX7KXczyiRRTC-ecAq39r0S9ZggfdI2PtSGOv8d- -2JTrpYfDuxRczAJrhFsOFEcX8yFPFACjJRtr7K5dmi5h5aFRuMY-NQlEmqcj2JrzkOkmwx1aZVUzhP0B7bi2NEKFWD8pk7SSS-tz9XKbXRKMs2BbhQfS2kr0PjvICpIH_3Nz0beo_8fcdjV6nXwNAT0-w5bSYs8fRPLzCz5ifjEVQpbBh5GXPLvJD9a5xmTB15NJ8LseUrcQ5f0IiZf96ZQJSIHJIA5jvm0otErcR3g0l7H9kGSB4gHpOnZRPEyzwziG2EFN0tRbO4Oa8xH8vl8oXHFq2JT0QQXxk1eHjsUlNQQCZAbK6zhUwh1bdir85XRsrAjMVoDSBETS5a53oISfsg9BCsFaXUy5rA39NmP_SWzmd6zVN6IrYmxmDNlW_ksbYuB7ElCER1gw8ZBhmgUPlhnbBdr77YJZ0riFjaqg96cq_Uql8ol36bVD3U6tJmGQkt0Fy1ap8tXjXg1eVSIzksTwGn1fGHv2Wq2qYb14w0t4sTv-m4IB-zl3nJdFFzJ5WYfgW_8CtQIspZVQY9v7msPShjcz7K4iSD-BGBGbM77m1rV0snCHC8eXp29mWNyGeC0859qCtFYX8dsg36nN59FpUa8LQ3KyQN6YHWZUY0EICV34DPcqnlfGmpr2Ul0UM3AcgU-Rd4a2fiPpO7WtuDVhusSQp4xSurjKWjc9QTx9mYDp6QOg0P3witAjd5P7u2BRgo9KOfbSVbDgD1PSSuB1e-l8N7lwB4-m1v8dnfpBS1TqN-3K1TqRe5c0cLxkvbLZtXPjgvhoXrs5dl3qqCSkENl7xv3l3WFIeR5NGunckEqm2xh_6d-DgXAESu5b_QHALUukhiQnVnViYLK4krhJsLKjgx5dXjNoawzEy1Cw28lFdnfzFPlDzZEfzTAUGxxfVJ6nwsGUrtoKKFZbVQGR5lxBJ3lXAdrqLyo2Hf6T_u2MXVNoRZhZrukHYtN2_nHfFrShVQgXVw3m00]--></g></svg>