<svg xmlns="http://www.w3.org/2000/svg" xmlns:xlink="http://www.w3.org/1999/xlink" contentStyleType="text/css" height="676px" preserveAspectRatio="none" style="width:910px;height:676px;background:#FFFFFF;" version="1.1" viewBox="0 0 910 676" width="910px" zoomAndPan="magnify"><defs/><g><rect fill="#FFFFFF" height="338.416" style="stroke:#181818;stroke-width:1.0;" width="10" x="70.543" y="242.6621"/><rect fill="#90EE90" height="64.6211" style="stroke:#181818;stroke-width:1.0;" width="10" x="795.8247" y="397.2148"/><rect fill="none" height="46.6211" style="stroke:#000000;stroke-width:1.5;" width="280.251" x="623.8218" y="322.2832"/><rect fill="none" height="46.6211" style="stroke:#000000;stroke-width:1.5;" width="280.251" x="623.8218" y="476.8359"/><line style="stroke:#181818;stroke-width:0.5;stroke-dasharray:5.0,5.0;" x1="75" x2="75" y1="36.4883" y2="641.3887"/><line style="stroke:#181818;stroke-width:0.5;stroke-dasharray:5.0,5.0;" x1="372.8706" x2="372.8706" y1="36.4883" y2="641.3887"/><line style="stroke:#181818;stroke-width:0.5;stroke-dasharray:5.0,5.0;" x1="669.8218" x2="669.8218" y1="36.4883" y2="641.3887"/><line style="stroke:#181818;stroke-width:0.5;stroke-dasharray:5.0,5.0;" x1="799.9419" x2="799.9419" y1="36.4883" y2="641.3887"/><line style="stroke:#181818;stroke-width:0.5;stroke-dasharray:5.0,5.0;" x1="860.7075" x2="860.7075" y1="36.4883" y2="641.3887"/><rect fill="#E2E2F0" height="30.4883" rx="2.5" ry="2.5" style="stroke:#181818;stroke-width:0.5;" width="75.0859" x="38" y="5"/><text fill="#000000" font-family="sans-serif" font-size="14" lengthAdjust="spacing" textLength="61.0859" x="45" y="25.5352">Validator</text><rect fill="#E2E2F0" height="30.4883" rx="2.5" ry="2.5" style="stroke:#181818;stroke-width:0.5;" width="75.0859" x="38" y="640.3887"/><text fill="#000000" font-family="sans-serif" font-size="14" lengthAdjust="spacing" textLength="61.0859" x="45" y="660.9238">Validator</text><rect fill="#E2E2F0" height="30.4883" rx="2.5" ry="2.5" style="stroke:#181818;stroke-width:0.5;" width="52.3223" x="346.8706" y="5"/><text fill="#000000" font-family="sans-serif" font-size="14" lengthAdjust="spacing" textLength="38.3223" x="353.8706" y="25.5352">Miner</text><rect fill="#E2E2F0" height="30.4883" rx="2.5" ry="2.5" style="stroke:#181818;stroke-width:0.5;" width="52.3223" x="346.8706" y="640.3887"/><text fill="#000000" font-family="sans-serif" font-size="14" lengthAdjust="spacing" textLength="38.3223" x="353.8706" y="660.9238">Miner</text><rect fill="#E2E2F0" height="30.4883" rx="2.5" ry="2.5" style="stroke:#181818;stroke-width:0.5;" width="73.3975" x="633.8218" y="5"/><text fill="#000000" font-family="sans-serif" font-size="14" lengthAdjust="spacing" textLength="59.3975" x="640.8218" y="25.5352">Executor</text><rect fill="#E2E2F0" height="30.4883" rx="2.5" ry="2.5" style="stroke:#181818;stroke-width:0.5;" width="73.3975" x="633.8218" y="640.3887"/><text fill="#000000" font-family="sans-serif" font-size="14" lengthAdjust="spacing" textLength="59.3975" x="640.8218" y="660.9238">Executor</text><rect fill="#E2E2F0" height="30.4883" rx="2.5" ry="2.5" style="stroke:#181818;stroke-width:0.5;" width="35.7656" x="782.9419" y="5"/><text fill="#000000" font-family="sans-serif" font-size="14" lengthAdjust="spacing" textLength="21.7656" x="789.9419" y="25.5352">Job</text><rect fill="#E2E2F0" height="30.4883" rx="2.5" ry="2.5" style="stroke:#181818;stroke-width:0.5;" width="35.7656" x="782.9419" y="640.3887"/><text fill="#000000" font-family="sans-serif" font-size="14" lengthAdjust="spacing" textLength="21.7656" x="789.9419" y="660.9238">Job</text><rect fill="#E2E2F0" height="30.4883" rx="2.5" ry="2.5" style="stroke:#181818;stroke-width:0.5;" width="65.3652" x="828.7075" y="5"/><text fill="#000000" font-family="sans-serif" font-size="14" lengthAdjust="spacing" textLength="51.3652" x="835.7075" y="25.5352">Storage</text><rect fill="#E2E2F0" height="30.4883" rx="2.5" ry="2.5" style="stroke:#181818;stroke-width:0.5;" width="65.3652" x="828.7075" y="640.3887"/><text fill="#000000" font-family="sans-serif" font-size="14" lengthAdjust="spacing" textLength="51.3652" x="835.7075" y="660.9238">Storage</text><rect fill="#FFFFFF" height="338.416" style="stroke:#181818;stroke-width:1.0;" width="10" x="70.543" y="242.6621"/><rect fill="#90EE90" height="64.6211" style="stroke:#181818;stroke-width:1.0;" width="10" x="795.8247" y="397.2148"/><polygon fill="#181818" points="361.0317,63.7988,371.0317,67.7988,361.0317,71.7988,365.0317,67.7988" style="stroke:#181818;stroke-width:1.0;"/><line style="stroke:#181818;stroke-width:1.0;" x1="75.543" x2="367.0317" y1="67.7988" y2="67.7988"/><text fill="#000000" font-family="sans-serif" font-size="13" lengthAdjust="spacing" textLength="139.7056" x="82.543" y="63.0566">Send initial job details</text><line style="stroke:#181818;stroke-width:1.0;" x1="373.0317" x2="415.0317" y1="112.4199" y2="112.4199"/><line style="stroke:#181818;stroke-width:1.0;" x1="415.0317" x2="415.0317" y1="112.4199" y2="125.4199"/><line style="stroke:#181818;stroke-width:1.0;" x1="374.0317" x2="415.0317" y1="125.4199" y2="125.4199"/><polygon fill="#181818" points="384.0317,121.4199,374.0317,125.4199,384.0317,129.4199,380.0317,125.4199" style="stroke:#181818;stroke-width:1.0;"/><text fill="#000000" font-family="sans-serif" font-size="13" lengthAdjust="spacing" textLength="164.3281" x="380.0317" y="92.3672">Check for a free executor,</text><text fill="#000000" font-family="sans-serif" font-size="13" lengthAdjust="spacing" textLength="171.1646" x="380.0317" y="107.6777">possibly spin up a new one</text><polygon fill="#181818" points="658.5205,150.7305,668.5205,154.7305,658.5205,158.7305,662.5205,154.7305" style="stroke:#181818;stroke-width:1.0;"/><line style="stroke:#181818;stroke-width:1.0;" x1="373.0317" x2="664.5205" y1="154.7305" y2="154.7305"/><text fill="#000000" font-family="sans-serif" font-size="13" lengthAdjust="spacing" textLength="136.8301" x="380.0317" y="149.9883">Pass initial job details</text><polygon fill="#181818" points="384.0317,180.041,374.0317,184.041,384.0317,188.041,380.0317,184.041" style="stroke:#181818;stroke-width:1.0;"/><line style="stroke:#181818;stroke-width:1.0;" x1="378.0317" x2="669.5205" y1="184.041" y2="184.041"/><text fill="#000000" font-family="sans-serif" font-size="13" lengthAdjust="spacing" textLength="273.4888" x="390.0317" y="179.2988">Report readiness (initial preparations done)</text><polygon fill="#181818" points="86.543,209.3516,76.543,213.3516,86.543,217.3516,82.543,213.3516" style="stroke:#181818;stroke-width:1.0;"/><line style="stroke:#181818;stroke-width:1.0;" x1="80.543" x2="372.0317" y1="213.3516" y2="213.3516"/><text fill="#000000" font-family="sans-serif" font-size="13" lengthAdjust="spacing" textLength="273.4888" x="92.543" y="208.6094">Report readiness (initial preparations done)</text><polygon fill="#181818" points="361.0317,238.6621,371.0317,242.6621,361.0317,246.6621,365.0317,242.6621" style="stroke:#181818;stroke-width:1.0;"/><line style="stroke:#181818;stroke-width:1.0;" x1="80.543" x2="367.0317" y1="242.6621" y2="242.6621"/><text fill="#000000" font-family="sans-serif" font-size="13" lengthAdjust="spacing" textLength="119.2598" x="87.543" y="237.9199">Send all job details</text><path d="M5,255.6621 L5,280.6621 L147,280.6621 L147,265.6621 L137,255.6621 L5,255.6621 " fill="#FEFFDD" style="stroke:#181818;stroke-width:0.5;"/><path d="M137,255.6621 L137,265.6621 L147,265.6621 L137,255.6621 " fill="#FEFFDD" style="stroke:#181818;stroke-width:0.5;"/><text fill="#000000" font-family="sans-serif" font-size="13" lengthAdjust="spacing" textLength="121.0244" x="11" y="273.2305">Start counting time</text><polygon fill="#181818" points="658.5205,303.2832,668.5205,307.2832,658.5205,311.2832,662.5205,307.2832" style="stroke:#181818;stroke-width:1.0;"/><line style="stroke:#181818;stroke-width:1.0;" x1="373.0317" x2="664.5205" y1="307.2832" y2="307.2832"/><text fill="#000000" font-family="sans-serif" font-size="13" lengthAdjust="spacing" textLength="119.2598" x="380.0317" y="302.541">Send all job details</text><path d="M623.8218,322.2832 L691.0068,322.2832 L691.0068,329.5938 L681.0068,339.5938 L623.8218,339.5938 L623.8218,322.2832 " fill="#EEEEEE" style="stroke:#000000;stroke-width:1.5;"/><rect fill="none" height="46.6211" style="stroke:#000000;stroke-width:1.5;" width="280.251" x="623.8218" y="322.2832"/><text fill="#000000" font-family="sans-serif" font-size="13" font-weight="bold" lengthAdjust="spacing" textLength="22.1851" x="638.8218" y="335.8516">opt</text><text fill="#000000" font-family="sans-serif" font-size="11" font-weight="bold" lengthAdjust="spacing" textLength="155.4878" x="706.0068" y="334.918">[job requires fetching data]</text><polygon fill="#181818" points="849.3901,356.9043,859.3901,360.9043,849.3901,364.9043,853.3901,360.9043" style="stroke:#181818;stroke-width:1.0;"/><line style="stroke:#181818;stroke-width:1.0;" x1="670.5205" x2="855.3901" y1="360.9043" y2="360.9043"/><text fill="#000000" font-family="sans-serif" font-size="13" lengthAdjust="spacing" textLength="65.3174" x="677.5205" y="356.1621">Fetch data</text><polygon fill="#181818" points="783.8247,393.2148,793.8247,397.2148,783.8247,401.2148,787.8247,397.2148" style="stroke:#181818;stroke-width:1.0;"/><line style="stroke:#181818;stroke-width:1.0;" x1="670.5205" x2="789.8247" y1="397.2148" y2="397.2148"/><text fill="#000000" font-family="sans-serif" font-size="13" lengthAdjust="spacing" textLength="106.3042" x="677.5205" y="392.4727">Start Job process</text><path d="M779,410.2148 L779,435.2148 L821,435.2148 L821,420.2148 L811,410.2148 L779,410.2148 " fill="#FEFFDD" style="stroke:#181818;stroke-width:0.5;"/><path d="M811,410.2148 L811,420.2148 L821,420.2148 L811,410.2148 " fill="#FEFFDD" style="stroke:#181818;stroke-width:0.5;"/><text fill="#000000" font-family="sans-serif" font-size="13" lengthAdjust="spacing" textLength="21.4551" x="785" y="427.7832">run</text><polygon fill="#181818" points="681.5205,457.8359,671.5205,461.8359,681.5205,465.8359,677.5205,461.8359" style="stroke:#181818;stroke-width:1.0;"/><line style="stroke:#181818;stroke-width:1.0;" x1="675.5205" x2="799.8247" y1="461.8359" y2="461.8359"/><text fill="#000000" font-family="sans-serif" font-size="13" lengthAdjust="spacing" textLength="80.9834" x="687.5205" y="457.0938">Report finish</text><path d="M623.8218,476.8359 L691.0068,476.8359 L691.0068,484.1465 L681.0068,494.1465 L623.8218,494.1465 L623.8218,476.8359 " fill="#EEEEEE" style="stroke:#000000;stroke-width:1.5;"/><rect fill="none" height="46.6211" style="stroke:#000000;stroke-width:1.5;" width="280.251" x="623.8218" y="476.8359"/><text fill="#000000" font-family="sans-serif" font-size="13" font-weight="bold" lengthAdjust="spacing" textLength="22.1851" x="638.8218" y="490.4043">opt</text><text fill="#000000" font-family="sans-serif" font-size="11" font-weight="bold" lengthAdjust="spacing" textLength="165.8164" x="706.0068" y="489.4707">[job requires uploading data]</text><polygon fill="#181818" points="849.3901,511.457,859.3901,515.457,849.3901,519.457,853.3901,515.457" style="stroke:#181818;stroke-width:1.0;"/><line style="stroke:#181818;stroke-width:1.0;" x1="670.5205" x2="855.3901" y1="515.457" y2="515.457"/><text fill="#000000" font-family="sans-serif" font-size="13" lengthAdjust="spacing" textLength="75.8101" x="677.5205" y="510.7148">Upload data</text><polygon fill="#181818" points="384.0317,547.7676,374.0317,551.7676,384.0317,555.7676,380.0317,551.7676" style="stroke:#181818;stroke-width:1.0;"/><line style="stroke:#181818;stroke-width:1.0;" x1="378.0317" x2="669.5205" y1="551.7676" y2="551.7676"/><text fill="#000000" font-family="sans-serif" font-size="13" lengthAdjust="spacing" textLength="101.6387" x="390.0317" y="547.0254">Report job done</text><polygon fill="#181818" points="86.543,577.0781,76.543,581.0781,86.543,585.0781,82.543,581.0781" style="stroke:#181818;stroke-width:1.0;"/><line style="stroke:#181818;stroke-width:1.0;" x1="80.543" x2="372.0317" y1="581.0781" y2="581.0781"/><text fill="#000000" font-family="sans-serif" font-size="13" lengthAdjust="spacing" textLength="101.6387" x="92.543" y="576.3359">Report job done</text><line style="stroke:#181818;stroke-width:1.0;" x1="75.543" x2="117.543" y1="610.3887" y2="610.3887"/><line style="stroke:#181818;stroke-width:1.0;" x1="117.543" x2="117.543" y1="610.3887" y2="623.3887"/><line style="stroke:#181818;stroke-width:1.0;" x1="76.543" x2="117.543" y1="623.3887" y2="623.3887"/><polygon fill="#181818" points="86.543,619.3887,76.543,623.3887,86.543,627.3887,82.543,623.3887" style="stroke:#181818;stroke-width:1.0;"/><text fill="#000000" font-family="sans-serif" font-size="13" lengthAdjust="spacing" textLength="242.9692" x="82.543" y="605.6465">Calculate score based time and output</text><!--SRC=[bL91JiGm3Bpd5PQuW0GVs0EN5HoGa10hE75nKxSDX2GapWA_notRDcKB4ZsbpdZ6dad0o4QRW8xX4QsfaNrKeQZU6aVBojK7wVmJTkEhnVzE0DYIKXFhnUL0jO4TkHgCCspGmhEle2P6OvCQxYVOjYFz0esFWD148g23xlcJ2pubKzbFIC4uo44WZjx1Enf9nY4tS8SfhSgDa4dndeAF396mbe9qdOvj8P8iXsoyIr2BpDceCwttp_PVR46xdD5v9l1xYb08xLYC1kspO-DQOFDA2ZMRFGfuJl78YLK5vGCFXKXlsKHAq13hhYSM6bGWt-pK8TODNFUWRuImgi9CUGdZY7AKtRqMC-O1-oASMDDst4gihjXnQ8tPAJcKWn-SRSJFrAcQIgwL1NAmli_WxmqU1jJg2iltCBXLFAtZo2T4CTgSGn5rqRf5gxFjaKdxI51Xedh84b1Yyfb3PlK5]--></g></svg>