<svg xmlns="http://www.w3.org/2000/svg" xmlns:xlink="http://www.w3.org/1999/xlink" contentStyleType="text/css" height="696px" preserveAspectRatio="none" style="width:944px;height:696px;background:#FFFFFF;" version="1.1" viewBox="0 0 944 696" width="944px" zoomAndPan="magnify"><defs/><g><rect fill="none" height="46.6211" style="stroke:#000000;stroke-width:1.5;" width="314.5137" x="623.8218" y="322.2832"/><rect fill="none" height="46.6211" style="stroke:#000000;stroke-width:1.5;" width="314.5137" x="623.8218" y="496.8359"/><line style="stroke:#181818;stroke-width:0.5;stroke-dasharray:5.0,5.0;" x1="75" x2="75" y1="36.4883" y2="661.3887"/><line style="stroke:#181818;stroke-width:0.5;stroke-dasharray:5.0,5.0;" x1="372.8706" x2="372.8706" y1="36.4883" y2="661.3887"/><line style="stroke:#181818;stroke-width:0.5;stroke-dasharray:5.0,5.0;" x1="669.8218" x2="669.8218" y1="36.4883" y2="661.3887"/><line style="stroke:#181818;stroke-width:0.5;stroke-dasharray:5.0,5.0;" x1="789.9419" x2="789.9419" y1="36.4883" y2="661.3887"/><line style="stroke:#181818;stroke-width:0.5;stroke-dasharray:5.0,5.0;" x1="872.7075" x2="872.7075" y1="36.4883" y2="661.3887"/><rect fill="#E2E2F0" height="30.4883" rx="2.5" ry="2.5" style="stroke:#181818;stroke-width:0.5;" width="75.0859" x="38" y="5"/><text fill="#000000" font-family="sans-serif" font-size="14" lengthAdjust="spacing" textLength="61.0859" x="45" y="25.5352">Validator</text><rect fill="#E2E2F0" height="30.4883" rx="2.5" ry="2.5" style="stroke:#181818;stroke-width:0.5;" width="75.0859" x="38" y="660.3887"/><text fill="#000000" font-family="sans-serif" font-size="14" lengthAdjust="spacing" textLength="61.0859" x="45" y="680.9238">Validator</text><rect fill="#E2E2F0" height="30.4883" rx="2.5" ry="2.5" style="stroke:#181818;stroke-width:0.5;" width="52.3223" x="346.8706" y="5"/><text fill="#000000" font-family="sans-serif" font-size="14" lengthAdjust="spacing" textLength="38.3223" x="353.8706" y="25.5352">Miner</text><rect fill="#E2E2F0" height="30.4883" rx="2.5" ry="2.5" style="stroke:#181818;stroke-width:0.5;" width="52.3223" x="346.8706" y="660.3887"/><text fill="#000000" font-family="sans-serif" font-size="14" lengthAdjust="spacing" textLength="38.3223" x="353.8706" y="680.9238">Miner</text><rect fill="#E2E2F0" height="30.4883" rx="2.5" ry="2.5" style="stroke:#181818;stroke-width:0.5;" width="73.3975" x="633.8218" y="5"/><text fill="#000000" font-family="sans-serif" font-size="14" lengthAdjust="spacing" textLength="59.3975" x="640.8218" y="25.5352">Executor</text><rect fill="#E2E2F0" height="30.4883" rx="2.5" ry="2.5" style="stroke:#181818;stroke-width:0.5;" width="73.3975" x="633.8218" y="660.3887"/><text fill="#000000" font-family="sans-serif" font-size="14" lengthAdjust="spacing" textLength="59.3975" x="640.8218" y="680.9238">Executor</text><rect fill="#E2E2F0" height="30.4883" rx="2.5" ry="2.5" style="stroke:#181818;stroke-width:0.5;" width="35.7656" x="772.9419" y="5"/><text fill="#000000" font-family="sans-serif" font-size="14" lengthAdjust="spacing" textLength="21.7656" x="779.9419" y="25.5352">Job</text><rect fill="#E2E2F0" height="30.4883" rx="2.5" ry="2.5" style="stroke:#181818;stroke-width:0.5;" width="35.7656" x="772.9419" y="660.3887"/><text fill="#000000" font-family="sans-serif" font-size="14" lengthAdjust="spacing" textLength="21.7656" x="779.9419" y="680.9238">Job</text><rect fill="#E2E2F0" height="30.4883" rx="2.5" ry="2.5" style="stroke:#181818;stroke-width:0.5;" width="109.6279" x="818.7075" y="5"/><text fill="#000000" font-family="sans-serif" font-size="14" lengthAdjust="spacing" textLength="95.6279" x="825.7075" y="25.5352">Cloud Storage</text><rect fill="#E2E2F0" height="30.4883" rx="2.5" ry="2.5" style="stroke:#181818;stroke-width:0.5;" width="109.6279" x="818.7075" y="660.3887"/><text fill="#000000" font-family="sans-serif" font-size="14" lengthAdjust="spacing" textLength="95.6279" x="825.7075" y="680.9238">Cloud Storage</text><polygon fill="#181818" points="361.0317,63.7988,371.0317,67.7988,361.0317,71.7988,365.0317,67.7988" style="stroke:#181818;stroke-width:1.0;"/><line style="stroke:#181818;stroke-width:1.0;" x1="75.543" x2="367.0317" y1="67.7988" y2="67.7988"/><text fill="#000000" font-family="sans-serif" font-size="13" lengthAdjust="spacing" textLength="139.7056" x="82.543" y="63.0566">Send initial job details</text><line style="stroke:#181818;stroke-width:1.0;" x1="373.0317" x2="415.0317" y1="112.4199" y2="112.4199"/><line style="stroke:#181818;stroke-width:1.0;" x1="415.0317" x2="415.0317" y1="112.4199" y2="125.4199"/><line style="stroke:#181818;stroke-width:1.0;" x1="374.0317" x2="415.0317" y1="125.4199" y2="125.4199"/><polygon fill="#181818" points="384.0317,121.4199,374.0317,125.4199,384.0317,129.4199,380.0317,125.4199" style="stroke:#181818;stroke-width:1.0;"/><text fill="#000000" font-family="sans-serif" font-size="13" lengthAdjust="spacing" textLength="164.3281" x="380.0317" y="92.3672">Check for a free executor,</text><text fill="#000000" font-family="sans-serif" font-size="13" lengthAdjust="spacing" textLength="171.1646" x="380.0317" y="107.6777">possibly spin up a new one</text><polygon fill="#181818" points="658.5205,150.7305,668.5205,154.7305,658.5205,158.7305,662.5205,154.7305" style="stroke:#181818;stroke-width:1.0;"/><line style="stroke:#181818;stroke-width:1.0;" x1="373.0317" x2="664.5205" y1="154.7305" y2="154.7305"/><text fill="#000000" font-family="sans-serif" font-size="13" lengthAdjust="spacing" textLength="136.8301" x="380.0317" y="149.9883">Pass initial job details</text><polygon fill="#181818" points="384.0317,180.041,374.0317,184.041,384.0317,188.041,380.0317,184.041" style="stroke:#181818;stroke-width:1.0;"/><line style="stroke:#181818;stroke-width:1.0;" x1="378.0317" x2="669.5205" y1="184.041" y2="184.041"/><text fill="#000000" font-family="sans-serif" font-size="13" lengthAdjust="spacing" textLength="273.4888" x="390.0317" y="179.2988">Report readiness (initial preparations done)</text><polygon fill="#181818" points="86.543,209.3516,76.543,213.3516,86.543,217.3516,82.543,213.3516" style="stroke:#181818;stroke-width:1.0;"/><line style="stroke:#181818;stroke-width:1.0;" x1="80.543" x2="372.0317" y1="213.3516" y2="213.3516"/><text fill="#000000" font-family="sans-serif" font-size="13" lengthAdjust="spacing" textLength="273.4888" x="92.543" y="208.6094">Report readiness (initial preparations done)</text><polygon fill="#181818" points="361.0317,238.6621,371.0317,242.6621,361.0317,246.6621,365.0317,242.6621" style="stroke:#181818;stroke-width:1.0;"/><line style="stroke:#181818;stroke-width:1.0;" x1="75.543" x2="367.0317" y1="242.6621" y2="242.6621"/><text fill="#000000" font-family="sans-serif" font-size="13" lengthAdjust="spacing" textLength="119.2598" x="82.543" y="237.9199">Send all job details</text><path d="M5,255.6621 L5,280.6621 L147,280.6621 L147,265.6621 L137,255.6621 L5,255.6621 " fill="#FEFFDD" style="stroke:#181818;stroke-width:0.5;"/><path d="M137,255.6621 L137,265.6621 L147,265.6621 L137,255.6621 " fill="#FEFFDD" style="stroke:#181818;stroke-width:0.5;"/><text fill="#000000" font-family="sans-serif" font-size="13" lengthAdjust="spacing" textLength="121.0244" x="11" y="273.2305">Start counting time</text><polygon fill="#181818" points="658.5205,303.2832,668.5205,307.2832,658.5205,311.2832,662.5205,307.2832" style="stroke:#181818;stroke-width:1.0;"/><line style="stroke:#181818;stroke-width:1.0;" x1="373.0317" x2="664.5205" y1="307.2832" y2="307.2832"/><text fill="#000000" font-family="sans-serif" font-size="13" lengthAdjust="spacing" textLength="119.2598" x="380.0317" y="302.541">Send all job details</text><path d="M623.8218,322.2832 L685.9604,322.2832 L685.9604,329.5938 L675.9604,339.5938 L623.8218,339.5938 L623.8218,322.2832 " fill="#EEEEEE" style="stroke:#000000;stroke-width:1.5;"/><rect fill="none" height="46.6211" style="stroke:#000000;stroke-width:1.5;" width="314.5137" x="623.8218" y="322.2832"/><text fill="#000000" font-family="sans-serif" font-size="13" font-weight="bold" lengthAdjust="spacing" textLength="17.1387" x="638.8218" y="335.8516">alt</text><text fill="#000000" font-family="sans-serif" font-size="11" font-weight="bold" lengthAdjust="spacing" textLength="155.4878" x="700.9604" y="334.918">[job requires fetching data]</text><polygon fill="#181818" points="861.5215,356.9043,871.5215,360.9043,861.5215,364.9043,865.5215,360.9043" style="stroke:#181818;stroke-width:1.0;"/><line style="stroke:#181818;stroke-width:1.0;" x1="670.5205" x2="867.5215" y1="360.9043" y2="360.9043"/><text fill="#000000" font-family="sans-serif" font-size="13" lengthAdjust="spacing" textLength="65.3174" x="677.5205" y="356.1621">Fetch data</text><line style="stroke:#181818;stroke-width:1.0;" x1="670.5205" x2="712.5205" y1="397.2148" y2="397.2148"/><line style="stroke:#181818;stroke-width:1.0;" x1="712.5205" x2="712.5205" y1="397.2148" y2="410.2148"/><line style="stroke:#181818;stroke-width:1.0;" x1="671.5205" x2="712.5205" y1="410.2148" y2="410.2148"/><polygon fill="#181818" points="681.5205,406.2148,671.5205,410.2148,681.5205,414.2148,677.5205,410.2148" style="stroke:#181818;stroke-width:1.0;"/><text fill="#000000" font-family="sans-serif" font-size="13" lengthAdjust="spacing" textLength="106.3042" x="677.5205" y="392.4727">Start Job process</text><line style="stroke:#181818;stroke-width:1.0;" x1="790.8247" x2="832.8247" y1="439.5254" y2="439.5254"/><line style="stroke:#181818;stroke-width:1.0;" x1="832.8247" x2="832.8247" y1="439.5254" y2="452.5254"/><line style="stroke:#181818;stroke-width:1.0;" x1="791.8247" x2="832.8247" y1="452.5254" y2="452.5254"/><polygon fill="#181818" points="801.8247,448.5254,791.8247,452.5254,801.8247,456.5254,797.8247,452.5254" style="stroke:#181818;stroke-width:1.0;"/><text fill="#000000" font-family="sans-serif" font-size="13" lengthAdjust="spacing" textLength="21.4551" x="797.8247" y="434.7832">run</text><polygon fill="#181818" points="681.5205,477.8359,671.5205,481.8359,681.5205,485.8359,677.5205,481.8359" style="stroke:#181818;stroke-width:1.0;"/><line style="stroke:#181818;stroke-width:1.0;" x1="675.5205" x2="789.8247" y1="481.8359" y2="481.8359"/><text fill="#000000" font-family="sans-serif" font-size="13" lengthAdjust="spacing" textLength="80.9834" x="687.5205" y="477.0938">Report finish</text><path d="M623.8218,496.8359 L685.9604,496.8359 L685.9604,504.1465 L675.9604,514.1465 L623.8218,514.1465 L623.8218,496.8359 " fill="#EEEEEE" style="stroke:#000000;stroke-width:1.5;"/><rect fill="none" height="46.6211" style="stroke:#000000;stroke-width:1.5;" width="314.5137" x="623.8218" y="496.8359"/><text fill="#000000" font-family="sans-serif" font-size="13" font-weight="bold" lengthAdjust="spacing" textLength="17.1387" x="638.8218" y="510.4043">alt</text><text fill="#000000" font-family="sans-serif" font-size="11" font-weight="bold" lengthAdjust="spacing" textLength="165.8164" x="700.9604" y="509.4707">[job requires uploading data]</text><polygon fill="#181818" points="861.5215,531.457,871.5215,535.457,861.5215,539.457,865.5215,535.457" style="stroke:#181818;stroke-width:1.0;"/><line style="stroke:#181818;stroke-width:1.0;" x1="670.5205" x2="867.5215" y1="535.457" y2="535.457"/><text fill="#000000" font-family="sans-serif" font-size="13" lengthAdjust="spacing" textLength="75.8101" x="677.5205" y="530.7148">Upload data</text><polygon fill="#181818" points="384.0317,567.7676,374.0317,571.7676,384.0317,575.7676,380.0317,571.7676" style="stroke:#181818;stroke-width:1.0;"/><line style="stroke:#181818;stroke-width:1.0;" x1="378.0317" x2="669.5205" y1="571.7676" y2="571.7676"/><text fill="#000000" font-family="sans-serif" font-size="13" lengthAdjust="spacing" textLength="101.6387" x="390.0317" y="567.0254">Report job done</text><polygon fill="#181818" points="86.543,597.0781,76.543,601.0781,86.543,605.0781,82.543,601.0781" style="stroke:#181818;stroke-width:1.0;"/><line style="stroke:#181818;stroke-width:1.0;" x1="80.543" x2="372.0317" y1="601.0781" y2="601.0781"/><text fill="#000000" font-family="sans-serif" font-size="13" lengthAdjust="spacing" textLength="101.6387" x="92.543" y="596.3359">Report job done</text><line style="stroke:#181818;stroke-width:1.0;" x1="75.543" x2="117.543" y1="630.3887" y2="630.3887"/><line style="stroke:#181818;stroke-width:1.0;" x1="117.543" x2="117.543" y1="630.3887" y2="643.3887"/><line style="stroke:#181818;stroke-width:1.0;" x1="76.543" x2="117.543" y1="643.3887" y2="643.3887"/><polygon fill="#181818" points="86.543,639.3887,76.543,643.3887,86.543,647.3887,82.543,643.3887" style="stroke:#181818;stroke-width:1.0;"/><text fill="#000000" font-family="sans-serif" font-size="13" lengthAdjust="spacing" textLength="242.9692" x="82.543" y="625.6465">Calculate score based time and output</text><!--SRC=[bL9DJyCm3BtdLrYSG69_e8TT9ZWW8I4cE75nKtSBX3Wa3X__7gzRktOK2Nge6lVvFVkzH4pYh8iO11xHkmQ5aucZwgqBDArSVP8jfx0RhYVdivNdqi1QSRYXCsC6ziMoewnWJQ415vmuzF3CDJGaw7mstVy1jjgIVO6M4o2qYGZee7_v52Bdx6h_1Jcw02Kg9D07SA2Uf1-sWZlCULQkXmoAznGv2IJ2HWlQTTwtnKIw98hZaA5HcOjUPrZld-s_s89-EcDW8U1tIZ0IMeiQ3fPB41Ss8EvrPkrPEeDUkaAYj-8IPMX9x7R7ejneG9-ZBITPLd2z0- -Hocv63evqk-7qMkZMRDK6ez-BfRugI2NiJqVumRHMhShRcVbAzBppysy3FdJesGcd6NUcZAxBpnW7n2Yf4Mg5tXQFcawsd0XgpDHqKG2gyLma5Z7V]--></g></svg>