<svg xmlns="http://www.w3.org/2000/svg" xmlns:xlink="http://www.w3.org/1999/xlink" contentStyleType="text/css" data-diagram-type="SEQUENCE" height="727px" preserveAspectRatio="none" style="width:887px;height:727px;background:#FFFFFF;" version="1.1" viewBox="0 0 887 727" width="887px" zoomAndPan="magnify"><defs/><g><g><title>Validator</title><rect fill="#FFFFFF" height="364.7662" style="stroke:#181818;stroke-width:1;" width="10" x="68.6239" y="262.01"/></g><g><title>Job</title><rect fill="#90EE90" height="69.412" style="stroke:#181818;stroke-width:1;" width="10" x="773.8415" y="428.5401"/></g><rect fill="none" height="51.412" style="stroke:#000000;stroke-width:1.5;" width="275.2938" x="606.3505" y="346.4221"/><rect fill="none" height="51.412" style="stroke:#000000;stroke-width:1.5;" width="275.2938" x="606.3505" y="512.9521"/><g><title>Validator</title><rect fill="#000000" fill-opacity="0.00000" height="650.4143" width="8" x="69.6239" y="39.0679"/><line style="stroke:#181818;stroke-width:0.5;stroke-dasharray:5.0,5.0;" x1="73" x2="73" y1="39.0679" y2="689.4822"/></g><g><title>Miner</title><rect fill="#000000" fill-opacity="0.00000" height="650.4143" width="8" x="358.9282" y="39.0679"/><line style="stroke:#181818;stroke-width:0.5;stroke-dasharray:5.0,5.0;" x1="362.6082" x2="362.6082" y1="39.0679" y2="689.4822"/></g><g><title>Executor</title><rect fill="#000000" fill-opacity="0.00000" height="650.4143" width="8" x="648.2324" y="39.0679"/><line style="stroke:#181818;stroke-width:0.5;stroke-dasharray:5.0,5.0;" x1="651.3505" x2="651.3505" y1="39.0679" y2="689.4822"/></g><g><title>Job</title><rect fill="#000000" fill-opacity="0.00000" height="650.4143" width="8" x="774.8415" y="39.0679"/><line style="stroke:#181818;stroke-width:0.5;stroke-dasharray:5.0,5.0;" x1="778.3905" x2="778.3905" y1="39.0679" y2="689.4822"/></g><g><title>Storage</title><rect fill="#000000" fill-opacity="0.00000" height="650.4143" width="8" x="834.9684" y="39.0679"/><line style="stroke:#181818;stroke-width:0.5;stroke-dasharray:5.0,5.0;" x1="838.2925" x2="838.2925" y1="39.0679" y2="689.4822"/></g><g class="participant participant-head" data-participant="Validator"><rect fill="#E2E2F0" height="33.0679" rx="2.5" ry="2.5" style="stroke:#181818;stroke-width:0.5;" width="73.2478" x="37" y="5"/><text fill="#000000" font-family="sans-serif" font-size="14" lengthAdjust="spacing" textLength="59.2478" x="44" y="26.9659">Validator</text></g><g class="participant participant-tail" data-participant="Validator"><rect fill="#E2E2F0" height="33.0679" rx="2.5" ry="2.5" style="stroke:#181818;stroke-width:0.5;" width="73.2478" x="37" y="688.4822"/><text fill="#000000" font-family="sans-serif" font-size="14" lengthAdjust="spacing" textLength="59.2478" x="44" y="710.4482">Validator</text></g><g class="participant participant-head" data-participant="Miner"><rect fill="#E2E2F0" height="33.0679" rx="2.5" ry="2.5" style="stroke:#181818;stroke-width:0.5;" width="52.6398" x="336.6082" y="5"/><text fill="#000000" font-family="sans-serif" font-size="14" lengthAdjust="spacing" textLength="38.6398" x="343.6082" y="26.9659">Miner</text></g><g class="participant participant-tail" data-participant="Miner"><rect fill="#E2E2F0" height="33.0679" rx="2.5" ry="2.5" style="stroke:#181818;stroke-width:0.5;" width="52.6398" x="336.6082" y="688.4822"/><text fill="#000000" font-family="sans-serif" font-size="14" lengthAdjust="spacing" textLength="38.6398" x="343.6082" y="710.4482">Miner</text></g><g class="participant participant-head" data-participant="Executor"><rect fill="#E2E2F0" height="33.0679" rx="2.5" ry="2.5" style="stroke:#181818;stroke-width:0.5;" width="71.7638" x="616.3505" y="5"/><text fill="#000000" font-family="sans-serif" font-size="14" lengthAdjust="spacing" textLength="57.7638" x="623.3505" y="26.9659">Executor</text></g><g class="participant participant-tail" data-participant="Executor"><rect fill="#E2E2F0" height="33.0679" rx="2.5" ry="2.5" style="stroke:#181818;stroke-width:0.5;" width="71.7638" x="616.3505" y="688.4822"/><text fill="#000000" font-family="sans-serif" font-size="14" lengthAdjust="spacing" textLength="57.7638" x="623.3505" y="710.4482">Executor</text></g><g class="participant participant-head" data-participant="Job"><rect fill="#E2E2F0" height="33.0679" rx="2.5" ry="2.5" style="stroke:#181818;stroke-width:0.5;" width="34.9019" x="761.3905" y="5"/><text fill="#000000" font-family="sans-serif" font-size="14" lengthAdjust="spacing" textLength="20.9019" x="768.3905" y="26.9659">Job</text></g><g class="participant participant-tail" data-participant="Job"><rect fill="#E2E2F0" height="33.0679" rx="2.5" ry="2.5" style="stroke:#181818;stroke-width:0.5;" width="34.9019" x="761.3905" y="688.4822"/><text fill="#000000" font-family="sans-serif" font-size="14" lengthAdjust="spacing" textLength="20.9019" x="768.3905" y="710.4482">Job</text></g><g class="participant participant-head" data-participant="Storage"><rect fill="#E2E2F0" height="33.0679" rx="2.5" ry="2.5" style="stroke:#181818;stroke-width:0.5;" width="65.3518" x="806.2925" y="5"/><text fill="#000000" font-family="sans-serif" font-size="14" lengthAdjust="spacing" textLength="51.3518" x="813.2925" y="26.9659">Storage</text></g><g class="participant participant-tail" data-participant="Storage"><rect fill="#E2E2F0" height="33.0679" rx="2.5" ry="2.5" style="stroke:#181818;stroke-width:0.5;" width="65.3518" x="806.2925" y="688.4822"/><text fill="#000000" font-family="sans-serif" font-size="14" lengthAdjust="spacing" textLength="51.3518" x="813.2925" y="710.4482">Storage</text></g><g><title>Validator</title><rect fill="#FFFFFF" height="364.7662" style="stroke:#181818;stroke-width:1;" width="10" x="68.6239" y="262.01"/></g><g><title>Job</title><rect fill="#90EE90" height="69.412" style="stroke:#181818;stroke-width:1;" width="10" x="773.8415" y="428.5401"/></g><g class="message" data-participant-1="Validator" data-participant-2="Miner"><polygon fill="#181818" points="350.9282,68.7739,360.9282,72.7739,350.9282,76.7739,354.9282,72.7739" style="stroke:#181818;stroke-width:1;"/><line style="stroke:#181818;stroke-width:1;" x1="73.6239" x2="356.9282" y1="72.7739" y2="72.7739"/><text fill="#000000" font-family="sans-serif" font-size="13" lengthAdjust="spacing" textLength="133.5361" x="80.6239" y="66.9649">Send initial job details</text></g><g class="message" data-participant-1="Miner" data-participant-2="Miner"><line style="stroke:#181818;stroke-width:1;" x1="362.9282" x2="404.9282" y1="122.186" y2="122.186"/><line style="stroke:#181818;stroke-width:1;" x1="404.9282" x2="404.9282" y1="122.186" y2="135.186"/><line style="stroke:#181818;stroke-width:1;" x1="363.9282" x2="404.9282" y1="135.186" y2="135.186"/><polygon fill="#181818" points="373.9282,131.186,363.9282,135.186,373.9282,139.186,369.9282,135.186" style="stroke:#181818;stroke-width:1;"/><text fill="#000000" font-family="sans-serif" font-size="13" lengthAdjust="spacing" textLength="157.0141" x="369.9282" y="98.6709">Check for a free executor,</text><text fill="#000000" font-family="sans-serif" font-size="13" lengthAdjust="spacing" textLength="164.2942" x="369.9282" y="116.377">possibly spin up a new one</text></g><g class="message" data-participant-1="Miner" data-participant-2="Executor"><polygon fill="#181818" points="640.2324,162.892,650.2324,166.892,640.2324,170.892,644.2324,166.892" style="stroke:#181818;stroke-width:1;"/><line style="stroke:#181818;stroke-width:1;" x1="362.9282" x2="646.2324" y1="166.892" y2="166.892"/><text fill="#000000" font-family="sans-serif" font-size="13" lengthAdjust="spacing" textLength="130.6501" x="369.9282" y="161.083">Pass initial job details</text></g><g class="message" data-participant-1="Executor" data-participant-2="Miner"><polygon fill="#181818" points="373.9282,194.598,363.9282,198.598,373.9282,202.598,369.9282,198.598" style="stroke:#181818;stroke-width:1;"/><line style="stroke:#181818;stroke-width:1;" x1="367.9282" x2="651.2324" y1="198.598" y2="198.598"/><text fill="#000000" font-family="sans-serif" font-size="13" lengthAdjust="spacing" textLength="265.3043" x="379.9282" y="192.789">Report readiness (initial preparations done)</text></g><g class="message" data-participant-1="Miner" data-participant-2="Validator"><polygon fill="#181818" points="84.6239,226.304,74.6239,230.304,84.6239,234.304,80.6239,230.304" style="stroke:#181818;stroke-width:1;"/><line style="stroke:#181818;stroke-width:1;" x1="78.6239" x2="361.9282" y1="230.304" y2="230.304"/><text fill="#000000" font-family="sans-serif" font-size="13" lengthAdjust="spacing" textLength="265.3043" x="90.6239" y="224.495">Report readiness (initial preparations done)</text></g><g class="message" data-participant-1="Validator" data-participant-2="Miner"><polygon fill="#181818" points="350.9282,258.01,360.9282,262.01,350.9282,266.01,354.9282,262.01" style="stroke:#181818;stroke-width:1;"/><line style="stroke:#181818;stroke-width:1;" x1="78.6239" x2="356.9282" y1="262.01" y2="262.01"/><text fill="#000000" font-family="sans-serif" font-size="13" lengthAdjust="spacing" textLength="114.1011" x="85.6239" y="256.201">Send all job details</text></g><path d="M5,275.01 L5,302.01 L143,302.01 L143,285.01 L133,275.01 L5,275.01" fill="#FEFFDD" style="stroke:#181818;stroke-width:0.5;"/><path d="M133,275.01 L133,285.01 L143,285.01 L133,275.01" fill="#FEFFDD" style="stroke:#181818;stroke-width:0.5;"/><text fill="#000000" font-family="sans-serif" font-size="13" lengthAdjust="spacing" textLength="117.7281" x="11" y="293.907">Start counting time</text><g class="message" data-participant-1="Miner" data-participant-2="Executor"><polygon fill="#181818" points="640.2324,327.4221,650.2324,331.4221,640.2324,335.4221,644.2324,331.4221" style="stroke:#181818;stroke-width:1;"/><line style="stroke:#181818;stroke-width:1;" x1="362.9282" x2="646.2324" y1="331.4221" y2="331.4221"/><text fill="#000000" font-family="sans-serif" font-size="13" lengthAdjust="spacing" textLength="114.1011" x="369.9282" y="325.6131">Send all job details</text></g><path d="M606.3505,346.4221 L673.3335,346.4221 L673.3335,356.1281 L663.3335,366.1281 L606.3505,366.1281 L606.3505,346.4221" fill="#EEEEEE" style="stroke:#000000;stroke-width:1.5;"/><rect fill="none" height="51.412" style="stroke:#000000;stroke-width:1.5;" width="275.2938" x="606.3505" y="346.4221"/><text fill="#000000" font-family="sans-serif" font-size="13" font-weight="bold" lengthAdjust="spacing" textLength="21.983" x="621.3505" y="361.3191">opt</text><text fill="#000000" font-family="sans-serif" font-size="11" font-weight="bold" lengthAdjust="spacing" textLength="149.5659" x="688.3335" y="360.181">[job requires fetching data]</text><g class="message" data-participant-1="Executor" data-participant-2="Storage"><polygon fill="#181818" points="826.9684,385.8341,836.9684,389.8341,826.9684,393.8341,830.9684,389.8341" style="stroke:#181818;stroke-width:1;"/><line style="stroke:#181818;stroke-width:1;" x1="652.2324" x2="832.9684" y1="389.8341" y2="389.8341"/><text fill="#000000" font-family="sans-serif" font-size="13" lengthAdjust="spacing" textLength="63.7001" x="659.2324" y="384.0251">Fetch data</text></g><g class="message" data-participant-1="Executor" data-participant-2="Job"><polygon fill="#181818" points="761.8415,424.5401,771.8415,428.5401,761.8415,432.5401,765.8415,428.5401" style="stroke:#181818;stroke-width:1;"/><line style="stroke:#181818;stroke-width:1;" x1="652.2324" x2="767.8415" y1="428.5401" y2="428.5401"/><text fill="#000000" font-family="sans-serif" font-size="13" lengthAdjust="spacing" textLength="102.6091" x="659.2324" y="422.7311">Start Job process</text></g><path d="M757,441.5401 L757,468.5401 L799,468.5401 L799,451.5401 L789,441.5401 L757,441.5401" fill="#FEFFDD" style="stroke:#181818;stroke-width:0.5;"/><path d="M789,441.5401 L789,451.5401 L799,451.5401 L789,441.5401" fill="#FEFFDD" style="stroke:#181818;stroke-width:0.5;"/><text fill="#000000" font-family="sans-serif" font-size="13" lengthAdjust="spacing" textLength="21.437" x="763" y="460.4371">run</text><g class="message" data-participant-1="Job" data-participant-2="Executor"><polygon fill="#181818" points="663.2324,493.9521,653.2324,497.9521,663.2324,501.9521,659.2324,497.9521" style="stroke:#181818;stroke-width:1;"/><line style="stroke:#181818;stroke-width:1;" x1="657.2324" x2="777.8415" y1="497.9521" y2="497.9521"/><text fill="#000000" font-family="sans-serif" font-size="13" lengthAdjust="spacing" textLength="78.1951" x="669.2324" y="492.1431">Report finish</text></g><path d="M606.3505,512.9521 L673.3335,512.9521 L673.3335,522.6582 L663.3335,532.6582 L606.3505,532.6582 L606.3505,512.9521" fill="#EEEEEE" style="stroke:#000000;stroke-width:1.5;"/><rect fill="none" height="51.412" style="stroke:#000000;stroke-width:1.5;" width="275.2938" x="606.3505" y="512.9521"/><text fill="#000000" font-family="sans-serif" font-size="13" font-weight="bold" lengthAdjust="spacing" textLength="21.983" x="621.3505" y="527.8492">opt</text><text fill="#000000" font-family="sans-serif" font-size="11" font-weight="bold" lengthAdjust="spacing" textLength="158.9378" x="688.3335" y="526.7111">[job requires uploading data]</text><g class="message" data-participant-1="Executor" data-participant-2="Storage"><polygon fill="#181818" points="826.9684,552.3642,836.9684,556.3642,826.9684,560.3642,830.9684,556.3642" style="stroke:#181818;stroke-width:1;"/><line style="stroke:#181818;stroke-width:1;" x1="652.2324" x2="832.9684" y1="556.3642" y2="556.3642"/><text fill="#000000" font-family="sans-serif" font-size="13" lengthAdjust="spacing" textLength="74.6591" x="659.2324" y="550.5552">Upload data</text></g><g class="message" data-participant-1="Executor" data-participant-2="Miner"><polygon fill="#181818" points="373.9282,591.0702,363.9282,595.0702,373.9282,599.0702,369.9282,595.0702" style="stroke:#181818;stroke-width:1;"/><line style="stroke:#181818;stroke-width:1;" x1="367.9282" x2="651.2324" y1="595.0702" y2="595.0702"/><text fill="#000000" font-family="sans-serif" font-size="13" lengthAdjust="spacing" textLength="98.5401" x="379.9282" y="589.2612">Report job done</text></g><g class="message" data-participant-1="Miner" data-participant-2="Validator"><polygon fill="#181818" points="84.6239,622.7762,74.6239,626.7762,84.6239,630.7762,80.6239,626.7762" style="stroke:#181818;stroke-width:1;"/><line style="stroke:#181818;stroke-width:1;" x1="78.6239" x2="361.9282" y1="626.7762" y2="626.7762"/><text fill="#000000" font-family="sans-serif" font-size="13" lengthAdjust="spacing" textLength="98.5401" x="90.6239" y="620.9672">Report job done</text></g><g class="message" data-participant-1="Validator" data-participant-2="Validator"><line style="stroke:#181818;stroke-width:1;" x1="73.6239" x2="115.6239" y1="658.4822" y2="658.4822"/><line style="stroke:#181818;stroke-width:1;" x1="115.6239" x2="115.6239" y1="658.4822" y2="671.4822"/><line style="stroke:#181818;stroke-width:1;" x1="74.6239" x2="115.6239" y1="671.4822" y2="671.4822"/><polygon fill="#181818" points="84.6239,667.4822,74.6239,671.4822,84.6239,675.4822,80.6239,671.4822" style="stroke:#181818;stroke-width:1;"/><text fill="#000000" font-family="sans-serif" font-size="13" lengthAdjust="spacing" textLength="234.7542" x="80.6239" y="652.6732">Calculate score based time and output</text></g><!--SRC=[bL91JiGm3Bpd5PQuW0GVs0EN5HoGa10hE75nKxSDX2GapWA_notRDcKB4ZsbpdZ6dad0o4QRW8xX4QsfaNrKeQZU6aVBojK7wVmJTkEhnVzE0DYIKXFhnUL0jO4TkHgCCspGmhEle2P6OvCQxYVOjYFz0esFWD148g23xlcJ2pubKzbFIC4uo44WZjx1Enf9nY4tS8SfhSgDa4dndeAF396mbe9qdOvj8P8iXsoyIr2BpDceCwttp_PVR46xdD5v9l1xYb08xLYC1kspO-DQOFDA2ZMRFGfuJl78YLK5vGCFXKXlsKHAq13hhYSM6bGWt-pK8TODNFUWRuImgi9CUGdZY7AKtRqMC-O1-oASMDDst4gihjXnQ8tPAJcKWn-SRSJFrAcQIgwL1NAmli_WxmqU1jJg2iltCBXLFAtZo2T4CTgSGn5rqRf5gxFjaKdxI51Xedh84b1Yyfb3PlK5]--></g></svg>